<svg width="684" height="562" viewBox="0 0 684 562" fill="none" xmlns="http://www.w3.org/2000/svg">
<path d="M406.166 401.35C407.073 401.35 407.911 400.861 408.33 400.024C409.586 397.651 409.377 386.832 408.818 381.736C408.679 380.41 407.492 379.433 406.166 379.572C404.84 379.712 403.863 380.899 404.002 382.225C404.63 388.507 404.421 396.464 404.002 397.86C403.444 399.047 403.932 400.443 405.119 401.071C405.398 401.28 405.817 401.35 406.166 401.35Z" fill="white"/>
<path d="M432.202 228.455C432.341 228.455 432.411 228.455 432.551 228.455C433.877 228.316 434.854 227.059 434.645 225.733C434.156 222.173 428.502 216.171 424.384 214.007C423.197 213.379 421.732 213.867 421.103 215.054C420.475 216.24 420.964 217.706 422.15 218.334C425.64 220.149 429.619 224.965 429.828 226.361C429.898 227.618 430.945 228.455 432.202 228.455Z" fill="white"/>
<path d="M287.925 220.777C289.042 220.777 290.089 219.94 290.299 218.823C291.555 212.122 292.253 204.235 292.253 199.837C292.253 198.511 291.136 197.394 289.81 197.394C288.484 197.394 287.367 198.511 287.367 199.837C287.367 203.886 286.739 211.564 285.482 217.916C285.203 219.242 286.111 220.498 287.437 220.777C287.646 220.777 287.786 220.777 287.925 220.777Z" fill="white"/>
<path d="M548.698 558.4V368.893L548.559 351.094L532.295 350.745V379.363L531.248 558.4H548.698Z" fill="#BE906F"/>
<path d="M548.698 401.001V355.142L548.559 350.815L532.295 350.745V357.655L531.248 410.424L548.698 401.001Z" fill="#B37D56"/>
<path d="M548.698 451.257V405.398L532.295 414.961L531.248 460.75L548.698 451.257Z" fill="#B37D56"/>
<path d="M548.698 467.52V455.724L532.295 465.287L531.248 476.943L548.698 467.52Z" fill="#B37D56"/>
<path d="M531.248 560.843H548.698C550.024 560.843 551.141 559.726 551.141 558.4V368.893C551.141 367.567 550.024 366.45 548.698 366.45C547.371 366.45 546.255 367.567 546.255 368.893V555.957H533.691L534.738 379.363C534.738 378.037 533.691 376.92 532.295 376.92C530.968 376.92 529.852 378.037 529.852 379.363L528.805 558.4C528.805 559.028 529.084 559.656 529.503 560.145C529.991 560.564 530.619 560.843 531.248 560.843Z" fill="#895D3E"/>
<path d="M560.144 217.287C560.144 194.882 552.257 132.271 541.647 132.271C531.038 132.271 522.313 187.343 521.056 204.305C519.381 226.71 527.687 224.616 527.687 224.616C527.687 224.616 509.47 284.156 510.866 294.207C512.75 307.818 519.172 299.791 519.172 299.791C519.172 299.791 497.324 337.204 514.425 331.271C508.841 348.093 511.284 373.57 519.172 378.176C527.059 382.713 538.925 383.9 545.556 358.772C551.838 385.994 561.75 377.129 564.472 365.612C567.194 354.095 558.679 299.861 558.679 299.861C558.679 299.861 565.31 308.935 566.357 296.022C568.102 274.523 554.072 226.431 554.072 226.431C554.072 226.431 560.144 230.968 560.144 217.287Z" fill="#297254"/>
<path d="M527.758 383.202C529.642 383.202 531.527 382.853 533.272 382.085C538.297 379.991 542.346 374.966 545.487 367.148C548.279 375.105 551.839 379.154 556.166 379.154C561.89 379.154 565.519 372.174 566.915 366.171C569.149 356.469 564.123 319.684 562.029 305.235C562.727 305.375 563.495 305.445 564.333 305.166C567.823 304.188 568.591 299.512 568.87 296.161C570.336 277.734 560.843 241.159 557.562 229.363C557.841 229.293 558.19 229.153 558.539 229.014C561.331 227.618 562.658 223.849 562.658 217.287C562.658 206.538 560.843 185.459 557.353 165.984C555.538 155.724 553.514 147.557 551.35 141.624C548.488 133.597 545.417 129.898 541.718 129.898C537.879 129.898 532.085 133.178 525.524 161.447C522.034 176.664 519.382 194.882 518.684 204.235C517.846 215.333 519.312 222.522 523.011 225.594C523.57 226.082 524.128 226.361 524.617 226.641C520.778 239.274 507.236 285.273 508.493 294.696C509.261 300.489 511.075 303.7 513.937 304.537C512.751 306.841 511.355 309.563 510.098 312.425C503.956 326.245 505.142 330.433 506.887 332.597C507.865 333.784 509.261 334.482 511.006 334.482C506.748 351.443 508.981 375.175 517.986 380.41C521.266 382.225 524.617 383.202 527.758 383.202ZM545.557 356.329C544.44 356.329 543.463 357.097 543.183 358.144C540.391 368.823 536.273 375.594 531.317 377.618C528.107 378.944 524.477 378.456 520.359 376.082C514.147 372.523 511.145 348.721 516.659 332.108C516.939 331.201 516.729 330.224 516.031 329.596C515.333 328.967 514.356 328.688 513.518 329.037C511.424 329.735 510.657 329.526 510.517 329.386C510.517 329.386 508.702 327.013 514.356 314.379C517.427 307.469 521.127 301.117 521.196 301.047C521.825 299.931 521.545 298.535 520.498 297.837C519.451 297.139 517.986 297.348 517.218 298.325C516.59 299.093 515.543 299.791 515.194 299.791C515.194 299.791 513.937 299.163 513.239 293.928C512.262 286.948 522.732 249.116 529.991 225.384C530.27 224.477 530.131 223.5 529.433 222.871C528.805 222.243 527.967 222.034 527.06 222.313C526.92 222.313 526.431 222.243 525.873 221.755C524.826 220.777 522.453 217.078 523.43 204.584C524.128 195.44 526.711 177.571 530.131 162.564C536.483 135.133 541.369 134.784 541.578 134.784C542.974 134.784 547.72 140.577 552.397 166.892C555.817 185.877 557.632 207.097 557.632 217.357C557.632 223.779 556.236 224.756 556.236 224.756C556.096 224.756 555.747 224.686 555.538 224.477C554.7 223.849 553.584 223.849 552.676 224.407C551.839 225.035 551.42 226.082 551.699 227.129C551.839 227.618 565.519 275.082 563.844 295.882C563.565 299.023 563.007 300.14 562.797 300.559C562.239 300.349 561.192 299.372 560.564 298.535C559.866 297.627 558.679 297.278 557.632 297.697C556.585 298.116 555.957 299.233 556.166 300.349C558.539 315.287 564.123 356.12 562.029 365.194C560.703 370.917 557.841 374.407 556.027 374.407C554.002 374.407 550.652 370.219 547.86 358.353C547.72 357.097 546.743 356.329 545.557 356.329Z" fill="#1C3F29"/>
<path d="M547.861 166.543C549.047 166.543 550.164 165.635 550.304 164.379C550.792 160.61 548.14 150.489 545.767 145.742C545.208 144.556 543.742 143.997 542.486 144.626C541.299 145.184 540.741 146.65 541.369 147.906C543.533 152.373 545.697 161.447 545.418 163.751C545.278 165.077 546.185 166.333 547.581 166.473C547.651 166.543 547.791 166.543 547.861 166.543Z" fill="white"/>
<path d="M554.212 259.028C555.398 259.028 556.445 258.12 556.655 256.934C557.213 253.165 554.7 243.044 552.467 238.227C551.908 236.971 550.442 236.482 549.186 237.041C547.93 237.599 547.441 239.065 547.999 240.321C550.093 244.789 552.118 253.932 551.769 256.306C551.559 257.632 552.536 258.888 553.863 259.028C553.932 259.028 554.072 259.028 554.212 259.028Z" fill="white"/>
<path d="M557.492 366.171C558.539 366.171 559.516 365.473 559.796 364.426C560.912 360.796 560.145 350.396 558.679 345.301C558.33 343.974 556.934 343.276 555.677 343.625C554.351 343.974 553.653 345.37 554.002 346.627C555.328 351.373 555.817 360.726 555.119 362.96C554.7 364.216 555.468 365.612 556.724 366.031C557.004 366.101 557.213 366.171 557.492 366.171Z" fill="white"/>
<path d="M278.362 501.513C250.442 496.278 186.226 491.043 163.192 515.124C147.348 531.666 164.937 555.957 164.937 555.957H303.141C303.141 555.957 306.282 506.748 278.362 501.513Z" fill="#A9B1AC"/>
<path d="M164.937 558.4H303.141C304.398 558.4 305.515 557.423 305.584 556.097C305.724 554.003 308.516 504.654 278.781 499.07C264.263 496.348 240.88 493.835 218.823 494.812C191.252 496.069 171.987 502.351 161.447 513.379C154.328 520.848 152.373 530.829 155.794 542.416C158.306 550.862 162.774 557.074 162.983 557.353C163.402 557.981 164.17 558.4 164.937 558.4ZM300.768 553.514H166.264C163.332 548.977 152.443 529.852 165.007 516.799C174.5 506.888 193.206 500.955 219.102 499.768C240.81 498.791 263.704 501.234 277.944 503.886C300.07 508.074 300.908 544.021 300.768 553.514Z" fill="black"/>
<path d="M210.029 526.92C195.161 524.128 160.889 521.336 148.674 534.179C140.228 542.974 149.582 555.957 149.582 555.957H223.221C223.221 555.957 224.896 529.712 210.029 526.92Z" fill="#748178"/>
<path d="M149.581 558.4H223.22C224.477 558.4 225.593 557.423 225.663 556.097C225.733 554.91 227.269 527.618 210.447 524.477C208.492 524.128 162.773 515.752 146.859 532.434C139.041 540.601 143.927 552.258 147.557 557.353C148.046 557.981 148.813 558.4 149.581 558.4ZM220.847 553.514H150.907C149.093 550.582 144.625 541.927 150.419 535.855C160.889 524.896 191.531 525.943 209.609 529.293C219.8 531.248 220.847 547.441 220.847 553.514Z" fill="black"/>
<path d="M420.336 162.494C413.007 161.238 398.907 161.517 394.51 161.657C393.742 161.657 393.183 162.285 393.183 163.053V170.731C393.183 171.15 393.393 171.568 393.742 171.848L445.254 211.424C446.162 212.122 447.418 211.494 447.418 210.377C447.209 200.535 444.766 166.822 420.336 162.494Z" fill="#EA4815"/>
<path d="M446.091 214.216C446.65 214.216 447.278 214.077 447.767 213.797C449.023 213.169 449.861 211.843 449.791 210.377C449.581 199.768 446.859 164.728 420.684 160.121C413.355 158.865 399.814 159.074 394.37 159.214C392.276 159.284 390.67 160.959 390.67 163.053V170.731C390.67 171.917 391.229 173.034 392.136 173.802L443.648 213.379C444.486 213.937 445.324 214.216 446.091 214.216ZM419.916 164.937C440.856 168.637 444.346 196.417 444.905 208.074L395.626 170.242V164.1C400.721 163.96 413.355 163.751 419.916 164.937Z" fill="black"/>
<path d="M340.275 208.283C341.462 208.283 342.509 207.446 342.718 206.189L347.953 170.661C348.163 169.335 347.255 168.078 345.859 167.869C344.533 167.66 343.277 168.567 343.067 169.963L337.832 205.491C337.623 206.817 338.53 208.074 339.926 208.283C340.066 208.283 340.136 208.283 340.275 208.283Z" fill="#EA4815"/>
<path d="M308.097 355.91C302.373 358.493 281.992 364.705 276.198 367.218V433.179H249.674C249.674 433.179 233.132 355.142 247.441 342.578C261.75 330.014 297.836 318.637 318.707 308.935L334.342 342.578L308.097 355.91Z" fill="#87AEE9"/>
<path d="M249.744 435.552H276.268C277.594 435.552 278.711 434.435 278.711 433.109V368.823C281.782 367.637 286.947 365.892 291.903 364.216C298.813 361.913 305.933 359.54 309.074 358.074C309.074 358.074 309.144 358.074 309.144 358.004L335.458 344.672C336.645 344.044 337.134 342.648 336.575 341.462L320.94 307.818C320.382 306.562 318.916 306.073 317.729 306.631C311.308 309.633 303.49 312.774 295.184 316.054C276.826 323.383 256.026 331.69 245.835 340.624C239.204 346.487 237.529 363.518 240.74 392.765C243.043 413.705 247.231 433.388 247.231 433.598C247.58 434.784 248.557 435.552 249.744 435.552ZM273.825 430.666H251.768C250.651 425.222 247.58 409.168 245.696 392.206C241.717 356.678 246.184 346.976 249.116 344.323C258.678 335.947 279.06 327.781 297.068 320.591C304.537 317.59 311.587 314.798 317.659 312.076L331.27 341.392L307.05 353.677C304.118 355.003 297.138 357.306 290.368 359.61C284.086 361.704 278.083 363.728 275.291 364.914C274.383 365.333 273.825 366.171 273.825 367.148V430.666Z" fill="#518FFF"/>
<path d="M407.004 380.34C405.817 398.767 405.468 439.042 405.329 473.593H372.313C368.125 437.716 363.867 399.535 363.867 380.34H407.004Z" fill="#87AEE9"/>
<path d="M372.383 476.036H405.398C406.725 476.036 407.841 474.919 407.841 473.593C407.981 426.548 408.539 395.208 409.517 380.48C409.586 379.782 409.307 379.154 408.888 378.665C408.4 378.176 407.772 377.897 407.074 377.897H364.007C362.681 377.897 361.564 379.014 361.564 380.34C361.564 399.326 365.612 436.459 370.01 473.872C370.08 475.129 371.127 476.036 372.383 476.036ZM402.955 471.15H374.547C370.429 436.25 366.729 401.769 366.45 382.783H404.421C403.584 398.349 403.095 427.316 402.955 471.15Z" fill="#518FFF"/>
<path d="M372.383 429.549C373.43 429.549 374.407 428.851 374.686 427.874L376.291 422.709L378.385 426.897C379.153 428.502 380.828 429.27 382.573 428.921C384.318 428.572 385.505 427.176 385.645 425.431L386.133 418.032C386.203 416.706 385.226 415.519 383.83 415.45C382.504 415.38 381.317 416.357 381.247 417.753L381.038 421.313L379.502 418.311C378.804 416.915 377.338 416.078 375.803 416.217C374.267 416.357 372.941 417.404 372.452 418.87L370.009 426.478C369.591 427.734 370.289 429.13 371.615 429.549C371.894 429.479 372.103 429.549 372.383 429.549Z" fill="#EA4815"/>
<path d="M250.373 364.775C251.42 364.775 252.397 364.077 252.676 363.1L254.282 357.934L256.376 362.122C257.143 363.658 258.819 364.496 260.564 364.147C262.309 363.798 263.495 362.402 263.635 360.657L264.123 353.258C264.193 351.932 263.216 350.745 261.82 350.675C260.494 350.605 259.307 351.583 259.237 352.979L259.028 356.538L257.492 353.537C256.794 352.141 255.329 351.303 253.793 351.443C252.257 351.583 250.931 352.63 250.443 354.095L248 361.704C247.581 362.96 248.279 364.356 249.605 364.775C249.884 364.705 250.163 364.775 250.373 364.775Z" fill="#EA4815"/>
<path d="M414.682 285.273H392.415L324.919 288.274L286.878 310.959L315.147 365.752L351.443 356.678V380.061H383.272H414.682V285.273Z" fill="#FA9DC5"/>
<path d="M404.212 327.292C405.398 327.292 406.306 326.385 406.306 325.198C406.306 324.012 405.398 323.104 404.212 323.104C402.676 323.104 401.14 322.895 399.605 322.546C398.488 322.267 397.371 322.965 397.092 324.081C396.813 325.198 397.511 326.315 398.628 326.594C400.442 327.083 402.327 327.292 404.212 327.292ZM390.461 322.336C391.089 322.336 391.717 322.057 392.136 321.499C392.834 320.591 392.695 319.265 391.787 318.567C389.484 316.752 387.39 314.519 385.645 311.866C385.017 310.889 383.69 310.68 382.713 311.308C381.736 311.936 381.527 313.262 382.155 314.24C384.179 317.241 386.552 319.824 389.205 321.848C389.554 322.197 389.972 322.336 390.461 322.336ZM379.502 306.422C379.712 306.422 379.921 306.352 380.2 306.282C381.317 305.933 381.876 304.747 381.527 303.63C380.549 300.629 379.991 297.557 379.991 294.696C379.991 293.509 379.084 292.602 377.897 292.602C376.71 292.602 375.803 293.509 375.803 294.696C375.803 298.046 376.361 301.466 377.548 304.956C377.827 305.864 378.595 306.422 379.502 306.422Z" fill="#5E1D08"/>
<path d="M327.711 174.151C340.624 162.634 405.538 165.077 427.874 177.641C440.089 184.481 447.069 204.514 447.069 204.514C447.069 204.514 465.286 225.943 465.915 243.602C466.613 262.378 456.143 292.462 431.713 303.979C420.196 309.423 416.357 306.073 413.216 286.529C378.455 284.644 325.617 288.623 325.617 288.623C325.617 288.623 327.711 236.273 327.711 226.152C318.288 260.354 302.583 264.891 286.18 259.307C269.777 253.723 260.005 250.931 258.958 219.521C257.911 188.111 272.429 158.097 272.429 158.097L298.115 161.727C298.115 161.727 294.905 185.04 293.369 217.567C295.533 215.822 302.234 208.772 307.608 202.909C317.101 192.648 314.798 185.668 327.711 174.151Z" fill="#FCC63A"/>
<path d="M390.531 172.057L359.47 169.614L357.376 197.883L353.328 242.555L354.863 266.636L349.279 287.227H382.504C379.503 268.241 380.201 259.377 385.296 246.394C379.014 230.898 379.293 222.453 385.296 208.004C381.318 189.647 380.689 178.897 390.531 172.057Z" fill="#3C8656"/>
<path d="M372.313 277.106C372.522 277.106 372.802 277.106 373.011 277.036C374.337 276.617 375.035 275.291 374.686 273.965L373.36 269.498C372.941 268.172 371.615 267.474 370.289 267.823C368.963 268.241 368.265 269.568 368.614 270.894L369.94 275.361C370.289 276.408 371.266 277.106 372.313 277.106Z" fill="white"/>
<path d="M362.402 257.492C363.449 257.492 364.426 256.794 364.775 255.747L366.101 251.28C366.52 249.954 365.752 248.628 364.426 248.209C363.1 247.79 361.774 248.558 361.355 249.884L360.029 254.351C359.61 255.677 360.378 257.004 361.704 257.422C361.983 257.492 362.192 257.492 362.402 257.492Z" fill="white"/>
<path d="M374.128 239.135C374.338 239.135 374.617 239.135 374.826 239.065C376.153 238.646 376.851 237.32 376.502 235.994L375.175 231.527C374.757 230.2 373.43 229.502 372.104 229.851C370.778 230.27 370.08 231.596 370.429 232.923L371.755 237.39C372.104 238.437 373.081 239.135 374.128 239.135Z" fill="white"/>
<path d="M362.402 218.614C363.449 218.614 364.426 217.916 364.775 216.869L366.101 212.401C366.52 211.075 365.752 209.749 364.426 209.33C363.1 208.911 361.774 209.679 361.355 211.005L360.029 215.473C359.61 216.799 360.378 218.125 361.704 218.544C361.983 218.614 362.192 218.614 362.402 218.614Z" fill="white"/>
<path d="M372.802 195.998C373.012 195.998 373.291 195.998 373.5 195.929C374.826 195.51 375.524 194.184 375.175 192.857L373.849 188.39C373.43 187.064 372.104 186.366 370.778 186.715C369.452 187.134 368.754 188.46 369.103 189.786L370.429 194.253C370.778 195.3 371.755 195.998 372.802 195.998Z" fill="white"/>
<path d="M351.792 383.132H414.682C416.008 383.132 417.125 382.015 417.125 380.689V311.378C417.125 310.052 416.008 308.935 414.682 308.935C413.356 308.935 412.239 310.052 412.239 311.378V378.246H354.235L354.026 356.608C354.026 356.608 354.026 356.608 354.026 356.538L353.677 323.104C353.747 322.057 353.677 320.033 353.677 317.73C353.607 315.426 353.607 312.564 353.677 311.587C353.816 310.261 352.839 309.074 351.513 308.935C350.187 308.795 349 309.772 348.861 311.099C348.721 312.285 348.791 314.589 348.791 317.101L344.533 312.774C343.556 311.797 342.02 311.797 341.113 312.774C340.136 313.751 340.136 315.287 341.113 316.194L348.93 324.081L349.21 354.793L316.822 363.239L290.159 312.285L325.268 290.926C326.455 290.228 326.804 288.693 326.106 287.576C325.408 286.389 323.872 286.04 322.755 286.738L285.622 309.284C284.505 309.982 284.156 311.378 284.714 312.495L313.332 367.218C313.891 368.195 315.008 368.753 316.124 368.474L349.21 359.819L349.419 380.689C349.419 380.968 349.489 381.317 349.628 381.597C349.698 381.806 349.768 381.946 349.908 382.085C350.257 382.504 350.675 382.853 351.234 382.993C351.373 383.132 351.583 383.132 351.792 383.132Z" fill="#5E1D08"/>
<path d="M405.329 517.707V517.497C405.329 509.889 405.329 501.653 405.329 493.137C405.329 486.646 405.329 480.015 405.398 473.314H372.034C372.802 479.875 373.779 486.506 374.686 493.137C375.873 501.373 377.06 509.61 377.967 517.707H405.329Z" fill="#FA9DC5"/>
<path d="M377.967 520.15H405.329C406.655 520.15 407.772 519.033 407.772 517.707C407.772 510.098 407.772 501.862 407.772 493.346C407.772 493.277 407.772 493.207 407.772 493.137C407.772 493.067 407.772 492.997 407.772 492.928C407.772 486.506 407.772 479.945 407.842 473.314C407.842 472.686 407.563 472.057 407.144 471.569C406.655 471.08 406.097 470.871 405.399 470.871H372.034C371.336 470.871 370.638 471.15 370.22 471.708C369.731 472.197 369.522 472.895 369.591 473.593C370.429 480.573 371.476 487.762 372.453 494.742C373.57 502.42 374.687 510.308 375.524 517.986C375.664 519.242 376.711 520.15 377.967 520.15ZM402.886 515.264H380.131C379.363 508.772 378.386 502.071 377.479 495.58H402.886C402.886 502.42 402.886 509.051 402.886 515.264ZM402.886 490.694H376.781C376.571 489.019 376.292 487.344 376.083 485.668H402.956C402.886 487.413 402.886 489.089 402.886 490.694ZM402.886 480.782H375.385C375.175 479.107 374.966 477.432 374.757 475.757H402.956C402.956 477.432 402.886 479.107 402.886 480.782Z" fill="#F95D5F"/>
<path d="M427.874 307.12C428.083 307.12 448.884 306.911 452.164 286.529C462.355 278.711 468.637 262.239 467.869 244.998C467.869 244.928 467.869 244.928 467.869 244.858C467.102 229.153 460.61 214.495 449.582 203.537C434.645 166.892 408.19 165.426 393.742 167.869C393.463 167.939 393.183 168.009 392.904 168.148L388.018 171.08C387.879 171.15 387.809 171.219 387.669 171.289C387.111 171.708 374.617 182.457 382.364 207.446C376.99 217.776 378.316 238.018 382.295 245.905C377.688 257.004 378.386 280.456 381.038 286.878C381.527 288.134 382.993 288.693 384.249 288.204C385.505 287.716 386.064 286.25 385.575 284.993C383.481 279.828 382.853 258.818 386.413 248.837C395.766 251.838 401.978 251.42 412.448 247.371C413.705 246.883 414.333 245.487 413.844 244.23C413.356 242.974 411.96 242.346 410.703 242.834C400.931 246.603 395.626 246.813 386.692 243.811C383.551 237.948 381.876 219.94 386.343 210.517C396.813 212.332 403.304 211.843 413.984 208.772C415.31 208.423 416.008 207.027 415.659 205.77C415.31 204.444 413.914 203.746 412.658 204.095C402.606 207.027 396.813 207.376 386.971 205.701C380.829 185.389 389.484 176.454 390.74 175.268L395.068 172.755C410.703 170.242 431.643 173.872 444.556 204.235C440.787 206.817 438.553 207.236 434.714 207.166C433.388 207.097 432.271 208.213 432.202 209.54C432.202 210.866 433.249 211.983 434.575 212.052C439.67 212.122 442.881 211.215 447.278 208.283C456.492 217.916 462.006 230.34 462.983 243.742C457.818 246.045 451.536 246.324 443.928 244.579C442.602 244.3 441.276 245.068 440.996 246.394C440.717 247.72 441.485 249.046 442.811 249.326C450.699 251.14 457.33 251.001 463.123 248.977C462.914 262.937 457.609 276.199 449.652 282.55C444.626 280.247 442.183 278.293 438.623 273.756C437.786 272.709 436.25 272.499 435.203 273.337C434.156 274.174 433.947 275.71 434.784 276.757C438.763 281.783 441.764 284.295 447.278 286.808C444.277 302.164 428.712 302.443 428.014 302.443C426.687 302.443 425.571 303.56 425.571 304.886C425.431 306.073 426.548 307.12 427.874 307.12Z" fill="#CF8F2F"/>
<path d="M350.047 290.019C351.094 290.019 352.071 289.321 352.42 288.274C357.236 271.871 358.004 261.68 355.701 243.044C358.842 230.759 359.191 222.592 357.097 207.236C362.611 193.276 363.937 184.132 362.96 167.031C362.89 165.915 362.122 165.007 361.006 164.798C360.517 164.658 348.162 162.285 333.993 168.846C320.661 174.989 311.168 186.087 309.214 197.883C309.005 199.209 309.912 200.466 311.238 200.675C312.564 200.884 313.821 199.977 314.03 198.651C315.705 188.46 324.151 178.758 336.017 173.244C345.719 168.776 354.444 168.986 358.144 169.335C358.842 184.202 357.585 192.369 352.769 204.793C346.208 205.701 342.299 205.352 335.738 203.258C334.482 202.839 333.086 203.607 332.667 204.863C332.248 206.119 333.016 207.515 334.272 207.934C341.252 210.098 345.719 210.587 352.42 209.749C354.095 222.941 353.746 230.2 351.164 240.81C344.184 242.136 341.113 241.159 336.366 238.088C335.249 237.32 333.714 237.669 333.016 238.786C332.318 239.903 332.597 241.438 333.714 242.136C339.577 245.975 343.974 246.952 351.094 245.766C352.979 262.448 352.211 271.662 347.744 286.878C347.395 288.204 348.093 289.53 349.419 289.879C349.558 290.019 349.838 290.019 350.047 290.019Z" fill="#CF8F2F"/>
<path d="M296.929 264.263C301.885 264.263 306.771 262.937 311.238 260.214C321.569 254.072 328.619 241.787 330.084 227.408C330.224 226.082 329.247 224.896 327.921 224.756C326.594 224.616 325.408 225.594 325.268 226.92C323.942 239.763 317.8 250.652 308.795 256.026C303.211 259.377 296.999 260.214 290.787 258.539C293.16 255.259 294.556 251.14 294.556 247.092C294.556 245.766 293.439 244.649 292.113 244.649C290.787 244.649 289.67 245.766 289.67 247.092C289.67 250.791 287.995 254.77 285.412 257.353C280.177 258.051 275.361 255.957 271.103 251.071C263.565 242.415 259.377 226.152 261.611 215.403C268.311 217.567 272.779 216.799 279.34 214.495C280.596 214.077 281.294 212.681 280.806 211.354C280.387 210.098 278.991 209.4 277.665 209.889C271.522 212.052 268.032 212.471 262.169 210.447C260.773 193.346 266.776 171.848 273.686 161.029L295.394 163.541C293.37 177.083 291.415 199.977 291.345 217.497V228.804C291.345 230.131 292.462 231.247 293.788 231.247C295.115 231.247 296.231 230.131 296.231 228.804V218.474C302.653 212.052 309.493 204.374 309.563 204.305C310.471 203.327 310.331 201.722 309.354 200.884C308.377 199.977 306.771 200.117 305.934 201.094C305.864 201.164 301.397 206.189 296.371 211.494C296.79 194.044 298.744 173.383 300.629 161.866C300.768 161.238 300.559 160.54 300.14 159.982C299.721 159.423 299.163 159.074 298.465 159.004L272.709 156.003C271.801 155.933 270.964 156.282 270.405 157.05C262.588 168.288 255.398 192.439 257.353 211.983C253.584 224.267 258.19 243.881 267.264 254.351C272.709 260.563 279.2 263.286 286.18 262.239C289.81 263.565 293.37 264.263 296.929 264.263Z" fill="#CF8F2F"/>
<path d="M379.712 121.382C384.947 122.988 395.557 126.198 395.976 126.338C395.976 126.338 392.765 79.5022 372.104 85.2258C352.071 90.74 368.474 124.942 368.474 124.942L372.104 116.636L379.712 121.382Z" fill="#FA9DC5"/>
<path d="M396.534 139.181C401.769 140.787 409.447 140.438 409.866 140.577C409.866 140.577 415.729 132.341 411.611 120.824C407.492 109.307 393.881 104.491 393.881 104.491L396.045 130.735L396.534 139.181Z" fill="#EA4815"/>
<path d="M361.495 158.167C359.889 148.185 361.076 137.436 368.405 124.733L372.244 116.287L379.712 121.592L390.043 123.267L396.744 127.594C396.744 127.594 394.789 135.552 396.744 140.228C406.516 134.156 407.493 139.46 406.236 144.486C404.631 151.187 397.442 150.07 397.442 150.07C393.393 155.445 392.625 163.611 393.603 169.823C373.081 182.248 363.1 168.148 361.495 158.167Z" fill="#87AEE9"/>
<path d="M399.954 152.792C400.931 152.792 401.908 152.653 402.816 152.373C404.91 151.745 408.539 149.861 409.447 144.067C410.354 138.134 407.771 136.04 406.166 135.272C402.606 133.667 397.79 135.831 395.905 138.134C395.068 139.181 395.207 140.717 396.254 141.554C397.301 142.392 398.837 142.252 399.675 141.205C400.512 140.228 403.095 139.181 404.212 139.67C404.77 139.949 404.979 141.345 404.7 143.23C404.351 145.603 403.234 147.069 401.559 147.627C399.675 148.185 397.72 147.487 397.232 146.929C396.324 145.952 394.789 145.882 393.811 146.72C392.834 147.627 392.695 149.163 393.602 150.14C394.858 151.885 397.371 152.792 399.954 152.792Z" fill="#518FFF"/>
<path d="M379.293 177.292C383.551 177.292 388.856 175.966 395.207 172.127C396.045 171.638 396.534 170.661 396.324 169.684C395.487 164.1 396.185 156.282 399.675 151.536C400.512 150.489 400.233 148.953 399.186 148.116C398.139 147.278 396.603 147.557 395.766 148.604C391.508 154.328 390.67 162.634 391.229 168.707C384.319 172.615 378.316 173.453 373.43 171.219C367.776 168.637 364.914 162.355 364.146 157.818C362.681 148.883 363.169 141.694 369.661 130.037C369.94 129.758 370.219 129.339 370.428 128.781C370.428 128.711 370.498 128.641 370.568 128.362C370.568 128.292 370.638 128.223 370.638 128.153C370.638 128.083 370.638 128.083 370.638 128.013C370.917 126.966 371.545 124.663 372.871 119.777L372.941 119.847C374.965 121.522 378.246 124.314 383.69 124.872C388.856 125.361 392.276 126.827 393.393 128.851C394.23 130.386 393.951 132.55 392.485 135.342C391.857 136.529 392.346 137.995 393.532 138.623C394.719 139.251 396.185 138.762 396.813 137.576C399.046 133.248 399.326 129.549 397.65 126.547C395.696 122.918 391.089 120.754 384.109 120.056C380.2 119.637 377.757 117.613 376.012 116.147C374.547 114.891 373.081 113.634 371.126 114.263C369.312 114.821 368.614 116.636 368.055 118.52L366.031 125.849C365.961 126.059 365.891 126.338 365.822 126.547C358.144 140.019 357.515 148.465 359.191 158.586C360.098 164.309 363.797 172.266 371.266 175.687C373.5 176.594 376.082 177.292 379.293 177.292Z" fill="#518FFF"/>
<path d="M387.739 137.576C388.088 137.576 388.437 137.506 388.786 137.297C389.973 136.738 390.531 135.272 389.903 134.016C388.298 130.666 384.11 128.362 379.224 130.386C377.967 130.875 377.409 132.341 377.898 133.597C378.386 134.854 379.852 135.412 381.108 134.923C383.342 134.016 384.947 134.923 385.576 136.18C385.994 137.087 386.832 137.576 387.739 137.576Z" fill="black"/>
<path d="M364.915 132.76C365.473 132.76 366.101 132.55 366.52 132.131C367.916 130.875 369.172 131.224 369.801 131.852C370.778 132.829 372.313 132.76 373.221 131.852C374.198 130.875 374.128 129.339 373.221 128.432C370.499 125.71 366.241 125.78 363.239 128.572C362.262 129.479 362.123 131.015 363.03 131.992C363.588 132.48 364.217 132.76 364.915 132.76Z" fill="black"/>
<path d="M398.279 151.257C391.299 150.21 393.044 145.114 396.604 138.064C397.651 135.97 394.37 133.178 392.905 136.668C387.949 148.604 373.78 145.952 370.778 145.184C367.777 144.416 362.751 143.648 364.287 138.832L361.704 138.902C361.704 138.902 347.674 151.675 354.096 164.379C360.517 177.083 371.197 176.943 380.899 172.266C390.601 167.59 393.114 161.866 393.114 161.866L398.279 151.257Z" fill="#518FFF"/>
<path d="M370.638 154.607C372.243 154.607 373.988 154.258 375.733 153.49C376.99 152.932 377.548 151.536 376.99 150.279C376.431 149.023 375.035 148.465 373.779 149.023C370.987 150.21 368.614 149.93 367.846 148.325C367.287 147.138 365.822 146.58 364.565 147.138C363.309 147.697 362.82 149.163 363.379 150.419C364.705 153.141 367.427 154.607 370.638 154.607Z" fill="black"/>
<path d="M394.579 153.351C394.998 153.351 395.417 153.211 395.836 153.002C397.022 152.304 397.371 150.838 396.743 149.651C395.557 147.557 394.579 144.416 397.651 138.413C398.279 137.227 397.79 135.761 396.604 135.133C395.417 134.505 393.951 134.993 393.323 136.18C390.112 142.322 389.903 147.557 392.485 152.094C392.904 152.932 393.742 153.351 394.579 153.351Z" fill="#0B62E5"/>
<path d="M370.708 141.764C363.169 142.671 366.38 148.325 370.429 148.604C374.407 148.883 375.524 146.51 376.431 143.299C377.339 138.762 376.222 136.878 374.826 136.599C373.36 136.319 371.685 138.553 370.708 141.764Z" fill="#EA4815"/>
<path d="M408.19 143.928C408.609 143.788 418.451 140.438 415.03 123.057C411.75 106.305 393.183 101.35 392.415 101.14L391.229 105.887C391.368 105.956 407.632 110.284 410.284 124.035C412.797 136.948 406.934 139.251 406.654 139.391L408.19 143.928Z" fill="#518FFF"/>
<path d="M380.935 142.847C379.672 142.271 379.232 140.524 379.952 138.946C380.672 137.368 382.279 136.555 383.542 137.131C384.805 137.707 385.245 139.453 384.525 141.032C383.805 142.61 382.198 143.423 380.935 142.847Z" fill="black"/>
<path d="M366.812 138.893C365.584 138.333 365.147 136.657 365.835 135.149C366.522 133.64 368.075 132.872 369.303 133.432C370.53 133.992 370.968 135.668 370.28 137.176C369.592 138.684 368.039 139.453 366.812 138.893Z" fill="black"/>
<path d="M396.534 132.341C397.86 132.341 398.907 131.294 398.977 129.968C398.977 129.549 399.256 119.777 395.487 105.817C392.834 95.9052 386.552 84.807 378.386 82.5036C375.454 81.666 370.847 81.5962 366.031 86.1332C353.956 97.4408 364.984 124.663 365.473 125.78C365.961 127.036 367.427 127.594 368.684 127.106C369.94 126.617 370.498 125.151 370.01 123.895C367.148 116.915 361.424 97.1616 369.451 89.693C372.034 87.25 374.547 86.4822 377.129 87.1802C383.132 88.9252 388.577 98.4878 390.88 107.073C394.44 120.335 394.161 129.758 394.161 129.828C394.091 131.154 395.208 132.271 396.534 132.341Z" fill="#518FFF"/>
<path d="M412.518 285.831C413.286 285.831 414.123 285.412 414.542 284.714C414.891 284.156 422.988 271.731 425.361 262.308C428.083 251.28 425.501 233.83 425.431 233.062C425.222 231.736 423.965 230.829 422.639 231.038C421.313 231.247 420.405 232.504 420.615 233.83C420.615 233.97 423.197 251.001 420.685 261.122C418.521 269.707 410.633 281.922 410.564 281.992C409.796 283.109 410.145 284.644 411.262 285.342C411.611 285.691 412.029 285.831 412.518 285.831Z" fill="#CF8F2F"/>
<path d="M328.758 286.948C328.758 286.948 329.246 263.914 329.456 252.746C329.735 238.367 330.503 221.196 330.503 221.057C330.572 219.73 329.525 218.544 328.199 218.544C326.803 218.474 325.686 219.521 325.617 220.847C325.617 220.987 324.849 238.227 324.57 252.676C324.36 263.844 323.872 286.878 323.872 286.878L328.758 286.948Z" fill="#CF8F2F"/>
<path d="M402.467 307.329C410.913 306.562 417.613 311.936 417.613 311.936C429.759 312.774 432.76 293.509 422.709 286.529C412.727 279.619 401.699 283.946 396.813 290.647C391.997 297.348 394.021 308.097 402.467 307.329Z" fill="#87AEE9"/>
<path d="M418.382 314.379C423.826 314.379 428.154 311.029 430.178 305.305C432.481 298.814 431.085 289.321 424.175 284.505C413.426 277.036 400.862 281.015 394.929 289.181C391.509 293.858 390.88 300.489 393.463 304.956C395.348 308.307 398.768 310.052 402.816 309.703C410.215 309.005 416.148 313.751 416.218 313.751C416.637 314.1 417.055 314.24 417.614 314.309C417.753 314.379 418.033 314.379 418.382 314.379ZM411.96 285.482C414.961 285.482 418.172 286.389 421.313 288.553C426.269 291.973 427.176 298.953 425.501 303.77C424.873 305.515 422.988 309.493 418.382 309.563C416.357 308.097 410.006 304.258 402.188 304.956C400.094 305.166 398.489 304.398 397.581 302.653C395.976 299.791 396.464 295.254 398.768 292.113C401.35 288.623 406.306 285.482 411.96 285.482Z" fill="#518FFF"/>
<path d="M298.675 125.431C301.816 134.854 301.956 148.814 301.048 157.818C300.141 166.822 275.362 165.775 273.477 156.422C271.593 147.069 274.664 126.338 279.689 122.918C284.715 119.498 295.534 116.008 298.675 125.431Z" fill="#87AEE9"/>
<path d="M288.833 166.473C289.321 166.473 289.81 166.473 290.299 166.403C297.907 166.054 302.932 162.843 303.421 158.027C304.328 148.814 304.259 134.574 300.978 124.593C299.791 121.033 297.488 118.52 294.277 117.473C288.484 115.519 281.504 118.66 278.293 120.894C272.011 125.221 269.079 147.069 271.034 156.91C272.36 163.332 280.736 166.473 288.833 166.473ZM290.299 121.801C291.136 121.801 291.974 121.941 292.672 122.15C294.417 122.708 295.603 124.035 296.301 126.198C299.163 134.784 299.512 148.185 298.535 157.608C298.326 159.702 294.836 161.378 290.019 161.587C283.039 161.936 276.478 159.353 275.85 155.933C273.896 146.231 277.595 127.315 281.015 124.942C283.598 123.197 287.297 121.801 290.299 121.801Z" fill="#518FFF"/>
<path d="M212.471 117.892C226.78 117.892 322.057 127.315 344.393 131.782C353.467 133.597 352.42 146.859 344.393 147.208C292.741 149.442 263.983 148.953 212.471 148.953C196.766 148.953 198.162 117.892 212.471 117.892Z" fill="#FA9DC5"/>
<path d="M254.909 151.396C283.876 151.396 308.725 151.187 344.533 149.581C349.279 149.372 352.839 145.673 353.258 140.507C353.607 135.97 351.164 130.526 344.882 129.27C321.987 124.733 226.78 115.379 212.471 115.379C203.467 115.379 198.79 124.663 198.79 133.876C198.79 138.344 199.907 142.462 201.931 145.533C204.444 149.302 208.074 151.257 212.471 151.257C220.847 151.257 228.595 151.257 235.924 151.257C242.555 151.396 248.767 151.396 254.909 151.396ZM212.471 120.335C225.873 120.335 321.638 129.688 343.904 134.156C347.464 134.854 348.511 137.855 348.302 140.228C348.162 142.252 346.976 144.695 344.253 144.765C301.047 146.65 273.686 146.58 235.924 146.51C228.595 146.51 220.847 146.51 212.471 146.51C209.749 146.51 207.585 145.324 205.98 142.95C204.444 140.647 203.606 137.506 203.606 133.946C203.676 127.315 206.747 120.335 212.471 120.335Z" fill="#F95D5F"/>
<path d="M371.685 530.061C371.685 530.061 353.118 517.707 341.252 530.061C334.482 537.111 337.413 544.44 341.252 549.396H405.538V517.637H377.478L371.685 530.061Z" fill="#FCC63A"/>
<path d="M341.253 551.909H405.538C406.865 551.909 407.981 550.792 407.981 549.466V517.707C407.981 516.38 406.865 515.264 405.538 515.264H377.479C376.502 515.264 375.664 515.822 375.245 516.66L370.638 526.571C362.821 522.313 348.931 518.544 339.508 528.386C333.295 534.877 333.226 542.904 339.298 550.931C339.787 551.56 340.485 551.909 341.253 551.909ZM403.095 547.023H342.509C338.53 541.299 338.67 536.273 342.998 531.806C353.328 521.057 369.661 531.667 370.359 532.155C370.987 532.574 371.685 532.644 372.383 532.504C373.081 532.295 373.64 531.806 373.919 531.178L379.014 520.219H403.095V547.023Z" fill="#CF8F2F"/>
<path d="M396.673 541.369C397.441 541.369 398.209 541.02 398.698 540.392C400.373 538.088 400.582 532.504 399.605 529.642C399.186 528.386 397.79 527.688 396.534 528.107C395.277 528.526 394.579 529.922 394.998 531.178C395.626 533.063 395.208 536.692 394.719 537.46C393.951 538.577 394.161 540.043 395.277 540.88C395.696 541.159 396.185 541.369 396.673 541.369Z" fill="white"/>
<path d="M366.729 523.779H383.551C384.877 523.779 385.994 522.663 385.994 521.336C385.994 520.01 384.877 518.893 383.551 518.893H366.729C365.403 518.893 364.286 520.01 364.286 521.336C364.286 522.663 365.333 523.779 366.729 523.779Z" fill="black"/>
<path d="M366.729 529.573H383.551C384.877 529.573 385.994 528.456 385.994 527.13C385.994 525.803 384.877 524.687 383.551 524.687H366.729C365.403 524.687 364.286 525.803 364.286 527.13C364.286 528.456 365.333 529.573 366.729 529.573Z" fill="black"/>
<path d="M347.534 555.329H405.468V549.047H341.182C335.598 555.329 347.534 555.329 347.534 555.329Z" fill="#895D3E"/>
<path d="M347.534 557.772H405.468C406.794 557.772 407.911 556.655 407.911 555.329V549.047C407.911 547.721 406.794 546.604 405.468 546.604H341.182C340.484 546.604 339.856 546.883 339.368 547.441C336.855 550.303 336.994 552.467 337.623 553.863C339.298 557.493 345.65 557.772 347.534 557.772ZM403.095 552.886H347.604C345.51 552.886 342.997 552.397 342.299 551.839C342.369 551.769 342.369 551.629 342.509 551.49H403.165V552.886H403.095Z" fill="#432D1E"/>
<path d="M301.326 154.537C301.326 154.537 302.862 142.671 297.487 142.322C291.903 141.973 292.601 150.349 292.601 150.349L301.326 154.537Z" fill="#87AEE9"/>
<path d="M301.326 156.98C302.513 156.98 303.56 156.073 303.769 154.816C303.979 153.351 304.747 145.673 301.675 141.903C300.628 140.647 299.232 139.949 297.627 139.809C295.673 139.67 293.928 140.298 292.601 141.624C289.74 144.556 290.089 149.861 290.158 150.489C290.298 151.815 291.415 152.862 292.811 152.722C294.137 152.583 295.184 151.396 295.044 150.07C294.975 148.883 295.114 146.091 296.161 145.044C296.371 144.835 296.65 144.626 297.348 144.695C297.557 144.695 297.697 144.765 297.906 145.044C299.163 146.58 299.232 151.396 298.883 154.188C298.744 155.514 299.651 156.771 300.977 156.91C301.117 156.98 301.187 156.98 301.326 156.98Z" fill="#518FFF"/>
<path d="M298.674 125.431C298.674 125.431 300.768 132.062 293.09 131.713C285.412 131.364 272.569 127.036 280.386 122.569C288.134 118.102 295.952 116.775 298.674 125.431Z" fill="#87AEE9"/>
<path d="M293.648 134.156C296.51 134.156 298.674 133.248 300 131.503C302.164 128.711 301.117 125.082 300.977 124.663C299.791 120.894 297.697 118.451 294.765 117.264C290.786 115.728 285.482 116.775 279.13 120.405C275.361 122.569 275.291 125.082 275.64 126.408C276.896 131.643 288.064 133.876 293.02 134.156C293.229 134.156 293.439 134.156 293.648 134.156ZM296.37 126.198C296.51 126.757 296.65 128.013 296.231 128.641C295.812 129.13 294.765 129.409 293.299 129.339C287.645 129.06 281.712 126.896 280.596 125.5C280.735 125.361 281.084 125.082 281.643 124.733C286.529 121.941 290.577 120.963 293.02 121.941C294.556 122.499 295.603 123.895 296.37 126.198Z" fill="#518FFF"/>
<path d="M93.8113 560.843H604.189C605.515 560.843 606.632 559.726 606.632 558.4C606.632 557.074 605.515 555.957 604.189 555.957H93.8113C92.4851 555.957 91.3683 557.074 91.3683 558.4C91.3683 559.726 92.4851 560.843 93.8113 560.843Z" fill="#3C8656"/>
<path d="M406.166 373.779C407.073 373.779 407.911 373.29 408.33 372.453C409.586 370.08 409.377 359.261 408.818 354.165C408.679 352.839 407.492 351.862 406.166 352.001C404.84 352.141 403.863 353.328 404.002 354.654C404.63 360.936 404.421 368.893 404.002 370.289C403.444 371.476 403.932 372.872 405.119 373.5C405.398 373.709 405.817 373.779 406.166 373.779Z" fill="white"/>
<path d="M322.127 354.165C325.338 354.165 334.691 350.605 339.089 348.511C340.275 347.953 340.834 346.487 340.275 345.231C339.717 344.044 338.251 343.486 336.995 344.044C331.271 346.766 323.663 349.14 322.267 349.209C321.011 349.07 319.824 349.977 319.615 351.303C319.405 352.63 320.382 353.886 321.709 354.095C321.848 354.165 321.988 354.165 322.127 354.165Z" fill="white"/>
<path d="M432.202 200.954C432.341 200.954 432.411 200.954 432.551 200.954C433.877 200.815 434.854 199.558 434.645 198.232C434.156 194.672 428.502 188.669 424.384 186.506C423.197 185.877 421.732 186.366 421.103 187.553C420.475 188.739 420.964 190.205 422.15 190.833C425.64 192.648 429.619 197.464 429.828 198.86C429.898 200.047 430.945 200.954 432.202 200.954Z" fill="white"/>
<path d="M454.677 238.297C455.794 238.297 456.841 237.46 457.05 236.343C457.748 232.783 454.188 225.384 450.978 222.034C450.07 221.057 448.465 221.057 447.557 221.964C446.58 222.871 446.58 224.477 447.488 225.384C450.21 228.176 452.513 234.039 452.304 235.435C452.025 236.762 452.932 238.018 454.258 238.297C454.398 238.297 454.537 238.297 454.677 238.297Z" fill="white"/>
<path d="M394.788 238.786C398.069 238.786 401.699 238.158 404.142 237.18C405.398 236.692 405.956 235.226 405.468 233.97C404.979 232.713 403.513 232.155 402.257 232.643C398.627 234.109 392.345 234.109 391.159 233.411C390.042 232.713 388.506 233.062 387.808 234.179C387.11 235.296 387.459 236.831 388.576 237.529C389.902 238.437 392.206 238.786 394.788 238.786Z" fill="white"/>
<path d="M395.766 201.792C399.047 201.792 402.676 201.164 405.119 200.186C406.376 199.698 406.934 198.232 406.445 196.976C405.957 195.719 404.491 195.161 403.235 195.649C399.605 197.115 393.323 197.115 392.136 196.417C391.02 195.719 389.484 196.068 388.786 197.185C388.088 198.302 388.437 199.837 389.554 200.535C390.95 201.373 393.253 201.792 395.766 201.792Z" fill="white"/>
<path d="M446.441 273.058C446.86 273.058 447.279 272.918 447.698 272.709C450.839 270.824 453.98 263.286 454.329 258.609C454.398 257.283 453.421 256.096 452.095 255.957C450.769 255.887 449.582 256.864 449.443 258.19C449.163 262.099 446.302 267.683 445.115 268.451C443.928 269.149 443.579 270.615 444.277 271.801C444.836 272.639 445.673 273.058 446.441 273.058Z" fill="white"/>
<path d="M287.925 193.206C289.042 193.206 290.089 192.369 290.299 191.252C291.555 184.551 292.253 176.664 292.253 172.266C292.253 170.94 291.136 169.823 289.81 169.823C288.484 169.823 287.367 170.94 287.367 172.266C287.367 176.315 286.739 183.993 285.482 190.345C285.203 191.671 286.111 192.927 287.437 193.206C287.646 193.206 287.786 193.206 287.925 193.206Z" fill="white"/>
<path d="M278.432 460.75V460.54C278.432 452.932 278.432 444.696 278.432 436.18C278.432 429.689 278.432 423.058 278.502 416.357H245.138C245.905 422.918 246.883 429.549 247.79 436.18C248.977 444.417 250.163 452.653 251.071 460.75H278.432Z" fill="#FA9DC5"/>
<path d="M251.071 463.193H278.433C279.759 463.193 280.876 462.076 280.876 460.75C280.876 453.142 280.876 444.905 280.876 436.39C280.876 436.32 280.876 436.25 280.876 436.18C280.876 436.11 280.876 436.041 280.876 435.971C280.876 429.549 280.876 422.988 280.945 416.357C280.945 415.729 280.666 415.101 280.247 414.612C279.759 414.123 279.2 413.914 278.502 413.914H245.138C244.44 413.914 243.742 414.193 243.323 414.752C242.834 415.24 242.625 415.938 242.695 416.636C243.533 423.616 244.58 430.806 245.557 437.786C246.674 445.464 247.79 453.351 248.628 461.029C248.768 462.216 249.815 463.193 251.071 463.193ZM275.99 458.307H253.235C252.467 451.815 251.49 445.115 250.582 438.623H275.99C275.99 445.464 275.99 452.025 275.99 458.307ZM275.99 433.737H249.884C249.675 432.062 249.396 430.387 249.186 428.712H276.059C276.059 430.387 275.99 432.062 275.99 433.737ZM276.059 423.826H248.488C248.279 422.15 248.069 420.475 247.86 418.8H276.059C276.059 420.475 276.059 422.15 276.059 423.826Z" fill="#F95D5F"/>
<path d="M245.416 473.104C245.416 473.104 226.849 460.75 214.983 473.104C208.213 480.154 211.144 487.483 214.983 492.439H279.199V460.68H251.14L245.416 473.104Z" fill="#FCC63A"/>
<path d="M214.914 494.952H279.2C280.526 494.952 281.643 493.835 281.643 492.509V460.75C281.643 459.424 280.526 458.307 279.2 458.307H251.14C250.163 458.307 249.325 458.865 248.906 459.703L244.3 469.614C236.482 465.357 222.592 461.587 213.169 471.429C206.957 477.921 206.887 485.948 212.959 493.975C213.448 494.533 214.146 494.952 214.914 494.952ZM276.757 490.066H216.17C212.192 484.342 212.401 479.317 216.659 474.849C227.059 464.1 243.811 475.059 244.02 475.198C244.649 475.617 245.347 475.687 246.045 475.547C246.743 475.338 247.301 474.849 247.58 474.221L252.676 463.263H276.757V490.066Z" fill="#CF8F2F"/>
<path d="M221.265 498.372H279.199V492.09H214.913C209.26 498.372 221.265 498.372 221.265 498.372Z" fill="#895D3E"/>
<path d="M221.266 500.815H279.2C280.526 500.815 281.643 499.698 281.643 498.372V492.09C281.643 490.764 280.526 489.647 279.2 489.647H214.914C214.216 489.647 213.588 489.926 213.099 490.485C210.586 493.346 210.726 495.51 211.354 496.906C213.029 500.536 219.311 500.815 221.266 500.815ZM276.757 495.929H221.266C219.172 495.929 216.659 495.44 215.961 494.882C216.031 494.812 216.031 494.673 216.17 494.533H276.826V495.929H276.757Z" fill="#432D1E"/>
<path d="M239.833 466.822H256.655C257.981 466.822 259.098 465.706 259.098 464.379C259.098 463.053 257.981 461.936 256.655 461.936H239.833C238.507 461.936 237.39 463.053 237.39 464.379C237.39 465.706 238.507 466.822 239.833 466.822Z" fill="black"/>
<path d="M239.833 472.546H256.655C257.981 472.546 259.098 471.429 259.098 470.103C259.098 468.777 257.981 467.66 256.655 467.66H239.833C238.507 467.66 237.39 468.777 237.39 470.103C237.39 471.429 238.507 472.546 239.833 472.546Z" fill="black"/>
<path d="M233.675 152.018C226.738 151.85 221.311 143.592 221.553 133.572C221.795 123.552 227.614 115.565 234.551 115.733C241.488 115.9 246.915 124.159 246.673 134.178C246.431 144.198 240.612 152.185 233.675 152.018Z" fill="#F95D5F"/>
<path d="M235.924 115.728L212.331 110.982L211.284 155.654L235.086 152.024L235.924 115.728Z" fill="#F95D5F"/>
<path d="M210.889 155.646C202.989 155.455 196.826 145.303 197.124 132.971C197.422 120.639 204.067 110.797 211.968 110.987C219.868 111.178 226.031 121.33 225.733 133.662C225.435 145.994 218.79 155.837 210.889 155.646Z" fill="#F95D5F"/>
<path d="M211.081 147.9C205.994 147.778 202.026 141.242 202.218 133.304C202.409 125.365 206.689 119.029 211.776 119.152C216.863 119.274 220.831 125.81 220.639 133.748C220.447 141.687 216.168 148.023 211.081 147.9Z" fill="white"/>
<path d="M250.582 102.606C251.349 102.606 252.117 102.257 252.536 101.629L268.171 79.9908C268.939 78.874 268.73 77.3384 267.613 76.5706C266.496 75.8028 264.96 76.0122 264.193 77.129L248.557 98.767C247.79 99.8838 247.999 101.419 249.116 102.187C249.535 102.466 250.093 102.606 250.582 102.606ZM227.548 97.5106C228.595 97.5106 229.572 96.8126 229.851 95.8354L238.157 69.5208C238.576 68.2644 237.878 66.8684 236.552 66.4496C235.295 66.0308 233.899 66.7288 233.481 68.055L225.174 94.3696C224.756 95.626 225.454 97.022 226.78 97.4408C227.059 97.5106 227.338 97.5106 227.548 97.5106ZM202.001 95.626C203.327 95.626 204.444 94.5092 204.444 93.183V68.753C204.444 67.4268 203.327 66.31 202.001 66.31C200.675 66.31 199.558 67.4268 199.558 68.753V93.1132C199.558 94.5092 200.675 95.626 202.001 95.626Z" fill="white"/>
<path d="M499.07 507.237C509.121 501.373 500.955 493.975 490.694 499C483.575 502.42 478.549 514.007 476.036 529.084V551.071H477.851H485.738C485.599 527.967 489.019 513.1 499.07 507.237Z" fill="#2C633F"/>
<path d="M476.036 553.514H485.668C486.297 553.514 486.925 553.235 487.413 552.816C487.902 552.327 488.111 551.699 488.111 551.071C487.972 527.199 491.671 514.286 500.257 509.331C506.259 505.841 506.888 501.653 505.422 498.861C503.398 495.022 496.906 493.207 489.577 496.767C482.039 500.466 476.385 511.774 473.593 528.665C473.593 528.805 473.593 528.944 473.593 529.084V551.071C473.593 552.397 474.71 553.514 476.036 553.514ZM483.295 548.628H478.549V529.293C480.992 514.566 485.948 504.026 491.811 501.164C496.697 498.791 500.536 499.908 501.164 501.164C501.583 501.932 500.606 503.537 497.883 505.073C487.972 510.866 483.435 524.338 483.295 548.628Z" fill="#1C4028"/>
<path d="M453.77 490.764C468.777 496.697 477.781 521.336 477.851 551.071H465.985C466.194 523.64 458.656 503.328 446.441 499.14C434.295 494.952 438.832 484.831 453.77 490.764Z" fill="#3C8656"/>
<path d="M465.985 553.514H477.851C478.479 553.514 479.107 553.235 479.596 552.816C480.085 552.327 480.294 551.769 480.294 551.071C480.224 519.172 470.173 494.603 454.677 488.53C447.977 485.878 442.323 485.878 439.112 488.46C437.437 489.787 436.739 491.741 437.088 493.835C437.646 497.046 440.787 499.838 445.673 501.513C456.771 505.282 463.751 524.756 463.542 551.141C463.542 551.769 463.821 552.397 464.24 552.886C464.729 553.235 465.357 553.514 465.985 553.514ZM475.408 548.628H468.498C468.288 520.987 460.261 501.234 447.348 496.836C443.44 495.51 442.113 493.765 441.974 492.928C441.904 492.718 441.904 492.509 442.323 492.23C443.37 491.392 446.79 490.624 453.002 493.067C465.915 498.232 474.85 520.359 475.408 548.628Z" fill="#1C3F29"/>
<path d="M453.979 555.957H497.255C498.581 555.957 499.698 554.84 499.698 553.514C499.698 552.188 498.581 551.071 497.255 551.071H453.979C452.653 551.071 451.536 552.188 451.536 553.514C451.536 554.84 452.583 555.957 453.979 555.957Z" fill="#895D3E"/>
<path d="M269.498 484.063C270.266 484.063 271.034 483.714 271.453 483.086C273.128 480.782 273.337 475.198 272.36 472.337C271.941 471.08 270.545 470.382 269.289 470.801C268.032 471.22 267.334 472.616 267.753 473.872C268.381 475.757 267.963 479.386 267.474 480.154C266.706 481.271 266.916 482.737 268.032 483.574C268.451 483.923 269.01 484.063 269.498 484.063Z" fill="white"/>
</svg>
