<svg width="64" height="77" viewBox="0 0 64 77" fill="currentColor" xmlns="http://www.w3.org/2000/svg">
	<path d="M34.3314 25.0123L20.2297 66.8856C19.273 69.7262 23.6766 71.2092 24.6333 68.3686L38.7349 26.4953C39.6916 23.6547 35.288 22.1717 34.3314 25.0123Z"/>
	<path d="M31.3994 48.0816C33.4102 47.5461 35.421 47.0106 37.4318 46.4751C37.7212 46.3923 38.0056 46.3242 38.295 46.2414C38.8884 46.0807 39.3991 45.7775 39.7539 45.2578C40.0791 44.7774 40.2437 44.0462 40.1087 43.4763C39.9737 42.9065 39.6575 42.3412 39.1296 42.0159C38.6018 41.6907 37.9607 41.5075 37.3526 41.6632C35.3418 42.1987 33.331 42.7342 31.3202 43.2697C31.0308 43.3525 30.7464 43.4206 30.457 43.5034C29.8635 43.6641 29.3528 43.9673 28.9981 44.487C28.6728 44.9674 28.5083 45.6986 28.6433 46.2685C28.7782 46.8383 29.0945 47.4036 29.6223 47.7289C30.1502 48.0542 30.7913 48.2373 31.3994 48.0816Z"/>
	<path d="M21.7237 53.0828L31.0447 56.2218C34.8318 57.4972 38.9831 59.5835 43.0629 58.6796C52.2815 56.6385 55.2628 44.68 48.9831 38.0914L49.1582 40.9199C50.6999 38.8171 51.8466 36.2371 52.4248 33.6951C53.5418 28.6798 51.9672 24.1346 47.923 20.9536L48.8189 23.6316C51.0679 17.2932 49.4078 9.55639 42.4648 7.2182C35.5218 4.88001 29.7544 10.1646 28.0634 16.6417L29.794 15.0941C23.1169 16.1885 18.1272 21.7842 17.8804 28.5346L20.9505 26.455C14.0922 25.0302 9.69763 31.2851 8.68433 37.3514C7.22492 46.0041 14.6 50.6018 21.7483 53.0583C24.5764 54.0271 26.0634 49.6116 23.2353 48.6428C18.4453 46.9969 12.4734 44.3958 13.2172 38.3535C13.5257 35.8846 14.5271 32.8624 16.7909 31.5272C17.3801 31.1848 18.5718 30.8978 18.7677 30.8983C19.1696 30.8698 20.7168 31.1286 19.4832 30.8607C20.9028 31.1585 22.4832 30.4453 22.5533 28.781C22.7242 23.9059 26.2801 20.3838 30.761 19.6478C31.5208 19.5267 32.3024 18.8559 32.4916 18.1002C33.4715 14.3169 36.3933 10.057 41.0024 11.6092C45.6115 13.1614 45.6982 18.582 44.4399 22.1241C44.0783 23.1494 44.5349 24.1717 45.3359 24.802C49.8441 28.3522 48.1693 34.4415 45.3323 38.304C44.756 39.0932 44.8145 40.4239 45.5074 41.1325C47.8592 43.6124 48.5662 46.9969 46.9715 50.1306C45.678 52.6612 43.0004 54.5945 40.0917 54.2049C38.6864 54.0102 37.2681 53.3686 35.9323 52.9188L23.2647 48.6527C20.4317 47.6987 18.9447 52.1141 21.7777 53.0682L21.7237 53.0828Z"/>
</svg>
