<svg width="54" height="76" viewBox="0 0 54 76" fill="none" xmlns="http://www.w3.org/2000/svg">
<path d="M40.024 19.805C47.8172 26.3264 50.5689 37.4654 45.668 46.6197C41.0685 55.2271 31.307 59.5207 21.907 57.2929C18.131 56.4018 16.5241 62.2548 20.3002 63.1459C32.251 65.9813 44.965 60.6954 50.8701 49.6778C56.7752 38.6603 54.1842 23.7746 44.2821 15.4912C41.3095 13.0203 37.0313 17.2937 40.024 19.7848V19.805Z" fill="#49BC8D"/>
<path d="M14.2545 53.6474C6.22034 47.5513 3.50882 36.0072 8.14854 26.9745C12.7883 17.9418 22.9113 13.5672 32.6125 16.0785C36.3685 17.0507 37.9753 11.1976 34.2194 10.2255C21.8468 7.00528 8.38956 12.6761 2.68531 24.4227C-3.01894 36.1693 0.616519 50.8323 11.2015 58.8929C12.5071 59.8853 14.5558 59.0954 15.319 57.7992C16.243 56.26 15.54 54.6195 14.2344 53.6474H14.2545Z" fill="#49BC8D"/>
<path d="M42.4543 0.929432C34.621 9.73939 26.7877 18.5493 18.9744 27.3593C18.0103 28.4529 16.6445 29.6276 16.1424 31.0453C15.6603 32.3617 15.4796 33.8604 15.1582 35.2174L10.177 56.4018C8.95182 61.627 7.70653 66.8522 6.48132 72.0977C5.8185 74.8723 9.43387 77.4444 11.5228 75.0546C19.3561 66.0826 27.1693 57.1106 35.0026 48.1184C37.1316 45.6678 39.4615 43.683 40.1244 40.4426C41.4701 33.8199 42.7957 27.1973 44.1414 20.5746C45.2662 15.0051 46.391 9.45585 47.5158 3.88634C48.279 0.0788153 42.4743 -1.56166 41.7111 2.26611C39.3812 13.8304 37.0312 25.3948 34.7013 36.9794C34.5205 37.8502 34.3197 38.7414 34.159 39.6325C33.8778 41.3742 33.7573 39.7337 34.7214 39.2882C33.6769 39.7742 32.512 41.8198 31.7889 42.6704L17.9099 58.5891C14.3749 62.6599 10.8198 66.7104 7.28474 70.7812L12.3262 73.7381C15.0377 62.2548 17.7291 50.7512 20.4407 39.2679C20.9026 37.2832 21.5655 35.2781 21.8466 33.2731C22.0274 31.9567 22.0073 33.5769 21.2642 33.9617C21.706 33.7389 22.168 32.9491 22.4894 32.5845L35.4846 17.962C39.2406 13.7292 42.9966 9.49635 46.7525 5.26353C49.3235 2.36738 45.0854 -1.94646 42.4944 0.969938L42.4543 0.929432Z" fill="#49BC8D"/>
<path d="M18.3323 34.873C23.0724 37.4249 27.7925 39.9565 32.5327 42.5083L34.5814 43.602C35.9673 44.3513 37.9155 44.007 38.6989 42.5083C39.442 41.0906 39.1006 39.1463 37.6143 38.3565C32.8741 35.8046 28.154 33.273 23.4139 30.7212L21.3652 29.6275C19.9793 28.8782 18.031 29.2225 17.2477 30.7212C16.5045 32.1389 16.846 34.0832 18.3323 34.873Z" fill="#49BC8D"/>
</svg>
