<svg width="59" height="46" viewBox="0 0 59 46" fill="none" xmlns="http://www.w3.org/2000/svg">
<path d="M58.0596 33.6487C57.8506 33.6487 57.5998 33.6904 57.3907 33.6487C57.2653 33.6487 57.1817 33.6487 57.0563 33.6487C57.0145 33.6487 56.9727 33.6487 56.9309 33.6487C56.68 33.607 57.0981 33.6904 56.8472 33.6487C56.68 33.607 56.5128 33.5653 56.3456 33.5236C56.2619 33.4819 56.1783 33.4819 56.0529 33.4402C56.0111 33.4402 55.9693 33.3985 55.9275 33.3985C55.9693 33.4402 56.0529 33.4402 55.9275 33.3985C55.7603 33.3151 55.6348 33.2317 55.4676 33.1483C55.4258 33.1066 55.2586 32.9814 55.3422 33.0648C55.4258 33.1066 55.2168 32.9397 55.175 32.898C55.0495 32.7729 54.9241 32.6478 54.7987 32.5227C54.7569 32.4393 54.6315 32.3141 54.7569 32.481C54.6733 32.3976 54.6315 32.3141 54.5479 32.2307C54.6315 32.3141 54.6315 32.3141 54.5479 32.2307C54.3388 31.8971 54.1298 31.5634 53.9626 31.2298C53.8371 30.9795 53.9626 31.2298 53.9207 31.1047C53.8789 31.0213 53.8371 30.9378 53.8371 30.8544C53.7535 30.6459 53.6699 30.3957 53.6281 30.1871C53.3773 29.2696 53.1682 28.3104 53.0428 27.3928C53.0846 27.6014 53.0428 27.226 53.001 27.1843C53.001 27.0592 52.9592 26.9341 52.9592 26.8507C52.9174 26.6004 52.9174 26.3085 52.8756 26.0582C52.8338 25.5161 52.792 24.9739 52.7502 24.4317C52.6665 23.3057 52.6665 22.1796 52.6247 21.0535C52.5411 18.8848 52.4993 16.6744 52.2067 14.5474C51.9558 12.7123 51.4541 11.0024 50.3672 9.45927C48.9039 7.37397 46.8972 5.66403 44.6396 4.45455C39.79 1.70196 34.0624 0.909548 28.6693 0.951254C25.9518 0.951254 23.2762 1.20149 20.6005 1.61855C18.0085 2.03561 15.4583 2.61949 13.0335 3.66214C7.76578 5.91426 3.58508 10.1266 1.45292 15.3815C-0.721043 20.7199 -0.386586 26.7672 1.99641 31.9388C4.63026 37.6525 9.47987 42.0316 15.5001 43.9918C21.4785 45.9103 27.9168 45.5349 33.9788 44.3672C37.7414 43.6582 41.2532 42.3236 44.8486 40.989C46.6463 40.3217 48.4858 39.6544 50.3672 39.2373C51.7886 38.9454 53.2518 38.9454 54.7569 38.6534C56.3037 38.3615 57.6416 37.6108 58.6867 36.4847C59.6483 35.4838 58.1851 33.9824 57.1399 34.9416C56.68 35.4004 55.9693 35.8591 55.4676 36.026C55.175 36.1511 54.8823 36.2345 54.5897 36.2762C54.2134 36.3596 54.088 36.3596 53.7535 36.4013C52.2067 36.5681 50.618 36.6099 49.1129 36.9852C45.4339 37.9027 41.9221 39.4459 38.3267 40.6136C35.1912 41.6146 31.8884 42.2402 28.6693 42.5321C27.1642 42.6572 25.6592 42.7406 24.1541 42.6989C22.7745 42.6572 21.1858 42.5738 19.9734 42.407C14.2459 41.5729 9.22903 38.862 5.84266 34.0658C2.66533 29.5198 1.3275 23.9729 2.58171 18.6346C3.79412 13.5882 7.18049 9.25074 11.7375 6.62327C14.0368 5.33038 16.5035 4.57967 19.0537 4.0375C21.5203 3.53702 23.8197 3.24508 26.3699 3.11996C31.5958 2.86973 36.9889 3.24508 41.8385 5.33038C43.9289 6.20621 45.9356 7.49909 47.5243 9.20903C48.1932 9.95974 48.7785 10.7522 49.2802 11.7531C49.2802 11.7948 49.322 11.8365 49.322 11.8782C49.4056 12.0033 49.2384 11.6697 49.2802 11.7948C49.322 11.8782 49.322 11.9616 49.3638 12.045C49.4474 12.2536 49.4892 12.4204 49.531 12.6289C49.6564 13.0043 49.74 13.4213 49.8237 13.7967C49.8655 14.0052 49.9073 14.2137 49.9491 14.4223C49.9491 14.5057 49.9909 14.6308 49.9909 14.7142C49.9491 14.464 49.9909 14.881 50.0327 14.9228C50.0745 15.4232 50.1163 15.9237 50.1581 16.4242C50.2417 17.4668 50.2835 18.4678 50.3253 19.5104C50.409 21.6791 50.4508 23.8478 50.6598 26.0165C50.9943 29.3113 51.705 34.0658 55.5094 35.0667C56.3874 35.317 57.3071 35.2753 58.2269 35.1084C59.1048 34.9833 58.8958 33.5653 58.0596 33.6487Z" fill="#297254"/>
<path d="M25.8266 32.1052C25.8266 34.8578 17.0053 19.5517 19.4719 15.6314C23.0255 9.95934 25.0322 18.9678 25.4085 20.9697C26.7463 17.2162 29.5056 12.1698 33.6863 13.7963C39.6229 16.7157 29.6728 28.1014 25.8266 32.1052Z" fill="#297254"/>
<path d="M25.1156 32.1052C25.1156 32.2304 25.1574 31.8967 25.1156 32.1052C25.0738 32.1887 25.1992 31.8967 25.1574 32.0218C25.3665 31.7299 25.7009 31.6882 25.9518 31.8133C25.7845 31.7299 26.0354 31.9384 25.91 31.7716C25.8682 31.7299 25.8264 31.6882 25.7845 31.6465C25.6173 31.4797 25.8682 31.7299 25.7427 31.6048C25.7009 31.5214 25.4501 31.2294 25.6173 31.438C25.5755 31.3962 25.5337 31.3128 25.4919 31.2711C25.3665 31.1043 25.2829 30.9792 25.1574 30.8124C24.9066 30.437 24.6976 30.0617 24.4467 29.6446C23.2343 27.601 22.3146 25.474 21.4784 23.3887C21.0604 22.2626 20.6423 21.0949 20.3914 19.8854C20.3496 19.6352 20.266 19.3849 20.2242 19.1347C20.1824 19.0096 20.1824 18.8845 20.1406 18.7593C20.0988 18.5925 20.1824 19.0096 20.1406 18.7593C20.1406 18.6759 20.1406 18.5925 20.0988 18.5091C20.057 18.0503 20.057 17.5916 20.057 17.1328C20.057 16.966 20.0988 16.8409 20.057 17.0911C20.057 17.0077 20.0988 16.8826 20.0988 16.7992C20.0988 16.7158 20.1406 16.6323 20.1824 16.5489C20.2242 16.4238 20.3496 16.2153 20.1824 16.4655C20.5169 15.9233 20.7259 15.5897 21.144 15.1726C21.1858 15.1309 21.2276 15.0892 21.2694 15.0475C21.1022 15.1726 21.2276 15.0892 21.2694 15.0475C21.353 15.0058 21.6456 14.8807 21.353 14.9641C21.4366 14.9224 21.5202 14.9224 21.6038 14.8807C21.3948 14.9641 21.3948 14.9224 21.5202 14.8807C21.7293 14.8807 21.6038 14.8807 21.4784 14.839C21.5202 14.839 21.8129 14.9224 21.6456 14.8807C21.4784 14.7973 21.7293 14.9641 21.8129 14.9641C22.0219 15.0892 21.7711 14.8807 21.8547 15.0058C21.9383 15.0892 22.0219 15.1726 22.1055 15.256C22.3146 15.4646 22.0637 15.1726 22.2309 15.4229C22.3146 15.548 22.3982 15.6731 22.4818 15.7982C22.649 16.0485 22.7744 16.3404 22.8999 16.5906C22.9417 16.674 22.9835 16.7158 22.9835 16.7992C23.0671 17.0077 22.9417 16.674 23.0253 16.8826C23.0671 17.0494 23.1507 17.1745 23.1925 17.3413C23.3179 17.6333 23.4015 17.9252 23.4852 18.2589C23.7778 19.2598 24.0287 20.2608 24.2377 21.2617C24.4467 22.3461 25.9518 22.1792 26.2862 21.2617C27.0388 19.093 28.2094 16.4238 30.1743 15.1309C31.0522 14.547 32.0556 14.3385 33.1008 14.7973C33.0172 14.7556 33.2262 14.8807 33.268 14.8807C33.3516 14.9224 33.4352 15.0058 33.5188 15.0475C33.6861 15.1309 33.4352 14.9224 33.6025 15.0892C33.6861 15.1726 33.7697 15.256 33.8533 15.3395C33.9369 15.4229 33.9787 15.5063 33.8951 15.3395C33.9369 15.4229 33.9787 15.4646 34.0205 15.548C34.0623 15.6314 34.1041 15.7148 34.146 15.7565C34.2296 15.9233 34.146 15.7148 34.146 15.7148C34.146 15.7565 34.1878 15.7982 34.1878 15.8399C34.2296 16.0067 34.2714 16.1736 34.3132 16.3404C34.355 16.5072 34.3132 16.1319 34.3132 16.4238C34.3132 16.5489 34.3132 16.6323 34.3132 16.7575C34.3132 16.966 34.3132 17.1328 34.2714 17.3413C34.2714 17.1328 34.2714 17.2996 34.2714 17.383C34.2296 17.5082 34.2296 17.6333 34.1878 17.8001C34.1041 18.2589 33.9369 18.7176 33.7697 19.1347C33.7279 19.1764 33.6443 19.4683 33.6861 19.3849C33.7279 19.3432 33.6025 19.5935 33.5607 19.6352C33.4352 19.8854 33.3098 20.1356 33.1844 20.3859C32.6827 21.3868 32.0556 22.3878 31.4285 23.3053C30.7596 24.3062 30.0907 25.1821 29.38 26.0579C27.9585 27.8512 26.4117 29.5612 24.823 31.2294C23.7778 32.3138 25.4501 33.982 26.4953 32.8977C28.0421 31.3128 29.5472 29.6029 30.9268 27.8512C32.5155 25.8076 34.0623 23.6806 35.1911 21.3451C36.0691 19.5518 36.9888 17.1745 36.2363 15.1726C35.3165 12.6703 32.3483 11.7944 30.0071 12.7954C26.9551 14.0883 25.3247 17.7167 24.2795 20.6361C24.9484 20.6361 25.6591 20.6361 26.328 20.6361C25.8682 18.4257 25.3247 15.9233 23.945 14.0883C23.1507 13.0456 21.9383 12.3366 20.6423 12.8788C19.4299 13.3793 18.3847 14.7139 18.0084 15.965C17.674 17.0911 17.8412 18.3006 18.0502 19.4266C18.3011 20.7195 18.7192 22.0124 19.179 23.2636C20.1406 25.8076 21.3948 28.2683 22.8581 30.5204C23.1925 31.0209 23.527 31.4797 23.9032 31.9801C24.0287 32.147 24.1541 32.3138 24.3213 32.4389C24.4049 32.5223 24.6139 32.6891 24.4049 32.5223C24.4467 32.564 24.4885 32.564 24.4885 32.6057C24.5721 32.6891 24.6976 32.7725 24.7812 32.856C25.4919 33.3564 26.4535 33.0228 26.3698 32.0635C26.4535 31.1877 25.1992 31.2294 25.1156 32.1052Z" fill="#297254"/>
</svg>
