<svg width="54" height="76" viewbox="0 0 54 76" fill="currentColor" xmlns="http://www.w3.org/2000/svg">
	<path d="M28.4878 56.4136C28.3677 56.3137 28.2275 56.2138 28.1073 56.1139C27.7468 55.8341 28.628 56.5335 28.1674 56.1738C27.9271 55.974 27.6667 55.7742 27.4264 55.5943C26.1046 54.5553 24.8228 53.4763 23.5611 52.3574C19.7759 49.0605 16.151 45.5238 12.9266 41.6674C8.58066 36.4323 1.55107 25.5625 9.86242 20.3075C15.3099 16.8707 21.278 23.0649 24.4223 26.8613C25.7441 28.4598 28.1474 27.7005 29.1487 26.2619C31.7523 22.4255 36.3386 17.4501 41.5256 19.5082C44.8702 20.827 47.0532 24.5035 47.0532 28.0402C47.0532 32.4161 43.989 36.6721 41.4656 40.029C38.4615 44.0252 34.9366 47.6818 31.3317 51.1185C29.2288 53.1167 27.0859 55.0748 24.8429 56.9131C21.8388 59.3508 26.1246 63.5669 29.0887 61.1491C36.1783 55.3745 42.9476 48.6209 48.0746 41.048C51.1588 36.4923 53.7623 31.1173 52.801 25.4826C51.8998 20.1876 48.0746 15.3321 42.8875 13.6537C34.8966 11.0761 28.0873 17.0905 23.9216 23.2447L28.6481 22.6453C24.2621 17.3303 17.8333 12.0952 10.4432 13.6937C5.3162 14.7926 1.45092 19.4283 0.369446 24.4036C-2.154 35.9728 8.80096 46.9824 16.4714 54.0957C19.3353 56.7533 22.3194 59.3109 25.4637 61.6287C28.608 63.9465 31.572 58.7314 28.4878 56.4535V56.4136Z"/>
</svg>
