<svg width="97" height="126" viewBox="0 0 97 126" fill="none" xmlns="http://www.w3.org/2000/svg">
<g clip-path="url(#clip0_1286_67564)">
<path d="M39.6675 112.276C39.0332 96.6667 38.3801 81.0264 37.7458 65.4175C37.6693 63.824 38.2344 60.4462 37.4712 59.0246C37.7589 59.5781 36.2537 61.7028 37.3727 60.2535C38.0934 59.3164 38.6323 58.1463 39.24 57.1271L53.3112 33.6293C56.9952 27.4703 60.6856 21.2863 64.3947 15.1337L57.1242 13.283C57.7585 28.8918 58.4115 44.5321 59.0458 60.141C59.1224 61.7346 58.5572 65.1124 59.3205 66.5339C59.0327 65.9804 60.5379 63.8557 59.419 65.305C58.6982 66.2421 58.1593 67.4122 57.5516 68.4314L43.4804 91.9293C39.7964 98.0882 36.106 104.272 32.3969 110.425C29.8333 114.708 36.5936 118.563 39.1572 114.28C47.2658 100.737 55.3679 87.2182 63.4764 73.6747C64.4891 72.0116 65.7537 70.3058 66.5591 68.5099C67.3645 66.714 67.0251 64.6799 66.9244 62.7601L65.7944 35.3128C65.479 27.9224 65.1888 20.5383 64.8734 13.1479C64.7289 9.29593 59.5715 7.98314 57.6029 11.2972C49.4943 24.8406 41.3922 38.359 33.2836 51.9025C32.271 53.5656 31.0063 55.2713 30.2009 57.0673C29.3956 58.8632 29.735 60.8972 29.8356 62.8171L30.9657 90.2644C31.2811 97.6548 31.5713 105.039 31.8867 112.429C32.0904 117.417 39.89 117.295 39.6675 112.276Z" fill="white"/>
<path d="M46.5557 98.3683C63.2214 99.1956 78.5984 88.1426 82.9386 72.0392C87.2787 55.9357 79.2608 38.3941 64.2226 30.8577C59.7544 28.6264 55.8734 35.3489 60.3667 37.5865C72.3886 43.6081 78.9158 57.0085 75.3976 70.093C71.8795 83.1775 59.6472 91.2424 46.399 90.5647C41.4019 90.3065 41.5649 98.0851 46.5684 98.3182L46.5557 98.3683Z" fill="white"/>
<path d="M36.4244 87.9728C24.4025 81.9513 17.8753 68.5509 21.3935 55.4664C24.9116 42.3819 37.1439 34.3169 50.3921 34.9946C55.3892 35.2528 55.2262 27.4743 50.2227 27.2411C33.5633 26.3888 18.1863 37.4418 13.8462 53.5452C9.50597 69.6487 17.5239 87.1904 32.5622 94.7268C37.0303 96.958 40.9113 90.2355 36.418 87.9979L36.4244 87.9728Z" fill="white"/>
<path d="M34.0644 63.1463L60.5806 69.8959C62.6184 70.4147 64.7943 69.1277 65.3109 67.0981C65.8275 65.0686 64.5317 62.8979 62.494 62.3792L35.9778 55.6295C33.94 55.1108 31.764 56.3978 31.2474 58.4273C30.7308 60.4569 32.0266 62.6276 34.0644 63.1463Z" fill="white"/>
</g>
<defs>
<clipPath id="clip0_1286_67564">
<rect width="71.5196" height="111.383" fill="white" transform="translate(27.4761) rotate(14.2812)"/>
</clipPath>
</defs>
</svg>
