<svg width="72" height="80" viewBox="0 0 72 80" fill="none" xmlns="http://www.w3.org/2000/svg">
<path d="M14.8872 50.0579C15.0521 50.0339 15.2013 50.0179 15.3662 49.994C15.4054 49.9938 15.4447 49.9937 15.484 49.9935C15.1935 50.0412 15.3348 50.0096 15.4054 49.9938C15.4997 49.9857 15.5782 49.9854 15.6804 49.9928C15.9946 49.9917 16.3088 49.9906 16.6231 49.9895C16.9609 49.9961 17.291 50.026 17.6289 50.0714C17.7783 50.0942 17.9276 50.117 18.077 50.1398C18.2499 50.1703 17.794 50.0864 17.9669 50.1169C18.0062 50.1167 18.0534 50.1321 18.0926 50.132C18.1791 50.1472 18.2892 50.1702 18.3836 50.2009C19.0755 50.3617 19.752 50.6081 20.3893 50.8935C20.468 50.9321 20.5467 50.9707 20.6411 51.0015C20.7119 51.0246 20.8221 51.0864 20.5152 50.9475C20.5624 50.9629 20.5939 50.9861 20.6411 51.0015C20.8221 51.0864 21.0031 51.1712 21.1763 51.2795C21.5069 51.4649 21.8376 51.6503 22.1525 51.8436C22.8375 52.261 23.5069 52.7251 24.1293 53.2127C24.4523 53.4603 24.7832 53.7235 25.0984 53.9945C25.0984 53.9945 25.1063 54.01 25.122 54.0022C24.9092 53.8163 24.9171 53.8319 25.1929 54.0641C24.9092 53.8163 25.059 53.9558 25.122 54.0022C25.1929 54.0641 25.2874 54.1338 25.3584 54.1957C25.5317 54.3428 25.7051 54.4899 25.8628 54.6449C27.1238 55.7677 28.2988 56.992 29.4032 58.2709C30.5865 59.6273 31.7072 61.0538 32.7418 62.5429C32.6786 62.4576 32.6154 62.3723 32.5601 62.2637C33.4051 63.4969 34.2031 64.7535 34.8836 66.0884C35.1842 66.6782 35.9787 66.963 36.5824 66.6421C37.1626 66.3135 37.4584 65.5817 37.142 64.9608C36.3509 63.4475 35.3794 62.0049 34.3766 60.6167C33.1924 58.9882 31.8983 57.4146 30.5182 55.9423C29.0119 54.3382 27.4038 52.8434 25.6472 51.5202C24.0481 50.313 22.3081 49.254 20.4281 48.5765C18.7604 47.9682 16.8109 47.6175 15.1004 48.1989C14.8493 48.2853 14.5982 48.3718 14.3708 48.4659C14.0021 48.6304 13.8467 49.0975 13.9737 49.4624C14.101 49.9051 14.4868 50.1215 14.8872 50.0579Z" fill="#518FFF"/>
<path d="M60.6107 59.9001C60.6793 59.5734 60.5287 59.3169 60.2686 59.115C59.4723 58.4781 58.5592 57.9969 57.6775 57.5001C56.3313 56.7472 54.954 56.0487 53.5768 55.3503C50.5783 53.8215 47.5487 52.3471 44.5659 50.8105C43.6923 50.3681 42.8187 49.9258 41.9606 49.4368C44.4352 44.8684 48.0519 41.0377 51.1647 36.912C52.0908 35.6899 52.9538 34.4211 53.7538 33.1058C53.9558 32.7711 53.8499 32.1412 53.3787 32.064C53.3159 32.0563 53.1664 31.9942 53.0959 32.0099C53.0723 32.0021 53.0567 32.0099 53.0331 32.0022C53.0095 31.9944 52.9703 31.9944 52.9547 32.0022C52.8526 31.9946 52.7506 31.9869 52.6565 31.9948C52.3663 32.0029 52.0683 32.0344 51.7548 32.0736C51.0963 32.1677 50.4384 32.3395 49.7883 32.5269C47.9557 33.0501 46.1395 33.6821 44.347 34.3608C42.4059 35.0941 40.4806 35.8585 38.5712 36.654C36.967 37.3169 35.3707 37.9954 33.7982 38.7205C33.6731 38.7828 33.5556 38.8218 33.4305 38.8842C33.8519 37.2504 34.2734 35.6166 34.6869 33.9673C35.2003 31.9756 35.706 30.0072 36.2273 28.0311C36.6796 26.3039 37.1242 24.6001 37.5764 22.873C37.7988 22.0405 38.0369 21.2002 38.2357 20.36C38.2277 20.3445 38.2434 20.3367 38.2354 20.3211C38.4884 19.3564 37.4173 18.6809 36.6286 19.2885C34.8328 20.6905 33.0372 22.1314 31.2573 23.5645C28.6107 25.683 25.9249 27.8016 23.3811 30.0445C22.6475 30.6831 21.9693 31.3916 21.3147 32.1079C20.7523 31.2374 20.1979 30.3825 19.6199 29.5198C18.1549 27.3048 16.6819 25.0743 15.084 22.945C14.7596 22.502 14.4196 22.0668 14.0483 21.6472C13.914 21.4996 13.7718 21.3364 13.6375 21.1888C13.606 21.1655 13.5822 21.1189 13.5506 21.0956C13.5427 21.08 13.5191 21.0723 13.5191 21.0723L13.5112 21.0567C13.5032 21.0412 13.4797 21.0334 13.4717 21.0179C13.3613 20.9169 13.2352 20.8237 13.1247 20.7227C12.7385 20.4276 11.9782 20.5529 11.7457 21.0198C11.3039 21.8837 11.3575 22.9492 11.3947 23.9058C11.4358 25.4846 11.5867 27.0478 11.7531 28.6031C11.9449 30.4385 12.1838 32.2893 12.4304 34.1168C12.677 35.9443 13.0097 37.7483 13.3425 39.5524C13.6343 41.0843 13.8557 42.6318 14.1162 44.1793C14.2305 44.9025 15.351 44.6756 15.2211 43.9602C15.0089 42.6227 14.781 41.293 14.6473 39.9554C14.5636 39.0999 14.4878 38.26 14.4041 37.4045C14.3543 36.9613 14.3201 36.5102 14.286 36.0591C14.278 36.0436 14.2857 36.0202 14.2699 35.9891C14.2785 36.1213 14.2783 36.0825 14.2612 35.8569C14.261 35.818 14.2528 35.7636 14.2525 35.7247C14.2362 35.6158 14.2198 35.507 14.2191 35.3903C14.1941 35.1492 14.1611 34.8926 14.1361 34.6515C13.9364 32.8006 13.7288 30.9342 13.584 29.0755C13.5422 28.6478 13.5239 28.2278 13.482 27.8001C13.4739 27.7456 13.4736 27.7067 13.4654 27.6523C13.457 27.559 13.4486 27.4657 13.4402 27.3723C13.431 27.1624 13.4142 26.9757 13.4051 26.7657C13.3613 26.0269 13.3255 25.3036 13.3053 24.5725C13.2959 24.3236 13.3022 24.067 13.3084 23.8103C13.3558 23.8647 13.3953 23.9035 13.4271 23.9657C14.1704 24.9215 14.8904 25.9085 15.5791 26.911C15.6663 27.0432 15.769 27.1675 15.8561 27.2996C15.9115 27.3696 15.9432 27.4317 15.9986 27.5017C16.0145 27.5328 16.0224 27.5483 16.0539 27.5716C16.2517 27.8436 16.4418 28.139 16.6397 28.411C16.7268 28.5431 16.8139 28.6752 16.901 28.8073C16.9169 28.8384 16.9563 28.8773 16.9722 28.9084C17.0673 29.056 17.0673 29.056 16.9643 28.8928C16.9802 28.9239 17.0196 28.9627 17.0355 28.9938C17.0909 29.0638 17.1306 29.1415 17.1859 29.2114C17.3601 29.4757 17.5344 29.7399 17.7086 30.0042C18.3104 30.9135 18.8966 31.8306 19.4908 32.7633C19.7759 33.2063 20.0531 33.6337 20.3227 34.0846C20.6316 34.5742 21.3945 34.8767 21.8621 34.3706C22.7196 33.4752 23.522 32.5487 24.4505 31.7155C25.5116 30.7576 26.6201 29.8541 27.7206 28.9351C30.3277 26.7778 32.9822 24.6748 35.6288 22.5563C35.2841 23.9178 34.9238 25.287 34.5791 26.6485C34.0814 28.6324 33.5601 30.6085 33.0387 32.5847C32.5865 34.3118 32.1419 36.0157 31.6896 37.7428C31.4672 38.5753 31.2292 39.4156 31.0304 40.2558C31.0383 40.2713 31.0227 40.2791 31.0306 40.2947C30.8159 41.1038 31.6129 41.8573 32.4187 41.4753C33.021 41.1946 33.6234 40.914 34.2337 40.6488C35.7123 39.9705 37.1989 39.3077 38.6619 38.6372C40.5082 37.7951 42.3781 36.9608 44.2562 36.1809C45.1797 35.7988 46.1031 35.4166 47.0424 35.0656C47.4885 34.9017 47.9111 34.7301 48.3573 34.5663C48.553 34.4883 48.7722 34.4181 48.9679 34.3401C49.0697 34.3088 49.1479 34.2699 49.2497 34.2386C49.2966 34.2152 49.3671 34.1996 49.4141 34.1762C49.5002 34.1528 49.5784 34.1138 49.6802 34.0826C49.7271 34.0592 49.782 34.0514 49.8289 34.028C49.8446 34.0202 49.8759 34.0046 49.8995 34.0123C49.9307 33.9968 49.9464 33.989 49.9856 33.9889C50.0246 33.95 50.1892 33.9265 50.2597 33.9108C50.3615 33.8796 50.4477 33.8562 50.5495 33.8249C50.8705 33.7235 51.1995 33.6375 51.5364 33.5672C51.6226 33.5437 51.7087 33.5203 51.7872 33.5202C48.9728 37.6923 45.3703 41.2818 42.4377 45.3762C41.5588 46.6139 40.7273 47.9059 40.0296 49.2678C39.8125 49.6881 39.8628 50.2091 40.3039 50.4964C41.2097 51.0787 42.1699 51.5754 43.1457 52.0643C44.5545 52.786 45.9787 53.4611 47.3951 54.1595C50.4011 55.6261 53.4225 57.046 56.382 58.6138C56.7913 58.8389 57.2163 59.0562 57.6257 59.2813C55.6581 59.5402 53.6827 59.8224 51.7236 60.1746C49.0669 60.6598 46.4188 61.2383 43.8028 61.9568C43.0979 62.1521 42.3774 62.3551 41.6804 62.5659C41.3437 62.6752 40.9835 62.7767 40.6312 62.8937C40.4432 62.9484 40.2632 63.0186 40.0752 63.0732C39.9734 63.1045 39.856 63.1435 39.7542 63.1747C39.7229 63.1903 39.6916 63.2059 39.6837 63.1904C39.5819 63.2216 39.4801 63.2528 39.3862 63.2996C38.9401 63.4634 38.7636 64.1169 38.9857 64.5134C39.2475 64.9875 39.7267 65.0803 40.2121 64.9164C40.5252 64.7994 40.8227 64.6902 41.1437 64.5887C41.1437 64.5887 41.1906 64.5653 41.2298 64.5653C41.3004 64.5496 41.3629 64.5185 41.4334 64.5028C41.5978 64.4404 41.7858 64.3858 41.9501 64.3234C42.5686 64.1127 43.203 63.9331 43.8294 63.7379C45.1215 63.3476 46.4218 63.0117 47.73 62.6913C50.3465 62.0506 52.9872 61.5343 55.652 61.1035C57.1019 60.8685 58.5755 60.6413 60.0339 60.4997C60.3005 60.4838 60.5575 60.1802 60.6107 59.9001Z" fill="#518FFF"/>
<path d="M50.1325 33.9399C50.1011 33.9556 50.0617 33.9556 50.0303 33.9713C50.046 33.9635 50.0774 33.9478 50.1325 33.9399Z" fill="#518FFF"/>
<path d="M10.669 18.7678C10.8757 19.1723 11.2704 19.5223 11.7188 19.6699C12.1435 19.8097 12.7005 19.786 13.0993 19.5678C13.9595 19.1003 14.3529 18.065 13.8917 17.1625C13.6849 16.758 13.2902 16.4081 12.8419 16.2605C12.4172 16.1207 11.8601 16.1444 11.4613 16.3626C10.6091 16.8456 10.2078 17.8654 10.669 18.7678Z" fill="#518FFF"/>
<path d="M41.4294 19.0668C41.4685 19.0278 41.5313 18.9964 41.5704 18.9574C41.6642 18.8327 41.7816 18.7157 41.8755 18.5909C42.0083 18.3883 42.0939 18.1703 42.1166 17.9448C42.171 17.7813 42.1784 17.6413 42.1542 17.4781C42.1612 17.2215 42.1053 16.9963 41.9789 16.7868C41.892 16.6549 41.7815 16.5154 41.6946 16.3835C41.5686 16.2907 41.4503 16.1745 41.3243 16.0816C41.1196 15.9502 40.8993 15.8654 40.6714 15.8429C40.4433 15.7815 40.1998 15.7669 39.9565 15.8299C39.9015 15.8379 39.8388 15.8692 39.7838 15.8772C39.4463 15.9483 39.1483 16.0971 38.8899 16.3235C38.6471 16.5421 38.4674 16.8071 38.3664 17.1106C38.3276 17.2663 38.3046 17.4141 38.2738 17.5852C38.2515 17.9274 38.3155 18.2459 38.4658 18.5408C38.5688 18.7815 38.7344 18.9519 38.9314 19.1067C39.097 19.2772 39.3174 19.4008 39.5454 19.4622C39.8522 19.5622 40.1743 19.5766 40.4962 19.5132C40.8887 19.4341 41.171 19.2932 41.4294 19.0668Z" fill="#518FFF"/>
<path d="M55.3568 31.7985C55.4597 32.0003 55.5781 32.1553 55.7592 32.2791C55.909 32.4185 56.0822 32.5267 56.2946 32.5959C56.4913 32.673 56.6956 32.6878 56.9154 32.6559C57.1354 32.6629 57.3394 32.6 57.5276 32.506C57.6452 32.4279 57.7627 32.3497 57.8803 32.2715C58.0996 32.0842 58.2402 31.8582 58.3334 31.578C58.3644 31.4457 58.3953 31.3134 58.4026 31.1734C58.4173 30.8935 58.3692 30.606 58.2426 30.3577C58.1397 30.1559 58.0213 30.0008 57.8402 29.8771C57.6904 29.7376 57.5172 29.6294 57.3048 29.5602C57.1082 29.4831 56.9038 29.4683 56.684 29.5002C56.464 29.4932 56.26 29.5561 56.0718 29.6501C55.9542 29.7283 55.8367 29.8064 55.7191 29.8846C55.4998 30.072 55.3592 30.2979 55.266 30.5782C55.235 30.7104 55.2041 30.8427 55.1968 30.9827C55.1664 31.2705 55.2223 31.5346 55.3568 31.7985Z" fill="#518FFF"/>
<path d="M61.3748 61.3111C61.6849 61.9179 62.519 62.2443 63.1445 61.8936C63.77 61.543 64.0554 60.7957 63.7215 60.1423C63.4114 59.5354 62.5773 59.2091 61.9518 59.5597C61.3419 59.9026 61.0409 60.6576 61.3748 61.3111Z" fill="#518FFF"/>
</svg>
