<svg width="58" height="76" viewbox="0 0 58 76" fill="currentColor" xmlns="http://www.w3.org/2000/svg">
	<path d="M27.3232 11.9588C24.6249 17.4154 21.9465 22.8519 19.2481 28.3084L21.8466 26.8294C15.5704 27.5889 9.29416 28.3484 3.01796 29.1079C0.599426 29.4077 -1.13952 32.2459 0.899241 34.2247C5.37653 38.5619 9.87381 42.9191 14.3511 47.2564L13.5716 44.3382C12.6721 50.3344 11.7727 56.3506 10.8732 62.3468C10.4734 64.9651 12.792 66.9438 15.2705 65.7246C20.6473 63.1063 26.024 60.4879 31.4208 57.8696H28.4026C33.5795 60.4879 38.7563 63.1063 43.9332 65.7246C45.7321 66.644 48.7303 65.5647 48.4504 63.1263C47.7509 57.33 47.0713 51.5336 46.3717 45.7373L45.4922 47.856C49.3499 43.2989 53.2276 38.7418 57.0852 34.2047C58.4044 32.6457 58.1646 29.6276 55.766 29.1879C50.0495 28.1285 44.313 27.0892 38.5964 26.0299L40.3953 27.409C37.7769 22.2523 35.1585 17.0956 32.5401 11.9389C30.7811 8.50105 25.6243 11.5391 27.3632 14.9569L31.4008 22.9119L34.1991 28.4084C34.6988 29.3877 35.1185 30.587 35.998 31.2666C36.8775 31.9461 38.1767 32.0061 39.256 32.206L45.1125 33.2853C48.1306 33.8449 51.1688 34.4046 54.187 34.9442L52.8678 29.9274C50.829 32.3259 48.7902 34.7243 46.7515 37.1428C44.8726 39.3414 42.2342 41.6399 40.8151 44.1983C40.1755 45.3576 40.5153 46.5768 40.6552 47.816L41.3547 53.6723C41.7345 56.8103 42.0943 59.9683 42.4741 63.1063L46.9913 60.5079C44.193 59.0888 41.3747 57.6697 38.5764 56.2506L33.1997 53.5324C32.0804 52.9727 30.8411 52.1333 29.5619 52.2932C28.5025 52.4331 27.3632 53.1726 26.4038 53.6323L20.8272 56.3506C17.9889 57.7297 15.1506 59.1088 12.3123 60.5079L16.7097 63.8858C17.1894 60.6479 17.6891 57.3899 18.1688 54.152L19.1282 47.7561C19.3281 46.4369 19.8078 44.778 19.1082 43.5787C18.5885 42.6793 17.5891 41.9597 16.8496 41.2402L12.0725 36.6231C9.77387 34.3846 7.47527 32.166 5.17666 29.9274L3.05794 35.0441C6.27599 34.6644 9.49404 34.2646 12.7321 33.8849C15.9701 33.5051 19.6279 33.5851 22.706 32.6657C24.2651 32.206 24.7048 30.8668 25.3444 29.5876L28.2027 23.7713C29.6618 20.8332 31.1209 17.8751 32.5601 14.9369C34.259 11.4791 29.1022 8.44108 27.3832 11.9189L27.3232 11.9588Z"/>
</svg>
