<svg width="66" height="53" viewBox="0 0 66 53" fill="none" xmlns="http://www.w3.org/2000/svg">
<path d="M9.62658 32.8293C9.55832 32.8293 9.58107 32.8521 9.62658 32.8293V32.8293Z" fill="#297254"/>
<path d="M31.5726 39.3611C30.1812 37.7378 28.7898 36.0951 27.3984 34.4718C27.1858 34.2206 26.9539 33.95 26.7414 33.6988C26.78 33.6022 26.8187 33.5056 26.8573 33.4089C27.2438 32.52 27.6496 31.631 28.0361 30.7614C28.8864 28.8482 29.7367 26.9157 30.587 25.0025C30.7803 24.5774 30.9735 24.1329 31.1668 23.7078C31.3021 23.4179 31.3794 23.1473 31.3407 22.8188C31.3021 22.5289 31.1861 22.2197 30.9542 22.0072C30.4711 21.5627 29.8334 21.5047 29.2536 21.7946C27.9782 22.3937 26.7027 23.0121 25.4273 23.6111C23.3981 24.5774 21.369 25.5436 19.3399 26.5099C19.2046 26.5679 19.0886 26.6258 18.9534 26.6838C18.161 25.8142 17.3687 24.9446 16.5571 24.0749C14.9531 22.3164 13.3298 20.5771 11.7451 18.8185C11.3779 18.4127 11.0108 18.0069 10.6436 17.601C10.2378 17.1566 9.44544 17.0599 8.94298 17.3885C8.73041 17.5237 8.57581 17.6977 8.44053 17.8909C8.22796 18.2194 8.24728 18.6059 8.30526 18.9731C8.55648 20.5578 8.80771 22.1231 9.07826 23.7078C9.29083 25.0605 9.54206 26.3939 9.79329 27.7274C10.0059 28.8676 10.1605 30.0464 10.4503 31.1672C10.5663 31.631 10.6822 32.0948 10.7982 32.5586C10.5663 32.5973 10.3344 32.6553 10.1025 32.6939C9.96721 32.7326 9.81261 32.7519 9.67734 32.7905C9.65801 32.7905 9.65801 32.7905 9.63869 32.7905C9.65801 32.7905 9.65801 32.7905 9.67734 32.7905C9.92856 32.7905 9.54206 32.8099 9.44543 32.8292C9.36813 32.8485 9.29083 32.8678 9.21353 32.8872C7.93808 33.235 6.68195 33.6215 5.42582 34.0273C4.76877 34.2399 4.11172 34.4718 3.43534 34.6264C3.57062 34.6071 3.68657 34.5878 3.82185 34.5684C3.10682 34.6457 2.41112 35.0129 1.73474 35.2641C1.50284 35.3608 1.29026 35.4381 1.05836 35.5347C0.497937 35.7473 0.0921111 36.1144 0.0148109 36.7522C-0.0238392 37.0227 0.0148108 37.2546 0.111436 37.5058C0.227386 37.7764 0.439962 38.0856 0.710513 38.2016C2.02462 38.762 3.33872 39.3224 4.67215 39.8828C6.8752 40.8104 9.05893 41.7767 11.2813 42.685C11.5712 42.8009 11.8611 42.9362 12.1703 43.0521C12.5568 44.231 12.9433 45.4098 13.3298 46.608C13.8129 48.0767 14.2767 49.5454 14.7598 51.0141C14.8564 51.3233 14.9531 51.6325 15.069 51.9417C15.2429 52.4634 15.7454 52.9272 16.3252 52.8886C16.5571 52.8693 16.7696 52.8113 16.9822 52.7147C17.2914 52.5407 17.446 52.2509 17.5813 51.9417C18.0837 50.7435 18.5862 49.526 19.108 48.3279C19.9196 46.4147 20.7313 44.4822 21.5236 42.569C21.5429 42.511 21.5816 42.4531 21.6009 42.3951C22.6058 42.5883 23.6107 42.7623 24.6156 42.9555C26.8187 43.3613 29.041 43.7865 31.2441 44.2116C31.7465 44.3083 32.2683 44.4049 32.7708 44.5015C33.3505 44.6175 34.0269 44.4242 34.3361 43.8638C34.6453 43.284 34.5294 42.6656 34.1235 42.1825C33.2152 41.3129 32.4036 40.3273 31.5726 39.3611ZM22.6251 39.9988C22.1227 39.9022 21.6009 39.8055 21.0984 39.7282C20.7506 39.6703 20.3834 39.6703 20.0935 39.8635C19.7843 40.0568 19.6297 40.308 19.4945 40.6558C18.992 41.854 18.4896 43.0715 17.9871 44.2696C17.4653 45.5064 16.9436 46.7626 16.4411 47.9994C15.9966 46.6466 15.5522 45.2938 15.1077 43.9604C14.9144 43.3807 14.7212 42.8202 14.5472 42.2405C14.5472 42.1439 14.5472 42.0472 14.5472 41.9506C14.5279 41.5448 14.3733 41.1776 14.0834 40.9071C13.8322 40.6752 13.5617 40.5399 13.2525 40.4046C13.3684 40.4626 13.4844 40.5012 13.6196 40.5592C11.9963 39.8249 10.3344 39.1678 8.71108 38.4914C7.53226 38.0083 6.35343 37.5058 5.1746 37.0227C5.5611 36.8295 5.96693 36.6749 6.35343 36.5009C6.81723 36.2884 7.28103 36.0951 7.74483 35.8825C7.86078 35.8246 7.97673 35.7859 8.09268 35.7279C8.11201 35.7279 8.13133 35.7086 8.15066 35.7086C8.20863 35.6893 8.26661 35.6506 8.36323 35.6313C8.40188 35.612 8.42121 35.5927 8.45986 35.5733C8.69176 35.4574 8.92366 35.3608 9.13623 35.2448C9.36813 35.1482 9.58071 35.0322 9.81261 34.9356C9.90924 34.897 10.0059 34.839 10.1025 34.8003C10.1025 34.8003 10.1025 34.8003 10.1218 34.8003C10.1411 34.8003 10.1605 34.781 10.1798 34.781C10.2764 34.7424 10.3537 34.7037 10.431 34.6457C10.8562 34.4332 11.2813 34.2206 11.7258 34.008C11.8224 33.9694 11.919 33.9114 12.0157 33.8727C12.2089 33.7761 11.8224 33.9694 12.0736 33.8534C12.1509 33.8148 12.2089 33.7954 12.2862 33.7568C12.2862 33.7568 12.2862 33.7568 12.3055 33.7568C12.4601 33.7181 12.6147 33.6602 12.75 33.5635C12.75 33.5635 12.7693 33.5635 12.7693 33.5442C12.866 33.5056 12.9433 33.4283 13.0012 33.3316C13.1752 33.1384 13.2718 32.8678 13.2525 32.5973C13.2138 32.1335 13.1752 31.6697 13.1365 31.2059C13.0206 29.9884 12.808 28.7709 12.6341 27.5341C12.4022 26.0268 12.1703 24.5387 11.919 23.0314C13.4844 24.7513 15.069 26.4712 16.6344 28.1718C17.0015 28.5777 17.3687 28.9835 17.7359 29.3893C18.1804 29.8725 18.8761 29.8725 19.4172 29.6019C20.6926 29.0028 21.9681 28.4037 23.2435 27.7853C24.5769 27.1476 25.9104 26.5292 27.2438 25.8915C26.3742 27.8433 25.5046 29.7952 24.6349 31.747C24.4803 32.0948 24.3257 32.4427 24.1711 32.8099C24.1518 32.8678 24.1325 32.9065 24.0938 32.9645C24.0938 32.9645 24.0938 32.9645 24.0745 32.9838C23.4947 33.6215 23.5141 34.4911 24.0745 35.1095C24.9828 36.1531 25.9104 37.158 26.8187 38.2016C27.7076 39.2065 28.6159 40.2114 29.5048 41.2163C29.4662 41.2163 29.4082 41.1969 29.3696 41.1969C27.0506 40.8104 24.8475 40.3853 22.6251 39.9988Z" fill="#297254"/>
<path d="M53.1197 32.2309C51.4384 32.3662 49.7571 32.4821 48.0758 32.6367C48.0178 32.6367 47.9792 32.6368 47.9212 32.6561C47.2062 31.4386 46.4912 30.2211 45.7375 29.0036C45.6215 28.8104 45.4863 28.6171 45.3703 28.4046C45.1577 28.0567 44.7133 27.8441 44.3074 27.9794C43.8823 28.1147 43.6504 28.4625 43.6117 28.8877C43.3991 31.0521 43.1672 33.1972 42.9547 35.3616C42.8967 35.3423 42.7421 35.2843 42.7421 35.2843C42.7034 35.2843 42.6648 35.265 42.6068 35.265C42.4136 35.2456 42.4329 35.2456 42.6455 35.265C42.6261 35.265 42.6068 35.265 42.5875 35.2456C42.4909 35.2263 42.3942 35.207 42.2783 35.1877C41.486 35.0331 40.713 34.9171 39.9206 34.8012C39.7274 34.7818 39.5535 34.7432 39.3602 34.7239C39.0703 34.6852 38.8384 34.6659 38.5679 34.7818C38.336 34.8785 38.1041 35.0524 37.9881 35.2843C37.7176 35.7867 37.8142 36.2699 38.1427 36.7143C38.0848 36.637 38.0848 36.637 38.1427 36.7143C38.1427 36.7337 38.1621 36.7337 38.1621 36.753C38.1621 36.7723 38.1814 36.7723 38.1814 36.7916C38.2007 36.811 38.2007 36.811 38.22 36.8303C38.2394 36.8496 38.2587 36.8689 38.278 36.8883C38.3746 37.0042 38.4906 37.1202 38.5872 37.2361C38.9351 37.6226 39.2636 38.0091 39.6114 38.4149C40.3651 39.2846 41.1381 40.1542 41.8918 41.0431C41.9111 41.0818 41.9498 41.1011 41.9691 41.1398C41.7179 42.4732 41.4473 43.7873 41.1574 45.1207C41.1188 45.3333 41.0608 45.5459 41.0222 45.7778C40.9255 46.2802 41.0801 46.86 41.5633 47.1305C42.0271 47.3818 42.6261 47.3431 43.0126 46.9373C44.2495 45.6232 45.4863 44.3091 46.7424 42.9757C47.9599 43.826 49.1773 44.6569 50.3948 45.5072C50.6074 45.6425 50.82 45.7971 51.0132 45.9324C51.3804 46.1836 51.9408 46.1063 52.2887 45.8358C52.6172 45.5845 52.8684 45.0628 52.6945 44.6376C52.4046 43.8646 52.1147 43.1109 51.8249 42.3379C51.3417 41.0431 50.8779 39.7484 50.3368 38.4729C50.3175 38.4343 50.2982 38.3763 50.2789 38.3376C50.5881 37.9511 50.8973 37.5646 51.2258 37.1781C51.9215 36.3278 52.6172 35.4582 53.3129 34.6079C53.4675 34.4147 53.6414 34.2214 53.796 34.0088C54.0666 33.6803 54.1825 33.2745 54.0086 32.8686C53.912 32.5208 53.5255 32.1923 53.1197 32.2309ZM42.9353 35.3616C42.8967 35.3616 42.8774 35.3423 42.8387 35.3229C42.858 35.3229 42.858 35.3229 42.8774 35.3423C42.916 35.3423 42.9353 35.3616 42.9353 35.3616ZM47.2062 40.3861C46.8004 40.0962 46.1047 40.2122 45.7761 40.5793C45.2737 41.1011 44.7712 41.6422 44.2688 42.164C44.3268 41.8935 44.3847 41.6229 44.4427 41.3524C44.462 41.2751 44.4814 41.1978 44.5007 41.1011C44.5973 40.618 44.462 40.2315 44.1528 39.8643C43.9789 39.6517 43.7857 39.4585 43.6117 39.2459C43.0126 38.5502 42.3942 37.8738 41.7952 37.1781C41.8145 37.1781 41.8531 37.1781 41.8725 37.1781C42.0657 37.1781 42.2783 37.1781 42.4715 37.1781C42.5875 37.1781 42.7034 37.1395 42.8194 37.1008V37.1202C42.858 37.1202 42.8967 37.1008 42.9353 37.1008C43.0126 37.0815 43.1093 37.0622 43.1866 37.0622C43.3219 37.0429 43.4571 37.0042 43.5924 36.9849C43.6697 36.9849 43.747 36.9656 43.805 36.9269C43.9789 36.8496 44.1335 36.695 44.1722 36.5018C44.4427 34.9171 44.7326 33.3518 45.0031 31.7671C45.351 32.4242 45.7182 33.0619 46.0853 33.6996C46.2013 33.8929 46.3172 34.1055 46.4332 34.2987C46.6071 34.6079 46.9936 34.8591 47.3415 34.8205C48.4816 34.7239 49.6025 34.6272 50.7427 34.5306C50.1243 35.2843 49.5059 36.0186 48.8875 36.7723C48.7715 36.9269 48.6362 37.0622 48.5203 37.2168C48.4623 37.2748 48.4237 37.3327 48.385 37.41C48.0951 37.6806 47.9405 38.0671 48.0758 38.4536V38.4729V38.4922V38.5116C48.0951 38.5502 48.1145 38.6082 48.1145 38.6468C48.1724 38.8208 48.2304 38.9754 48.2691 39.1493C48.443 39.6904 48.6556 40.2315 48.8488 40.7726C48.9841 41.1398 49.1194 41.5263 49.2546 41.8935C48.7715 41.5456 48.2691 41.1978 47.7859 40.8499C47.612 40.676 47.4188 40.5407 47.2062 40.3861Z" fill="#297254"/>
<path d="M38.6068 21.97C39.0513 21.912 39.3991 21.6028 39.5344 21.1777C40.0175 19.6124 40.5007 18.0663 40.9838 16.5203C41.0031 16.4817 41.0031 16.4237 41.0224 16.3851C42.2399 15.9213 43.4574 15.4381 44.6556 14.9743C44.8681 14.897 45.0614 14.8197 45.274 14.7424C45.6991 14.5685 46.0856 14.2207 46.0663 13.7182C46.047 13.2351 45.7571 12.8099 45.274 12.694C44.2497 12.4041 43.2062 12.1142 42.182 11.8244C42.2593 10.5103 42.3366 9.19615 42.4139 7.88205C42.4332 7.65014 42.4332 7.43757 42.4525 7.20567C42.4912 6.49064 41.5636 5.93021 40.9645 6.35537C39.9596 7.05107 38.974 7.74677 37.9691 8.4618C37.8918 8.3845 37.7952 8.32652 37.7179 8.24922C37.6792 8.21057 37.6406 8.17192 37.5826 8.1526C37.5633 8.13327 37.5439 8.11395 37.5246 8.09462C37.5053 8.0753 37.486 8.05597 37.4473 8.03665C37.3507 7.94002 37.2347 7.86272 37.1381 7.78542C36.3651 7.18634 35.5921 6.56794 34.8191 5.96886C34.6452 5.83359 34.4519 5.67899 34.278 5.54371C33.9881 5.31181 33.6016 5.19586 33.2731 5.40844C32.9639 5.60169 32.79 5.98819 32.8866 6.35537C33.3891 8.01732 33.8915 9.65995 34.394 11.3219C33.7369 11.5925 33.2151 12.2495 32.732 12.7326C32.1136 13.351 31.4952 13.9694 30.8768 14.5878C30.7415 14.7231 30.6062 14.8584 30.4516 14.9937C30.1231 15.3222 30.0265 15.844 30.2004 16.2691C30.3743 16.6943 30.7995 16.9841 31.2633 16.9841C32.5774 17.0228 33.8915 17.0614 35.2056 17.1001C35.8433 18.3562 36.5004 19.6124 37.1381 20.8685C37.2347 21.0811 37.3507 21.2743 37.4473 21.4869C37.6985 21.8347 38.201 22.028 38.6068 21.97ZM36.9449 15.3608C36.7709 14.9937 36.3458 14.8004 35.9593 14.8004C35.3409 14.7811 34.7032 14.7424 34.0848 14.7231C34.4713 14.3559 34.8384 13.9888 35.2249 13.6216C35.4568 13.409 35.6694 13.1385 35.824 12.8486C36.0173 12.578 36.0559 12.2302 35.9786 11.9017C35.9786 11.8823 35.9786 11.863 35.9786 11.863C35.7081 10.7228 35.4375 9.58265 35.167 8.44247C35.7081 8.90627 36.2492 9.37007 36.7903 9.81455C36.9642 9.96915 37.1381 10.1044 37.312 10.259C37.6212 10.5103 38.085 10.6455 38.4522 10.4136C39.0899 9.98848 39.7277 9.56332 40.3654 9.11885C40.2881 10.0465 40.2301 10.9547 40.1528 11.8823C40.1335 12.1142 40.1142 12.3268 40.0948 12.5587C40.0562 13.0225 40.4427 13.4283 40.8485 13.5636C41.1191 13.6409 41.409 13.7375 41.6795 13.8148C41.2157 13.9888 40.7326 14.1627 40.2688 14.3559C40.1528 14.3946 40.0562 14.4332 39.9402 14.4719C39.9209 14.4719 39.8823 14.4912 39.8629 14.4912C39.4764 14.6458 39.2252 14.8584 39.0706 15.2642C39.0126 15.4381 38.974 15.5927 38.916 15.7667C38.6841 16.4817 38.4715 17.1967 38.2396 17.9311C37.9111 17.274 37.5826 16.6363 37.2734 15.9792C37.1574 15.7667 37.0415 15.5541 36.9449 15.3608Z" fill="#297254"/>
<path d="M13.0394 9.0213C13.8704 9.19522 14.7207 9.34983 15.571 9.44645C15.3777 10.1615 15.3777 10.9152 15.455 11.6302C15.513 12.152 15.7835 12.6737 16.344 12.7897C16.9044 12.925 17.3875 12.6931 17.6967 12.2293C18.1605 11.5722 18.605 10.9152 18.9335 10.1808C19.0108 9.98755 19.1074 9.77498 19.1654 9.58173C19.32 9.5624 19.4746 9.54308 19.6099 9.50443C19.6872 9.52375 19.7838 9.54308 19.8611 9.5624C20.0737 9.62038 20.267 9.67835 20.4602 9.73633C20.5568 9.77498 20.6535 9.81363 20.7501 9.85228C20.7694 9.85228 20.7694 9.8716 20.7887 9.8716C20.8081 9.8716 20.8081 9.89093 20.8274 9.89093C20.4409 9.73633 20.4602 9.73633 20.866 9.91025C20.9047 9.92958 20.9433 9.92958 20.982 9.9489C21.2139 10.0262 21.3492 10.0842 21.6197 10.1035C21.6004 10.1035 21.6004 10.1035 21.5811 10.0842C22.0642 10.1228 22.528 9.92958 22.7792 9.46578C23.0884 8.88602 22.9725 7.99707 22.3154 7.68787C22.3154 7.68787 22.3154 7.68787 22.2961 7.68787H22.2768C22.6246 7.95842 22.6246 7.95842 22.2574 7.68787C22.2188 7.66855 22.1801 7.64922 22.1415 7.6299C21.9096 7.51395 21.6777 7.41732 21.4265 7.32069C21.3298 7.28204 21.2332 7.26272 21.1366 7.22407C21.2332 6.89554 21.3298 6.56702 21.4265 6.23849C21.6197 5.56212 21.8323 4.90506 22.0449 4.22869C22.1608 3.86151 21.9869 3.45568 21.697 3.22378C21.3685 2.97256 21.0013 2.99188 20.6341 3.14648C20.093 3.37838 19.5326 3.61028 19.0108 3.88083C18.663 3.37838 18.2765 2.91458 17.89 2.47011C17.5421 2.04495 17.1749 1.6198 16.7884 1.19465C16.6145 0.943426 16.2087 0.885451 15.8995 1.02073C15.571 1.156 15.397 1.4652 15.3584 1.81305C15.2618 2.97256 15.1458 4.13206 15.0492 5.31089C14.7593 5.54279 14.4501 5.75537 14.1602 5.98727C13.6964 6.33512 13.2326 6.70229 12.7495 7.05014C12.3823 7.3207 12.1698 7.66855 12.2277 8.13235C12.305 8.51885 12.6142 8.92467 13.0394 9.0213ZM16.344 7.41732C16.3246 7.41732 16.3246 7.41732 16.344 7.41732C16.3246 7.39799 16.344 7.37867 16.344 7.35934C16.3633 7.26272 16.3633 7.18542 16.3826 7.08879C16.4019 7.06947 16.4213 7.06947 16.4406 7.05014C16.5179 7.18542 16.5952 7.32069 16.6918 7.45597C16.5759 7.45597 16.4599 7.43665 16.344 7.41732ZM18.0252 9.9489C18.0446 9.92958 18.0446 9.91025 18.0639 9.89093C18.0446 9.91025 18.0446 9.92958 18.0252 9.96823C18.0059 9.96823 18.0059 9.96823 18.0252 9.9489ZM19.5519 5.81334C19.5519 5.79402 19.5326 5.79402 19.5326 5.77469C19.5519 5.77469 19.5712 5.75537 19.5712 5.75537C19.5519 5.77469 19.5519 5.79402 19.5519 5.81334Z" fill="#297254"/>
<path d="M65.9911 17.2735C65.9331 16.887 65.6626 16.5198 65.2567 16.4232C63.962 16.0947 62.6479 15.7662 61.3531 15.4376C61.2758 14.3554 61.1792 13.2926 61.1019 12.2104C61.0825 12.0171 61.0632 11.8239 61.0632 11.6306C61.0246 11.2054 60.7733 10.761 60.3289 10.6643C59.9037 10.5677 59.4206 10.7223 59.1887 11.1281C58.5123 12.3456 57.8939 13.6018 57.2755 14.8579C57.0243 14.7999 56.7731 14.7226 56.5025 14.7033C56.2899 14.684 56.0774 14.6646 55.8648 14.6453C55.3817 14.6067 54.8985 14.6067 54.3961 14.6067C53.5071 14.6067 52.6182 14.6067 51.7485 14.6646C51.2461 14.7033 50.8209 14.9545 50.6084 15.4183C50.4151 15.8628 50.5117 16.4232 50.8596 16.7711C51.7485 17.6214 52.7148 18.4523 53.739 19.1287C53.8356 19.1867 53.9129 19.2447 54.0096 19.3026C53.1399 20.2689 52.2703 21.2352 51.4393 22.2401C51.0722 22.6845 50.9755 23.2836 51.3427 23.7667C51.4973 23.96 51.7099 24.1339 51.9418 24.1919C52.2703 24.2692 52.5409 24.2112 52.8307 24.0759C52.908 24.0373 52.966 24.018 53.0433 23.9793C53.2366 23.902 53.4298 23.8247 53.6231 23.7281C53.739 23.6701 53.855 23.6315 53.9709 23.5735C53.9902 23.5735 54.0096 23.5542 54.0096 23.5542C54.0869 23.5155 54.1448 23.4962 54.2221 23.4769C54.7633 23.2643 55.3044 23.0517 55.8455 22.8585C56.6958 22.5686 57.5654 22.298 58.4543 22.1048C59.0534 22.7812 59.7298 23.3802 60.4448 23.9213C60.9859 24.3465 61.5463 24.7716 62.1454 25.1388C62.5126 25.3707 63.015 25.3127 63.3629 25.0615C63.7301 24.791 63.846 24.3465 63.7494 23.9213C63.4788 22.6652 63.2083 21.4284 62.9377 20.1723C63.788 19.5345 64.6383 18.9161 65.4693 18.2977C65.8365 18.0465 66.0491 17.718 65.9911 17.2735ZM60.2516 20.752C60.1549 20.6554 60.0776 20.5588 59.981 20.4428C59.981 20.4428 59.8844 20.3269 59.8651 20.3076C59.5559 19.8631 59.1307 19.6891 58.6089 19.7858C57.72 19.9404 56.8504 20.1723 55.9807 20.4235C56.1546 20.2303 56.3093 20.037 56.4832 19.8438C56.947 19.3026 56.889 18.5296 56.2706 18.1431C56.2513 18.1238 56.1933 18.0852 56.174 18.0852C56.1546 18.0658 56.1353 18.0465 56.116 18.0272C55.8068 17.776 55.5169 17.5441 55.2077 17.2735C55.1497 17.2349 55.0918 17.1769 55.0531 17.1382C55.285 17.1382 55.5169 17.1576 55.7488 17.1769C55.9614 17.1962 56.174 17.2155 56.3866 17.2349C56.4832 17.2542 56.5605 17.2542 56.6571 17.2542C56.7924 17.2542 57.1402 17.2928 56.6764 17.2155C56.889 17.2542 57.1016 17.2542 57.2948 17.2155C57.5654 17.2349 57.8553 17.0996 58.0099 16.8484C58.3384 16.3266 58.6669 15.8048 58.9954 15.283C59.0921 15.1478 59.1694 14.9932 59.266 14.8579C59.2853 15.1284 59.3046 15.4183 59.324 15.6889C59.3433 15.8821 59.3433 16.0754 59.3626 16.2686C59.4013 16.7131 59.6525 17.1382 60.097 17.2542C60.9279 17.4668 61.7782 17.6793 62.6092 17.8919C62.1647 18.2204 61.7009 18.549 61.2565 18.8775C60.8506 19.1674 60.6767 19.5539 60.7733 20.0563C60.87 20.5781 60.9859 21.0999 61.0825 21.6217C60.9859 21.525 60.8893 21.4477 60.7927 21.3511C60.6187 21.1385 60.4255 20.9453 60.2516 20.752ZM62.1454 22.4526C61.9328 22.2787 62.0874 22.414 62.1454 22.4526C62.1454 22.472 62.1647 22.472 62.1454 22.4526Z" fill="#297254"/>
</svg>
