<svg width="65" height="75" viewbox="0 0 65 75" fill="none" xmlns="http://www.w3.org/2000/svg">
	<path d="M16.0011 35.1517C18.9387 29.0971 21.8798 23.0222 24.8174 16.9675C25.224 16.1093 25.6509 15.2545 26.0575 14.3962C26.4947 13.4807 25.8829 12.1156 24.804 12.0258C19.4872 11.6105 14.1451 11.1597 8.81354 11.0754C8.43021 11.0623 8.09687 11.2452 7.82235 11.5111C7.79865 11.5279 7.78679 11.5363 7.77149 11.565C7.64264 11.7098 7.53404 11.858 7.4541 12.0216C7.4541 12.0216 7.44225 12.03 7.4388 12.0502C7.30951 12.32 7.24939 12.612 7.27374 12.8975C7.27676 13.0022 7.32718 13.0733 7.3539 13.1612C7.35541 13.2136 7.35691 13.2659 7.37867 13.3218C9.0712 20.5814 10.9885 27.8063 12.8771 35.0159C13.2671 36.5204 15.4109 36.3539 16.0045 35.1315L16.0011 35.1517Z" fill="#FCC63A"/>
	<path d="M23.0995 40.1649C22.9791 40.3215 22.8991 40.4851 22.8513 40.6436C22.8326 40.6926 22.8173 40.7212 22.7985 40.7701C22.7625 40.9203 22.7468 41.0739 22.7429 41.2192C22.7444 41.2715 22.7138 41.3289 22.7153 41.3812C22.7735 42.1414 23.5391 42.9699 24.3601 42.9221C24.6268 42.9467 24.8837 42.907 25.134 42.7829C31.7324 41.3634 38.3426 39.9355 44.9409 38.5159C45.9026 38.3149 46.8558 38.102 47.8175 37.901C49.3319 37.5752 49.8033 36.0298 48.7432 34.9115C45.1437 31.1413 41.556 27.3626 37.9565 23.5924C37.3372 22.9451 36.0782 23.1789 35.5811 23.8342C31.9335 28.6113 28.2977 33.38 24.6501 38.1571C24.1293 38.8291 23.6287 39.5046 23.1079 40.1767L23.0995 40.1649Z" fill="#FCC63A"/>
	<path d="M30.4609 50.4209L27.825 50.2953C27.3408 50.1399 26.8488 50.275 26.478 50.5557C26.0854 50.7807 25.7937 51.1479 25.6956 51.6627C25.6784 51.7639 25.71 51.8839 25.7012 51.9971C25.6943 52.0376 25.6993 52.0697 25.7126 52.1136C25.7191 52.1981 25.7172 52.2707 25.7355 52.3468C25.7771 52.531 25.8542 52.69 25.96 52.8644C25.9768 52.8881 25.9936 52.9118 26.0188 52.9473C26.0944 53.054 26.1819 53.1522 26.2897 53.2539C26.3351 53.2929 26.3806 53.332 26.4261 53.371C26.4261 53.371 26.4429 53.3947 26.4513 53.4065L42.8397 67.7528C43.621 68.4277 44.3905 69.1109 45.1718 69.7858C46.1686 70.6641 47.6437 69.9565 47.8995 68.76C49.0168 63.6043 50.1256 58.4367 51.2311 53.2894C51.4011 52.4743 50.7327 51.3809 49.8529 51.3458C43.3821 51.0363 36.9114 50.7269 30.4406 50.4174L30.4609 50.4209Z" fill="#FCC63A"/>
</svg>
