<svg width="71" height="71" viewBox="0 0 71 71" fill="none" xmlns="http://www.w3.org/2000/svg">
<path d="M35.967 51.5642C29.5328 49.5921 23.0781 47.6196 16.6438 45.6475C15.7333 45.3777 14.8231 45.0872 13.9125 44.8174C12.9406 44.5261 11.6858 45.3404 11.7629 46.4202C12.1698 51.7378 12.5454 57.0857 13.2815 62.3668C13.3275 62.7476 13.5595 63.0489 13.8644 63.2792C13.8847 63.3001 13.8948 63.3105 13.9255 63.3212C14.0883 63.4263 14.2515 63.5108 14.4254 63.5647C14.4254 63.5647 14.4355 63.5751 14.4561 63.5754C14.7425 63.6617 15.0403 63.6762 15.3186 63.6083C15.4216 63.5892 15.4842 63.5284 15.5669 63.4885C15.6184 63.479 15.6699 63.4694 15.7217 63.4394C22.635 60.6511 29.4793 57.6462 36.313 54.6719C37.7397 54.0553 37.2456 51.9626 35.9465 51.5639L35.967 51.5642Z" fill="#77EDA5"/>
<path d="M39.8296 43.7797C40.0029 43.8747 40.1768 43.9285 40.3408 43.9514C40.392 43.9624 40.4227 43.9731 40.4739 43.9841C40.6279 43.9966 40.7821 43.9885 40.9262 43.97C40.9777 43.9605 41.039 43.9819 41.0905 43.9724C41.8328 43.7981 42.5338 42.9142 42.3603 42.1104C42.3436 41.843 42.2649 41.5953 42.1038 41.367C39.687 35.0652 37.2601 28.7531 34.8432 22.4513C34.4968 21.532 34.1399 20.6228 33.7935 19.7034C33.2388 18.2571 31.6393 18.0288 30.6972 19.2482C27.525 23.3844 24.3427 27.5102 21.1706 31.6464C20.6261 32.3579 21.0507 33.566 21.7745 33.9565C27.0555 36.8265 32.3264 39.6861 37.6073 42.5561C38.3514 42.9675 39.0959 43.3583 39.84 43.7696L39.8296 43.7797Z" fill="#77EDA5"/>
<path d="M48.8321 34.9294L49.1131 37.5533C49.034 38.0556 49.2431 38.5209 49.5775 38.8442C49.8601 39.1975 50.2678 39.4294 50.7915 39.4471C50.8942 39.4486 51.0079 39.3989 51.1211 39.3902C51.1622 39.3908 51.1931 39.381 51.2345 39.361C51.317 39.3416 51.389 39.3324 51.4614 39.3026C51.637 39.2332 51.7823 39.1325 51.9383 39.0012C51.9591 38.9809 51.98 38.9607 52.0112 38.9303C52.105 38.8392 52.1886 38.7377 52.2726 38.6156C52.3041 38.5646 52.3357 38.5137 52.3672 38.4628C52.3672 38.4628 52.3881 38.4425 52.3985 38.4324L64.0554 20.0337C64.6022 19.158 65.1591 18.2926 65.7058 17.4169C66.4205 16.2969 65.4945 14.9481 64.2729 14.8793C59.0067 14.5677 53.7302 14.2662 48.4741 13.9651C47.6426 13.9224 46.6649 14.7509 46.7654 15.6256C47.4542 22.0671 48.143 28.5085 48.8318 34.9499L48.8321 34.9294Z" fill="#77EDA5"/>
</svg>
