<svg width="67" height="67" viewBox="0 0 67 67" fill="none" xmlns="http://www.w3.org/2000/svg">
<path d="M42.5101 38.5061C38.3268 35.72 33.6834 33.5703 29.2097 31.3107C24.7427 29.0536 20.236 26.3657 15.4696 24.8474C12.7174 23.9692 11.2934 27.7919 13.5353 29.3593C17.6365 32.2287 22.4923 34.1477 26.9723 36.3216C31.4899 38.5125 36.0388 40.8988 40.785 42.5296C43.2034 43.3611 44.5445 39.8612 42.5101 38.5061Z" fill="#518FFF"/>
<path d="M37.3634 50.656C34.4052 50.6987 31.4498 50.8574 28.4995 51.0158L22.4711 51.3435C21.0226 51.4211 19.4619 51.4539 18.3118 52.4369L19.8813 51.7946L19.8659 51.7953C18.686 51.8738 17.6746 52.703 17.68 53.9907C17.6842 55.1231 18.6993 56.3702 19.8843 56.2914L19.8997 56.2907L18.8227 55.9764C19.9468 56.6793 21.4446 56.4803 22.6633 56.3821C24.6914 56.2193 26.7207 56.0585 28.7488 55.8957C31.8157 55.6509 34.8857 55.3933 37.9392 55.0277C40.3752 54.7364 39.7799 50.622 37.3645 50.6581L37.3634 50.656Z" fill="#518FFF"/>
<path d="M51.1804 28.761C49.0542 24.9503 46.2208 21.4428 43.8211 17.7975C41.4083 14.1338 39.3957 10.0283 36.5361 6.7008C35.128 5.0626 31.982 6.60199 32.7293 8.7686C34.1923 13.0127 36.9527 16.7982 39.4247 20.5068C41.8838 24.1923 44.4464 28.2519 47.6165 31.3564C49.3753 33.078 52.4647 31.0621 51.1804 28.761Z" fill="#518FFF"/>
</svg>
