<svg width="74" height="67" viewBox="0 0 74 67" fill="none" xmlns="http://www.w3.org/2000/svg">
<path d="M20.5226 35.9758C21.6023 29.3333 22.6796 22.6705 23.7593 16.028C23.903 15.0892 24.067 14.148 24.2107 13.2092C24.3673 12.2068 23.3901 11.0742 22.3307 11.2972C17.1177 12.4227 11.8704 13.5214 6.73825 14.9682C6.36722 15.0654 6.10027 15.3362 5.91345 15.6696C5.89555 15.6925 5.8866 15.7039 5.88015 15.7358C5.79818 15.9114 5.73662 16.0846 5.70689 16.2642C5.70689 16.2642 5.69793 16.2756 5.70043 16.296C5.65386 16.5915 5.67992 16.8885 5.78504 17.155C5.81794 17.2545 5.88662 17.3082 5.93741 17.3848C5.95386 17.4345 5.9703 17.4842 6.00714 17.5314C9.70866 24.0018 13.6156 30.3745 17.4906 36.7408C18.2953 38.0704 20.3015 37.2967 20.5201 35.9554L20.5226 35.9758Z" fill="#99B3F9"/>
<path d="M28.7598 38.7447C28.6893 38.9293 28.6596 39.1089 28.6592 39.2746C28.6552 39.3268 28.6488 39.3586 28.6449 39.4109C28.6534 39.5651 28.6823 39.7168 28.7202 39.857C28.7367 39.9068 28.7238 39.9704 28.7402 40.0202C29.0138 40.7318 29.9847 41.3063 30.7575 41.0252C31.0201 40.9723 31.2548 40.8608 31.4592 40.6701C37.3742 37.4196 43.2981 34.1577 49.2131 30.9072C50.0769 30.439 50.9292 29.962 51.7929 29.4938C53.1505 28.7478 53.1594 27.1321 51.8233 26.3644C47.2945 23.7835 42.7746 21.1912 38.2458 18.6104C37.467 18.1677 36.3278 18.7524 36.0392 19.5226C33.9132 25.1445 31.7962 30.7549 29.6702 36.3768C29.3637 37.17 29.0777 37.9606 28.7713 38.7537L28.7598 38.7447Z" fill="#99B3F9"/>
<path d="M38.7507 46.4619L36.1893 47.0967C35.6809 47.0866 35.2483 47.357 34.9735 47.7322C34.6618 48.0602 34.4875 48.4956 34.541 49.0169C34.5535 49.1189 34.6183 49.2248 34.6422 49.3357C34.6472 49.3765 34.6612 49.4058 34.6865 49.4441C34.7169 49.5232 34.7359 49.5933 34.7752 49.6609C34.8679 49.8255 34.9873 49.9558 35.1386 50.0925C35.1615 50.1104 35.1844 50.1283 35.2188 50.1551C35.3218 50.2356 35.4337 50.3047 35.5661 50.3713C35.6208 50.3956 35.6756 50.42 35.7303 50.4443C35.7303 50.4443 35.7532 50.4622 35.7647 50.4711L55.5764 59.5205C56.5183 59.9433 57.4513 60.3774 58.3932 60.8002C59.5998 61.356 60.8104 60.2554 60.7126 59.0358C60.3059 53.7761 59.8877 48.5075 59.4721 43.2593C59.4014 42.4296 58.4477 41.5736 57.5948 41.792C51.3066 43.3495 45.0185 44.9069 38.7303 46.4644L38.7507 46.4619Z" fill="#99B3F9"/>
</svg>
