<svg width="48" height="47" viewbox="0 0 48 47" fill="none" xmlns="http://www.w3.org/2000/svg">
	<path d="M20.1126 41.39C20.0254 41.2799 19.9207 41.1662 19.8335 41.0562C19.5683 40.7437 20.2137 41.5213 19.8752 41.12C19.7009 40.8999 19.509 40.6762 19.331 40.4737C18.3611 39.3161 17.4339 38.1307 16.5316 36.9139C13.8137 33.3163 11.281 29.5376 9.15941 25.5518C6.30682 20.1468 2.13666 9.29287 10.4137 6.20969C15.8373 4.19551 19.9386 10.7434 22.0008 14.6616C22.8673 16.311 25.1201 16.0878 26.2662 15.0083C29.2639 12.1172 34.2148 8.59143 38.394 11.3592C41.0902 13.1366 42.3295 16.7718 41.6759 19.8806C40.8671 23.7271 37.387 26.9018 34.5485 29.3862C31.1692 32.3437 27.395 34.9064 23.5911 37.2612C21.3733 38.6289 19.1277 39.9541 16.8163 41.1554C13.7251 42.743 16.7132 47.2411 19.7655 45.6637C27.0647 41.898 34.2632 37.2125 40.1696 31.5034C43.7226 28.0689 47.0046 23.8254 47.201 18.6947C47.3875 13.8737 44.9224 8.89873 40.6731 6.46468C34.1254 2.72205 27.0283 6.75027 22.2291 11.39L26.4946 11.7367C23.6215 6.25405 18.9381 0.464137 12.1466 0.503396C7.43678 0.521827 3.18237 3.88226 1.31218 8.05578C-3.0442 17.7589 4.55057 29.4613 9.97835 37.1317C12.0046 39.997 14.155 42.7967 16.4905 45.4152C18.826 48.0338 22.3953 43.9974 20.1052 41.4251L20.1126 41.39Z" fill="white"/>
</svg>
