<svg width="68" height="76" viewBox="0 0 68 76" fill="none" xmlns="http://www.w3.org/2000/svg">
	<path d="M55.2234 65.1133C55.0982 65.0631 54.9729 65.0214 54.8477 64.9628C54.7725 64.9294 54.9395 65.0046 54.8894 64.9796C54.8727 64.9712 54.856 64.9628 54.8477 64.9628C54.8143 64.9461 54.7892 64.9378 54.7558 64.9211C54.6891 64.8876 54.6223 64.8625 54.5555 64.8291C54.2883 64.7037 54.0211 64.5616 53.7623 64.4195C53.1612 64.0852 52.5851 63.7174 52.0257 63.3246C52.009 63.3079 51.9923 63.2995 51.9673 63.2828C52.151 63.3915 51.9923 63.2995 51.9172 63.241C51.8838 63.2159 51.8504 63.1992 51.817 63.1741C51.7335 63.1156 51.65 63.0655 51.5665 63.007C51.4079 62.8983 51.2493 62.7896 51.0823 62.6726C50.7567 62.447 50.4394 62.2046 50.1305 61.9705C50.1138 61.9538 50.0888 61.9371 50.0721 61.9287C50.0136 61.8786 50.2057 62.029 50.1138 61.9622C50.0721 61.9287 50.0387 61.9037 49.9969 61.8702C49.9135 61.8034 49.8216 61.7365 49.7381 61.6696C49.5795 61.5442 49.4209 61.4189 49.2706 61.2851C48.9366 61.0093 48.6027 60.7251 48.2771 60.4326C46.9412 59.254 45.6972 57.9752 44.5284 56.6295C44.2362 56.2951 43.9523 55.9525 43.6684 55.6014C43.6017 55.5178 43.5349 55.4342 43.4681 55.3506C43.4347 55.3089 43.4013 55.2671 43.3679 55.2253C43.3512 55.2002 43.3345 55.1835 43.3178 55.1584C43.2844 55.1166 43.4263 55.3005 43.3345 55.1751C43.2009 55.0079 43.0757 54.8324 42.9504 54.6569C42.4411 53.9548 41.9569 53.236 41.5144 52.4921C41.097 51.79 40.7213 51.0628 40.404 50.3189C40.3289 50.1517 40.4541 50.4442 40.404 50.3189C40.3873 50.2771 40.3706 50.2353 40.3539 50.1851C40.3205 50.0932 40.2788 50.0012 40.2454 49.9093C40.1786 49.7254 40.1118 49.5415 40.045 49.3576C39.9281 49.0066 39.8279 48.6555 39.7444 48.2961C39.7027 48.1206 39.6609 47.9367 39.6359 47.7612C39.6192 47.6776 39.6025 47.594 39.5942 47.5104C39.5858 47.4686 39.5858 47.4268 39.5775 47.3851C39.5691 47.3349 39.5608 47.2597 39.5942 47.4854C39.5942 47.4603 39.5858 47.4352 39.5858 47.4101C39.5441 47.0674 39.519 46.7164 39.519 46.3737C39.519 46.2149 39.5274 46.0477 39.5357 45.8889C39.5441 45.8053 39.5524 45.7301 39.5608 45.6465C39.5691 45.6047 39.5691 45.5713 39.5775 45.5295C39.5942 45.379 39.5441 45.7301 39.5775 45.5462C39.6275 45.2286 39.6943 44.911 39.7945 44.6017C39.8446 44.4429 39.9031 44.2924 39.9615 44.1336C39.9949 44.05 39.9198 44.2423 39.9198 44.2256C39.9281 44.2005 39.9365 44.1838 39.9448 44.1587C39.9615 44.1253 39.9782 44.0835 39.9949 44.05C40.0283 43.9748 40.07 43.8996 40.1034 43.8244C40.2621 43.5235 40.4457 43.2393 40.6461 42.9634C40.738 42.8464 40.5376 43.0972 40.6378 42.9802C40.6628 42.9467 40.6879 42.9133 40.7213 42.8799C40.7964 42.7879 40.8799 42.696 40.955 42.604C41.1137 42.4285 41.2806 42.2613 41.456 42.1025C41.5395 42.0273 41.6229 41.9604 41.7064 41.8936C41.7983 41.8183 41.5896 41.9772 41.6563 41.927C41.6814 41.9103 41.6981 41.8936 41.7231 41.8769C41.7732 41.8434 41.8233 41.8016 41.8734 41.7682C42.032 41.6595 42.2074 41.5592 42.3827 41.4673C42.4662 41.4255 42.5497 41.3837 42.6415 41.3503C42.4161 41.4506 42.5831 41.3753 42.6332 41.3586C42.6833 41.3419 42.7334 41.3168 42.7918 41.3001C42.9671 41.2416 43.1508 41.1915 43.3345 41.158C43.3762 41.1497 43.418 41.1413 43.4681 41.133C43.5182 41.1246 43.5849 41.133 43.3679 41.1497C43.3929 41.1497 43.418 41.1413 43.443 41.1413C43.5265 41.133 43.6183 41.1246 43.7018 41.1246C43.8855 41.1162 44.0692 41.1246 44.2529 41.1413C44.2946 41.1497 44.3364 41.1497 44.3864 41.158C44.1276 41.1329 44.303 41.1497 44.3698 41.158C44.4699 41.1747 44.5618 41.1915 44.6536 41.2165C44.8289 41.2583 45.0043 41.3085 45.1713 41.367C45.2547 41.4004 45.3466 41.4255 45.4301 41.4673C45.4802 41.4924 45.6471 41.5676 45.4301 41.4673C45.4802 41.4924 45.5303 41.5091 45.5887 41.5342C45.764 41.6177 45.9394 41.7097 46.1147 41.8016C46.29 41.9019 46.4653 42.0106 46.6323 42.1276C46.7158 42.1861 46.7993 42.2446 46.8828 42.3031C46.9245 42.3366 46.9663 42.3616 47.008 42.3951C47.0498 42.4285 47.2334 42.5706 47.0498 42.4202C47.3921 42.696 47.726 42.9802 48.0433 43.2894C48.3772 43.6154 48.6945 43.9497 48.9951 44.3092C49.1454 44.4847 49.2956 44.6686 49.4459 44.8525C49.4793 44.8942 49.5211 44.9444 49.5545 44.9862C49.6296 45.0865 49.471 44.8775 49.5211 44.9444C49.5378 44.9695 49.5544 44.9862 49.5711 45.0113C49.6463 45.1116 49.7214 45.2119 49.7966 45.3205C50.3476 46.0811 50.8569 46.8836 51.2994 47.711C51.5165 48.1122 51.7252 48.5218 51.9089 48.9397C51.9506 49.04 52.0007 49.132 52.0424 49.2323C52.0675 49.2824 52.0842 49.3326 52.1092 49.3744C52.1259 49.4162 52.1677 49.5081 52.0842 49.3159C52.0925 49.3409 52.1092 49.3744 52.1176 49.3994C52.2011 49.6 52.2762 49.7923 52.3514 49.9929C52.4849 50.3523 52.6018 50.7117 52.702 51.0795C52.7938 51.3971 53.1111 51.6061 53.4367 51.5559C53.754 51.5141 54.0295 51.2299 54.0128 50.8956C53.9961 50.369 54.0295 49.8424 54.0879 49.3159C54.0963 49.2406 54.1046 49.1654 54.113 49.0902C54.1213 49.0484 54.1213 49.0066 54.1297 48.9732C54.1297 48.9564 54.138 48.9397 54.138 48.923C54.1547 48.8227 54.113 49.0818 54.1297 49.0066C54.1547 48.8478 54.1798 48.6806 54.2048 48.5218C54.2633 48.1875 54.3217 47.8531 54.3885 47.5188C54.5388 46.8083 54.7225 46.1062 54.9395 45.4041C55.0481 45.0447 55.1733 44.6853 55.2985 44.3342C55.3653 44.1587 55.4321 43.9832 55.4989 43.816C55.5323 43.7324 55.5657 43.6405 55.5991 43.5569C55.6158 43.5151 55.6408 43.465 55.6575 43.4232C55.6575 43.4232 55.5907 43.5903 55.6325 43.49C55.6408 43.465 55.6575 43.4399 55.6659 43.4148C55.9581 42.7378 56.2921 42.0775 56.6761 41.4422C56.8514 41.1497 57.0435 40.8655 57.2522 40.5897C57.2689 40.5646 57.3691 40.4308 57.2856 40.5395C57.2021 40.6482 57.2939 40.5228 57.3106 40.5061C57.3607 40.4392 57.4192 40.3723 57.4776 40.3055C57.5861 40.1801 57.6947 40.0547 57.8116 39.9377C57.9201 39.829 58.0286 39.712 58.1455 39.6117C58.204 39.5616 58.2624 39.5114 58.3209 39.4613C58.3459 39.4362 58.3793 39.4195 58.4043 39.3944C58.4294 39.3777 58.563 39.269 58.4544 39.3526C58.3459 39.4362 58.4628 39.3526 58.4795 39.3359C58.5129 39.3108 58.5463 39.2857 58.5713 39.269C58.6381 39.2272 58.6966 39.1771 58.7633 39.1436C58.8886 39.0684 59.0138 38.9932 59.139 38.9263C59.1975 38.8929 59.2559 38.8678 59.3227 38.8427C59.3394 38.8344 59.3561 38.826 59.3645 38.826C59.4647 38.7842 59.2142 38.8845 59.2893 38.8595C59.3227 38.8427 59.3561 38.8344 59.3895 38.8177C59.5231 38.7675 59.665 38.7257 59.807 38.6839C59.8738 38.6672 59.9405 38.6505 60.0157 38.6421C60.0491 38.6338 60.0825 38.6338 60.1159 38.6254C60.1326 38.6254 60.1493 38.6171 60.166 38.6171C60.2745 38.6003 59.9572 38.6421 60.0992 38.6254C60.2912 38.6003 60.4916 38.5836 60.6919 38.5836C60.884 38.5753 61.0677 38.5836 61.2597 38.592C61.3515 38.6003 61.4434 38.6087 61.5352 38.6171C61.3599 38.592 61.6855 38.6338 61.5352 38.6171C61.5853 38.6254 61.627 38.6338 61.6771 38.6421C62.0278 38.709 62.3617 38.8093 62.6957 38.9347C62.7875 38.9681 62.6206 38.9012 62.6206 38.9012C62.6373 38.9012 62.6623 38.918 62.679 38.9263C62.7207 38.943 62.7625 38.9598 62.8042 38.9848C62.8877 39.0266 62.9629 39.0601 63.0464 39.1102C63.1966 39.1938 63.3469 39.2857 63.4888 39.3777C63.5556 39.4195 63.6224 39.4696 63.6809 39.5198C63.8061 39.6117 63.5807 39.4362 63.6642 39.5031C63.7059 39.5365 63.7393 39.5616 63.7811 39.595C63.9146 39.7037 64.0399 39.8207 64.1568 39.9377C64.282 40.0631 64.3989 40.1968 64.5158 40.3305C64.5742 40.3974 64.6243 40.4643 64.6827 40.5311C64.6827 40.5311 64.5742 40.3891 64.6327 40.4726C64.641 40.4894 64.6577 40.5061 64.6661 40.5228C64.6994 40.5646 64.7245 40.6064 64.7579 40.6482C64.9666 40.9491 65.1586 41.2583 65.3173 41.5843C65.4008 41.7515 65.4759 41.9186 65.551 42.0858C65.5844 42.161 65.4842 41.9186 65.526 42.0357C65.5343 42.0524 65.5427 42.0775 65.551 42.0942C65.5677 42.136 65.5844 42.1778 65.6011 42.2195C65.6345 42.3115 65.6679 42.4034 65.7013 42.5037C65.8266 42.8715 65.9351 43.2476 66.0186 43.6238C66.0603 43.8244 66.1021 44.0166 66.1355 44.2172C66.1438 44.259 66.1522 44.3092 66.1605 44.3593C66.1605 44.3844 66.1689 44.4095 66.1689 44.4262C66.1856 44.5348 66.1605 44.3593 66.1605 44.3509C66.1689 44.4596 66.1856 44.5599 66.1939 44.6686C66.2357 45.0781 66.2524 45.4877 66.2524 45.8973C66.2524 46.3152 66.2273 46.7331 66.1772 47.1427C66.1689 47.1928 66.1689 47.243 66.1605 47.2848C66.1605 47.3098 66.1438 47.4268 66.1605 47.3015C66.1605 47.2764 66.1772 47.1845 66.1605 47.3015C66.1438 47.4101 66.1271 47.5188 66.1104 47.6275C66.077 47.8364 66.0353 48.0454 65.9852 48.2543C65.7681 49.2072 65.4425 50.135 65.0751 51.0377C65.0334 51.1464 64.9833 51.2634 64.9416 51.372C64.9332 51.3971 64.9165 51.4305 64.9082 51.4556C64.975 51.3052 64.9332 51.3888 64.9249 51.4222C64.8915 51.4891 64.8664 51.5643 64.833 51.6311C64.7245 51.8735 64.616 52.1243 64.4991 52.3667C64.2737 52.8515 64.0315 53.3279 63.7727 53.8043C63.2551 54.7656 62.6873 55.7017 62.0862 56.6128C61.7773 57.0725 61.4684 57.5238 61.1428 57.9668C60.9758 58.1925 60.8088 58.4182 60.6419 58.6355C60.6252 58.6606 60.5667 58.7358 60.6586 58.6104C60.6419 58.6355 60.6168 58.6606 60.6001 58.6857C60.5584 58.7358 60.525 58.786 60.4832 58.8361C60.3914 58.9448 60.3079 59.0618 60.2161 59.1704C58.8886 60.8171 57.4275 62.3634 55.8329 63.7509C55.4655 64.0685 55.0898 64.3778 54.7058 64.6787C54.5805 64.779 54.5137 65.0046 54.5137 65.1551C54.5137 65.3223 54.5889 65.5145 54.7058 65.6315C54.831 65.7485 54.998 65.8321 55.1816 65.8238C55.3737 65.8154 55.5073 65.7402 55.6575 65.6315C57.319 64.3276 58.8385 62.8398 60.2244 61.2433C61.7272 59.5215 63.0881 57.6576 64.2486 55.6933C65.3674 53.796 66.3275 51.79 66.9871 49.6836C67.5214 47.9869 67.7385 46.1814 67.513 44.4095C67.3127 42.7796 66.8034 41.1413 65.8099 39.8123C64.8664 38.5502 63.5389 37.589 61.961 37.3299C61.1428 37.1961 60.2829 37.1878 59.4814 37.3884C58.8552 37.5472 58.2708 37.8481 57.7615 38.2326C56.5843 39.1269 55.716 40.364 55.0481 41.6679C54.3217 43.0721 53.7874 44.5683 53.395 46.0979C53.0527 47.4185 52.8022 48.7809 52.7354 50.1517C52.7271 50.3941 52.7187 50.6448 52.7271 50.8872C53.1612 50.8287 53.6037 50.7702 54.0378 50.7117C53.5452 48.9481 52.7104 47.2597 51.7335 45.7217C50.6732 44.0584 49.4042 42.5037 47.8262 41.3001C46.4653 40.2553 44.7872 39.5616 43.0506 39.8625C42.1573 40.0213 41.3474 40.481 40.6628 41.0661C40.0199 41.6177 39.4522 42.3031 39.0515 43.047C38.3585 44.3342 38.1331 45.8137 38.2917 47.2597C38.467 48.8896 39.0264 50.4359 39.7528 51.8903C40.5543 53.4951 41.5812 54.9745 42.6916 56.3787C43.8271 57.8164 45.0878 59.1454 46.4319 60.3908C47.7177 61.5777 49.0869 62.6893 50.5396 63.684C50.6983 63.7927 50.8652 63.9013 51.0239 64.01C51.099 64.0601 51.1741 64.1103 51.2493 64.1604C51.291 64.1855 51.3244 64.2106 51.3662 64.2357C51.4246 64.2691 51.625 64.3192 51.4831 64.2942C51.3829 64.2775 51.4664 64.2942 51.5081 64.3192C51.817 64.5031 52.1343 64.6787 52.4599 64.8375C53.061 65.1467 53.6705 65.4309 54.305 65.6649C54.5555 65.7569 54.8143 65.8405 55.0648 65.9073C55.2818 65.9659 55.549 65.8321 55.5991 65.6064C55.5824 65.3975 55.4488 65.1969 55.2234 65.1133Z" fill="#528EFF"/>
	<path d="M32.0114 33.4491C31.7442 33.1315 31.477 32.8139 31.2099 32.5046C31.0679 32.3458 30.926 32.1786 30.7841 32.0198C30.759 31.9947 30.6004 31.7774 30.5753 31.7858C30.592 31.8025 30.6004 31.8276 30.6171 31.8443C30.5837 31.7941 30.5503 31.744 30.5085 31.7022C30.4918 31.6855 30.4752 31.6688 30.4585 31.652C30.4167 31.6102 30.3833 31.5601 30.3416 31.5183C30.0327 31.1505 29.7154 30.7911 29.4065 30.4233C29.3313 30.3398 29.2562 30.2478 29.1811 30.1642C29.1393 30.1141 29.0976 30.0639 29.0558 30.0221C29.0475 30.0138 29.0141 29.9636 29.0057 29.9636C29.0892 30.0807 29.0725 30.0556 28.9556 29.9051C28.9473 29.8968 28.9389 29.8884 28.9306 29.88C28.7636 29.6878 28.5799 29.5039 28.4046 29.32C26.9185 27.7152 25.4491 26.102 24.0465 24.4387C23.6875 24.0124 23.3284 23.5778 22.9778 23.1432C22.7941 22.9175 22.6188 22.6918 22.4435 22.4661C22.4017 22.416 22.36 22.3575 22.3182 22.3073C22.2932 22.2739 22.1345 22.0816 22.2598 22.2321C22.1679 22.1151 22.0761 21.998 21.9926 21.881C21.3163 20.9867 20.6568 20.0673 20.0473 19.1311C19.4545 18.22 18.8952 17.2839 18.4026 16.3143C18.1604 15.8462 17.935 15.3782 17.7263 14.8934C17.7013 14.8349 17.6762 14.7847 17.6512 14.7262C17.5927 14.5925 17.7013 14.8516 17.6679 14.768C17.6595 14.7346 17.6428 14.7095 17.6261 14.6761C17.576 14.5507 17.5259 14.4337 17.4758 14.3083C17.384 14.0743 17.3005 13.8402 17.217 13.6062C16.8998 12.6784 16.6743 11.7423 16.5241 10.7727C16.5658 11.0318 16.5241 10.7977 16.5241 10.7476C16.5157 10.6891 16.5074 10.6389 16.5074 10.5804C16.4907 10.4551 16.4823 10.338 16.474 10.2127C16.4573 9.97862 16.4406 9.74459 16.4406 9.50219C16.4322 9.04248 16.4573 8.59112 16.5074 8.13141C16.5157 8.0729 16.5491 7.84722 16.5074 8.10633C16.5157 8.04782 16.5241 7.98931 16.5324 7.93081C16.5491 7.81379 16.5741 7.69677 16.5992 7.57975C16.6409 7.35407 16.6994 7.1284 16.7578 6.91108C16.8163 6.6854 16.8914 6.46808 16.9665 6.2424C17.0083 6.13374 17.05 6.02508 17.0918 5.91642C17.1085 5.86627 17.1335 5.81612 17.1586 5.75761C17.2087 5.63224 17.1001 5.89971 17.1335 5.80776C17.1502 5.77433 17.1669 5.7409 17.1753 5.70746C17.409 5.18088 17.6846 4.66266 17.9851 4.16951C18.127 3.93547 18.2773 3.7098 18.436 3.48412C18.4777 3.42561 18.5111 3.37546 18.5528 3.31695C18.5695 3.29187 18.6948 3.12471 18.6113 3.23337C18.5278 3.33367 18.653 3.18321 18.6697 3.15814C18.7115 3.10799 18.7532 3.04948 18.8033 2.99933C19.0872 2.66499 19.4044 2.38916 19.73 2.09662C19.538 2.27215 19.6716 2.13841 19.73 2.10498C19.7634 2.0799 19.8052 2.05483 19.8386 2.02975C19.9137 1.9796 19.9972 1.92109 20.0807 1.8793C20.1558 1.83751 20.231 1.79571 20.3145 1.75392C20.3479 1.73721 20.3813 1.72049 20.4147 1.70377C20.4397 1.69541 20.4648 1.6787 20.4898 1.67034C20.59 1.62019 20.3061 1.74556 20.4147 1.70377C20.5649 1.64526 20.7152 1.59511 20.8739 1.55332C20.949 1.5366 21.0158 1.51989 21.0909 1.51153C21.1577 1.50317 21.333 1.49481 21.0408 1.51989C21.0826 1.51989 21.1243 1.51153 21.1577 1.50317C21.3163 1.48645 21.475 1.48645 21.6253 1.49481C21.7088 1.50317 21.9926 1.55332 21.6837 1.49481C21.7672 1.51153 21.8423 1.51989 21.9258 1.5366C22.0761 1.57004 22.2264 1.61183 22.3767 1.66198C22.4518 1.68706 22.5186 1.71213 22.5854 1.74556C22.6939 1.78736 22.4017 1.66198 22.5019 1.71213C22.5186 1.72049 22.5353 1.72885 22.552 1.72885C22.5937 1.74556 22.6271 1.76228 22.6689 1.78736C22.9861 1.93781 23.2867 2.13005 23.5706 2.33901C23.604 2.36409 23.6374 2.38916 23.6708 2.41424C23.7375 2.46439 23.5121 2.28886 23.604 2.36409C23.6207 2.37245 23.6374 2.38916 23.6457 2.39752C23.7208 2.45603 23.796 2.5229 23.8711 2.58141C24.0214 2.70678 24.1633 2.84052 24.3053 2.98261C24.5975 3.2668 24.873 3.5677 25.1318 3.88532C25.1986 3.96055 25.2571 4.03578 25.3155 4.11936C25.3489 4.16115 25.3823 4.20294 25.4157 4.25309C25.2571 4.05249 25.3906 4.21966 25.424 4.26145C25.5576 4.43698 25.6912 4.62087 25.8164 4.79639C26.0753 5.16416 26.3174 5.54865 26.5511 5.93314C27.027 6.72719 27.4528 7.54632 27.8369 8.39052C27.9371 8.59948 28.0289 8.8168 28.1207 9.02576C28.1291 9.05083 28.1458 9.08427 28.1541 9.10934C28.0707 8.90874 28.104 8.99233 28.1207 9.03412C28.1458 9.09263 28.1625 9.14278 28.1875 9.20129C28.2293 9.30995 28.2794 9.41861 28.3211 9.52727C28.4797 9.92847 28.63 10.338 28.772 10.756C29.0308 11.5166 29.2562 12.2939 29.4315 13.0796C29.5067 13.4056 29.5651 13.7316 29.6069 14.0659C29.6486 14.3668 30.016 14.6092 30.3082 14.6008C30.6004 14.5841 30.9594 14.3835 31.0095 14.0659C31.1347 13.2635 31.3685 12.4862 31.6691 11.7339C31.6774 11.7088 31.6941 11.6837 31.7024 11.6587C31.6106 11.8927 31.6524 11.784 31.6691 11.7339C31.6857 11.6921 31.7024 11.6503 31.7275 11.6085C31.7692 11.5082 31.8193 11.4079 31.8694 11.3076C31.9613 11.1237 32.0531 10.9398 32.1449 10.756C32.3453 10.3798 32.5624 10.0121 32.7962 9.661C32.913 9.47711 33.0383 9.29323 33.1719 9.1177C33.2303 9.04248 33.2804 8.95889 33.3388 8.88367C33.3722 8.83352 33.4056 8.79172 33.439 8.74157C33.4808 8.69142 33.6227 8.51589 33.4474 8.72486C33.7229 8.38216 33.9984 8.03946 34.2906 7.71349C34.8834 7.05317 35.5179 6.443 36.1942 5.87463C36.3612 5.73254 36.5281 5.5988 36.6951 5.46507C36.7452 5.43163 36.787 5.38984 36.837 5.35641C36.8454 5.35641 36.6784 5.48178 36.7619 5.41492C36.787 5.3982 36.812 5.38148 36.8287 5.36477C36.9205 5.2979 37.0124 5.22267 37.1126 5.15581C37.4632 4.89669 37.8222 4.6543 38.1896 4.42026C38.8909 3.96891 39.6256 3.5677 40.3854 3.22501C40.4688 3.18321 40.5607 3.14978 40.6442 3.10799C40.4521 3.19157 40.7945 3.04112 40.6442 3.10799C40.6943 3.09127 40.7444 3.0662 40.7945 3.04948C40.9698 2.97425 41.1535 2.90739 41.3371 2.84052C41.6961 2.71514 42.0635 2.59812 42.4308 2.50618C42.7815 2.41424 43.1405 2.34737 43.4995 2.28886C43.6915 2.26379 43.3075 2.31394 43.4661 2.28886C43.5079 2.2805 43.5413 2.2805 43.583 2.27215C43.6748 2.26379 43.7667 2.25543 43.8585 2.24707C44.0255 2.23035 44.1841 2.22199 44.3511 2.22199C44.6767 2.21364 45.0023 2.23871 45.3196 2.27215C44.9856 2.23871 45.2862 2.27215 45.3697 2.2805C45.4532 2.29722 45.5283 2.31394 45.6118 2.33065C45.7537 2.36409 45.904 2.39752 46.0459 2.44767C46.1127 2.47275 46.1879 2.48946 46.2547 2.5229C46.3465 2.55633 46.5803 2.66499 46.3131 2.53962C46.4467 2.59812 46.5803 2.66499 46.7139 2.74022C46.8391 2.80709 46.9643 2.89067 47.0812 2.97425C47.1146 2.99933 47.148 3.0244 47.1814 3.04112C47.315 3.14142 47.0562 2.94082 47.123 2.99933C47.1814 3.04948 47.2482 3.09963 47.3066 3.14978C47.4152 3.25008 47.5237 3.35038 47.6239 3.4674C47.674 3.52591 47.7241 3.58442 47.7742 3.64293C47.7992 3.67636 47.8911 3.79338 47.7909 3.668C47.6907 3.53427 47.7992 3.67636 47.8243 3.7098C48.0163 3.97727 48.1833 4.26981 48.3252 4.57907C48.3419 4.61251 48.3586 4.6543 48.3753 4.68773C48.2584 4.42026 48.3336 4.58743 48.3586 4.6543C48.392 4.73788 48.4254 4.82983 48.4588 4.91341C48.5256 5.0973 48.5757 5.28954 48.6258 5.47343C48.6759 5.66567 48.7176 5.85791 48.751 6.05852C48.7677 6.15882 48.7844 6.26748 48.8011 6.36778C48.8178 6.49315 48.7761 6.15882 48.7927 6.28419C48.7927 6.30091 48.8011 6.32599 48.8011 6.3427C48.8094 6.40957 48.8178 6.4848 48.8261 6.55166C48.9263 7.57139 48.8846 8.60784 48.7677 9.62757C48.7593 9.70279 48.751 9.78638 48.7427 9.8616C48.7427 9.88668 48.7176 10.0204 48.7427 9.88668C48.7594 9.74458 48.7427 9.88668 48.7427 9.91175C48.7176 10.0789 48.6926 10.2377 48.6675 10.4049C48.6091 10.7727 48.5423 11.1404 48.4588 11.5082C48.3085 12.227 48.1165 12.9375 47.8911 13.6313C47.7825 13.974 47.6573 14.3166 47.5321 14.651C47.4736 14.8014 47.4152 14.9519 47.3567 15.1023C47.3317 15.1525 47.2148 15.42 47.315 15.1943C47.2732 15.2779 47.2398 15.3615 47.2064 15.445C46.9393 16.0552 46.6387 16.657 46.3048 17.2421C45.9875 17.8105 45.6368 18.3705 45.2695 18.9138C45.0858 19.1813 44.8938 19.4487 44.7018 19.7078C44.6517 19.7747 44.6099 19.8332 44.5598 19.9001C44.5348 19.9335 44.5097 19.9669 44.4847 20.0004C44.493 19.992 44.6016 19.8499 44.5264 19.9419C44.4179 20.0756 44.3177 20.2093 44.2092 20.3431C42.5728 22.3658 40.6525 24.1378 38.6738 25.8262C36.645 27.5648 34.5578 29.2197 32.5707 31.0084C32.0698 31.4598 31.5856 31.9111 31.1013 32.3792C30.7924 32.6801 30.7757 33.2401 31.1013 33.541C31.4353 33.8419 31.9279 33.8587 32.2618 33.541C34.2405 31.627 36.3695 29.8884 38.4734 28.1081C40.4939 26.4029 42.4893 24.6644 44.2509 22.6918C46.1044 20.6189 47.6489 18.3036 48.7176 15.7292C49.277 14.3835 49.6861 12.9793 49.9616 11.55C50.2037 10.3046 50.3707 9.03412 50.3707 7.76364C50.3707 6.07523 50.0868 4.23638 49.0432 2.85724C48.6007 2.2805 48.0664 1.779 47.4235 1.4363C46.7723 1.08525 46.071 0.893004 45.3363 0.801061C43.8669 0.617176 42.3474 0.926438 40.9614 1.41959C39.2916 1.98796 37.7471 2.84888 36.3361 3.89368C34.8166 5.02207 33.4557 6.33434 32.2952 7.8305C31.2266 9.22636 30.3499 10.8061 29.8657 12.5029C29.7571 12.879 29.6736 13.2635 29.6152 13.648C30.0827 13.648 30.5503 13.648 31.0178 13.648C30.7924 12.0432 30.2748 10.4801 29.6736 8.98397C28.9556 7.21198 28.0957 5.47343 26.9936 3.9104C26.476 3.17486 25.8999 2.45603 25.2487 1.82915C24.6893 1.29421 24.0548 0.792703 23.3451 0.466724C22.6605 0.149104 21.9008 -0.0598572 21.141 0.0153687C20.3395 0.0905946 19.5798 0.391498 18.9369 0.876287C18.0853 1.51989 17.4174 2.34737 16.8497 3.25008C16.2485 4.2113 15.7392 5.24775 15.422 6.33434C14.8543 8.28186 14.9127 10.3464 15.3719 12.3106C15.8645 14.3919 16.7829 16.3728 17.8599 18.2117C19.0371 20.2177 20.423 22.0983 21.8841 23.9038C23.3117 25.6674 24.8229 27.3558 26.3591 29.0191C27.0604 29.7797 27.7617 30.5404 28.4964 31.2759C29.1644 31.9362 29.8239 32.6049 30.4585 33.2903C30.734 33.5828 31.0011 33.8754 31.2683 34.1763C31.452 34.3769 31.8193 34.3769 32.003 34.1763C32.2201 33.959 32.2034 33.6748 32.0114 33.4491Z" fill="#528EFF"/>
	<path d="M30.3083 53.688C30.0955 52.0405 29.5845 50.3844 28.5713 49.041C27.6091 47.7652 26.2552 46.7936 24.6458 46.5317C23.8114 46.3965 22.9343 46.388 22.1169 46.5908C21.4782 46.7513 20.8822 47.0555 20.3628 47.4442C19.1622 48.3482 18.2766 49.5987 17.5954 50.9167C16.8546 52.3362 16.3096 53.8486 15.9094 55.3947C15.7476 56.0115 15.6114 56.6367 15.4922 57.262C15.109 56.4847 14.6833 55.7242 14.2149 54.9976C13.1335 53.3163 11.8392 51.7447 10.2299 50.5281C8.83344 49.4888 7.13043 48.7876 5.35931 49.0833C4.43968 49.2354 3.61373 49.7001 2.90698 50.2915C2.24281 50.8407 1.66379 51.542 1.24655 52.2939C0.531288 53.5951 0.284352 55.1075 0.446137 56.5692C0.633468 58.2252 1.20397 59.7883 1.96181 61.2668C2.78777 62.8891 3.84363 64.3845 4.98464 65.7955C6.1512 67.2403 7.43697 68.5837 8.80789 69.8426C10.1192 71.0424 11.5157 72.1661 12.9973 73.1716C13.1591 73.2814 13.3294 73.3913 13.4912 73.5011C13.5678 73.5518 13.6444 73.6025 13.7211 73.6532C13.7636 73.6785 13.7977 73.7039 13.8403 73.7292C13.8999 73.763 14.1042 73.8137 13.9595 73.7884C13.8573 73.7715 13.9425 73.7884 13.985 73.8137C14.3001 73.9996 14.6237 74.177 14.9557 74.3376C15.5688 74.6502 16.1904 74.9374 16.8376 75.174C17.093 75.267 17.357 75.3514 17.6124 75.419C17.7912 75.4697 18.0041 75.3852 18.1063 75.2332C18.1489 75.2078 18.1829 75.1825 18.2255 75.1487C19.92 73.8306 21.4697 72.3267 22.8832 70.7129C24.4159 68.9639 25.8039 67.0883 26.9875 65.0943C28.1285 63.1763 29.1077 61.1401 29.7804 59.0194C30.3168 57.2958 30.5382 55.4792 30.3083 53.688Z" fill="#528EFF"/>
</svg>
