<svg width="116" height="116" viewBox="0 0 116 116" fill="none" xmlns="http://www.w3.org/2000/svg">
<g filter="url(#filter0_d_1848_125756)">
<g clip-path="url(#clip0_1848_125756)">
<rect x="6" y="4" width="104" height="104" rx="52" fill="#C3CFFA"/>
<path d="M57.1111 58.1463C53.2077 66.0342 49.3209 73.9222 45.4175 81.8102L43.7731 85.1153C42.328 88.0456 46.6301 90.6352 48.0751 87.6878C51.9786 79.7998 55.8654 71.9119 59.7688 64.0239L61.4132 60.7188C62.8583 57.7885 58.5562 55.1989 57.1111 58.1463Z" fill="#6B93F6"/>
<path d="M75.3824 85.1331C71.479 77.2451 67.5922 69.3572 63.6888 61.4692C63.1407 60.3618 62.5925 59.2544 62.0444 58.1641C60.5993 55.2338 56.2972 57.8063 57.7423 60.7366C61.6457 68.6246 65.5325 76.5126 69.436 84.4005C69.9841 85.5079 70.5322 86.6153 71.0804 87.7057C72.5255 90.636 76.8275 88.0634 75.3824 85.1331Z" fill="#6B93F6"/>
<path d="M59.5862 64.4498C62.9896 64.4498 65.7487 61.62 65.7487 58.1292C65.7487 54.6384 62.9896 51.8086 59.5862 51.8086C56.1828 51.8086 53.4238 54.6384 53.4238 58.1292C53.4238 61.62 56.1828 64.4498 59.5862 64.4498Z" fill="#6B93F6"/>
<path d="M67.929 29.6618C57.3482 34.2446 46.7841 38.8275 36.2034 43.4274C35.2732 43.8363 34.7251 45.3525 35.0573 46.3066L36.5688 50.6169L38.3129 47.4651L34.1603 49.1006C32.9976 49.5606 31.9013 50.8554 32.4162 52.2524C33.3796 54.859 34.343 57.4656 35.2898 60.0722C35.7383 61.2648 37.0007 62.3722 38.3627 61.8611L42.6315 60.2255L39.8244 59.05L41.2529 62.1847C41.6682 63.1047 43.1299 63.7521 44.06 63.3603C49.2092 61.2307 54.375 59.1181 59.5242 56.9886L70.3209 52.542L74.2575 50.9235C74.6562 50.7702 75.8189 50.5317 76.0846 50.1739C75.8355 50.4976 74.1745 49.8502 75.6196 50.3954C76.5497 50.7532 77.5131 51.0087 78.4599 51.3154L83.2603 52.8657C85.5359 53.5983 86.8813 50.9917 86.0674 49.1176C82.4962 40.8208 78.9084 32.541 75.3372 24.2441C74.5399 22.3871 71.9487 22.796 71.0351 24.2441C69.7063 26.3737 68.3775 28.4862 67.0487 30.6158C65.3212 33.3928 69.6232 35.9653 71.3507 33.1884C72.6795 31.0588 74.0084 28.9462 75.3372 26.8167H71.0351C74.6063 35.1135 78.1941 43.3933 81.7654 51.6902L84.5725 47.9421C81.8318 47.0562 78.9914 45.7785 76.1843 45.2503C74.407 44.9096 72.3141 46.2725 70.7195 46.9369L48.877 55.9323C46.8339 56.7671 44.7909 57.6189 42.7312 58.4537L45.5383 59.6292L44.1099 56.4945C43.678 55.5575 42.2495 54.9612 41.3027 55.319L37.0339 56.9545L40.1068 58.7433C39.1434 56.1367 38.18 53.5301 37.2332 50.9235L35.4891 54.0753L39.6417 52.4398C40.821 51.9798 41.8675 50.702 41.3858 49.288L39.8742 44.9777L38.7281 47.8569C49.3089 43.2741 59.873 38.6912 70.4538 34.0913C71.6995 33.5461 71.9487 31.6891 71.3507 30.5988C70.6199 29.2699 69.1748 29.1507 67.9456 29.6788L67.929 29.6618Z" fill="#6B93F6"/>
<path d="M33.7741 46.3572C35.5016 50.8037 37.2291 55.2333 38.9565 59.6798L39.704 61.605C40.1857 62.8487 41.3816 63.8538 42.7769 63.3938C43.9396 63.002 45.0359 61.5879 44.521 60.2421C42.7935 55.7955 41.066 51.366 39.3386 46.9194L38.5911 44.9942C38.1094 43.7506 36.9135 42.7454 35.5182 43.2054C34.3555 43.5972 33.2592 45.0113 33.7741 46.3572Z" fill="#6B93F6"/>
<path d="M51.1317 78.4547H68.0409C69.3864 78.4547 70.5325 77.2792 70.5325 75.8992C70.5325 74.5193 69.3864 73.3438 68.0409 73.3438H51.1317C49.7862 73.3438 48.6401 74.5193 48.6401 75.8992C48.6401 77.2792 49.7862 78.4547 51.1317 78.4547Z" fill="#6B93F6"/>
<path d="M138.356 82.3935L123.333 65.397C123.333 65.397 84.0881 64.9349 55.4791 55.401C26.8701 45.867 -16.4545 18.8746 -16.4545 18.8746L-10.7155 59.9599C-10.7155 59.9599 31.6459 76.225 75.3793 81.8165C119.113 87.4081 138.356 82.3935 138.356 82.3935Z" fill="white" fill-opacity="0.2"/>
</g>
<rect x="8.5" y="6.5" width="99" height="99" rx="49.5" stroke="white" stroke-width="5"/>
</g>
<defs>
<filter id="filter0_d_1848_125756" x="0" y="0" width="116" height="116" filterUnits="userSpaceOnUse" color-interpolation-filters="sRGB">
<feFlood flood-opacity="0" result="BackgroundImageFix"/>
<feColorMatrix in="SourceAlpha" type="matrix" values="0 0 0 0 0 0 0 0 0 0 0 0 0 0 0 0 0 0 127 0" result="hardAlpha"/>
<feOffset dy="2"/>
<feGaussianBlur stdDeviation="3"/>
<feColorMatrix type="matrix" values="0 0 0 0 0 0 0 0 0 0 0 0 0 0 0.0705882 0 0 0 0.16 0"/>
<feBlend mode="normal" in2="BackgroundImageFix" result="effect1_dropShadow_1848_125756"/>
<feBlend mode="normal" in="SourceGraphic" in2="effect1_dropShadow_1848_125756" result="shape"/>
</filter>
<clipPath id="clip0_1848_125756">
<rect x="6" y="4" width="104" height="104" rx="52" fill="white"/>
</clipPath>
</defs>
</svg>
