<svg width="63" height="77" viewBox="0 0 63 77" fill="none" xmlns="http://www.w3.org/2000/svg">
<path d="M46.6843 25.3628C52.3881 32.5989 52.6027 42.9705 46.3545 50.112C40.4738 56.8294 30.8246 58.7468 22.806 54.9855C19.9287 53.6381 17.5866 57.9774 20.464 59.3248C30.4253 64.0007 42.6397 61.8248 49.9902 53.4111C57.3407 44.9975 57.9633 31.6908 50.8792 22.7056C48.9313 20.2502 44.7239 22.888 46.6843 25.3628Z" fill="white"/>
<path d="M16.5657 50.2673C10.5435 43.3151 10.389 32.605 16.4089 25.4988C22.4288 18.3926 32.3956 16.4926 40.6305 20.5676C43.4771 21.9754 45.8191 17.6361 42.9725 16.2283C32.7 11.1349 19.7597 13.5248 12.4454 22.5986C5.13104 31.6725 5.44063 44.9761 13.1857 53.8841C15.2522 56.2643 18.6197 52.6281 16.5657 50.2673Z" fill="white"/>
<path d="M52.4442 9.72088C43.764 15.9048 35.1036 22.0762 26.4234 28.2601C25.3739 29.0071 23.9117 29.7836 23.1914 30.8682C22.4711 31.9529 22.0014 33.2747 21.4352 34.4255L12.9533 51.6401C10.7878 56.0303 8.64205 60.408 6.47652 64.7982C5.44698 66.8708 7.89083 69.5142 9.99714 67.9881C18.7334 61.6321 27.4659 55.2921 36.2183 48.9396C37.6147 47.9317 39.0398 46.9466 40.4111 45.9C41.4159 45.1267 41.7373 44.3085 42.2244 43.2078L49.6547 26.8235C51.7581 22.1859 53.8614 17.5484 55.9648 12.9108C57.26 10.0416 52.8904 7.75848 51.5915 10.6436C47.255 20.1922 42.9309 29.7603 38.5943 39.3089L37.5047 41.72C37.4362 41.8727 37.2148 42.1769 37.2071 42.3592C37.2145 42.9964 37.5568 41.7143 37.9606 41.6496C37.0291 41.8029 35.5469 43.4114 34.8011 43.9387L19.178 55.2874C15.226 58.1607 11.2776 61.0181 7.32552 63.8915L10.8462 67.0814C15.5216 57.6047 20.1809 48.1246 24.8563 38.648C25.6713 36.9981 26.655 35.3506 27.332 33.6379C27.7546 32.5235 27.1412 33.8817 26.7947 33.9921C27.2364 33.835 27.722 33.3361 28.1048 33.0662L42.5771 22.7608C46.7555 19.7851 50.914 16.8218 55.0924 13.846C57.6767 12.0034 55.0446 7.88167 52.4405 9.73684L52.4442 9.72088Z" fill="white"/>
<path d="M24.3098 34.3192C28.0293 37.4408 31.7326 40.5588 35.4521 43.6804C35.9945 44.131 36.5207 44.5783 37.0631 45.0289C38.0455 45.8582 39.6778 45.9197 40.5785 44.8698C41.4323 43.8769 41.5065 42.2824 40.4504 41.4039C36.7309 38.2824 33.0276 35.1643 29.3081 32.0428C28.7657 31.5922 28.2395 31.1449 27.6971 30.6942C26.7147 29.865 25.0824 29.8035 24.1817 30.8534C23.3279 31.8462 23.2537 33.4408 24.3098 34.3192Z" fill="white"/>
</svg>
