<svg width="116" height="116" viewBox="0 0 116 116" fill="none" xmlns="http://www.w3.org/2000/svg">
<g filter="url(#filter0_d_1848_125818)">
<g clip-path="url(#clip0_1848_125818)">
<rect x="6" y="4" width="104" height="104" rx="52" fill="#9EF9BE"/>
<path d="M59.4878 74.4141C59.3677 74.3142 59.2275 74.2142 59.1073 74.1143C58.7468 73.8346 59.628 74.534 59.1674 74.1743C58.9271 73.9745 58.6667 73.7747 58.4264 73.5948C57.1046 72.5558 55.8228 71.4768 54.5611 70.3579C50.7759 67.061 47.151 63.5243 43.9266 59.6679C39.5807 54.4328 32.5511 43.563 40.8624 38.308C46.3099 34.8712 52.278 41.0654 55.4223 44.8618C56.7441 46.4603 59.1474 45.701 60.1487 44.2624C62.7523 40.426 67.3386 35.4506 72.5256 37.5087C75.8702 38.8275 78.0532 42.504 78.0532 46.0407C78.0532 50.4166 74.989 54.6726 72.4656 58.0294C69.4615 62.0257 65.9366 65.6823 62.3317 69.119C60.2288 71.1172 58.0859 73.0753 55.8429 74.9136C52.8388 77.3513 57.1246 81.5673 60.0887 79.1496C67.1783 73.375 73.9476 66.6214 79.0746 59.0485C82.1588 54.4928 84.7623 49.1178 83.801 43.4831C82.8998 38.1881 79.0746 33.3326 73.8875 31.6542C65.8966 29.0766 59.0873 35.091 54.9216 41.2452L59.6481 40.6458C55.2621 35.3307 48.8333 30.0957 41.4432 31.6942C36.3162 32.7931 32.4509 37.4288 31.3694 42.4041C28.846 53.9732 39.801 64.9829 47.4714 72.0962C50.3353 74.7537 53.3194 77.3113 56.4637 79.6292C59.608 81.947 62.572 76.7319 59.4878 74.454V74.4141Z" fill="#49BC8D"/>
<path d="M125.905 51.0289L108.633 47.1576C108.633 47.1576 81.8318 59.6282 58.4594 63.992C35.087 68.3558 -5.54218 68.5113 -5.54218 68.5113L15.4797 87.7703C15.4797 87.7703 50.983 82.413 82.9661 71.1253C114.949 59.8376 125.905 51.0289 125.905 51.0289Z" fill="white" fill-opacity="0.3"/>
</g>
<rect x="8.5" y="6.5" width="99" height="99" rx="49.5" stroke="white" stroke-width="5"/>
</g>
<defs>
<filter id="filter0_d_1848_125818" x="0" y="0" width="116" height="116" filterUnits="userSpaceOnUse" color-interpolation-filters="sRGB">
<feFlood flood-opacity="0" result="BackgroundImageFix"/>
<feColorMatrix in="SourceAlpha" type="matrix" values="0 0 0 0 0 0 0 0 0 0 0 0 0 0 0 0 0 0 127 0" result="hardAlpha"/>
<feOffset dy="2"/>
<feGaussianBlur stdDeviation="3"/>
<feColorMatrix type="matrix" values="0 0 0 0 0 0 0 0 0 0 0 0 0 0 0.0705882 0 0 0 0.16 0"/>
<feBlend mode="normal" in2="BackgroundImageFix" result="effect1_dropShadow_1848_125818"/>
<feBlend mode="normal" in="SourceGraphic" in2="effect1_dropShadow_1848_125818" result="shape"/>
</filter>
<clipPath id="clip0_1848_125818">
<rect x="6" y="4" width="104" height="104" rx="52" fill="white"/>
</clipPath>
</defs>
</svg>
