<svg width="117" height="116" viewBox="0 0 117 116" fill="none" xmlns="http://www.w3.org/2000/svg">
<g filter="url(#filter0_d_1848_125809)">
<g clip-path="url(#clip0_1848_125809)">
<rect x="6.3335" y="4" width="104" height="104" rx="52" fill="#9EF9BE"/>
<path d="M56.6567 29.9593C53.9584 35.4159 51.28 40.8524 48.5816 46.3089L51.1801 44.8299C44.9039 45.5894 38.6277 46.3489 32.3515 47.1084C29.9329 47.4082 28.194 50.2464 30.2327 52.2252C34.71 56.5624 39.2073 60.9196 43.6846 65.2569L42.9051 62.3387C42.0056 68.3349 41.1062 74.3511 40.2067 80.3473C39.8069 82.9656 42.1255 84.9443 44.604 83.7251C49.9808 81.1068 55.3575 78.4884 60.7543 75.8701H57.7361C62.9129 78.4884 68.0898 81.1068 73.2667 83.7251C75.0656 84.6445 78.0638 83.5652 77.7839 81.1268C77.0844 75.3305 76.4048 69.5341 75.7052 63.7378L74.8257 65.8565C78.6834 61.2994 82.561 56.7423 86.4187 52.2052C87.7379 50.6462 87.4981 47.6281 85.0995 47.1884C79.383 46.129 73.6464 45.0897 67.9299 44.0304L69.7288 45.4095C67.1104 40.2528 64.492 35.0961 61.8736 29.9393C60.1146 26.5015 54.9578 29.5396 56.6967 32.9574L60.7343 40.9124L63.5326 46.4089C64.0323 47.3882 64.452 48.5875 65.3315 49.267C66.211 49.9466 67.5102 50.0066 68.5895 50.2064L74.446 51.2858C77.4641 51.8454 80.5023 52.405 83.5205 52.9447L82.2013 47.9279C80.1625 50.3264 78.1237 52.7248 76.085 55.1433C74.2061 57.3419 71.5677 59.6404 70.1486 62.1988C69.509 63.3581 69.8488 64.5773 69.9887 65.8165L70.6882 71.6728C71.068 74.8108 71.4278 77.9688 71.8076 81.1068L76.3248 78.5084C73.5265 77.0893 70.7082 75.6702 67.9099 74.2511L62.5332 71.5329C61.4139 70.9732 60.1746 70.1338 58.8954 70.2937C57.836 70.4336 56.6967 71.1731 55.7373 71.6328L50.1607 74.3511C47.3224 75.7302 44.4841 77.1093 41.6458 78.5084L46.0432 81.8863C46.5229 78.6483 47.0226 75.3904 47.5023 72.1525L48.4617 65.7565C48.6616 64.4374 49.1413 62.7784 48.4417 61.5792C47.922 60.6798 46.9226 59.9602 46.1831 59.2407L41.406 54.6236C39.1074 52.3851 36.8088 50.1665 34.5102 47.9279L32.3914 53.0446C35.6095 52.6649 38.8275 52.2651 42.0656 51.8854C45.3036 51.5056 48.9614 51.5856 52.0395 50.6661C53.5986 50.2064 54.0383 48.8673 54.6779 47.5881L57.5362 41.7718C58.9953 38.8337 60.4544 35.8756 61.8936 32.9374C63.5925 29.4796 58.4357 26.4416 56.7167 29.9194L56.6567 29.9593Z" fill="#49BC8D"/>
<path d="M122.682 76.2041L110.061 63.7929C110.061 63.7929 80.7167 60.224 58.5663 51.5828C36.4159 42.9415 1.83599 21.6112 1.83599 21.6112L9.51188 49.0687C9.51188 49.0687 42.4873 63.2744 75.6066 70.5852C108.726 77.896 122.682 76.2041 122.682 76.2041Z" fill="white" fill-opacity="0.3"/>
</g>
<rect x="8.8335" y="6.5" width="99" height="99" rx="49.5" stroke="white" stroke-width="5"/>
</g>
<defs>
<filter id="filter0_d_1848_125809" x="0.333496" y="0" width="116" height="116" filterUnits="userSpaceOnUse" color-interpolation-filters="sRGB">
<feFlood flood-opacity="0" result="BackgroundImageFix"/>
<feColorMatrix in="SourceAlpha" type="matrix" values="0 0 0 0 0 0 0 0 0 0 0 0 0 0 0 0 0 0 127 0" result="hardAlpha"/>
<feOffset dy="2"/>
<feGaussianBlur stdDeviation="3"/>
<feColorMatrix type="matrix" values="0 0 0 0 0 0 0 0 0 0 0 0 0 0 0.0705882 0 0 0 0.16 0"/>
<feBlend mode="normal" in2="BackgroundImageFix" result="effect1_dropShadow_1848_125809"/>
<feBlend mode="normal" in="SourceGraphic" in2="effect1_dropShadow_1848_125809" result="shape"/>
</filter>
<clipPath id="clip0_1848_125809">
<rect x="6.3335" y="4" width="104" height="104" rx="52" fill="white"/>
</clipPath>
</defs>
</svg>
