<svg width="117" height="116" viewBox="0 0 117 116" fill="none" xmlns="http://www.w3.org/2000/svg">
<g filter="url(#filter0_d_1848_125827)">
<g clip-path="url(#clip0_1848_125827)">
<rect x="6.66699" y="4" width="104" height="104" rx="52" fill="#9EF9BE"/>
<path d="M71.691 37.8053C79.4842 44.3266 82.2359 55.4657 77.335 64.6199C72.7355 73.2274 62.974 77.5209 53.574 75.2931C49.7979 74.402 48.1911 80.2551 51.9672 81.1462C63.918 83.9816 76.632 78.6956 82.5371 67.6781C88.4422 56.6606 85.8512 41.7748 75.9491 33.4914C72.9765 31.0206 68.6983 35.2939 71.691 37.785V37.8053Z" fill="#49BC8D"/>
<path d="M45.9215 71.6481C37.8873 65.5521 35.1758 54.008 39.8155 44.9752C44.4553 35.9425 54.5783 31.5679 64.2795 34.0793C68.0355 35.0514 69.6423 29.1983 65.8864 28.2262C53.5138 25.006 40.0566 30.6768 34.3523 42.4234C28.6481 54.17 32.2835 68.833 42.8685 76.8936C44.1741 77.886 46.2228 77.0961 46.986 75.8C47.9099 74.2608 47.207 72.6203 45.9014 71.6481H45.9215Z" fill="#49BC8D"/>
<path d="M74.1213 18.9299C66.2879 27.7399 58.4546 36.5498 50.6414 45.3598C49.6773 46.4534 48.3115 47.6281 47.8094 49.0458C47.3273 50.3622 47.1466 51.8609 46.8252 53.2179L41.844 74.4023C40.6188 79.6275 39.3735 84.8527 38.1483 90.0982C37.4855 92.8728 41.1009 95.4449 43.1897 93.0551C51.0231 84.0831 58.8363 75.1111 66.6696 66.1189C68.7986 63.6683 71.1285 61.6835 71.7913 58.4431C73.1371 51.8204 74.4627 45.1978 75.8084 38.5751C76.9332 33.0056 78.058 27.4563 79.1828 21.8868C79.946 18.0793 74.1413 16.4388 73.3781 20.2666C71.0482 31.8309 68.6982 43.3953 66.3683 54.9799C66.1875 55.8507 65.9867 56.7418 65.826 57.633C65.5448 59.3747 65.4243 57.7342 66.3884 57.2887C65.3439 57.7747 64.179 59.8203 63.4559 60.6709L49.5769 76.5896C46.0419 80.6604 42.4868 84.7109 38.9517 88.7817L43.9932 91.7386C46.7047 80.2553 49.3961 68.7517 52.1077 57.2684C52.5696 55.2836 53.2324 53.2786 53.5136 51.2736C53.6944 49.9572 53.6743 51.5774 52.9312 51.9622C53.373 51.7394 53.835 50.9496 54.1564 50.585L67.1516 35.9625C70.9076 31.7297 74.6636 27.4968 78.4195 23.264C80.9905 20.3679 76.7524 16.054 74.1614 18.9704L74.1213 18.9299Z" fill="#49BC8D"/>
<path d="M49.9993 52.8733C54.7394 55.4251 59.4595 57.9567 64.1997 60.5086L66.2484 61.6022C67.6343 62.3516 69.5825 62.0073 70.3659 60.5086C71.109 59.0909 70.7676 57.1466 69.2813 56.3567C64.5411 53.8049 59.821 51.2733 55.0809 48.7214L53.0322 47.6278C51.6463 46.8784 49.698 47.2227 48.9147 48.7214C48.1715 50.1391 48.513 52.0834 49.9993 52.8733Z" fill="#49BC8D"/>
<path d="M126.572 39.0299L109.3 35.1585C109.3 35.1585 82.4988 47.6292 59.1264 51.993C35.754 56.3568 -4.87519 56.5123 -4.87519 56.5123L16.1467 75.7713C16.1467 75.7713 51.65 70.414 83.6331 59.1263C115.616 47.8386 126.572 39.0299 126.572 39.0299Z" fill="white" fill-opacity="0.3"/>
</g>
<rect x="9.16699" y="6.5" width="99" height="99" rx="49.5" stroke="white" stroke-width="5"/>
</g>
<defs>
<filter id="filter0_d_1848_125827" x="0.666992" y="0" width="116" height="116" filterUnits="userSpaceOnUse" color-interpolation-filters="sRGB">
<feFlood flood-opacity="0" result="BackgroundImageFix"/>
<feColorMatrix in="SourceAlpha" type="matrix" values="0 0 0 0 0 0 0 0 0 0 0 0 0 0 0 0 0 0 127 0" result="hardAlpha"/>
<feOffset dy="2"/>
<feGaussianBlur stdDeviation="3"/>
<feColorMatrix type="matrix" values="0 0 0 0 0 0 0 0 0 0 0 0 0 0 0.0705882 0 0 0 0.16 0"/>
<feBlend mode="normal" in2="BackgroundImageFix" result="effect1_dropShadow_1848_125827"/>
<feBlend mode="normal" in="SourceGraphic" in2="effect1_dropShadow_1848_125827" result="shape"/>
</filter>
<clipPath id="clip0_1848_125827">
<rect x="6.66699" y="4" width="104" height="104" rx="52" fill="white"/>
</clipPath>
</defs>
</svg>
