<svg width="70" height="84" viewBox="0 0 70 84" fill="none" xmlns="http://www.w3.org/2000/svg">
<g clip-path="url(#clip0_1390_67781)">
<path d="M33.8481 44.7286C28.7881 54.6953 23.7497 64.6619 18.6897 74.6286L16.558 78.8047C14.6848 82.5072 20.2615 85.7792 22.1348 82.0551C27.1948 72.0885 32.2332 62.1218 37.2932 52.1552L39.4248 47.9791C41.2981 44.2765 35.7214 41.0045 33.8481 44.7286Z" fill="#6B93F6"/>
<path d="M57.5332 78.8263C52.4733 68.8596 47.4348 58.8929 42.3748 48.9263C41.6643 47.5271 40.9537 46.1279 40.2432 44.7502C38.3699 41.0477 32.7932 44.2981 34.6664 48.0006C39.7264 57.9673 44.7649 67.934 49.8248 77.9006C50.5354 79.2998 51.2459 80.6991 51.9565 82.0767C53.8298 85.7792 59.4065 82.5288 57.5332 78.8263Z" fill="#6B93F6"/>
<path d="M37.0562 52.6933C41.468 52.6933 45.0445 49.1178 45.0445 44.7071C45.0445 40.2964 41.468 36.7208 37.0562 36.7208C32.6444 36.7208 29.0679 40.2964 29.0679 44.7071C29.0679 49.1178 32.6444 52.6933 37.0562 52.6933Z" fill="#6B93F6"/>
<path d="M46.2073 8.80125C32.4915 14.5918 18.7972 20.3824 5.08146 26.1945C3.87568 26.7111 3.16513 28.6269 3.59577 29.8324L5.55516 35.2786L7.81601 31.2962L2.43305 33.3627C0.92582 33.9439 -0.495282 35.5799 0.172205 37.3451C1.42105 40.6386 2.6699 43.9321 3.89721 47.2256C4.47857 48.7325 6.11499 50.1317 7.8806 49.4859L13.4143 47.4194L9.7754 45.9341L11.6271 49.8949C12.1654 51.0573 14.0602 51.8753 15.266 51.3802C21.9409 48.6894 28.6373 46.0202 35.3122 43.3294L49.3079 37.711L54.4109 35.666C54.9277 35.4723 56.4349 35.1709 56.7794 34.7189C56.4564 35.1279 54.3032 34.3099 56.1765 34.9987C57.3823 35.4508 58.6311 35.7737 59.8585 36.1611L66.0812 38.12C69.031 39.0457 70.7751 35.7521 69.72 33.3842C65.0907 22.901 60.4398 12.4392 55.8105 1.95589C54.7769 -0.390469 51.418 0.126161 50.2337 1.95589C48.5112 4.64668 46.7886 7.31593 45.0661 10.0067C42.8268 13.5155 48.4035 16.766 50.6428 13.2572C52.3654 10.5664 54.0879 7.89714 55.8105 5.20636H50.2337C54.8631 15.6897 59.514 26.1514 64.1433 36.6347L67.7822 31.8989C64.2294 30.7796 60.5475 29.1651 56.9086 28.4978C54.6047 28.0673 51.8917 29.7894 49.8246 30.6289L21.5103 41.9948C18.8618 43.0495 16.2134 44.1259 13.5435 45.1806L17.1824 46.666L15.3306 42.7051C14.7708 41.5212 12.9191 40.7678 11.6917 41.2198L6.15806 43.2863L10.1414 45.5466C8.8926 42.2531 7.64375 38.9595 6.41644 35.666L4.1556 39.6484L9.53855 37.5819C11.0673 37.0007 12.4238 35.3862 11.7994 33.5995L9.84 28.1534L8.3543 31.7913C22.0701 26.0007 35.7643 20.2102 49.4801 14.3981C51.095 13.7092 51.418 11.3629 50.6428 9.98519C49.6954 8.30614 47.8222 8.15546 46.2288 8.82277L46.2073 8.80125Z" fill="#6B93F6"/>
<path d="M3.59603 29.8324C5.83534 35.4508 8.07466 41.0476 10.314 46.666L11.2829 49.0984C11.9073 50.6699 13.4576 51.9399 15.2663 51.3587C16.7735 50.8636 18.1946 49.0769 17.5271 47.3763C15.2878 41.758 13.0485 36.1612 10.8092 30.5428L9.84027 28.1103C9.21584 26.5389 7.66555 25.2689 5.85688 25.8501C4.34965 26.3452 2.92855 28.1319 3.59603 29.8324Z" fill="#6B93F6"/>
<path d="M26.0965 70.3879H48.0159C49.76 70.3879 51.2457 68.9026 51.2457 67.159C51.2457 65.4154 49.76 63.9301 48.0159 63.9301H26.0965C24.3524 63.9301 22.8667 65.4154 22.8667 67.159C22.8667 68.9026 24.3524 70.3879 26.0965 70.3879Z" fill="#6B93F6"/>
</g>
<defs>
<clipPath id="clip0_1390_67781">
<rect width="70" height="83.3928" fill="white" transform="translate(0 0.319946)"/>
</clipPath>
</defs>
</svg>
