<svg width="59" height="53" viewBox="0 0 59 53" fill="none" xmlns="http://www.w3.org/2000/svg">
<path d="M11.5283 4.34424C8.99485 8.61658 0.660045 22.393 0.854923 23.7122C1.19971 26.0657 7.78061 28.794 10.1192 30.0232C13.7019 24.8964 16.0255 18.5704 18.6189 12.9039C20.1329 9.60596 20.7325 9.41108 17.3746 6.93762C15.9355 5.88828 13.7169 4.77897 12.0829 4.44917" fill="#297254"/>
<path d="M11.1387 4.10426C11.0937 4.17922 11.0337 4.25417 10.9887 4.32912C10.9588 4.3741 10.9288 4.41907 10.8988 4.44905C10.8838 4.47903 10.7639 4.64393 10.8688 4.49402C10.7189 4.70389 10.584 4.91376 10.4491 5.12363C10.1643 5.54337 9.87944 5.96311 9.6246 6.38284C8.99499 7.40221 8.36538 8.42157 7.73577 9.44094C6.32665 11.7495 4.91753 14.0581 3.56837 16.3966C2.51903 18.2105 1.45469 20.0393 0.570242 21.9581C0.330391 22.4828 0.0155874 23.0824 0.000596748 23.6821C-0.0143939 24.1768 0.255438 24.7014 0.54026 25.0912C0.900036 25.6009 1.33476 26.0356 1.82946 26.4254C3.98811 28.1643 6.5665 29.3185 9.03996 30.5478C9.24983 30.6527 9.44471 30.7577 9.65458 30.8626C10.1343 31.1174 10.644 30.9525 10.9438 30.5328C12.3829 28.4791 13.5821 26.2904 14.6914 24.0418C15.8157 21.7633 16.8201 19.4397 17.8245 17.1162C18.3192 15.9769 18.8289 14.8226 19.3535 13.6833C19.7583 12.8138 20.193 11.9594 20.5528 11.0749C20.7926 10.4453 20.9425 9.74075 20.7177 9.08116C20.4628 8.31664 19.8932 7.71701 19.2936 7.20733C17.4497 5.6483 15.336 4.3741 13.0425 3.68453C12.8026 3.60957 12.5628 3.54961 12.3229 3.50464C11.8132 3.3997 11.2286 3.65454 11.1087 4.19421C10.9887 4.6889 11.2586 5.30352 11.7982 5.40845C12.3079 5.51339 12.7876 5.66329 13.2823 5.84318C13.4022 5.88815 13.5222 5.93312 13.6421 5.9781C13.6871 5.99309 13.717 6.00808 13.762 6.02307C13.867 6.06804 13.6571 5.9781 13.6721 5.9781C13.732 6.02307 13.822 6.03806 13.8969 6.08303C14.1668 6.20296 14.4216 6.32288 14.6914 6.4578C15.2011 6.71264 15.6958 6.99746 16.1755 7.29727C16.6402 7.59709 17.06 7.92688 17.5097 8.25668C17.5247 8.25668 17.3448 8.12176 17.4197 8.18172C17.4347 8.19671 17.4647 8.2117 17.4797 8.2267C17.5247 8.27167 17.5696 8.30165 17.6296 8.34662C17.7195 8.42157 17.8245 8.49653 17.9144 8.58647C18.0643 8.72139 18.2142 8.8563 18.3641 8.99122C18.4841 9.11114 18.589 9.23107 18.6939 9.35099C18.7839 9.45593 18.544 9.14112 18.619 9.24606C18.634 9.27604 18.664 9.30602 18.679 9.336C18.7239 9.39597 18.7539 9.45593 18.7839 9.51589C18.7989 9.54587 18.8139 9.56086 18.8139 9.59085C18.8888 9.74075 18.7539 9.42595 18.7689 9.47092C18.7839 9.53088 18.8139 9.59084 18.8289 9.65081C18.8438 9.71077 18.8738 9.92064 18.8438 9.69578C18.8139 9.47092 18.8438 9.68079 18.8438 9.75574C18.8438 9.8157 18.8438 9.87567 18.8289 9.93563C18.8139 10.0855 18.8738 9.68079 18.8438 9.80071C18.8438 9.8307 18.8289 9.86068 18.8289 9.89066C18.7989 10.0256 18.7689 10.1605 18.7239 10.2804C18.6939 10.3554 18.679 10.4303 18.649 10.4903C18.634 10.5353 18.619 10.5652 18.604 10.5952C18.604 10.6102 18.589 10.6252 18.589 10.6402C18.544 10.7451 18.6939 10.4003 18.649 10.5053C18.574 10.6702 18.4991 10.8501 18.4241 11.015C18.2292 11.4347 18.0344 11.8544 17.8395 12.2592C17.3298 13.3535 16.8501 14.4628 16.3704 15.5721C15.381 17.8357 14.4216 20.0993 13.3573 22.3329C12.3079 24.5515 11.1536 26.7252 9.80448 28.7789C9.63959 29.0337 9.47469 29.2736 9.2948 29.5284C9.72953 29.4235 10.1493 29.3036 10.584 29.1986C8.27544 27.9844 5.84695 27.04 3.67331 25.5859C3.53839 25.4959 3.40347 25.406 3.28355 25.316C3.22359 25.2711 3.16362 25.2261 3.11865 25.1961C3.08867 25.1661 3.05869 25.1511 3.01372 25.1212C2.98374 25.1062 2.83383 24.9862 2.96875 25.0912C3.10366 25.1961 2.89379 25.0312 2.86381 25.0012C2.81884 24.9563 2.75888 24.9113 2.71391 24.8813C2.59398 24.7764 2.48905 24.6864 2.38411 24.5815C2.29417 24.4916 2.20422 24.4016 2.11428 24.2967C2.0843 24.2517 2.03933 24.2067 2.00934 24.1768C1.99435 24.1468 1.96437 24.1318 1.94938 24.1018C2.14426 24.3117 2.03933 24.2067 1.99435 24.1468C1.93439 24.0718 1.87443 23.9819 1.82946 23.8919C1.79948 23.847 1.76949 23.787 1.7545 23.742C1.64957 23.5322 1.81447 23.9369 1.76949 23.772C1.73951 23.6821 1.70953 23.5921 1.69454 23.5022C1.67955 23.4122 1.72452 23.817 1.72452 23.6221C1.72452 23.4422 1.67955 23.8769 1.70953 23.742C1.72452 23.6971 1.72452 23.6521 1.73951 23.6071C1.79948 23.3673 1.88942 23.1274 1.97936 22.9025C1.99435 22.8576 2.00934 22.8276 2.02433 22.7826C1.88942 23.0974 1.96437 22.9325 1.99435 22.8576C2.02433 22.7676 2.06931 22.6927 2.11428 22.6027C2.18923 22.4228 2.27918 22.243 2.35413 22.0631C2.54901 21.6433 2.75888 21.2236 2.96875 20.8039C3.49342 19.7845 4.03308 18.7801 4.57275 17.7757C5.84695 15.4522 7.15114 13.1436 8.47032 10.8351C9.08493 9.75574 9.69955 8.67641 10.3142 7.59709C10.569 7.13238 10.8388 6.68266 11.0787 6.21795C11.1836 6.02307 11.2886 5.8132 11.4085 5.61832C11.4535 5.52838 11.5134 5.42344 11.5584 5.3335C11.5884 5.28853 11.6034 5.24355 11.6333 5.19858C11.6483 5.18359 11.6483 5.15361 11.6633 5.13862C11.6783 5.12363 11.6783 5.10864 11.6933 5.09365C11.7533 4.94374 11.7683 4.92875 11.7083 5.04868C11.7083 5.04868 11.9332 4.59896 11.9481 4.55398C12.203 4.0443 11.4684 3.62456 11.1387 4.10426Z" fill="#297254"/>
<path d="M14.9305 9.38018C16.2647 9.69498 17.5839 10.0847 18.903 10.5045C20.4621 10.9992 22.0061 11.4639 23.5502 11.9886C25.1991 12.5432 26.8331 13.1428 28.4521 13.8024C28.647 13.8774 28.8269 13.9523 29.0217 14.0273C29.1267 14.0723 29.2316 14.1172 29.3216 14.1472C29.3665 14.1622 29.4265 14.1922 29.4715 14.2072C29.3216 14.1472 29.5314 14.2372 29.5614 14.2521C29.9512 14.417 30.3259 14.5819 30.7157 14.7468C31.4952 15.0916 32.2597 15.4514 33.0242 15.8262C34.4034 16.5007 35.7675 17.2503 37.0417 18.0898C37.3266 18.2846 37.6114 18.4795 37.8962 18.6894C38.0161 18.7793 38.1361 18.8693 38.256 18.9592C38.3759 19.0492 38.1211 18.8543 38.241 18.9442C38.271 18.9742 38.301 18.9892 38.3309 19.0192C38.4059 19.0791 38.4808 19.1391 38.5408 19.1991C38.8556 19.4539 39.1554 19.7237 39.4552 20.0235C39.6051 20.1735 39.7401 20.3234 39.875 20.4883C39.89 20.5032 39.89 20.5182 39.905 20.5182C39.9499 20.5782 39.9499 20.5632 39.875 20.4733C39.89 20.5032 39.9349 20.5482 39.9499 20.5782C39.9949 20.6382 40.0399 20.7131 40.0848 20.7881C40.1298 20.848 40.1598 20.923 40.1898 20.9829C40.2048 21.0129 40.2198 21.0579 40.2347 21.0729C40.1448 20.968 40.1748 20.923 40.2048 21.0129C40.2198 21.0579 40.2347 21.1029 40.2497 21.1628C40.2497 21.1928 40.2647 21.2228 40.2647 21.2528C40.3097 21.4177 40.2497 21.0879 40.2647 21.1928C40.2647 21.2378 40.2647 21.2978 40.2647 21.3427C40.2647 21.5076 40.3097 21.1478 40.2647 21.2978C40.2497 21.3427 40.2198 21.3877 40.2198 21.4327C40.2347 21.2678 40.2947 21.2678 40.2497 21.3427C40.2347 21.3727 40.2198 21.4027 40.2048 21.4327C40.1148 21.5826 40.2947 21.3427 40.2347 21.4027C40.2048 21.4327 40.1598 21.4776 40.1298 21.5076C39.9199 21.6275 40.0699 21.5676 40.1298 21.5076C40.0699 21.5376 40.0249 21.5826 39.9649 21.6126C39.86 21.6725 39.755 21.7025 39.6501 21.7775C39.815 21.6725 39.77 21.7325 39.6951 21.7625C39.6651 21.7775 39.6351 21.7924 39.5902 21.7924C39.5152 21.8224 39.4552 21.8374 39.3803 21.8674C39.0805 21.9573 38.7657 22.0323 38.4359 22.0923C38.3459 22.1072 38.256 22.1222 38.181 22.1372C38.1361 22.1372 38.0911 22.1522 38.0461 22.1522C37.8962 22.1822 38.196 22.1372 38.0911 22.1522C37.8962 22.1672 37.7013 22.1972 37.5064 22.2122C36.7269 22.2871 35.9324 22.3021 35.1529 22.3021C34.2235 22.3021 33.2791 22.2721 32.3497 22.1822C32.1248 22.1672 31.9149 22.1372 31.6901 22.1072C31.4802 22.0773 31.87 22.1372 31.6751 22.1072C31.6151 22.0923 31.5552 22.0923 31.4952 22.0773C31.3603 22.0623 31.2254 22.0323 31.0905 22.0173C30.6407 21.9424 30.191 21.8524 29.7413 21.7325C29.3216 21.6275 28.9018 21.5076 28.4971 21.3727C28.2872 21.2978 28.0773 21.2228 27.8675 21.1478C27.7775 21.1179 27.6876 21.0729 27.5976 21.0429C27.5527 21.0279 27.4927 20.9979 27.4477 20.9829C27.6576 21.1029 27.4327 20.9829 27.3878 20.953C26.5333 20.5782 25.7088 20.1285 24.9143 19.6188C24.5096 19.364 24.1048 19.0941 23.715 18.8243C23.3403 18.5695 22.7556 18.7493 22.5458 19.1241C22.3059 19.5738 22.4708 20.0086 22.8456 20.2934C24.4196 21.4776 26.2185 22.3921 28.1073 22.9767C29.9961 23.5613 31.9749 23.8012 33.9387 23.8312C35.5876 23.8462 37.2816 23.8012 38.9006 23.5014C40.0699 23.2765 41.6289 22.7369 41.6888 21.3127C41.7188 20.5782 41.2541 19.9036 40.7894 19.364C40.2347 18.7194 39.5752 18.1797 38.9006 17.685C37.7163 16.8006 36.4271 16.036 35.1229 15.3465C31.9749 13.6825 28.632 12.3783 25.2591 11.239C23.6401 10.6994 22.0061 10.2047 20.3422 9.76994C18.903 9.39517 17.434 9.09536 15.9499 8.85551C15.6351 8.81053 15.3353 8.75057 15.0205 8.7056C14.8406 8.67562 14.6607 8.75057 14.6157 8.94545C14.6457 9.14033 14.7506 9.33521 14.9305 9.38018Z" fill="#297254"/>
<path d="M40.5644 1.58496C44.6269 4.46317 57.3839 13.2027 57.7587 14.4919C58.4033 16.7855 53.5014 21.9573 51.8674 24.026C46.5157 20.803 41.224 16.8754 36.5319 12.753C33.8036 10.3545 33.174 10.4295 35.2427 6.78672C36.1272 5.24268 38.4657 2.94911 39.8299 1.98971" fill="#297254"/>
<path d="M40.2357 1.91479C40.3856 2.03472 40.5205 2.15464 40.6704 2.27457C40.7154 2.31954 40.7604 2.36451 40.8203 2.39449C40.9103 2.45445 40.7304 2.31954 40.8053 2.3795C40.8503 2.40948 40.8803 2.43946 40.9253 2.46944C41.0152 2.52941 41.0902 2.60436 41.1801 2.66432C41.39 2.82922 41.6148 2.99412 41.8247 3.15902C41.9296 3.23397 42.0196 3.30892 42.1245 3.38388C42.1695 3.41386 42.2145 3.45883 42.2594 3.48881C42.3344 3.54877 42.2744 3.54877 42.2444 3.48881C42.2594 3.53378 42.3794 3.59374 42.4243 3.62373C43.3687 4.3133 44.3281 5.00287 45.2725 5.69244C47.3862 7.23647 49.5149 8.7955 51.6136 10.3545C52.0933 10.7143 52.573 11.0741 53.0527 11.4489C53.1576 11.5388 53.2776 11.6137 53.3825 11.7037C53.4275 11.7487 53.4874 11.7786 53.5324 11.8236C53.3075 11.6437 53.5474 11.8386 53.5924 11.8686C53.8022 12.0335 54.0121 12.1984 54.207 12.3483C54.8965 12.888 55.5711 13.4426 56.2307 14.0272C56.4406 14.2221 56.6505 14.417 56.8453 14.6269C56.8753 14.6718 56.9203 14.7018 56.9503 14.7468C57.0852 14.8967 56.8154 14.5369 56.9053 14.7018C56.9203 14.7318 56.9503 14.7618 56.9653 14.7918C56.9802 14.8068 56.9803 14.8217 56.9803 14.8367C57.0252 14.8817 56.9053 14.5969 56.9203 14.6868C56.9203 14.7468 56.9802 14.9866 56.9503 14.7918C56.9203 14.5969 56.9503 14.7918 56.9503 14.8367C56.9503 14.8967 56.9503 14.9417 56.9503 15.0016C56.9503 15.0466 56.9503 15.0916 56.9353 15.1366C56.9203 15.3314 56.9802 14.8817 56.9353 15.1066C56.9203 15.2265 56.8903 15.3464 56.8603 15.4663C56.8303 15.5863 56.7854 15.6912 56.7554 15.8111C56.7254 15.8711 56.7104 15.9311 56.6804 15.991C56.6654 16.021 56.6654 16.036 56.6505 16.066C56.7554 15.7812 56.6954 15.961 56.6654 16.036C56.5455 16.3058 56.4106 16.5607 56.2607 16.8155C55.9309 17.3852 55.5711 17.9398 55.1814 18.4795C55.0914 18.6144 55.0015 18.7343 54.8966 18.8692C54.8366 18.9442 54.7916 19.0041 54.7317 19.0791C54.6867 19.1391 54.4618 19.4239 54.6567 19.184C54.4318 19.4539 54.222 19.7387 53.9971 20.0085C53.2176 20.9679 52.3931 21.8973 51.5986 22.8418C51.4487 23.0216 51.3138 23.1865 51.1639 23.3664C51.5386 23.3215 51.9284 23.2615 52.3032 23.2165C50.0546 21.8524 47.8509 20.3983 45.7073 18.8542C45.1526 18.4645 44.613 18.0597 44.0733 17.655C43.8035 17.4601 43.5486 17.2652 43.2788 17.0554C43.1589 16.9654 43.0389 16.8755 42.919 16.7705C42.859 16.7256 42.7841 16.6656 42.7241 16.6206C42.6942 16.6056 42.6642 16.5757 42.6342 16.5607C42.5442 16.4857 42.7691 16.6656 42.6342 16.5607C41.5998 15.7512 40.5655 14.9267 39.5611 14.0872C38.5867 13.2777 37.6423 12.4382 36.6979 11.6137C36.3681 11.3289 36.0383 11.0591 35.7235 10.7593C35.5886 10.6394 35.4687 10.5194 35.3337 10.3845C35.2888 10.3395 35.2438 10.2796 35.1838 10.2346C35.1539 10.2046 35.1389 10.1746 35.1089 10.1447C34.989 10.0097 35.2288 10.3096 35.1688 10.2196C35.0939 10.1147 35.0339 10.0097 34.974 9.88982C34.899 9.75491 35.0339 10.0097 35.0339 10.0247C35.0339 9.99476 35.0189 9.96478 35.0039 9.93479C34.989 9.87483 34.974 9.81487 34.959 9.75491C34.929 9.59001 34.974 9.97977 34.974 9.90481C34.974 9.87483 34.974 9.84485 34.974 9.81487C34.974 9.75491 34.974 9.67995 34.974 9.61999C34.974 9.59001 34.989 9.56003 34.989 9.51506C34.989 9.47008 34.944 9.81487 34.974 9.63498C34.989 9.56003 35.0039 9.48507 35.0189 9.41012C35.0639 9.24522 35.1239 9.08033 35.1838 8.91543L35.2138 8.84048C35.2138 8.84048 35.1239 9.05035 35.1539 8.97539C35.1688 8.93042 35.1988 8.88545 35.2138 8.84048C35.2588 8.73554 35.3038 8.6456 35.3637 8.54066C35.6036 8.06096 35.8584 7.58126 36.1432 7.11655C36.2482 6.93666 36.3681 6.75677 36.488 6.59188C36.548 6.50193 36.6229 6.42698 36.6829 6.33704C36.503 6.59188 36.6229 6.41199 36.6679 6.35203C36.7129 6.29206 36.7579 6.24709 36.8028 6.18713C37.1326 5.79737 37.4624 5.40761 37.8222 5.03285C38.5118 4.3133 39.2313 3.62373 40.0108 3.00911C40.0558 2.97913 40.0858 2.94915 40.1308 2.91916C40.1907 2.87419 40.0108 3.00911 40.0108 3.00911C40.0108 3.00911 40.0858 2.94915 40.0708 2.96414C40.1457 2.90417 40.2207 2.8592 40.2956 2.79924C40.5055 2.64933 40.6854 2.46944 40.7454 2.2146C40.8053 1.97475 40.7754 1.65995 40.6404 1.45008C40.3706 1.03034 39.741 0.7755 39.2913 1.0903C38.4668 1.67494 37.7023 2.36451 36.9827 3.06907C36.1882 3.84859 35.4387 4.67307 34.7941 5.57251C34.1795 6.41199 33.6998 7.38638 33.31 8.34578C33.0402 9.02036 32.8753 9.81487 33.1451 10.5194C33.4299 11.269 33.9996 11.8086 34.5842 12.3183C35.4387 13.0678 36.3081 13.8174 37.1776 14.5519C39.3063 16.3508 41.4949 18.0747 43.7435 19.7237C45.9321 21.3277 48.1807 22.8418 50.4893 24.2659C50.7741 24.4458 51.0589 24.6107 51.3438 24.7905C51.6586 24.9854 52.2282 24.9554 52.4831 24.6406C54.102 22.5719 55.9009 20.6381 57.2801 18.4045C57.9097 17.3852 58.5693 16.2159 58.5992 14.9866C58.6142 14.6119 58.5543 14.1772 58.3444 13.8623C58.1795 13.6225 57.9996 13.4126 57.7897 13.2177C57.2351 12.6781 56.6355 12.2134 56.0358 11.7337C55.1214 11.0141 54.192 10.3246 53.2626 9.64997C51.1339 8.10593 48.9752 6.60687 46.8016 5.12279C45.7822 4.43322 44.7479 3.72866 43.7285 3.03909C43.2788 2.73928 42.8291 2.43946 42.3794 2.15464C42.1845 2.03472 41.9896 1.8998 41.7797 1.77987C41.5848 1.65995 41.36 1.46507 41.1501 1.40511C41.3 1.45008 41.1651 1.39012 41.1201 1.37513C41.0752 1.34515 41.0452 1.33015 41.0002 1.30017C40.9253 1.2552 40.8503 1.21023 40.7604 1.16526C40.5655 1.04533 40.2956 1.10529 40.1607 1.28518C40.0708 1.48006 40.0558 1.76488 40.2357 1.91479Z" fill="#297254"/>
<path d="M45.7976 31.1457C46.4272 31.2506 46.787 30.561 47.0568 30.1113C47.3117 29.6916 47.5515 29.2718 47.8064 28.8521C48.2861 28.0576 48.7358 27.2331 49.2005 26.4236C49.4254 26.0339 49.5903 25.6291 49.8451 25.2693C50.085 24.9246 50.3098 24.5648 50.5347 24.205C50.9544 23.5604 51.4191 22.9458 51.8089 22.2712C52.1837 21.6416 52.5584 21.027 52.9632 20.4124C53.173 20.0826 53.0381 19.5579 52.6933 19.378C52.3036 19.1831 51.8838 19.3031 51.659 19.6478C51.2992 20.1875 50.9544 20.7272 50.5946 21.2818C50.1749 21.9264 49.8451 22.616 49.4703 23.2906C49.2755 23.6503 49.0656 24.0101 48.8707 24.3849C48.7658 24.5798 48.6908 24.7746 48.5709 24.9695C48.451 25.1644 48.3161 25.3293 48.1961 25.5092C47.9413 25.884 47.7164 26.2887 47.4916 26.6785C47.2517 27.0832 46.9969 27.488 46.772 27.8927C46.5022 28.3724 46.2174 28.8671 45.9475 29.3468C45.7976 29.6166 45.6627 29.8865 45.5428 30.1563C45.4678 30.3362 45.4079 30.5311 45.4678 30.7259C45.4978 30.9208 45.6177 31.1157 45.7976 31.1457Z" fill="#297254"/>
<path d="M24.81 21.058C24.5402 21.3278 24.2703 21.5827 24.0155 21.8675C23.7756 22.1373 23.5508 22.4221 23.3109 22.692C22.8162 23.2766 22.3066 23.8462 21.7969 24.4309C20.7925 25.6002 19.7582 26.7544 18.7538 27.9087C17.7344 29.093 16.73 30.2922 15.7856 31.5514C14.9012 32.7207 14.0617 33.9499 13.4021 35.2691C12.8924 36.2735 12.4577 37.3228 12.3228 38.4621C12.2328 39.1667 12.3078 39.9462 12.6976 40.5758C13.4621 41.805 15.0361 41.91 16.2953 41.5202C17.9143 41.0405 19.2934 39.9012 20.2828 38.5521C20.4177 38.3722 20.5227 38.1923 20.6426 38.0124C20.8225 37.7126 20.7176 37.2479 20.4028 37.083C20.058 36.9031 19.6832 37.008 19.4733 37.3228C18.7688 38.3572 18.1542 39.4815 17.7944 40.6957C17.5096 41.6402 17.3596 42.7495 17.6894 43.6939C18.0192 44.6383 18.7388 45.4178 19.7881 45.5377C20.7925 45.6576 21.7219 44.9981 22.4415 44.3684C23.4459 43.484 24.2703 42.4047 25.0948 41.3403C24.6751 41.1605 24.2554 40.9806 23.8356 40.8157C23.4758 41.91 23.1311 43.0043 22.9062 44.1436C22.7113 45.133 22.5914 46.1673 22.8162 47.1567C23.0111 48.0711 23.6108 48.8956 24.4652 49.3004C24.9899 49.5402 25.5146 49.6152 26.0842 49.5402C26.5639 49.4653 27.0136 49.2704 27.4334 49.0156C28.5877 48.326 29.5471 47.3366 30.5364 46.4222C30.1317 46.1074 29.712 45.7926 29.3072 45.4778C28.8725 46.1973 28.6026 47.0518 28.4677 47.8763C28.3178 48.7607 28.2579 49.7051 28.5277 50.5746C28.6626 50.9943 28.8575 51.3991 29.1723 51.7139C29.5321 52.0736 29.9818 52.2535 30.4765 52.2985C30.9412 52.3435 31.4359 52.2385 31.8706 52.0736C32.4253 51.8638 32.9649 51.5939 33.4446 51.2342C34.6739 50.3497 35.5133 49.0605 36.3828 47.8313C36.6077 47.5015 36.4577 46.9768 36.113 46.7969C35.7232 46.5871 35.3185 46.722 35.0786 47.0668C34.8537 47.3816 34.6289 47.7114 34.389 48.0262C34.2991 48.1611 34.1942 48.296 34.1042 48.4159C34.0592 48.4759 34.0143 48.5359 33.9693 48.5808C34.1042 48.4159 33.9393 48.6258 33.8943 48.6708C33.5795 49.0605 33.2497 49.4353 32.86 49.7651C32.815 49.7951 32.785 49.84 32.7401 49.87C32.5902 49.9899 32.86 49.7801 32.7251 49.885C32.6201 49.96 32.5302 50.0199 32.4253 50.0949C32.2004 50.2298 31.9755 50.3647 31.7357 50.4846C31.6757 50.5146 31.6158 50.5446 31.5708 50.5596C31.5408 50.5746 31.5108 50.5746 31.4808 50.5896C31.6457 50.4996 31.5858 50.5446 31.5408 50.5596C31.4209 50.6046 31.316 50.6495 31.196 50.6795C31.0911 50.7095 30.9862 50.7395 30.8812 50.7545C30.8662 50.7545 30.8363 50.7545 30.8213 50.7695C30.8213 50.7695 31.0461 50.7545 30.9262 50.7545C30.8812 50.7545 30.8213 50.7695 30.7763 50.7695C30.7013 50.7695 30.6264 50.7695 30.5364 50.7695C30.4465 50.7695 30.7613 50.8144 30.6114 50.7845C30.5664 50.7695 30.5214 50.7695 30.4765 50.7545C30.4465 50.7395 30.4015 50.7245 30.3715 50.7245C30.3416 50.7095 30.5814 50.8294 30.4465 50.7545C30.3865 50.7245 30.3116 50.6645 30.2516 50.6345C30.2516 50.6345 30.4165 50.7695 30.3566 50.7095C30.3416 50.6945 30.3266 50.6945 30.3266 50.6795C30.2966 50.6495 30.2816 50.6345 30.2516 50.6046C30.2366 50.5746 30.2066 50.5596 30.1917 50.5296C30.1317 50.4696 30.2666 50.6345 30.2666 50.6345C30.2516 50.6196 30.2366 50.5896 30.2216 50.5746C30.1767 50.5146 30.1467 50.4547 30.1167 50.3947C30.1017 50.3647 30.0867 50.3197 30.0717 50.2898C30.0268 50.1998 30.1467 50.5146 30.0867 50.3347C30.0268 50.1698 29.9818 50.0199 29.9518 49.855C29.9518 49.8101 29.9368 49.7801 29.9368 49.7351C29.9218 49.6302 29.9518 49.855 29.9518 49.855C29.9518 49.825 29.9518 49.8101 29.9368 49.7801C29.9218 49.6901 29.9218 49.5852 29.9218 49.4953C29.9068 49.3004 29.9218 49.1055 29.9218 48.9256C29.9218 48.8357 29.9368 48.7457 29.9368 48.6558C29.9368 48.6108 29.9518 48.5508 29.9518 48.5059C29.9818 48.296 29.9368 48.6408 29.9518 48.5209C30.0268 48.0861 30.1167 47.6364 30.2516 47.2167C30.2816 47.1267 30.3116 47.0218 30.3566 46.9319C30.3715 46.8869 30.4015 46.8419 30.4165 46.7819C30.3266 47.0518 30.3865 46.8719 30.4165 46.7969C30.4915 46.617 30.5814 46.4522 30.6863 46.2873C30.8962 45.9575 30.7913 45.5077 30.4915 45.2679C30.1767 45.028 29.7569 45.058 29.4571 45.3279C29.0074 45.7326 28.5727 46.1373 28.1379 46.5421C27.9431 46.722 27.7482 46.8869 27.5383 47.0668C27.4634 47.1267 27.3734 47.2017 27.2985 47.2616C27.2535 47.3066 27.2085 47.3366 27.1635 47.3816C27.3284 47.2616 27.1186 47.4116 27.0886 47.4415C26.9087 47.5764 26.7288 47.6964 26.5339 47.8013C26.444 47.8463 26.354 47.9062 26.2641 47.9362C26.2491 47.9362 26.2341 47.9512 26.2191 47.9512C26.1442 47.9812 26.1592 47.9812 26.2641 47.9362C26.2491 47.9212 26.1142 47.9962 26.0842 47.9962C25.9943 48.0262 25.9043 48.0412 25.8144 48.0711C25.7094 48.0861 25.6795 48.0412 25.8444 48.0711C25.8144 48.0711 25.7694 48.0711 25.7544 48.0861C25.6645 48.0861 25.5745 48.0861 25.4846 48.0861C25.3197 48.0861 25.6645 48.1311 25.5146 48.0861C25.4546 48.0711 25.3946 48.0561 25.3347 48.0412C25.2897 48.0262 25.2447 48.0112 25.1998 47.9962C25.0349 47.9512 25.3497 48.0711 25.1998 47.9962C25.1098 47.9512 25.0199 47.9062 24.9299 47.8463C24.9149 47.8313 24.81 47.7563 24.81 47.7563C24.84 47.7413 24.9449 47.8763 24.825 47.7563C24.75 47.6964 24.6751 47.6214 24.6151 47.5465C24.4802 47.3966 24.6901 47.6664 24.5702 47.5015C24.5252 47.4265 24.4802 47.3666 24.4352 47.2916C24.4202 47.2616 24.3903 47.2167 24.3753 47.1717C24.3303 47.0818 24.3753 47.0518 24.3753 47.1867C24.3753 47.0968 24.3003 46.9768 24.2703 46.9019C24.2404 46.8119 24.2254 46.722 24.2104 46.632C24.1954 46.5871 24.1954 46.5421 24.1804 46.4971C24.1504 46.3322 24.1954 46.677 24.1804 46.4971C24.1654 46.3022 24.1504 46.0924 24.1504 45.8975C24.1504 45.6876 24.1654 45.4628 24.1954 45.2529C24.1954 45.1929 24.2104 45.148 24.2104 45.088C24.2104 45.058 24.2254 44.8631 24.2104 45.058C24.2254 44.9231 24.2554 44.7882 24.2703 44.6533C24.4802 43.484 24.825 42.3297 25.1848 41.2054C25.2897 40.8756 25.0948 40.5159 24.78 40.3959C24.4352 40.246 24.1354 40.3959 23.9256 40.6807C23.8506 40.7857 23.7757 40.8756 23.7007 40.9806C23.6557 41.0255 23.6257 41.0855 23.5808 41.1305C23.5508 41.1604 23.5358 41.2054 23.5058 41.2354C23.5508 41.1754 23.5208 41.2054 23.4908 41.2504C23.3259 41.4603 23.161 41.6701 22.9961 41.88C22.6513 42.2997 22.3066 42.7045 21.9168 43.0793C21.7519 43.2441 21.572 43.409 21.3921 43.5739C21.3472 43.6039 21.3022 43.6489 21.2722 43.6789C21.2272 43.7089 21.1523 43.7688 21.2422 43.7089C21.1523 43.7838 21.0473 43.8438 20.9424 43.9187C20.8675 43.9787 20.7775 44.0237 20.6876 44.0686C20.6426 44.0986 20.6126 44.1136 20.5676 44.1286C20.5377 44.1436 20.4028 44.2185 20.4777 44.1736C20.5676 44.1286 20.4177 44.1886 20.3878 44.2036C20.3428 44.2185 20.3128 44.2335 20.2678 44.2485C20.2229 44.2635 20.1929 44.2635 20.1479 44.2785C20.1179 44.2785 19.968 44.3235 20.073 44.2935C20.1779 44.2635 20.058 44.2935 20.013 44.2935C19.968 44.2935 19.938 44.2935 19.8931 44.2935C19.8781 44.2935 19.8481 44.2935 19.8331 44.2935C19.7282 44.2935 19.8781 44.2935 19.8931 44.3085C19.8631 44.2935 19.7881 44.2935 19.7582 44.2785C19.7132 44.2635 19.6832 44.2485 19.6382 44.2485C19.6382 44.2485 19.5783 44.2185 19.5783 44.2335C19.5783 44.2335 19.6982 44.2935 19.6382 44.2485C19.5633 44.2036 19.4733 44.1586 19.3984 44.0986C19.3084 44.0387 19.4883 44.1736 19.3684 44.0686C19.3384 44.0387 19.3084 44.0087 19.2785 43.9787C19.2485 43.9487 19.2185 43.9187 19.1885 43.8888C19.1735 43.8738 19.1585 43.8588 19.1435 43.8438C19.0836 43.7838 19.1435 43.8588 19.1585 43.8738C19.0986 43.8438 19.0536 43.7239 19.0236 43.6639C19.0086 43.6339 18.9786 43.5889 18.9636 43.559C18.9487 43.529 18.9337 43.514 18.9337 43.484C18.8887 43.3941 18.9337 43.514 18.9487 43.514C18.9187 43.499 18.8887 43.3041 18.8737 43.2741C18.8437 43.1842 18.8287 43.0793 18.8137 42.9893C18.7988 42.9144 18.8287 43.0493 18.8137 43.0493C18.7988 43.0343 18.8137 43.0043 18.8137 42.9743C18.8137 42.9144 18.7988 42.8694 18.7988 42.8094C18.7988 42.7045 18.7988 42.5996 18.7988 42.4946C18.7988 42.3897 18.8137 42.2997 18.8137 42.1948C18.8137 42.1648 18.8287 42.0149 18.8287 42.1049C18.8137 42.1948 18.8287 42.1049 18.8287 42.0899C18.8287 42.0449 18.8437 41.9999 18.8437 41.955C18.8887 41.7301 18.9337 41.5052 19.0086 41.2804C19.0836 41.0105 19.1885 40.7407 19.2934 40.4709C19.3084 40.4409 19.3234 40.4109 19.3234 40.3809C19.2934 40.4409 19.3084 40.4109 19.3234 40.3659C19.3534 40.306 19.3834 40.231 19.4134 40.1711C19.4883 40.0212 19.5483 39.8862 19.6232 39.7363C19.923 39.1367 20.2678 38.5821 20.6426 38.0274C20.2528 37.8025 19.8631 37.5627 19.4583 37.3378C19.3534 37.5177 19.2335 37.6976 19.1136 37.8625C19.0836 37.9075 19.0536 37.9375 19.0236 37.9824C18.9636 38.0724 19.0686 37.9375 19.0686 37.9375C19.0686 37.9524 19.0386 37.9824 19.0236 37.9974C18.9487 38.0874 18.8887 38.1623 18.8137 38.2523C18.5589 38.5521 18.2741 38.8369 17.9593 39.0917C17.8843 39.1517 17.8094 39.1967 17.7494 39.2566C17.8094 39.2117 17.9143 39.1067 17.7494 39.2566C17.7044 39.2866 17.6595 39.3166 17.6145 39.3616C17.4646 39.4665 17.3147 39.5714 17.1498 39.6614C16.9999 39.7513 16.835 39.8413 16.6851 39.9162C16.6101 39.9462 16.5352 39.9912 16.4602 40.0212C16.4302 40.0361 16.3853 40.0511 16.3553 40.0661C16.4152 40.0362 16.5801 39.9612 16.3553 40.0661C16.0555 40.1861 15.7556 40.276 15.4408 40.336C15.4109 40.336 15.3659 40.351 15.3359 40.351C15.186 40.3809 15.4708 40.336 15.3959 40.351C15.3209 40.351 15.261 40.3659 15.186 40.3659C15.0511 40.3809 14.9162 40.3809 14.7813 40.3659C14.7513 40.3659 14.7063 40.3659 14.6763 40.351C14.5414 40.336 14.8262 40.3809 14.7513 40.3659C14.6913 40.351 14.6313 40.351 14.5714 40.336C14.5114 40.321 14.4515 40.306 14.3915 40.291C14.3615 40.276 14.3315 40.276 14.3165 40.261C14.1816 40.216 14.4814 40.336 14.3765 40.291C14.2716 40.231 14.1666 40.1861 14.0767 40.1111C13.9718 40.0511 14.2266 40.246 14.1367 40.1561C14.1217 40.1411 14.0917 40.1261 14.0767 40.0961C14.0317 40.0511 13.9867 40.0062 13.9418 39.9612C13.8518 39.8563 14.0017 40.0511 13.9867 40.0212C13.9718 39.9912 13.9568 39.9762 13.9418 39.9462C13.9118 39.8862 13.8668 39.8413 13.8368 39.7813C13.8219 39.7513 13.8069 39.7213 13.7919 39.7064C13.7319 39.5864 13.8518 39.8862 13.8219 39.7663C13.8069 39.7064 13.7769 39.6464 13.7619 39.5714C13.7469 39.4965 13.7319 39.4365 13.7169 39.3616C13.7169 39.3316 13.6869 39.1817 13.7169 39.3466C13.7319 39.4965 13.7169 39.3466 13.7169 39.3016C13.7019 39.1367 13.7019 38.9718 13.7169 38.8069C13.7169 38.717 13.7319 38.627 13.7469 38.5371C13.7619 38.4471 13.7169 38.717 13.7319 38.627C13.7319 38.597 13.7319 38.5821 13.7469 38.5521C13.7619 38.5071 13.7619 38.4471 13.7769 38.4022C13.8219 38.1923 13.8668 37.9824 13.9268 37.7726C14.0017 37.5327 14.0767 37.3079 14.1666 37.068C14.1966 37.008 14.2116 36.9481 14.2416 36.8881C14.2566 36.8581 14.2566 36.8281 14.2716 36.7982C14.1966 36.9331 14.2416 36.8731 14.2566 36.8282C14.3165 36.6932 14.3765 36.5433 14.4515 36.4084C15.0511 35.1492 15.8156 33.9649 16.6401 32.8256C16.85 32.5258 17.0748 32.226 17.2997 31.9412C17.3447 31.8662 17.4046 31.8063 17.4646 31.7313C17.4796 31.7163 17.5395 31.6264 17.4796 31.7163C17.5096 31.6864 17.5395 31.6414 17.5545 31.6114C17.6745 31.4615 17.7944 31.2966 17.9143 31.1467C18.364 30.577 18.8437 30.0074 19.3084 29.4527C20.2678 28.3135 21.2572 27.2042 22.2316 26.0799C22.7113 25.5252 23.176 24.9705 23.6257 24.4009C24.0905 23.8013 24.5851 23.2166 24.9899 22.572C25.1998 22.2422 25.3347 21.9874 25.5146 21.6276C25.7094 21.1479 25.1698 20.6982 24.81 21.058Z" fill="#297254"/>
<path d="M3.05819 23.1427C4.13752 24.8217 5.51666 26.3058 7.00074 27.6399C8.52978 29.0191 10.2537 30.2183 11.9477 31.3726C12.3974 31.6874 12.8621 31.9872 13.3118 32.302C13.5217 32.4519 13.7465 32.6018 13.9714 32.7368C14.1962 32.8867 14.4211 32.9916 14.676 33.1115C14.9758 33.2464 15.3205 33.2165 15.5304 32.9466C15.7253 32.6918 15.7253 32.287 15.4854 32.0772C14.7659 31.4176 13.8964 30.9529 13.072 30.4132C12.2325 29.8735 11.408 29.3339 10.5835 28.7642C10.1638 28.4794 9.75902 28.1796 9.33928 27.8798C9.15939 27.7449 8.9795 27.61 8.79961 27.475C8.75464 27.4451 8.70967 27.4001 8.64971 27.3701C8.48481 27.2502 8.75464 27.4451 8.58975 27.3251C8.46982 27.2352 8.36489 27.1452 8.25995 27.0553C8.14003 26.9654 8.00511 26.8604 7.88518 26.7705C7.88518 26.7705 7.72029 26.6506 7.82522 26.7255C7.78025 26.6805 7.73528 26.6506 7.67532 26.6056C7.46545 26.4407 7.25558 26.2758 7.0607 26.1109C6.67094 25.7961 6.29618 25.4663 5.92141 25.1215C5.14189 24.402 4.39236 23.6224 3.73277 22.768C3.59786 22.6031 3.38799 22.5131 3.19311 22.6181C3.02821 22.708 2.95326 22.9629 3.05819 23.1427Z" fill="#297254"/>
<path d="M31.8546 14.2371C32.4842 13.5625 33.1288 12.903 33.7734 12.2434C34.1032 11.9136 34.418 11.5838 34.7328 11.254C34.8977 11.0891 35.0476 10.9092 35.1975 10.7293C35.4073 10.4745 35.6472 10.2196 35.6472 9.87484C35.6472 9.50008 35.2424 9.15529 34.8677 9.27522C34.6428 9.35017 34.5229 9.48509 34.373 9.66498C34.328 9.72494 34.418 9.62 34.343 9.70995C34.298 9.75492 34.2681 9.81488 34.2231 9.85985C34.1331 9.96479 34.0582 10.0847 33.9682 10.1896C34.0282 10.0997 33.9083 10.2646 33.9083 10.2646C33.8783 10.3096 33.8483 10.3545 33.8033 10.3845C33.5035 10.7593 33.1887 11.1191 32.8889 11.4788C32.2743 12.1984 31.6147 12.903 31.165 13.7274C30.9701 14.1472 31.5248 14.5969 31.8546 14.2371Z" fill="#297254"/>
<path d="M44.3866 28.7329C44.3567 28.7029 44.3117 28.6879 44.2817 28.6579C44.2068 28.613 44.2817 28.6579 44.2967 28.6729C44.2817 28.6579 44.2667 28.643 44.2367 28.628C44.1468 28.553 44.0718 28.4781 43.9819 28.4031C43.817 28.2532 43.6521 28.0883 43.4872 27.9234C43.1124 27.5786 42.7527 27.2188 42.3629 26.904C41.5234 26.2145 40.4591 25.6448 39.3648 26.1395C38.8851 26.3644 38.5253 26.7691 38.3454 27.2488C38.1805 27.6686 38.2105 28.1483 38.3004 28.583C38.4803 29.5124 39.005 30.3969 39.5147 31.1914C39.7995 31.6261 40.0843 32.0608 40.3841 32.4806C40.609 32.8104 40.8339 33.1402 41.0138 33.4849C41.2686 33.1551 41.5084 32.8403 41.7633 32.5105C41.6434 32.4656 41.9132 32.5855 41.8083 32.5255C41.7783 32.5105 41.7633 32.4956 41.7333 32.4956C41.6733 32.4656 41.6134 32.4356 41.5684 32.4056C41.4485 32.3457 41.3286 32.2707 41.2086 32.1957C40.9688 32.0308 40.7289 31.8659 40.4891 31.7011C39.9644 31.3263 39.4547 30.9215 38.9151 30.5917C38.4054 30.2769 37.8507 29.9771 37.2511 29.8722C36.5615 29.7673 35.9169 29.9172 35.4072 30.4119C34.5528 31.2513 34.6277 32.4656 34.9575 33.5299C35.2873 34.6392 35.857 35.6886 36.4716 36.678C36.8314 37.2776 37.2211 37.8622 37.6558 38.4169C38.0456 38.1171 38.4204 37.8322 38.8101 37.5324C38.3004 37.0827 37.7458 36.678 37.1911 36.2882C36.2617 35.6286 35.2573 34.999 34.163 34.6392C33.6383 34.4743 33.0687 34.3844 32.529 34.5043C31.9294 34.6392 31.4947 35.1039 31.2698 35.6586C31.06 36.1983 31.2848 36.7979 31.5397 37.2926C31.8395 37.8922 32.2742 38.4319 32.6939 38.9415C33.1886 39.5562 33.7133 40.1408 34.223 40.7104C34.4478 40.9653 34.6727 41.2051 34.8976 41.46C34.9875 41.5649 35.0774 41.6549 35.1524 41.7598C35.1824 41.8048 35.2274 41.8497 35.2573 41.8947C35.3473 42.0146 35.1224 41.7148 35.2423 41.8797C35.5871 41.5349 35.9169 41.2051 36.2617 40.8603C35.827 40.6655 35.4372 40.3956 35.0475 40.1258C34.5678 39.796 34.0881 39.4512 33.6084 39.1364C33.0987 38.8066 32.559 38.5218 31.9894 38.3119C31.5097 38.132 30.925 38.0421 30.4303 38.222C29.8007 38.4468 29.396 38.9715 29.2161 39.6011C29.0662 40.1258 29.1411 40.6954 29.336 41.2051C29.8457 42.4643 30.8351 43.4837 31.7645 44.4281C32.3491 44.9978 32.9488 45.5524 33.5634 46.0921C33.8632 46.3469 34.163 46.6018 34.4628 46.8566C34.6427 47.0065 34.8226 47.1714 35.0025 47.3063C35.0774 47.3513 35.1374 47.3963 35.2124 47.4562C35.2573 47.4862 35.4822 47.6661 35.3023 47.5012C35.6021 47.7411 36.0518 47.816 36.3367 47.5012C36.5915 47.2314 36.6515 46.7217 36.3367 46.4669C36.1118 46.287 35.9319 46.0621 35.7071 45.8822C35.4522 45.6873 35.2124 45.4775 34.9575 45.2826C34.4179 44.8479 33.8932 44.3981 33.3835 43.9334C32.8738 43.4837 32.3791 43.004 31.9144 42.5093C31.8095 42.3894 31.7045 42.2695 31.5996 42.1495C31.5546 42.0896 31.5097 42.0446 31.4647 41.9846C31.4497 41.9547 31.4197 41.9097 31.3897 41.8947C31.4497 41.9697 31.4647 41.9996 31.4347 41.9547C31.4197 41.9397 31.4047 41.9247 31.3897 41.8947C31.2248 41.6698 31.06 41.445 30.925 41.1901C30.8651 41.0852 30.8051 40.9653 30.7451 40.8454C30.7302 40.8304 30.7302 40.8004 30.7152 40.7854C30.6552 40.6655 30.7751 40.9353 30.7451 40.8454C30.7302 40.7854 30.7002 40.7254 30.6852 40.6655C30.6552 40.5605 30.6252 40.4556 30.5952 40.3507C30.5503 40.1858 30.6102 40.5306 30.5952 40.3806C30.5952 40.3207 30.5803 40.2757 30.5952 40.2158C30.5952 40.1708 30.6102 40.1258 30.6102 40.0658C30.6252 40.2907 30.5802 40.2008 30.6102 40.0958C30.6252 40.0509 30.6402 39.9909 30.6552 39.9459C30.6702 39.9159 30.6702 39.886 30.6852 39.856C30.7302 39.7211 30.5952 40.0209 30.6702 39.9009C30.7002 39.856 30.7152 39.796 30.7451 39.751C30.7601 39.736 30.7751 39.7211 30.7751 39.7061C30.8351 39.6011 30.6402 39.856 30.7302 39.766C30.7601 39.736 30.7901 39.7061 30.8201 39.6761C30.94 39.5412 30.6702 39.766 30.8051 39.6911C30.8351 39.6761 30.8801 39.6461 30.925 39.6311C30.7451 39.751 30.7901 39.6761 30.8951 39.6611C30.94 39.6461 31.0899 39.6311 30.925 39.6461C30.7601 39.6611 30.94 39.6461 30.985 39.6461C31.03 39.6461 31.0749 39.6461 31.1199 39.6461C31.2998 39.6611 30.925 39.6011 31.0899 39.6461C31.1949 39.6761 31.2998 39.6911 31.4047 39.7211C31.4647 39.736 31.5097 39.751 31.5696 39.781C31.5846 39.796 31.6146 39.796 31.6296 39.811C31.7045 39.841 31.7345 39.9009 31.5846 39.796C31.6746 39.856 31.8095 39.9009 31.9294 39.9609C32.1693 40.0808 32.3941 40.2158 32.634 40.3657C33.1586 40.6955 33.6833 41.0552 34.193 41.4C34.6127 41.6848 35.0325 41.9697 35.4972 42.1795C35.797 42.3144 36.1568 42.3294 36.3966 42.0596C36.6065 41.8347 36.7114 41.43 36.5166 41.1602C35.827 40.2307 34.9725 39.4063 34.223 38.5218C33.9981 38.267 33.7883 38.0121 33.5784 37.7423C33.5634 37.7273 33.5484 37.6973 33.5184 37.6823C33.6533 37.8472 33.5634 37.7423 33.5334 37.6973C33.4884 37.6374 33.4285 37.5624 33.3835 37.5024C33.2936 37.3825 33.2036 37.2476 33.1137 37.1127C32.9638 36.8878 32.8288 36.663 32.7239 36.4231C32.7089 36.3931 32.6939 36.3631 32.6939 36.3482C32.6939 36.3482 32.7689 36.543 32.7389 36.4381C32.7239 36.3931 32.6939 36.3332 32.6789 36.2882C32.664 36.2432 32.664 36.2132 32.649 36.1683C32.604 35.9734 32.649 36.3781 32.649 36.1833C32.649 36.1533 32.649 36.1083 32.649 36.0783C32.6789 36.2882 32.604 36.2732 32.634 36.1982C32.634 36.1833 32.649 36.1683 32.649 36.1383C32.6789 35.9884 32.559 36.3182 32.634 36.1683C32.664 36.1233 32.6939 36.0633 32.7239 36.0184C32.7989 35.8834 32.589 36.1533 32.6939 36.0633C32.7239 36.0334 32.7539 36.0034 32.7839 35.9734C32.8288 35.9284 32.604 36.0933 32.7539 36.0034C32.8438 35.9434 32.9638 35.9584 32.7239 36.0034C32.7989 35.9884 32.8888 35.9584 32.9638 35.9434C33.0687 35.9134 32.7389 35.9584 32.8588 35.9584C32.8738 35.9584 32.9038 35.9584 32.9188 35.9584C32.9788 35.9584 33.0237 35.9584 33.0837 35.9584C33.1287 35.9584 33.1736 35.9584 33.2336 35.9734C33.4285 35.9884 33.0387 35.9434 33.2186 35.9734C33.3385 35.9884 33.4435 36.0184 33.5634 36.0483C33.6683 36.0783 33.7733 36.1083 33.8932 36.1533C33.9531 36.1683 34.0131 36.1983 34.0731 36.2132C34.0881 36.2282 34.118 36.2282 34.133 36.2432C34.2979 36.3032 33.9981 36.1833 34.1031 36.2282C34.3429 36.3332 34.5828 36.4531 34.8226 36.573C35.3023 36.8279 35.752 37.1127 36.2017 37.4275C36.4266 37.5774 36.6515 37.7423 36.8763 37.9072C36.9663 37.9821 37.0712 38.0571 37.1611 38.132C37.2061 38.162 37.2361 38.192 37.2811 38.222C36.9813 37.9821 37.416 38.3269 37.416 38.3269C37.5359 38.4169 37.2511 38.192 37.386 38.2969C37.416 38.3269 37.461 38.3569 37.4909 38.3719C37.5359 38.4169 37.5959 38.4468 37.6409 38.4918C37.6858 38.5218 37.7308 38.5668 37.7758 38.5968C38.0756 38.8366 38.5253 38.9116 38.8101 38.5968C39.0949 38.282 39.065 37.8772 38.8101 37.5624C38.7801 37.5324 38.7651 37.5024 38.7352 37.4725C38.6602 37.3825 38.8701 37.6523 38.7951 37.5624C38.7801 37.5474 38.7652 37.5174 38.7502 37.5024C38.7052 37.4575 38.6752 37.3975 38.6302 37.3375C38.4054 37.0227 38.1805 36.7229 37.9706 36.3931C37.6858 35.9584 37.401 35.5237 37.1462 35.0739C37.0112 34.8491 36.8913 34.6092 36.7714 34.3694C36.7114 34.2495 36.6515 34.1295 36.5915 34.0096C36.5615 33.9497 36.5315 33.8897 36.5166 33.8297C36.5016 33.7997 36.4866 33.7698 36.4716 33.7398C36.4566 33.6948 36.4566 33.7098 36.5016 33.8147C36.4866 33.7848 36.4866 33.7698 36.4716 33.7398C36.3816 33.5149 36.2917 33.2751 36.2167 33.0352C36.1868 32.9153 36.1568 32.8104 36.1268 32.6904C36.1118 32.6305 36.0968 32.5855 36.0968 32.5255C36.0968 32.4956 36.0968 32.4506 36.0818 32.4206C36.0968 32.4656 36.0968 32.6005 36.0968 32.4656C36.0818 32.3606 36.0818 32.2557 36.0818 32.1508C36.0818 32.1058 36.0818 32.0458 36.0818 32.0009C36.0818 31.9859 36.0818 31.9559 36.0818 31.9409C36.0968 31.791 36.0668 32.0458 36.0668 31.9859C36.0968 31.8959 36.0968 31.806 36.1268 31.716C36.1268 31.7011 36.1418 31.6711 36.1568 31.6561C36.1868 31.5661 36.1268 31.746 36.1268 31.746C36.1568 31.7011 36.1718 31.6411 36.2017 31.5961C36.2167 31.5661 36.2917 31.4912 36.2917 31.4612C36.2917 31.5362 36.2017 31.5661 36.2767 31.4912C36.2917 31.4612 36.3217 31.4462 36.3367 31.4162C36.3666 31.3862 36.4566 31.3263 36.4716 31.2963C36.4566 31.3713 36.3517 31.3713 36.4266 31.3413C36.4716 31.3263 36.5016 31.2963 36.5465 31.2663C36.5615 31.2513 36.5915 31.2513 36.6065 31.2363C36.7114 31.1764 36.4416 31.2813 36.5615 31.2513C36.6065 31.2363 36.6515 31.2214 36.6964 31.2064C36.7264 31.2064 36.7414 31.1914 36.7714 31.1914C36.8913 31.1614 36.6215 31.2064 36.7114 31.2064C36.7714 31.2064 36.8314 31.2064 36.8913 31.2064C36.9213 31.2064 36.9513 31.2064 36.9963 31.2064C37.0712 31.2064 36.9813 31.2513 36.9213 31.1914C36.9513 31.2214 37.0562 31.2213 37.0862 31.2213C37.2211 31.2513 37.341 31.2963 37.476 31.3413C37.6409 31.4012 37.356 31.2813 37.5359 31.3713C37.5959 31.4012 37.6558 31.4312 37.7158 31.4612C37.8357 31.5212 37.9706 31.5961 38.0906 31.6711C39.2299 32.3456 40.2043 33.35 41.4485 33.8447C41.6883 33.9347 42.0031 33.7997 42.153 33.6049C42.3179 33.38 42.3329 33.1102 42.198 32.8703C41.8682 32.2107 41.3885 31.6261 40.9838 31.0115C40.7289 30.6367 40.4891 30.247 40.2492 29.8422C40.1443 29.6473 40.0394 29.4525 39.9344 29.2426C39.8894 29.1526 39.8595 29.0477 39.7995 28.9578C39.8894 29.1077 39.8145 28.9877 39.7845 28.9278C39.7695 28.8828 39.7545 28.8228 39.7246 28.7779C39.6646 28.598 39.6046 28.4031 39.5746 28.2082C39.5746 28.1932 39.5597 28.1333 39.5597 28.1333C39.5597 28.1333 39.5746 28.2832 39.5746 28.2232C39.5746 28.1782 39.5597 28.1333 39.5597 28.0883C39.5597 27.9984 39.5597 27.9234 39.5597 27.8335C39.5597 27.6836 39.5297 27.9984 39.5597 27.8485C39.5746 27.8185 39.5746 27.7735 39.5896 27.7435C39.6046 27.6985 39.6196 27.6686 39.6196 27.6236C39.6496 27.5336 39.5447 27.7735 39.6196 27.6386C39.6346 27.6086 39.6646 27.5636 39.6796 27.5336C39.7545 27.4137 39.6196 27.5936 39.6646 27.5486C39.6946 27.5187 39.7096 27.4887 39.7395 27.4737C39.7545 27.4587 39.7695 27.4437 39.7845 27.4287C39.8595 27.3538 39.7995 27.4587 39.7695 27.4437C39.7845 27.4437 39.9944 27.3088 40.0244 27.2938C40.0843 27.2638 39.9494 27.3388 39.9494 27.3238C39.9494 27.3238 40.0094 27.3088 40.0244 27.2938C40.0693 27.2788 40.1293 27.2788 40.1743 27.2488C40.2492 27.2188 40.0244 27.2488 40.1143 27.2638C40.1293 27.2638 40.1443 27.2638 40.1743 27.2638C40.2192 27.2638 40.2642 27.2638 40.3242 27.2638C40.3542 27.2638 40.3692 27.2638 40.3991 27.2638C40.5041 27.2638 40.3392 27.2488 40.3392 27.2488C40.3542 27.2338 40.4591 27.2788 40.4891 27.2788C40.579 27.3088 40.669 27.3388 40.7589 27.3687C40.8339 27.3837 40.639 27.3088 40.7139 27.3538C40.7439 27.3687 40.7589 27.3688 40.7889 27.3837C40.8489 27.4137 40.8938 27.4437 40.9538 27.4737C41.1487 27.5786 41.3435 27.6985 41.5384 27.8185C41.6434 27.8934 41.7483 27.9684 41.8532 28.0433C41.9132 28.0883 41.9582 28.1333 42.0181 28.1633C42.0331 28.1782 42.1081 28.2382 42.0481 28.1932C41.9881 28.1483 42.0781 28.2232 42.0931 28.2382C42.3029 28.4031 42.5128 28.568 42.7227 28.7479C43.0975 29.0477 43.5022 29.3625 43.9369 29.5574C44.4466 29.7972 44.8813 29.0777 44.3866 28.7329Z" fill="#297254"/>
<path d="M33.9382 45.8532C34.9126 46.7976 36.2168 47.9219 37.6859 47.6371C38.7502 47.4272 39.2599 46.3329 39.4398 45.3585C39.5747 44.6539 39.5897 43.9344 39.5447 43.2298C39.3199 43.3947 39.11 43.5596 38.8851 43.7245C40.0094 43.9944 41.3136 43.9044 42.1231 42.96C42.7827 42.1955 42.9776 41.1611 42.8427 40.1717C42.7827 39.692 42.6178 39.2123 42.348 38.8226C42.1381 39.0924 41.9432 39.3623 41.7334 39.6171C42.6628 39.8719 43.6972 39.797 44.4017 39.0924C45.0313 38.4628 45.2562 37.5334 45.2862 36.6789C45.3012 36.1542 45.2412 35.6296 45.1213 35.1199C44.8514 35.3298 44.5666 35.5396 44.2968 35.7495C44.9264 36.0793 45.7059 36.3791 46.4105 36.1093C47.0251 35.8844 47.3849 35.3148 47.5048 34.6852C47.7596 33.2311 47.205 31.6121 46.4255 30.3828C46.1856 30.0081 45.9008 29.6033 45.571 29.3035C45.1962 28.9737 44.8214 28.7339 44.3417 28.569C44.0869 28.479 43.7721 28.6589 43.6822 28.8988C43.5772 29.1686 43.6822 29.4384 43.907 29.6033C43.937 29.6183 43.967 29.6483 43.997 29.6633C44.0419 29.6933 43.937 29.6183 43.937 29.6183C43.937 29.6333 43.982 29.6483 43.982 29.6633C44.0419 29.7233 44.1019 29.7682 44.1619 29.8282C44.2818 29.9331 44.4017 30.0381 44.5216 30.158C44.6416 30.2779 44.7465 30.3828 44.8664 30.5028C44.9264 30.5627 44.9714 30.6227 45.0313 30.6827C45.0613 30.7126 45.0913 30.7426 45.1063 30.7726C45.1213 30.7876 45.1213 30.8026 45.1363 30.8176C45.2112 30.9225 45.0613 30.7276 45.1063 30.7876C45.3161 31.0724 45.511 31.3722 45.6759 31.672C45.7509 31.8219 45.8258 31.9719 45.9008 32.1218C45.8858 32.1517 45.9607 32.2567 45.9008 32.1218C45.9008 32.1368 45.9458 32.2267 45.9458 32.2417C45.9757 32.3316 46.0057 32.4066 46.0357 32.4965C46.1406 32.8113 46.2306 33.1261 46.2905 33.4409C46.3055 33.5159 46.3055 33.5908 46.3205 33.6658C46.3055 33.6058 46.3055 33.5309 46.3205 33.6358C46.3205 33.6808 46.3355 33.7108 46.3355 33.7557C46.3505 33.8907 46.3505 34.0406 46.3505 34.1755C46.3505 34.2354 46.3505 34.2954 46.3355 34.3704C46.3355 34.4003 46.3205 34.4303 46.3205 34.4603C46.3205 34.3704 46.3355 34.3254 46.3205 34.4303C46.3055 34.5502 46.2606 34.6552 46.2306 34.7601C46.2006 34.8651 46.2905 34.6402 46.2456 34.7151C46.2306 34.7301 46.2306 34.7601 46.2156 34.7751C46.1856 34.8201 46.1556 34.8651 46.1256 34.925C46.0807 35 46.2156 34.8201 46.1706 34.88C46.1556 34.895 46.1406 34.91 46.1256 34.94C46.1107 34.955 46.0957 34.97 46.0807 34.985C46.0057 35.0599 46.1706 34.925 46.1106 34.955C46.0807 34.97 45.9907 35.015 45.9757 35.0299C46.0357 34.955 46.1106 34.985 46.0057 35.015C45.9757 35.0299 45.9457 35.0299 45.9158 35.0449C45.9008 35.0449 45.8408 35.0449 45.8258 35.0599C45.8858 35 45.9757 35.0449 45.9008 35.0449C45.8858 35.0449 45.8708 35.0449 45.8558 35.0449C45.7809 35.0449 45.7059 35.0449 45.6459 35.0449C45.6309 35.0449 45.616 35.0449 45.601 35.0449C45.511 35.0449 45.7209 35.0749 45.6609 35.0449C45.6309 35.0299 45.586 35.0299 45.541 35.0299C45.4511 35.015 45.3761 34.985 45.3012 34.955C45.2562 34.94 45.2112 34.925 45.1662 34.91C45.1363 34.895 45.0013 34.8501 45.0763 34.88C45.1512 34.91 45.0163 34.8501 44.9864 34.8351C44.9264 34.8051 44.8814 34.7751 44.8215 34.7451C44.3867 34.5203 43.877 34.895 43.997 35.3747C44.012 35.4647 44.0419 35.5546 44.0569 35.6446C44.0719 35.6895 44.0719 35.7345 44.0869 35.7645C44.0869 35.7795 44.0869 35.8095 44.1019 35.8245C44.1019 35.8245 44.1169 35.9594 44.1169 35.8844C44.1019 35.8095 44.1169 35.9444 44.1319 35.9594C44.1319 36.0043 44.1469 36.0643 44.1469 36.1093C44.1469 36.1992 44.1619 36.2892 44.1619 36.3941C44.1619 36.589 44.1619 36.7689 44.1469 36.9637C44.1469 37.0087 44.1319 37.0537 44.1319 37.0837C44.1469 36.9338 44.1319 37.0837 44.1169 37.1136C44.1019 37.2036 44.0869 37.2935 44.0569 37.3835C44.0419 37.4734 44.012 37.5484 43.982 37.6233C43.967 37.6533 43.952 37.6983 43.937 37.7283C43.907 37.8182 43.982 37.6383 43.922 37.7582C43.892 37.8332 43.8471 37.9082 43.8171 37.9681C43.8021 37.9981 43.7721 38.0281 43.7571 38.0581C43.7271 38.103 43.6522 38.178 43.7421 38.088C43.6972 38.148 43.6372 38.208 43.5922 38.2529C43.5622 38.2829 43.5472 38.2979 43.5173 38.3279C43.4273 38.4178 43.5922 38.2829 43.4873 38.3579C43.4273 38.4028 43.3674 38.4328 43.3074 38.4628C43.2474 38.4928 43.1875 38.5078 43.2924 38.4778C43.2474 38.4928 43.2175 38.5078 43.1725 38.5228C43.0825 38.5528 42.9926 38.5677 42.8877 38.5827C43.0076 38.5528 42.8877 38.5827 42.8277 38.5827C42.7827 38.5827 42.7228 38.5827 42.6778 38.5827C42.6178 38.5827 42.5579 38.5827 42.4979 38.5677C42.4679 38.5677 42.333 38.5378 42.4379 38.5677C42.303 38.5378 42.1681 38.5078 42.0332 38.4778C41.5985 38.3579 41.1337 38.8825 41.4186 39.2723C41.4635 39.3473 41.5085 39.4072 41.5535 39.4822C41.5685 39.5122 41.5835 39.5421 41.6135 39.5871C41.6284 39.6021 41.6284 39.6321 41.6434 39.6471C41.6884 39.737 41.6434 39.6321 41.6284 39.6171C41.6734 39.6621 41.7034 39.812 41.7184 39.8719C41.7484 39.9619 41.7634 40.0668 41.7933 40.1568C41.8083 40.2017 41.8083 40.2467 41.8233 40.2917C41.8383 40.3816 41.8083 40.1717 41.8233 40.3067C41.8383 40.4116 41.8383 40.5165 41.8383 40.6065C41.8383 40.6964 41.8383 40.7864 41.8383 40.8763C41.8383 40.9213 41.8383 40.9662 41.8233 41.0262C41.8233 41.0412 41.8233 41.1012 41.8083 41.1012C41.8233 41.1012 41.8383 40.9662 41.8083 41.0712C41.7783 41.2661 41.7184 41.4609 41.6584 41.6408C41.6135 41.7608 41.6884 41.5959 41.6434 41.6558C41.6284 41.7008 41.5985 41.7458 41.5835 41.7907C41.5385 41.8807 41.4785 41.9706 41.4336 42.0456C41.4186 42.0606 41.4036 42.0756 41.4036 42.0905C41.4635 41.9856 41.4486 42.0306 41.4336 42.0606C41.4036 42.0905 41.3736 42.1355 41.3436 42.1655C41.2687 42.2405 41.1937 42.3004 41.1188 42.3754C41.2087 42.3004 41.1487 42.3604 41.0888 42.3904C41.0438 42.4203 40.9988 42.4503 40.9689 42.4653C40.9239 42.4953 40.8789 42.5103 40.8339 42.5403C40.8189 42.5553 40.789 42.5553 40.774 42.5702C40.804 42.5553 40.8939 42.5103 40.774 42.5702C40.654 42.6152 40.5341 42.6452 40.4142 42.6602C40.3842 42.6602 40.3692 42.6752 40.3392 42.6752C40.2193 42.7052 40.4292 42.6752 40.3243 42.6752C40.2493 42.6752 40.1893 42.6902 40.1144 42.6902C39.9645 42.6902 39.7996 42.6902 39.6497 42.6752C39.6347 42.6752 39.5298 42.6602 39.6047 42.6752C39.6647 42.6752 39.5148 42.6602 39.4998 42.6602C39.4098 42.6452 39.3199 42.6302 39.2149 42.6002C38.9151 42.5253 38.5404 42.7501 38.5554 43.0949C38.6003 43.6646 38.5853 44.2492 38.5254 44.8188C38.5254 44.8488 38.5104 44.9238 38.5254 44.8039C38.5254 44.8338 38.5104 44.8638 38.5104 44.9088C38.4954 44.9688 38.4954 45.0287 38.4804 45.0887C38.4504 45.2086 38.4354 45.3285 38.3905 45.4485C38.3605 45.5534 38.3305 45.6433 38.2855 45.7483C38.2855 45.7633 38.2406 45.8682 38.2705 45.7782C38.3005 45.7033 38.2555 45.7932 38.2555 45.8082C38.2256 45.8532 38.2106 45.8982 38.1806 45.9581C38.1356 46.0481 38.0757 46.123 38.0307 46.213C38.0007 46.2729 38.1206 46.123 38.0457 46.198C38.0307 46.213 38.0157 46.228 38.0007 46.243C37.9707 46.2879 37.9257 46.3179 37.8958 46.3629C37.8658 46.3929 37.8358 46.4228 37.8058 46.4528C37.7309 46.5128 37.8808 46.4079 37.8208 46.4378C37.8058 46.4528 37.7758 46.4678 37.7609 46.4828C37.7309 46.5128 37.6859 46.5278 37.6559 46.5428C37.6409 46.5578 37.6109 46.5578 37.596 46.5728C37.6559 46.5428 37.6859 46.5428 37.6109 46.5728C37.521 46.6027 37.446 46.6177 37.3561 46.6327C37.2512 46.6627 37.446 46.6327 37.3711 46.6327C37.3411 46.6327 37.3111 46.6327 37.2961 46.6327C37.2362 46.6327 37.1912 46.6327 37.1312 46.6327C37.0713 46.6327 37.0113 46.6177 36.9514 46.6177C37.0563 46.6327 36.9364 46.6177 36.8914 46.6027C36.7565 46.5728 36.6216 46.5428 36.5016 46.4978C36.1569 46.3779 35.887 46.2579 35.5422 46.0781C35.1075 45.8532 34.7028 45.5984 34.298 45.3285C33.9982 45.2686 33.7134 45.6433 33.9382 45.8532Z" fill="#297254"/>
</svg>
