<svg width="75" height="87" viewBox="0 0 75 87" fill="none" xmlns="http://www.w3.org/2000/svg">
<path d="M37.9774 14.2154C37.8682 14.1832 37.763 14.1643 37.6538 14.1321C37.763 14.1643 37.8721 14.1965 37.9774 14.2154Z" fill="#518FFF"/>
<path d="M37.9775 14.2324C37.9921 14.227 37.9961 14.2405 38.0106 14.2351C37.9961 14.2405 37.9961 14.2405 37.9775 14.2324Z" fill="#518FFF"/>
<path d="M52.2256 27.2657C52.2803 27.3949 52.3504 27.5183 52.4051 27.6475C51.4988 25.592 50.4161 23.6336 49.13 21.7975C47.9605 20.1272 46.6145 18.5539 45.0313 17.2208C44.3074 16.611 43.5264 16.0979 42.7072 15.6294C42.363 15.3853 41.9652 15.1915 41.5713 15.0113C41.2779 14.8828 40.973 14.7737 40.6567 14.684C40.1939 14.56 39.7236 14.4688 39.2075 14.455C38.5568 14.4474 37.9796 14.5168 37.33 14.6888C37.2493 14.7045 37.1571 14.7396 37.0803 14.7688C36.7537 14.878 36.5007 15.0642 36.2403 15.2832C36.2288 15.3025 36.1981 15.3142 36.1867 15.3336C36.0795 15.4343 35.9723 15.5351 35.8612 15.6223C34.6016 16.7463 33.3573 17.8644 32.1208 19.0096C29.9541 21.0035 27.8067 23.005 25.64 24.9989C23.0678 27.4169 20.4838 29.7945 17.9617 32.2085C16.7103 33.4193 15.4588 34.6302 14.1921 35.8469C13.5951 36.4339 12.9828 37.0267 12.3819 37.6002C11.8117 38.162 11.2184 38.7026 10.6947 39.3067C10.58 39.4403 10.45 39.5798 10.3353 39.7134C10.2703 39.7831 10.2053 39.8528 10.1442 39.936C10.1213 39.9747 10.0792 40.0058 10.041 40.0503C9.93771 40.1646 9.8652 40.2671 9.812 40.3774C9.812 40.3774 9.80806 40.3639 9.82342 40.358C9.58304 40.7044 9.35802 41.045 9.11763 41.3914C8.67675 41.694 8.22051 42.0025 7.8068 42.3398C7.51563 42.5705 7.22839 42.8148 6.96439 43.0801C6.71182 43.3262 6.4943 43.6339 6.30356 43.9164C5.6478 44.9458 5.4974 46.128 5.62749 47.2186C5.91598 49.614 6.83745 52.2487 9.4718 52.9721C10.2702 53.1935 11.0407 53.2606 11.9184 53.2269C12.2572 53.2181 12.6034 53.1764 12.9458 53.1213C13.2381 53.0701 13.5611 53.0073 13.8723 52.904C13.8802 52.931 13.8841 52.9445 13.9074 52.9656C14.4459 54.1109 14.9885 55.2697 15.527 56.4149C16.5377 58.5357 17.5483 60.6566 18.5703 62.758C19.6235 64.9077 20.6767 67.0573 21.822 69.1719C22.4181 70.2803 23.0296 71.3828 23.6371 72.4719C23.9604 73.054 24.2682 73.6419 24.649 74.1872C25.0298 74.7324 25.4299 75.2853 25.8106 75.8306C26.0127 76.1138 26.2107 76.3835 26.4127 76.6667C26.6108 76.9364 26.9428 77.0801 27.2895 77.0983C27.4864 77.1885 27.7216 77.2341 27.9835 77.2545C28.4342 77.2781 28.8033 77.1978 29.2607 77.0689C29.8142 76.9184 30.3862 76.6559 30.846 76.3011C31.4169 75.859 31.9221 75.3669 32.311 74.769C32.6429 74.2678 32.8703 73.7013 33.0556 73.1659C33.1423 72.8779 33.1905 72.5746 33.2118 72.2964C33.3525 72.0179 33.4468 71.6971 33.4141 71.4095C33.413 71.2299 33.4119 71.0503 33.3493 70.8941C33.302 70.7321 33.2241 70.5817 33.1769 70.4197C32.9694 69.8835 32.762 69.3474 32.5699 68.8054C31.9239 67.116 31.1897 65.4751 30.5016 63.8166C30.0949 62.8312 29.6729 61.8517 29.2662 60.8662C28.8088 59.7651 28.2938 58.7009 27.7903 57.6173C27.3765 56.7246 26.9474 55.8377 26.5336 54.945C26.1824 54.2085 25.858 53.4469 25.4761 52.722C25.3202 52.4213 25.1529 52.1399 24.997 51.8392C24.9269 51.7158 24.8568 51.5925 24.806 51.4768C24.8021 51.4633 24.7981 51.4498 24.7788 51.4421C24.771 51.4151 24.7631 51.3881 24.7399 51.3669C24.6304 51.1085 24.517 50.8366 24.4076 50.5782C24.4037 50.5647 24.3997 50.5512 24.3958 50.5377C24.2942 50.3063 24.1698 50.1136 23.9189 50.014C23.6873 49.9221 23.3792 49.9192 23.122 50.032C22.6075 50.2577 22.176 50.8267 22.3562 51.3282C22.4267 51.5114 22.4972 51.6946 22.5676 51.8779C22.7633 52.3735 22.8975 52.8925 23.0317 53.4115C23.4775 55.117 24.0924 56.7583 24.6304 58.4288C24.9602 59.4434 25.2594 60.4697 25.6313 61.4533C26.0112 62.4639 26.3871 63.461 26.7824 64.4658C27.1425 65.4088 27.5027 66.3519 27.8629 67.295C28.1644 68.0954 28.4506 68.9016 28.7829 69.6903C29.0254 70.2881 29.2793 70.8666 29.5218 71.4644C29.5962 71.6611 29.6859 71.852 29.7643 72.0622C29.7839 72.1297 29.819 72.1914 29.8426 72.2725C29.9481 72.5173 30.0182 72.6407 30.1462 72.787C29.9408 73.1951 29.7083 73.5685 29.4258 73.946C29.25 74.1628 29.0396 74.3778 28.8213 74.5658C28.9324 74.4786 29.0282 74.3972 29.1354 74.2964C29.0243 74.3837 28.9017 74.4903 28.7945 74.591C28.6681 74.6841 28.557 74.7713 28.4265 74.8509C27.9498 73.7422 27.4884 72.6276 26.9081 71.5732C26.2887 70.4436 25.6694 69.3141 25.0654 68.1787C23.9354 66.0582 22.7708 63.936 21.6408 61.8156C20.5459 59.7568 19.4624 57.6787 18.3981 55.6083C17.3028 53.4897 16.2343 51.3459 15.0968 49.2583C14.4854 48.1557 13.8853 47.0338 13.2739 45.9313C12.6234 44.7536 12.0344 43.5525 11.4147 42.3631C11.3446 42.2397 11.2899 42.1105 11.2198 41.9871C11.2159 41.9736 11.2273 41.9543 11.2195 41.9273C11.3191 41.8594 11.4188 41.7915 11.5224 41.7371C11.5646 41.706 11.626 41.6827 11.6643 41.6381C11.6643 41.6381 11.6643 41.6381 11.6796 41.6323C11.7372 41.5954 11.7907 41.5451 11.8597 41.4888C12.4267 41.0333 12.9936 40.5777 13.5142 40.0797C14.0386 39.5953 14.563 39.1109 15.0875 38.6265C16.1899 37.6073 17.3078 36.5823 18.4102 35.563C20.7263 33.4374 23.027 31.3176 25.3237 29.1843C27.4215 27.2466 29.5346 25.3031 31.6324 23.3654C33.2057 21.9122 34.8215 20.4878 36.3716 19.0134C36.9497 18.4786 37.5277 17.9438 38.0864 17.4013C38.2633 17.3641 38.4441 17.3403 38.6135 17.3359C39.0255 17.3443 39.4187 17.4048 39.8043 17.4982C40.1785 17.6109 40.572 17.7313 40.9119 17.9021C41.9091 18.5129 42.7763 19.2632 43.5785 20.0832C45.0671 21.6773 46.276 23.4827 47.3237 25.3794C47.6158 25.9134 47.8926 26.4532 48.154 26.9988C49.0674 28.9616 49.8236 31.0291 50.3146 33.1825C50.4295 33.6938 50.5251 34.1975 50.5899 34.7129C50.72 35.8034 50.754 36.9155 50.6032 38.0379C50.5922 38.1171 50.5697 38.2157 50.5587 38.2949C50.0784 38.4625 49.5942 38.6166 49.1294 38.7783C47.0583 39.4608 45.0066 40.1509 42.9356 40.8333C40.2421 41.7225 37.5801 42.7196 34.9063 43.6763C33.5156 44.175 32.1249 44.6738 30.7303 45.1591C29.4318 45.6228 28.1258 46.1194 26.8313 46.5966C24.7224 47.3834 22.6096 48.1568 20.485 48.8896C20.3006 48.9597 20.0969 49.0222 19.9126 49.0923C19.4631 49.2482 19.1734 49.7183 19.2221 50.1198C19.263 50.4943 19.658 50.8541 20.1233 50.7522C22.2608 50.2395 24.3866 49.6862 26.5277 49.1271C27.8423 48.7773 29.1569 48.4274 30.4715 48.0776C31.863 47.6985 33.2733 47.2673 34.6569 46.8612C36.0712 46.4435 37.4855 46.0257 38.8997 45.608C40.2526 45.2136 41.6093 44.8327 42.9464 44.3843C45.125 43.661 47.2882 42.9435 49.4668 42.2201C50.4466 41.8926 51.4303 41.5786 52.4061 41.2375C52.5176 41.2101 52.6098 41.1751 52.7134 41.1207C52.7749 41.0973 52.817 41.0663 52.8746 41.0294C52.8899 41.0236 52.9167 40.9984 52.9321 40.9925C52.9628 40.9809 52.9743 40.9615 53.005 40.9498C53.005 40.9498 53.005 40.9498 53.0203 40.944C53.304 40.7461 53.5527 40.4866 53.6973 40.2216C53.7659 40.1055 53.8151 39.9818 53.8605 39.8445C53.8719 39.8252 53.8833 39.8058 53.8948 39.7865C54.1711 39.0364 54.3049 38.2655 54.3732 37.5045C54.4573 36.7975 54.4567 36.0927 54.41 35.4054C54.2951 33.6641 53.9378 31.9699 53.4309 30.3475C53.0739 29.2983 52.7015 28.2548 52.2256 27.2657ZM30.1269 72.7794C30.1194 72.8122 30.0926 72.8374 30.0851 72.8703C30.108 72.8316 30.1155 72.7987 30.1269 72.7794ZM11.189 46.859C11.1968 46.886 11.2201 46.9072 11.228 46.9342C11.2555 47.0287 11.1968 46.886 11.189 46.859ZM11.9932 50.4384C11.6312 50.426 11.2652 50.4001 10.9182 50.3221C10.7098 50.2513 10.5015 50.1805 10.3006 50.0769C10.1112 49.9539 9.93708 49.8251 9.7898 49.6711C9.561 49.4131 9.37042 49.1105 9.21057 48.7963C8.93303 48.1368 8.74768 47.4423 8.64309 46.732C8.59435 46.3305 8.59171 45.9115 8.63909 45.4885C8.66907 45.3571 8.70298 45.2392 8.75225 45.1154C8.89689 44.8504 9.06083 44.5931 9.24407 44.3434C9.39303 44.1518 9.56128 43.9678 9.72954 43.7838C10.1276 44.6225 10.5217 45.4477 10.9197 46.2864C10.9783 46.4291 11.0524 46.566 11.1071 46.6952C11.1382 46.7433 11.1539 46.7973 11.1811 46.832C11.1968 46.886 11.228 46.9342 11.2437 46.9882C11.3803 47.2813 11.5016 47.5802 11.6342 47.8598C11.8882 48.4382 12.1381 49.0032 12.3921 49.5817C12.5015 49.8401 12.6109 50.0985 12.7358 50.351C12.4974 50.4116 12.2473 50.4318 11.9932 50.4384Z" fill="#518FFF"/>
<path d="M53.8161 8.10959C54.0933 7.74034 54.3704 7.37109 54.6476 7.00184C54.8873 6.67616 55.1498 6.37119 55.3555 6.04373C55.4452 5.89232 55.5349 5.74091 55.6284 5.60271C55.7406 5.41345 55.8148 5.2092 55.8929 5.01816C55.9227 4.94817 55.9637 4.85925 55.9896 4.77605C56.1949 4.39003 55.9991 3.89196 55.6281 3.76848C55.3859 3.68425 55.1404 3.70393 54.9182 3.80287L54.9333 3.79716C54.7335 3.85825 54.6059 3.99467 54.4443 4.1293C54.3655 4.20323 54.2677 4.26966 54.1888 4.34358C53.9859 4.50858 53.8471 4.66392 53.6859 4.85712C53.101 5.54849 52.6034 6.30947 52.0831 7.04975C51.0234 8.5228 50.0395 10.0258 49.0215 11.5271C48.7857 11.866 48.565 12.1992 48.333 12.5513C48.0747 12.928 48.2288 13.3979 48.5511 13.5839C48.8733 13.7698 49.4585 13.7094 49.7395 13.3534C50.4477 12.4538 51.1447 11.5732 51.853 10.6736C52.516 9.7912 53.1944 8.96164 53.8161 8.10959Z" fill="#518FFF"/>
<path d="M65.0827 17.625C64.9054 17.4158 64.655 17.2333 64.3398 17.2115C64.3068 17.2098 64.2592 17.2135 64.2263 17.2119C64.2263 17.2119 64.2262 17.2119 64.2116 17.2172C64.1457 17.2139 64.0835 17.223 64.0175 17.2197C63.9077 17.2324 63.787 17.2628 63.6847 17.3002C63.2349 17.4234 62.7859 17.656 62.4208 17.8441C61.7492 18.1991 61.0775 18.5541 60.4059 18.9091C58.9093 19.7025 57.5052 20.6402 56.1121 21.5602C55.8823 21.7126 55.6525 21.865 55.4007 21.9982C55.3021 22.0479 55.2181 22.0922 55.1196 22.142C54.78 22.3071 54.6698 22.7994 54.8546 23.0333C55.0873 23.3181 55.4572 23.3062 55.826 23.1304C55.8954 23.0913 55.9793 23.047 56.0524 23.0202C56.0963 23.0042 56.1218 22.9812 56.1656 22.9652C56.1656 22.9652 56.1802 22.9599 56.1949 22.9545C56.1401 22.9882 56.2826 22.9225 56.3264 22.9064C56.3849 22.8851 56.458 22.8584 56.5164 22.837C57.2181 22.5806 57.9013 22.3173 58.603 22.0609C60.1925 21.4664 61.7225 20.7294 63.2378 19.9976C63.6066 19.8218 63.9938 19.6529 64.3293 19.4207C64.4387 19.3534 64.5444 19.2736 64.6392 19.2116L64.6246 19.2169C64.8911 19.0785 65.1415 18.7267 65.2131 18.4814C65.2843 18.1814 65.2453 17.8395 65.0827 17.625Z" fill="#518FFF"/>
<path d="M67.005 31.0479C67.0198 31.0423 67.0236 31.0552 67.0384 31.0496C66.5505 30.8477 65.9344 30.9359 65.3776 31.0019C64.7429 31.0829 64.0934 31.1694 63.4588 31.2503C63.0802 31.3066 62.7165 31.3573 62.3342 31.4008C61.9557 31.457 61.5657 31.4748 61.1838 31.5751C60.8277 31.6515 60.4715 31.7279 60.1154 31.8042C59.8186 31.8584 59.4997 31.9493 59.2101 31.9723C58.8871 31.9935 58.5641 32.0147 58.2448 32.0488C57.7287 32.0854 57.2232 32.6023 57.2299 33.0699C57.2519 33.5888 57.6474 33.8681 58.2008 33.8461C58.4607 33.8342 58.7207 33.8223 58.9806 33.8105C58.9993 33.8177 59.0289 33.8066 59.0475 33.8139C59.081 33.8156 59.0996 33.8229 59.1292 33.8118C59.2668 33.8315 59.4154 33.8329 59.553 33.8526C59.8912 33.8826 60.2256 33.8999 60.549 33.9355C61.2627 34.0101 62.0278 33.9801 62.7597 34.0052C63.4062 34.0195 64.0526 34.0339 64.7101 34.0299C65.0221 34.027 65.3341 34.0241 65.6461 34.0213C65.8578 34.0132 66.2105 33.9809 66.4701 33.9122C66.4849 33.9066 66.4997 33.9011 66.5146 33.8955C66.8296 33.7918 67.1626 33.5816 67.3618 33.3646C67.6385 33.0758 67.8658 32.6202 67.8598 32.2663C67.8424 31.874 67.7099 31.482 67.3815 31.263C67.2656 31.1497 67.1463 31.0804 67.005 31.0479Z" fill="#518FFF"/>
</svg>
