<svg width="89" height="77" viewBox="0 0 89 77" fill="none" xmlns="http://www.w3.org/2000/svg">
<path d="M32.6729 59.2221L3.90578 50.5317L4.92442 54.9326C12.3821 46.2102 19.8397 37.4877 27.2973 28.7653C28.3525 27.5446 29.3961 26.3023 30.4512 25.0816L26.1643 23.7866C27.3105 30.0371 28.4402 36.2826 29.5865 42.5331C30.1807 45.8277 35.2297 44.6001 34.6304 41.322C33.4842 35.0715 32.3545 28.8261 31.2083 22.5756C30.88 20.7921 28.1826 19.7961 26.9213 21.2805C19.4637 30.0029 12.0061 38.7254 4.54842 47.4478C3.49329 48.6685 2.4497 49.9107 1.39456 51.1314C0.159897 52.5877 0.36077 54.9123 2.4132 55.5323L31.1803 64.2226C34.3748 65.1877 35.8789 60.2087 32.6844 59.2437L32.6729 59.2221Z" fill="white"/>
<path d="M19.2912 59.2728C30.9495 46.9294 42.6127 34.5694 54.271 22.2259C55.9189 20.478 57.5884 18.7184 59.2363 16.9705L54.9494 15.6754C58.7109 32.6409 62.4509 49.6179 66.2124 66.5833C66.7559 69.0295 67.2943 71.4923 67.8378 73.9384L71.1226 70.8376L18.2891 54.877C15.0946 53.912 13.5905 58.8909 16.785 59.8559L69.6185 75.8166C71.522 76.3916 73.3174 74.6339 72.9034 72.7158C69.1418 55.7504 65.4018 38.7734 61.6403 21.8079C61.0968 19.3618 60.5584 16.899 60.0149 14.4528C59.609 12.6277 57.0785 11.7365 55.728 13.1578C44.0697 25.5012 32.4065 37.8612 20.7482 50.2047C19.1003 51.9526 17.4308 53.7122 15.7829 55.4601C13.4971 57.8847 17.0054 61.6974 19.3128 59.2612L19.2912 59.2728Z" fill="white"/>
<path d="M39.6186 33.7196C41.5453 36.1308 43.4936 38.5305 45.4203 40.9418C46.1913 41.9173 47.525 41.8674 48.5481 41.4701C51.1566 40.4289 53.76 39.4043 56.3685 38.363L53.2407 37.8347C56.1606 40.546 59.0854 43.2407 62.0218 45.957C63.0546 46.9029 64.603 47.099 65.6857 46.0858C66.6621 45.1855 66.8525 43.3594 65.8197 42.4135C62.8999 39.7022 59.975 37.0076 57.0386 34.2913C56.0901 33.4252 55.0584 33.3127 53.9109 33.763C51.3024 34.8042 48.6989 35.8288 46.0905 36.87L49.2182 37.3983C47.2915 34.9871 45.3432 32.5874 43.4164 30.1761C42.5381 29.0776 40.734 29.1303 39.7526 30.0473C38.6698 31.0604 38.7402 32.6211 39.6186 33.7196Z" fill="white"/>
</svg>
