<svg width="87" height="56" viewBox="0 0 87 56" fill="none" xmlns="http://www.w3.org/2000/svg">
<path d="M86.3157 53.7056C85.2592 53.148 84.1694 52.6342 83.0907 52.1094C82.5346 51.836 82.0008 51.5299 81.4448 51.2675C80.8887 50.9942 80.3327 50.699 79.81 50.371C79.5987 50.2398 79.3874 50.1086 79.1872 49.9773C80.3549 49.1901 81.4781 48.3264 82.4901 47.3643C83.5355 46.3693 84.4919 45.2541 85.2148 44.0077C85.9154 42.805 86.4047 41.4712 86.5938 40.0936C86.705 39.3282 86.7383 38.5629 86.6938 37.7866C86.6382 36.9557 86.5048 36.1247 86.2935 35.3157C85.8931 33.7631 85.237 32.2762 84.3696 30.9314C83.58 29.7178 82.6125 28.5916 81.5115 27.6404C80.4105 26.6783 79.1872 25.8692 77.8749 25.2241C76.5404 24.5572 75.117 24.0433 73.6712 23.6497C72.9484 23.4639 72.2255 23.2999 71.4915 23.1687C70.7464 23.0375 70.0013 22.8844 69.2451 22.786C68.4221 22.6767 67.5992 22.6001 66.7763 22.5564C66.387 22.5345 65.9978 22.5673 65.6086 22.5892C65.1748 22.622 64.7411 22.6439 64.3074 22.7204C64.1295 22.7532 63.9627 22.786 63.7847 22.8188C63.7847 22.7204 63.7958 22.6111 63.7958 22.5127C63.8737 20.0089 63.4733 17.4833 62.4947 15.1654C61.5605 12.9569 60.1704 10.967 58.4356 9.28326C56.6896 7.58859 54.6433 6.20005 52.4859 5.07391C50.1949 3.8931 47.7595 2.9747 45.2795 2.27496C42.7439 1.56429 40.1416 1.08322 37.5282 0.777084C35.0705 0.481882 32.6016 0.361615 30.1328 0.427215C27.575 0.492816 25.0283 0.777084 22.5038 1.23629C19.4456 1.80482 16.454 2.65763 13.596 3.87123C10.8046 5.07391 8.14672 6.67018 5.95589 8.76939C3.70946 10.9451 2.00796 13.6238 1.08493 16.5868C0.595604 18.1721 0.295339 19.8449 0.128525 21.4959C-0.0160467 22.9391 -0.0494095 24.4041 0.0840416 25.8583C0.328702 28.4932 1.0738 31.0844 2.46392 33.3586C3.80955 35.5671 5.67787 37.393 7.82421 38.8472C10.193 40.4544 12.9065 41.5149 15.6422 42.3568C17.1213 42.816 18.6338 43.1768 20.1573 43.472C20.4798 43.5376 20.8135 43.3845 20.9135 43.0565C20.9914 42.7613 20.8135 42.3786 20.4909 42.313C17.5439 41.7336 14.6413 40.9136 11.9834 39.6234C10.7824 39.044 9.6258 38.3661 8.53595 37.6007C8.41362 37.5133 8.30241 37.4367 8.18008 37.3493C8.15784 37.3383 8.05775 37.2618 8.03551 37.2399C8.01326 37.2181 7.91318 37.1415 7.86869 37.1197C7.61291 36.9229 7.36825 36.7261 7.13471 36.5183C6.67875 36.1247 6.24504 35.7093 5.83356 35.261C5.62226 35.0314 5.42209 34.8018 5.22191 34.5722C5.14406 34.4738 5.06622 34.3863 4.98837 34.2879C4.96613 34.2661 4.92165 34.2005 4.8994 34.1786C4.8438 34.113 4.79931 34.0474 4.74371 33.9818C4.38784 33.5007 4.05421 32.9978 3.76507 32.4839C3.6205 32.2325 3.47592 31.9701 3.34247 31.7077C3.27575 31.5765 3.20902 31.4453 3.15342 31.3031C3.12006 31.2375 3.08669 31.1719 3.06445 31.0954C3.05333 31.0626 3.04221 31.0407 3.03109 31.0079V30.997C2.79755 30.4284 2.58625 29.849 2.41944 29.2586C2.2415 28.6572 2.10805 28.0559 1.99684 27.4436C1.9746 27.2906 1.94124 27.1266 1.919 26.9735C1.919 26.9626 1.919 26.9407 1.90787 26.9298C1.90787 26.9188 1.90787 26.897 1.89675 26.886C1.88563 26.7986 1.87451 26.7002 1.86339 26.6127C1.83003 26.2847 1.79666 25.9567 1.77442 25.6287C1.68546 24.1855 1.7633 22.7532 1.93012 21.31C1.94124 21.2116 1.95236 21.1241 1.96348 21.0257C1.96348 20.9929 1.9746 20.9273 1.98572 20.8945C2.00796 20.6977 2.04133 20.5119 2.07469 20.3151C2.14141 19.9105 2.21926 19.506 2.29711 19.1014C2.4528 18.3252 2.64186 17.5708 2.88652 16.8164C3.00885 16.4446 3.1423 16.0729 3.28687 15.7121C3.32023 15.6356 3.34247 15.57 3.37584 15.4934C3.38696 15.4716 3.42032 15.395 3.43144 15.3622C3.50929 15.1873 3.59826 15.0014 3.6761 14.8265C3.99861 14.1596 4.3656 13.5254 4.77707 12.9131C4.97725 12.6179 5.17743 12.3227 5.39985 12.0385C5.41097 12.0166 5.48881 11.9291 5.51105 11.8854C5.5333 11.8526 5.61114 11.7542 5.63338 11.7323C5.75571 11.5793 5.87805 11.4371 6.00038 11.295C6.46745 10.7483 6.97902 10.2345 7.51282 9.74247C7.77972 9.50193 8.04663 9.27233 8.31353 9.04273C8.44698 8.9334 8.59155 8.81313 8.725 8.70379C8.78061 8.66006 8.84733 8.60539 8.90294 8.56166L8.91406 8.55073C8.94742 8.51793 8.99191 8.49606 9.02527 8.46326C9.61468 8.02592 10.2263 7.62139 10.8491 7.23872C11.483 6.85605 12.128 6.49525 12.7953 6.16725C13.1178 6.00325 13.4514 5.83924 13.785 5.69711C13.9518 5.62058 14.1187 5.54404 14.2855 5.46751C14.3744 5.43471 14.4523 5.39098 14.5412 5.35818C14.5746 5.34724 14.6191 5.32538 14.6525 5.31444C14.6525 5.31444 14.7303 5.28164 14.7748 5.25977C14.8193 5.23791 14.9305 5.19417 14.9527 5.18324C15.0306 5.15044 15.0973 5.12857 15.1751 5.09577C15.3642 5.01924 15.5421 4.95364 15.7312 4.87711C16.0871 4.74591 16.4541 4.6147 16.8099 4.49444C17.5105 4.2539 18.2223 4.03523 18.934 3.83843C20.3686 3.4339 21.8255 3.1059 23.2934 2.8435C24.0163 2.71229 24.728 2.61389 25.4509 2.50456C25.4842 2.50456 25.5176 2.49363 25.551 2.49363C25.6288 2.48269 25.6955 2.47176 25.7734 2.46083C25.9291 2.43896 26.0737 2.42803 26.2293 2.40616C26.4962 2.37336 26.7743 2.35149 27.0412 2.31869C29.3432 2.10002 31.6564 2.07816 33.9584 2.19842C35.1817 2.26403 36.4161 2.36243 37.6283 2.51549C37.784 2.53736 37.9397 2.54829 38.0843 2.57016C38.0954 2.57016 38.1065 2.57016 38.1176 2.57016C38.1287 2.57016 38.1399 2.57016 38.151 2.57016C38.2399 2.58109 38.3289 2.59203 38.4179 2.60296C38.7293 2.64669 39.0295 2.69043 39.3409 2.74509C39.9637 2.8435 40.5865 2.95283 41.2092 3.0731C43.6781 3.55417 46.1024 4.23204 48.449 5.12857C48.5935 5.18324 48.7381 5.23791 48.8716 5.29257C48.9383 5.32538 49.0161 5.34724 49.0829 5.38004C49.1273 5.40191 49.2941 5.46751 49.2497 5.44564C49.5054 5.55498 49.7501 5.66431 50.0059 5.77364C50.5619 6.02511 51.1069 6.28751 51.6518 6.57178C52.6972 7.11845 53.7092 7.71979 54.6767 8.39766C54.799 8.48513 54.9102 8.56166 55.0325 8.64913C55.0882 8.69286 55.1438 8.73659 55.2105 8.78033C55.2327 8.79126 55.2995 8.84593 55.3439 8.87873C55.3773 8.91153 55.4329 8.94433 55.444 8.95526C55.4885 8.98806 55.5441 9.0318 55.5886 9.0646C55.7109 9.163 55.8221 9.25046 55.9445 9.34886C56.3893 9.70967 56.8119 10.0923 57.2234 10.4969C57.6237 10.8905 58.013 11.3059 58.38 11.7323C58.4578 11.8307 58.5468 11.9291 58.6246 12.0275C58.6691 12.0822 58.7136 12.1369 58.7581 12.1915C58.7692 12.2025 58.7803 12.2134 58.7803 12.2243C58.7803 12.2353 58.7914 12.2353 58.8025 12.2462C58.9805 12.4758 59.1473 12.7054 59.303 12.935C59.6144 13.3833 59.9035 13.8534 60.1704 14.3345C60.3039 14.586 60.4373 14.8374 60.5708 15.0998C60.6264 15.2201 60.682 15.3294 60.7376 15.4497C60.771 15.5153 60.7932 15.5809 60.8266 15.6356C60.8266 15.6465 60.8377 15.6574 60.8377 15.6574C60.8377 15.6684 60.8488 15.6793 60.8488 15.7012C61.2936 16.7836 61.6161 17.8988 61.8274 19.0468C61.8497 19.178 61.8719 19.3201 61.8942 19.4513C61.8942 19.4841 61.9053 19.506 61.9053 19.5388C61.9164 19.6153 61.9275 19.6809 61.9275 19.7575C61.9609 20.0745 61.9943 20.3916 62.0165 20.6977C62.061 21.3319 62.061 21.966 62.0387 22.6001C62.0276 22.9391 62.0054 23.2889 61.972 23.6279C61.9609 23.7809 61.9386 23.9449 61.9275 24.098C61.9164 24.1855 61.9053 24.2729 61.8942 24.3495C61.883 24.3932 61.883 24.4479 61.8719 24.4916C61.7496 25.2788 61.605 26.0551 61.3826 26.8204C61.2603 27.214 61.1268 27.5967 60.9711 27.9684C60.9489 28.0122 60.9378 28.0668 60.9155 28.1106C60.9155 28.1106 60.9155 28.1106 60.9155 28.1215C60.871 28.209 60.8377 28.3074 60.7932 28.3948C60.7042 28.5916 60.6041 28.7775 60.5041 28.9743C60.1259 29.685 59.6922 30.3738 59.2029 31.0188C59.1918 31.0407 59.1251 31.1282 59.1028 31.1391C59.0472 31.2047 58.9916 31.2703 58.936 31.3359C58.8026 31.4999 58.658 31.6639 58.5134 31.817C58.2465 32.1122 57.9685 32.4074 57.6793 32.6807C57.0899 33.2602 56.4671 33.7959 55.811 34.2989C55.7999 34.3098 55.7888 34.3098 55.7888 34.3207C55.7554 34.3426 55.722 34.3754 55.6887 34.3973C55.6108 34.4629 55.5219 34.5175 55.444 34.5831C55.2661 34.7143 55.0882 34.8346 54.9102 34.9658C54.5655 35.1954 54.2207 35.425 53.876 35.6437C53.1642 36.0919 52.4191 36.5074 51.674 36.8901C49.9837 37.7648 48.2488 38.5082 46.4472 39.1205C43.3445 40.1701 40.1194 40.6621 36.9166 41.34C35.4931 41.6461 34.1141 41.996 32.8241 42.6848C31.5118 43.3845 30.2774 44.2155 29.0652 45.0683C27.7863 45.9648 26.5296 46.8941 25.2173 47.736C24.5834 48.1405 23.9384 48.5232 23.2712 48.8731C22.9487 49.0371 22.615 49.1901 22.2925 49.3432C22.2814 49.3541 22.2703 49.3541 22.2592 49.3541C22.2481 49.3541 22.2369 49.3651 22.2258 49.3651C22.148 49.3979 22.0701 49.4307 21.9923 49.4525C21.8255 49.5182 21.6586 49.5728 21.4918 49.6275C21.2027 49.7259 20.9024 49.8024 20.591 49.8571C20.5132 49.868 20.4353 49.8899 20.3575 49.9008C20.3353 49.9008 20.2463 49.9118 20.2018 49.9227C20.1573 49.9227 20.0795 49.9336 20.0572 49.9336C19.9905 49.9445 19.9238 49.9445 19.8571 49.9445C19.7014 49.9555 19.5457 49.9555 19.39 49.9445C19.4678 49.8243 19.5568 49.704 19.6458 49.5838C19.7792 49.4088 19.757 49.4307 19.8793 49.2885C20.3575 48.6872 20.8579 48.0968 21.325 47.4845C22.2814 46.2272 22.9598 44.8387 23.1044 43.2533C23.1377 42.8269 22.704 42.4552 22.2925 42.4552C21.8255 42.4552 21.5141 42.8269 21.4807 43.2533C21.4362 43.8 21.1916 44.5763 20.9469 45.0683C20.6355 45.6805 20.2463 46.2381 19.8237 46.7739C19.8126 46.7848 19.7236 46.9051 19.7236 46.8941C19.668 46.9597 19.6235 47.0253 19.5679 47.0909C19.4567 47.2221 19.3566 47.3533 19.2454 47.4845C19.0119 47.7688 18.7783 48.0421 18.5559 48.3373C18.0666 48.9605 17.6885 49.4307 17.2659 50.1523C16.9767 50.6443 17.2548 51.2238 17.7774 51.3987C20.6022 52.3171 23.6159 50.7099 25.9068 49.2339C27.2525 48.3701 28.5536 47.4189 29.8659 46.5005C31.1003 45.6368 32.3459 44.7621 33.7137 44.128C33.8472 44.0624 33.9806 44.0077 34.1252 43.9421C34.1586 43.9312 34.2142 43.9093 34.2475 43.8875C34.3365 43.8547 34.4143 43.8219 34.5033 43.7891C34.8036 43.6797 35.1038 43.5704 35.4041 43.4939C36.1603 43.2861 36.9277 43.1112 37.695 42.9581C38.6625 42.7613 39.6412 42.5754 40.6198 42.3896C40.3418 42.6738 40.3084 43.0674 40.4864 43.4392C41.2871 45.1339 42.4437 46.6536 43.767 47.9875C44.8791 49.1245 46.1469 50.1086 47.5148 50.9395C50.2061 52.5686 53.2532 53.6182 56.3448 54.2086C59.4698 54.8099 62.6726 55.0067 65.8532 54.7443C67.4769 54.6131 69.056 54.3179 70.6686 54.0883C70.7353 54.0774 70.802 54.0664 70.8688 54.0664C70.8799 54.0664 71.0356 54.0446 71.0689 54.0446C71.2469 54.0227 71.4359 54.0008 71.6139 53.9899C71.9141 53.968 72.2144 53.9571 72.5147 53.9571C72.6481 53.9571 72.7704 53.968 72.9039 53.968C73.0262 53.979 73.1819 54.0227 73.3154 54.0118C73.3265 54.0118 73.3265 54.0118 73.3376 54.0118C73.3932 54.0227 73.4599 54.0336 73.5155 54.0446C73.6712 54.0664 73.8269 54.0992 73.9715 54.132C75.6063 54.4928 77.1743 55.0942 78.8313 55.3238C80.7997 55.5971 82.7348 55.444 84.681 55.127C85.1814 55.0395 85.6818 54.952 86.1823 54.8646C86.4381 54.8208 86.6382 54.5475 86.6716 54.307C86.6827 54.1102 86.5604 53.8259 86.3157 53.7056ZM8.92518 8.56166C8.95854 8.53979 8.99191 8.50699 8.92518 8.56166V8.56166ZM80.2215 54.1102C79.3095 54.0446 78.4199 53.8806 77.4746 53.6182C76.685 53.3886 75.8954 53.1371 75.1058 52.9184C73.9492 52.5904 72.7927 52.4046 71.5805 52.4811C70.7464 52.5358 69.9012 52.667 69.0783 52.7982C68.8892 52.831 68.7113 52.8528 68.5222 52.8856C68.4333 52.8966 68.3443 52.9075 68.2553 52.9294C68.2109 52.9403 68.1775 52.9403 68.133 52.9512C68.1219 52.9512 68.1219 52.9512 68.1108 52.9512C67.7549 52.995 67.399 53.0278 67.0432 53.0606C65.5418 53.1918 64.0294 53.2355 62.5169 53.1808C61.7385 53.148 60.96 53.1262 60.1927 53.0496C59.8034 53.0168 59.4253 52.9731 59.0472 52.9294C58.9471 52.9184 58.847 52.9075 58.7469 52.8966C58.7136 52.8966 58.6802 52.8856 58.6469 52.8856C58.7025 52.8966 58.7914 52.9075 58.658 52.8856H58.6469C58.6357 52.8856 58.6246 52.8856 58.6246 52.8856C58.6246 52.8856 58.6357 52.8856 58.6469 52.8856C58.4578 52.8638 58.2687 52.831 58.0686 52.7982C56.5228 52.5576 54.9992 52.2187 53.509 51.7595C52.775 51.5299 52.0521 51.2675 51.3404 50.9832C51.2959 50.9614 51.2626 50.9504 51.2181 50.9286C51.1402 50.8958 51.0624 50.863 50.9845 50.8302C50.8066 50.7536 50.6287 50.6771 50.4618 50.5896C50.1171 50.4256 49.7724 50.2616 49.4387 50.0758C48.7937 49.7259 48.1598 49.3541 47.5482 48.9387C47.3925 48.8293 47.2368 48.7309 47.0922 48.6216C47.0255 48.5779 46.9588 48.5232 46.892 48.4795C46.8587 48.4576 46.8253 48.4357 46.8031 48.4139C46.7919 48.4029 46.7808 48.4029 46.7808 48.392C46.4917 48.1624 46.2025 47.9219 45.9245 47.6813C45.2573 47.0909 44.6456 46.4568 44.0673 45.7899C44.0006 45.7133 43.9339 45.6259 43.8671 45.5493C43.8227 45.4947 43.7893 45.4509 43.7448 45.3963C43.7337 45.3853 43.7226 45.3635 43.7003 45.3416C43.6781 45.3088 43.6114 45.2323 43.6225 45.2323C43.5891 45.1885 43.5558 45.1557 43.5335 45.112C43.4557 45.0136 43.3778 44.9043 43.3111 44.8059C43.0664 44.456 42.8218 44.0952 42.6105 43.7234C42.3992 43.3736 42.2101 43.0018 42.0322 42.641C41.9543 42.477 41.7986 42.3458 41.6207 42.2802C41.8543 42.2365 42.0878 42.1818 42.3213 42.1381C46.0468 41.34 49.65 40.0498 53.0085 38.2568C56.0668 36.6167 58.9138 34.5066 60.9489 31.7077C61.9498 30.33 62.7171 28.7666 63.1842 27.1266C63.4845 26.066 63.6624 24.9617 63.7514 23.8575C63.8403 23.8684 63.9293 23.8684 64.0071 23.8793C64.1072 23.8903 64.2073 23.9012 64.3074 23.9121C64.363 23.9231 64.4186 23.9231 64.4742 23.934C64.4965 23.934 64.5187 23.934 64.5298 23.9449C64.5854 23.9559 64.5854 23.9559 64.5298 23.9449C64.4297 23.934 64.4742 23.9449 64.6522 23.9668C65.0748 23.9887 65.4973 24.0105 65.9311 24.0433C66.7763 24.1089 67.6326 24.1417 68.4778 24.1855C68.8892 24.2073 69.3118 24.2401 69.7233 24.2839C69.9346 24.3057 70.1459 24.3276 70.3461 24.3495C70.4017 24.3604 70.4462 24.3604 70.5018 24.3713C70.5129 24.3713 70.5351 24.3713 70.5462 24.3823C70.5796 24.3823 70.613 24.3932 70.6463 24.3932C70.6908 24.4041 70.7353 24.4041 70.7798 24.4151C70.7687 24.4151 70.7687 24.4151 70.8243 24.426C71.6361 24.5791 72.4368 24.7649 73.2153 24.9945C73.9826 25.2132 74.7388 25.4756 75.4728 25.7708C75.5062 25.7818 75.5284 25.7927 75.5618 25.8036C75.584 25.8146 75.5952 25.8146 75.6174 25.8255C75.7064 25.8692 75.7953 25.902 75.8954 25.9458C76.0734 26.0223 76.2513 26.1098 76.4403 26.1972C76.7851 26.3612 77.1298 26.5362 77.4746 26.733C78.153 27.1047 78.798 27.5202 79.4207 27.9794C79.4541 28.0012 79.4875 28.0231 79.5097 28.045C79.5876 28.1106 79.6654 28.1652 79.7433 28.2308C79.8989 28.3511 80.0435 28.4714 80.1881 28.6026C80.4772 28.854 80.7553 29.1055 81.0222 29.3788C81.2891 29.6522 81.5449 29.9255 81.7895 30.2207C81.8562 30.2972 81.9118 30.3738 81.9786 30.4394C81.9786 30.4394 81.9786 30.4503 81.9897 30.4503C82.0119 30.4831 82.0453 30.5159 82.0564 30.5378C82.1787 30.6908 82.29 30.8439 82.4012 31.0079C82.846 31.653 83.2464 32.3309 83.58 33.0306C83.6578 33.1946 83.7245 33.3477 83.8024 33.5117C84.3028 34.7034 84.6921 35.9279 84.8811 37.2071C84.9923 38.0709 84.9923 38.9346 84.8922 39.7984C84.7699 40.5965 84.5586 41.3728 84.2472 42.1162C83.8691 42.969 83.3798 43.7672 82.8126 44.5107C81.8673 45.7024 80.733 46.7301 79.5208 47.6595C78.987 48.064 78.4421 48.4467 77.8749 48.8075C77.4857 49.0589 77.2855 49.5947 77.5524 49.9992C77.6414 50.1414 77.7749 50.2507 77.9305 50.3382C78.1863 50.6443 78.4643 50.9504 78.7757 51.2128C79.2762 51.6502 79.8322 52.0328 80.3883 52.3827C81.4225 53.0496 82.5902 53.5416 83.7245 54.0336C82.5569 54.132 81.4003 54.1867 80.2215 54.1102ZM70.8576 24.3823C70.8354 24.3823 70.802 24.3713 70.7798 24.3713C70.802 24.3823 70.8243 24.3823 70.8576 24.3823Z" fill="#518FFF"/>
<path d="M36.038 18.194C36.5273 17.3084 36.9499 16.3462 37.1612 15.3513C37.3725 14.3345 37.3947 13.263 37.0833 12.2571C36.9165 11.7323 36.683 11.2075 36.3827 10.7483C35.9935 10.1579 35.5264 9.66592 34.9703 9.23952C34.0473 8.55071 32.8462 8.23365 31.6897 8.25551C30.4664 8.28831 29.2987 8.66005 28.2311 9.22858C27.1412 9.81899 26.2293 10.6281 25.4731 11.6011C24.8169 12.443 24.3276 13.4598 24.1274 14.5203C24.0718 14.8046 24.0385 15.0998 24.0274 15.395C24.0162 15.7777 24.3721 16.1385 24.7613 16.1166C25.1728 16.0948 25.4953 15.7996 25.4953 15.395C25.4953 15.3185 25.4953 15.242 25.5064 15.1654C25.5064 15.1217 25.5287 14.9905 25.5287 14.9577C25.5509 14.8483 25.562 14.739 25.5954 14.6297C25.6288 14.4766 25.6733 14.3126 25.74 14.1705C25.7511 14.1486 25.7622 14.1267 25.7622 14.1049C25.7956 14.0393 25.8289 13.9627 25.8623 13.8971C26.018 13.6019 26.1848 13.3177 26.385 13.0553C26.4072 13.0225 26.4295 13.0006 26.4517 12.9678C26.4962 12.9131 26.5407 12.8475 26.5963 12.7929C26.7075 12.6617 26.8187 12.5414 26.941 12.4211C27.1968 12.1697 27.4637 11.9291 27.7417 11.7105C28.2978 11.295 28.8983 10.9451 29.5433 10.6609C30.0771 10.4531 30.6221 10.3001 31.1892 10.2126C31.5562 10.1689 31.9232 10.1689 32.2902 10.2017C32.5905 10.2454 32.8907 10.3219 33.1799 10.4313C33.4134 10.5406 33.647 10.6718 33.8583 10.8249C34.0807 11.0107 34.2808 11.2075 34.4699 11.4262C34.6923 11.7214 34.8814 12.0494 35.0371 12.3883C35.1705 12.7163 35.2595 13.0553 35.3151 13.4051C35.3485 13.755 35.3485 14.1158 35.304 14.4766C35.215 15.067 35.0371 15.6356 34.8035 16.1822C34.4143 17.0569 33.9139 17.8878 33.3912 18.686C32.8129 19.5606 32.2012 20.4025 31.5896 21.2444C31.0224 22.0425 30.4553 22.8516 29.9771 23.7044C29.5211 24.5025 29.1096 25.3663 28.9428 26.2737C28.8538 26.722 28.7982 27.1922 28.8427 27.6514C28.8983 28.1652 28.9984 28.7338 29.2653 29.193C29.3098 29.2695 29.3654 29.357 29.421 29.4335C29.421 29.4335 29.421 29.4335 29.421 29.4444C29.6657 29.8818 30.3218 30.0676 30.7555 29.7943C31.167 29.5319 31.3338 29.0618 31.1781 28.6244C31.1447 28.526 31.1114 28.4386 31.078 28.3402C30.9891 28.1215 30.9112 27.881 30.8778 27.6514C30.8556 27.3999 30.8556 27.1375 30.889 26.886C30.9668 26.4596 31.0891 26.0551 31.256 25.6505C31.6229 24.8305 32.1011 24.0652 32.5905 23.3108C33.1688 22.458 33.7804 21.6161 34.3698 20.7742C34.9703 19.9433 35.5486 19.0905 36.038 18.194Z" fill="#518FFF"/>
<path d="M32.6351 33.5116C32.4571 33.4242 32.2681 33.3804 32.0568 33.3804C31.7899 33.3804 31.5341 33.446 31.3006 33.5772C31.3006 33.5772 31.3006 33.5772 31.2894 33.5772C31.2783 33.5882 31.0003 33.7959 30.9892 33.8068C30.9892 33.8068 30.9892 33.8068 30.9781 33.8178C30.9669 33.8287 30.7556 34.102 30.7445 34.113C30.7445 34.1239 30.7334 34.1239 30.7334 34.1348C30.7334 34.1348 30.7334 34.1458 30.7223 34.1458C30.7223 34.1458 30.7223 34.1458 30.7223 34.1567C30.6778 34.2442 30.6111 34.4191 30.5666 34.5066C30.5443 34.5503 30.5443 34.594 30.5332 34.6487C30.4665 34.8455 30.4665 35.0314 30.511 35.2282C30.5221 35.425 30.5777 35.5999 30.6889 35.7639C30.7779 35.9279 30.9113 36.07 31.067 36.1684C31.2116 36.2996 31.3784 36.3871 31.5675 36.4308C31.7009 36.4527 31.8344 36.4636 31.9567 36.4855C32.2236 36.4855 32.4683 36.4199 32.7018 36.2887C32.8019 36.2122 32.902 36.1356 33.0021 36.0591C33.1133 35.9498 33.2022 35.8186 33.269 35.6874C33.2912 35.6546 33.3246 35.6218 33.3468 35.589C33.4803 35.3594 33.547 35.1079 33.547 34.8455C33.5581 34.6378 33.5136 34.4519 33.4135 34.277C33.3579 34.0911 33.2467 33.938 33.1022 33.8068C32.9798 33.6647 32.8241 33.5663 32.6351 33.5116Z" fill="#518FFF"/>
</svg>
