<svg width="61" height="45" viewBox="0 0 61 45" fill="none" xmlns="http://www.w3.org/2000/svg">
<path d="M54.6482 26.7431C54.7207 26.3391 54.7932 25.9352 54.8415 25.5312C54.8536 25.4389 54.8657 25.335 54.8778 25.2427C54.8778 25.2196 54.902 25.0811 54.8899 25.185C54.8657 25.3235 54.9503 25.0465 54.914 24.9888C54.8778 24.9195 54.8899 25.0811 54.914 25.0003C54.9261 24.9542 54.9261 24.9195 54.9382 24.8734C54.9503 24.7695 54.9745 24.6656 54.9865 24.5617C55.0228 24.3425 55.047 24.1232 55.0832 23.8923C55.0953 23.8 55.1074 23.6961 55.1195 23.6038C55.1195 23.5692 55.1195 23.5115 55.1315 23.4768C55.1315 23.523 55.1315 23.5692 55.1315 23.6153C55.1678 23.523 55.1799 23.4191 55.1678 23.3153C55.1557 22.9575 55.1436 22.5997 55.1074 22.2419C55.0711 21.8033 55.0107 21.3647 54.9503 20.9377C54.9261 20.7761 54.902 20.603 54.8778 20.4414C54.8657 20.3606 54.8536 20.2798 54.8295 20.1875C54.8174 20.1298 54.7449 19.922 54.769 19.8759C54.769 19.899 54.7811 19.9336 54.7811 19.9567C54.8053 20.1413 54.7932 20.0721 54.7449 19.7489C54.7328 19.7028 54.7207 19.6681 54.7086 19.622C54.6845 19.5412 54.6724 19.4604 54.6603 19.3796C54.624 19.1949 54.5878 19.0103 54.5395 18.8256C54.4549 18.4793 54.3824 18.1331 54.2615 17.7984C53.2466 14.8553 51.6153 12.1892 49.5974 9.78857C48.6307 8.63441 47.5553 7.54951 46.4195 6.53385C45.3078 5.55282 44.1358 4.61796 42.8549 3.83313C40.5229 2.42506 37.8645 1.4902 35.1821 0.890038C32.2579 0.23217 29.225 -0.06791 26.2284 0.0128808C23.3284 0.0936716 20.3801 0.509167 17.6372 1.42095C15.3413 2.18269 13.1664 3.30222 11.1605 4.60641C9.42054 5.73749 7.77722 7.04168 6.33931 8.519C5.01015 9.8809 3.83807 11.3928 2.88349 13.0087C1.98933 14.5321 1.26433 16.171 0.781003 17.8676C0.309756 19.495 0.0439242 21.2032 0.00767435 22.8882C-0.0406587 24.5502 0.14059 26.2237 0.515172 27.8395C0.889753 29.4669 1.49392 31.0365 2.26725 32.5369C3.05266 34.0604 4.05557 35.457 5.20348 36.7496C6.38764 38.0884 7.77722 39.2657 9.26346 40.2929C10.8464 41.3893 12.5864 42.2549 14.3868 42.9705C16.2476 43.6976 18.193 44.217 20.1867 44.5401C22.5309 44.9095 24.8992 45.0595 27.2675 44.9787C29.95 44.8864 32.6204 44.5171 35.2304 43.9631C36.5837 43.6745 37.925 43.3629 39.2179 42.8782C40.7766 42.3011 42.287 41.5971 43.737 40.8007C44.3049 40.4891 44.8728 40.1544 45.4045 39.785C45.7549 39.5427 46.1053 39.3003 46.4195 39.0118C46.6128 38.8386 46.782 38.6655 46.9874 38.5039C46.8908 38.5732 46.7941 38.6424 46.6974 38.7117C46.8062 38.6309 46.927 38.5616 47.0599 38.5039C46.9512 38.5501 46.8303 38.5963 46.7216 38.6424C46.9028 38.5732 47.0841 38.527 47.2774 38.5039C47.1566 38.5155 47.0237 38.5385 46.9028 38.5501C47.2895 38.5039 47.6641 38.5155 48.0387 38.5616C47.9178 38.5501 47.7849 38.527 47.6641 38.5155C48.4857 38.6193 49.2953 38.8502 50.0928 39.081C51.0595 39.3465 52.0261 39.6581 52.9686 40.0043C53.899 40.3506 54.8174 40.6968 55.7478 41.0315C56.4969 41.297 57.2461 41.574 58.0194 41.7586C58.7082 41.9202 59.5782 42.0818 60.2186 41.7125C61.0282 41.2393 61.1611 40.3275 60.8348 39.5311C60.5328 38.804 60.0978 38.1461 59.6386 37.4883C59.0949 36.7265 58.5269 35.9763 57.959 35.2146C57.379 34.4413 56.8111 33.668 56.2794 32.8601C56.0499 32.5023 55.8324 32.1445 55.627 31.7752C55.5786 31.6944 55.5424 31.6136 55.494 31.5213C55.4699 31.4867 55.4578 31.4405 55.4336 31.4059C55.4095 31.3482 55.3128 31.152 55.4215 31.3943C55.5303 31.6367 55.4095 31.3597 55.3853 31.2905C55.3611 31.2097 55.3249 31.1404 55.3007 31.0596C55.2645 30.9327 55.2282 30.7942 55.204 30.6557C55.2161 30.7596 55.2282 30.8634 55.2524 30.9673C55.1799 30.4364 55.2161 29.8709 55.2282 29.3284C55.2524 28.6244 55.2886 27.9319 55.3128 27.2278C55.349 26.443 55.3853 25.6582 55.3611 24.8734C55.349 24.6887 55.349 24.504 55.337 24.3194C55.337 24.227 55.3249 24.1347 55.3249 24.0424C55.3128 23.9154 55.3007 23.7885 55.2765 23.6615C55.2886 23.7192 55.3007 23.7769 55.3007 23.8346C55.3007 23.7885 55.3007 23.7538 55.3007 23.7077C55.2765 23.3383 55.2524 22.969 55.204 22.6112C55.192 22.5073 55.1799 22.4035 55.1678 22.2996C55.1557 22.2419 55.0953 21.7687 55.1436 22.1842C55.1315 22.0572 55.1195 21.9303 55.0953 21.8033C55.059 21.6186 55.0228 21.434 54.9745 21.2493C54.9261 21.0762 54.8778 20.8915 54.8295 20.7184C54.8053 20.6376 54.7811 20.5568 54.7449 20.476C54.7207 20.4068 54.6965 20.3375 54.6603 20.2683C54.5153 19.9451 54.7207 20.4645 54.6361 20.199C54.4911 19.7489 53.9595 19.4142 53.4641 19.5643C52.9807 19.7143 52.6424 20.199 52.7995 20.6838C52.8236 20.753 52.8478 20.9146 52.8116 20.6261C52.8236 20.7415 52.8478 20.8569 52.8599 20.9723C52.872 21.0647 52.8841 21.157 52.9082 21.2493C52.9324 21.3763 52.872 20.9839 52.8961 21.1685C52.8961 21.2147 52.9082 21.2724 52.9082 21.3186C52.9203 21.4224 52.9324 21.5263 52.9324 21.6302C52.9686 22.0572 52.9928 22.4958 53.0049 22.9228C53.0049 23.1537 53.017 23.3845 53.0049 23.6153C53.0049 23.6615 53.0049 23.7192 53.0049 23.7654C53.0049 23.7885 53.0049 23.8115 53.0049 23.8231C53.0532 23.5576 53.0532 23.5923 52.9928 23.95C52.9807 24.077 52.9807 24.1924 52.9807 24.3194C52.9566 24.7926 52.9203 25.2773 52.9082 25.7505C52.8599 27.424 52.6666 29.1091 52.7511 30.7826C52.8116 32.0407 53.5486 33.2179 54.2374 34.2566C55.047 35.48 55.9411 36.6342 56.8111 37.8114C57.234 38.3885 57.6569 38.9656 58.0315 39.5773C58.1765 39.8081 58.3094 40.0389 58.4303 40.2813C58.539 40.5122 58.2974 39.9697 58.3819 40.1659C58.4061 40.2121 58.4182 40.2698 58.4424 40.3159C58.4665 40.3967 58.4907 40.4775 58.5028 40.5699C58.4907 40.466 58.4786 40.3621 58.4544 40.2467C58.4665 40.3044 58.4665 40.3621 58.4544 40.4198C58.4665 40.3159 58.4786 40.2121 58.5028 40.0967C58.5028 40.1197 58.5028 40.1428 58.4907 40.1544C58.4424 40.3044 58.6236 39.8774 58.5874 39.9235C58.5028 40.062 58.7565 39.7158 58.7444 39.7273C58.6961 39.7735 58.6236 39.8312 58.829 39.6696C59.0344 39.5196 58.9619 39.5773 58.9136 39.6004C58.7928 39.6696 59.2278 39.4965 59.1432 39.508C59.0949 39.508 59.0586 39.5311 59.0103 39.5311C59.119 39.5196 59.2278 39.508 59.3486 39.485C59.2036 39.4965 59.0465 39.485 58.9015 39.4734C59.0103 39.485 59.119 39.4965 59.2398 39.5196C58.4061 39.4042 57.5844 39.0925 56.799 38.8155C55.6995 38.4231 54.612 37.9846 53.5245 37.5691C53.4399 37.5344 53.3553 37.4883 53.2707 37.4767C53.2586 37.4767 53.609 37.6152 53.4399 37.546C53.307 37.4883 53.174 37.4421 53.0411 37.3844C52.8841 37.3267 52.727 37.2574 52.5699 37.1997C52.2436 37.0728 51.9295 36.9458 51.6032 36.8304C51.712 36.8766 51.8207 36.9112 51.9295 36.9574C51.4099 36.7034 50.8178 36.5303 50.262 36.3457C49.8512 36.2072 49.4282 36.1033 48.9932 36.011C47.8574 35.7686 46.6491 35.6762 45.5616 36.1841C44.9453 36.4726 44.5103 37.0151 43.9787 37.419C44.0754 37.3498 44.172 37.2805 44.2687 37.2113C43.4954 37.7768 42.6254 38.2616 41.7795 38.7117C40.825 39.2195 39.8341 39.6696 38.8312 40.0851C38.94 40.0389 39.0608 39.9928 39.1695 39.9466C37.0791 40.7892 34.8437 41.2624 32.6083 41.6317C32.0163 41.7356 31.4242 41.8163 30.82 41.8971C30.9529 41.8856 31.0738 41.8625 31.2067 41.851C28.6692 42.1741 26.1075 42.3011 23.5459 42.128C22.8934 42.0818 22.2288 42.0241 21.5763 41.9318C21.7092 41.9433 21.8421 41.9664 21.963 41.9779C20.078 41.7356 18.2172 41.3316 16.4167 40.7199C15.9334 40.5583 15.4622 40.3852 14.9909 40.2005C15.1118 40.2467 15.2205 40.2929 15.3413 40.339C13.9034 39.762 12.5259 39.0464 11.233 38.2038C10.8826 37.973 10.5322 37.7306 10.1939 37.4883C10.2905 37.5575 10.3872 37.6383 10.4959 37.7076C9.38429 36.8881 8.3693 35.9648 7.45097 34.9607C7.19722 34.6837 6.95555 34.3951 6.71389 34.1066C6.78639 34.1989 6.87097 34.3028 6.94347 34.3951C6.10972 33.3679 5.38473 32.2599 4.78056 31.0827C4.6114 30.7595 4.45432 30.4248 4.30932 30.0901C4.35765 30.2056 4.40598 30.321 4.45432 30.4248C3.92265 29.213 3.52391 27.955 3.25807 26.6623C3.18557 26.293 3.12516 25.9236 3.06474 25.5543C3.07682 25.6813 3.10099 25.8082 3.11307 25.9352C2.93182 24.631 2.89558 23.3037 2.99224 21.988C3.01641 21.6071 3.06474 21.2378 3.11307 20.8569C3.10099 20.9839 3.07682 21.1108 3.06474 21.2378C3.25807 19.9105 3.58432 18.5948 4.05557 17.3252C4.18849 16.9559 4.34557 16.5865 4.50265 16.2287C4.45432 16.3442 4.40598 16.4596 4.35765 16.575C4.93765 15.2708 5.65056 14.0359 6.48431 12.8702C6.72597 12.5239 6.9918 12.1892 7.25763 11.866C7.18513 11.9584 7.10055 12.0623 7.02805 12.1546C8.03096 10.9081 9.17887 9.76548 10.4235 8.73829C10.798 8.42667 11.1847 8.12659 11.5714 7.83805C11.4747 7.9073 11.3659 7.98809 11.2693 8.05734C12.7314 6.97243 14.3022 6.03757 15.9455 5.22966C16.4772 4.97574 17.0088 4.72183 17.5526 4.50254C17.4317 4.54871 17.3109 4.59487 17.1901 4.65258C19.1597 3.85621 21.2501 3.37147 23.3525 3.10601C23.2196 3.11756 23.0867 3.14064 22.9538 3.15218C25.2617 2.8521 27.5938 2.81748 29.9138 2.9906C30.5663 3.03676 31.2188 3.10601 31.8713 3.18681C31.7383 3.17526 31.6054 3.15218 31.4725 3.14064C34.01 3.4638 36.5233 4.06396 38.8916 5.01037C38.7708 4.9642 38.662 4.91804 38.5412 4.87187C40.0395 5.48357 41.4654 6.23377 42.7462 7.18018C42.6495 7.11093 42.5529 7.03014 42.4562 6.96089C42.7583 7.18018 43.0483 7.41101 43.3383 7.61876C43.2416 7.54951 43.1449 7.48026 43.0483 7.39947C45.0299 8.91141 46.8545 10.6311 48.4012 12.547C48.3287 12.4547 48.2562 12.3739 48.1837 12.2815C48.8482 13.1125 49.4645 13.9666 50.0203 14.8668C50.2861 15.3054 50.5399 15.744 50.7816 16.1941C50.9024 16.4134 51.0111 16.6442 51.132 16.8751C51.1924 16.9905 51.2407 17.1059 51.3011 17.2213C51.3495 17.3252 51.5428 17.7984 51.3857 17.3944C51.6032 17.9369 51.8328 18.4793 52.0503 19.0333C51.8932 18.6294 52.0624 19.068 52.0986 19.1603C52.147 19.2757 52.1832 19.3911 52.2316 19.5181C52.3161 19.7489 52.4128 19.9913 52.4732 20.2337C52.6182 20.7415 52.7391 21.2493 52.8478 21.7571C52.8961 21.988 52.9324 22.2073 52.9686 22.4381C52.9807 22.4958 52.9928 22.5651 52.9928 22.6228C53.0291 22.8536 52.9566 22.3804 52.9928 22.5997C53.017 22.7497 53.0291 22.8882 53.0411 23.0383C53.0774 23.3153 53.0653 23.6038 53.2103 23.8577C53.0895 23.65 53.162 23.7769 53.174 23.8577C53.1861 23.9385 53.2103 24.0193 53.2224 24.1001C53.2466 24.227 53.2707 24.3425 53.2828 24.4694C53.2949 24.5271 53.307 24.5964 53.307 24.6541C53.319 24.7464 53.319 24.7349 53.307 24.631C53.307 24.6772 53.319 24.7118 53.319 24.7579C53.3915 25.3466 53.3432 25.9813 53.307 26.57C53.2828 26.8931 53.5728 27.1586 53.887 27.2048C54.2132 27.2394 54.5878 27.0547 54.6482 26.7431Z" fill="#518FFF"/>
<path d="M26.6868 32.342C26.7351 32.3073 26.7835 32.2727 26.8318 32.2381H26.8197C26.8801 32.215 26.9406 32.1919 27.001 32.1688C26.9889 32.1688 26.9889 32.1688 26.9768 32.1688C27.0493 32.1573 27.1097 32.1573 27.1822 32.1457C27.146 32.1457 27.1097 32.1457 27.0735 32.1457C26.9406 32.1342 26.8197 32.1342 26.6868 32.1688C26.5539 32.2035 26.4331 32.2496 26.3122 32.3189C26.131 32.4343 25.9497 32.5843 25.8531 32.7805C25.7806 32.8959 25.7322 33.0229 25.7322 33.1499C25.696 33.2768 25.7081 33.4153 25.7564 33.5423C25.7927 33.6231 25.8289 33.7039 25.8652 33.7846C25.9618 33.9347 26.0827 34.0501 26.2397 34.1424C26.3002 34.1771 26.3606 34.2117 26.4089 34.2463C26.3364 34.1886 26.2639 34.1424 26.1914 34.0847C26.2156 34.1078 26.2397 34.1194 26.2518 34.1424C26.1914 34.0732 26.131 34.0039 26.0827 33.9347C26.0947 33.9462 26.1068 33.9693 26.1068 33.9809C26.0706 33.9001 26.0343 33.8077 25.9981 33.7269C26.0464 33.8308 26.0706 33.9347 26.131 34.027C26.1793 34.1078 26.2518 34.2001 26.3243 34.2694C26.3968 34.3386 26.4814 34.4079 26.5781 34.4541C26.7593 34.5579 26.9647 34.6156 27.1581 34.6503C27.3756 34.708 27.581 34.708 27.7985 34.6503C27.9556 34.6156 28.0885 34.5464 28.2093 34.4425C28.3422 34.3617 28.4389 34.2579 28.5235 34.1194C28.6322 33.9462 28.6806 33.75 28.6926 33.5423C28.7047 33.3461 28.6564 33.1383 28.6322 32.9537C28.6081 32.8036 28.5476 32.6651 28.4751 32.5382C28.4631 32.5266 28.451 32.5035 28.4389 32.492C28.3664 32.3997 28.2939 32.2958 28.2093 32.215C28.161 32.1573 28.1126 32.1111 28.0643 32.0534C28.1247 32.1342 28.1972 32.215 28.2576 32.2958C28.1851 32.2035 28.1247 32.1111 28.0643 32.0188C27.9556 31.8341 27.7985 31.6956 27.6172 31.5918C27.4239 31.4879 27.2185 31.4302 26.9889 31.4302C26.7593 31.4302 26.5539 31.4879 26.3606 31.5918C26.1672 31.6956 26.0222 31.8457 25.9135 32.0188C25.8772 32.065 25.841 32.1111 25.8047 32.1573C25.8652 32.0765 25.9377 31.9957 25.9981 31.9149C25.8652 32.0765 25.7322 32.2265 25.6114 32.3881C25.5027 32.5266 25.4422 32.6882 25.3818 32.8498C25.3093 33.0229 25.3093 33.2076 25.2852 33.3807C25.2731 33.5077 25.2852 33.6231 25.2852 33.75C25.2852 33.9693 25.3456 34.1771 25.4543 34.3617C25.5389 34.5002 25.6477 34.6156 25.7806 34.6964C25.9014 34.8003 26.0464 34.8811 26.2156 34.9157C26.4451 34.9734 26.6626 34.9734 26.8922 34.9157C27.1339 34.8696 27.3876 34.8003 27.5931 34.6733C27.9193 34.4771 28.1972 34.1771 28.2818 33.8077C28.3543 33.5192 28.3422 33.2537 28.2576 32.9767C28.2335 32.8844 28.1972 32.8036 28.1851 32.7113C28.1972 32.8152 28.2093 32.919 28.2335 33.0229C28.2335 32.9998 28.2335 32.9652 28.2214 32.9421C28.2093 32.6997 28.1731 32.5382 28.0401 32.3304C27.9797 32.2381 27.9072 32.1573 27.8347 32.0765C27.7501 32.0188 27.6776 31.9611 27.5931 31.8918C27.4601 31.811 27.3031 31.7649 27.146 31.7533C27.0372 31.7303 26.9285 31.7303 26.8318 31.7533C26.6747 31.7649 26.5176 31.811 26.3847 31.8918C26.2881 31.9495 26.2035 32.0188 26.1189 32.088C25.9618 32.2381 25.8531 32.4227 25.7927 32.619C25.7564 32.7344 25.7443 32.8729 25.7443 33.0114C25.7443 33.0575 25.7443 33.1152 25.7564 33.1614C25.7685 33.2999 25.7927 33.4615 25.8168 33.6115C25.8289 33.6462 25.841 33.6923 25.841 33.7269C25.8289 33.6231 25.8168 33.5077 25.7927 33.4038C25.7927 33.4269 25.7927 33.4499 25.7927 33.4846C25.8047 33.3807 25.8168 33.2653 25.841 33.1614C25.841 33.1729 25.8289 33.196 25.8289 33.2076C25.8772 33.1152 25.9135 33.0114 25.9618 32.919C25.9497 32.9306 25.9497 32.9421 25.9377 32.9537C25.9981 32.8729 26.0706 32.7921 26.131 32.7113C26.1189 32.7228 26.1068 32.7344 26.0827 32.7575C26.1672 32.6997 26.2518 32.6305 26.3364 32.5728C26.3001 32.5959 26.2639 32.619 26.2277 32.6305C26.3243 32.5843 26.4331 32.5497 26.5297 32.5035C26.421 32.5497 26.3122 32.5728 26.2035 32.5843C26.7351 32.9767 27.2668 33.3576 27.8106 33.75C27.7985 33.6115 27.7985 33.4615 27.8106 33.3114C27.7985 33.4153 27.7864 33.5307 27.7622 33.6346C27.7743 33.5769 27.7864 33.5307 27.8106 33.473C27.7622 33.5654 27.726 33.6692 27.6776 33.7616C27.7139 33.6808 27.7622 33.6115 27.8226 33.5423C27.9072 33.4384 27.9797 33.323 28.0522 33.2076C27.3393 33.2076 26.6143 33.2076 25.9014 33.2076C26.0464 33.4038 26.2035 33.6 26.3726 33.7731C26.421 33.8193 26.4693 33.8654 26.5176 33.9116C26.4572 33.8308 26.3847 33.75 26.3243 33.6692C26.3364 33.6923 26.3485 33.7039 26.3606 33.7269C26.3243 33.6346 26.276 33.5423 26.2397 33.4499C26.2639 33.4961 26.2639 33.5423 26.276 33.5884C26.2881 33.6692 26.3001 33.75 26.3364 33.8424C26.6143 33.3692 26.8922 32.9075 27.1701 32.4343C27.1218 32.4458 27.0735 32.4458 27.0251 32.4574C27.1339 32.4458 27.2306 32.4343 27.3393 32.4227C27.291 32.4343 27.2306 32.4343 27.1822 32.4343C27.2789 32.4458 27.3876 32.4574 27.4843 32.4689C27.4722 32.4689 27.4601 32.4689 27.4481 32.4574C27.5326 32.492 27.6293 32.5266 27.7139 32.5612C27.7018 32.5612 27.7018 32.5497 27.6897 32.5497C27.7622 32.6074 27.8468 32.6651 27.9193 32.7228C27.9072 32.7113 27.8951 32.6997 27.8831 32.6882C27.871 32.6767 27.871 32.6767 27.8589 32.6651C27.7985 32.619 27.6897 32.5382 27.6293 32.492L27.6172 32.4805C27.5326 32.4343 27.4118 32.3881 27.3151 32.3535C27.291 32.342 27.2789 32.342 27.2547 32.3304C27.2306 32.3189 27.1943 32.3189 27.1701 32.3189C27.0372 32.2958 26.9164 32.2727 26.7835 32.2842C27.1218 32.5266 27.4481 32.769 27.7864 33.0114C27.7864 32.9998 27.7743 32.9767 27.7743 32.9652C27.7864 33.046 27.7985 33.1383 27.8106 33.2191C27.8106 33.196 27.8106 33.1729 27.8106 33.1499C27.7985 33.2307 27.7864 33.323 27.7743 33.4038C27.7743 33.3807 27.7864 33.3461 27.7985 33.323C27.7622 33.3922 27.7381 33.473 27.7018 33.5423C27.7139 33.5077 27.7381 33.473 27.7622 33.4384C27.8226 33.3576 27.8468 33.2537 27.8831 33.1499C27.8589 33.2191 27.8226 33.2768 27.7985 33.3461C27.8468 33.2537 27.8951 33.1614 27.9193 33.0575C27.9435 32.9883 27.9556 32.9075 27.9556 32.8382C27.9556 32.6882 27.9193 32.5959 27.8468 32.4574C27.7864 32.3535 27.6897 32.2727 27.581 32.2035C27.4964 32.1573 27.4118 32.1227 27.3151 32.1227C27.2185 32.0996 27.1218 32.1111 27.0251 32.1342C26.8801 32.1919 26.7835 32.2496 26.6868 32.342Z" fill="#518FFF"/>
<path d="M22.9164 17.3263C22.6627 16.957 22.4331 16.5646 22.2518 16.1607C22.2881 16.2414 22.3243 16.3107 22.3485 16.3915C22.1914 16.0222 22.0706 15.6413 22.0102 15.2489C22.0223 15.3527 22.0343 15.4451 22.0464 15.549C22.0223 15.3758 21.9981 15.2027 21.9739 15.018C21.986 15.1219 21.9981 15.2258 22.0223 15.3181C21.986 15.0642 21.986 14.7988 22.0102 14.5333C21.9981 14.6372 21.986 14.741 21.9618 14.8449C21.9981 14.6025 22.0585 14.3833 22.1552 14.164C22.1068 14.2563 22.0706 14.3602 22.0223 14.4525C22.1431 14.1871 22.3002 13.9562 22.4814 13.7254C22.4089 13.8062 22.3485 13.8985 22.276 13.9793C22.4935 13.7254 22.7352 13.4946 23.0131 13.2868C22.9164 13.3561 22.8318 13.4253 22.7352 13.483C23.1339 13.1829 23.581 12.9521 24.0523 12.7674C23.9435 12.8136 23.8348 12.8598 23.726 12.9059C23.8831 12.8482 24.0402 12.779 24.1852 12.7213C24.0764 12.7674 23.9677 12.8136 23.8589 12.8598C24.4993 12.6059 25.176 12.4327 25.8647 12.3404C25.7439 12.3519 25.6231 12.375 25.4902 12.3866C26.0702 12.3173 26.6502 12.3058 27.2301 12.375C27.1093 12.3635 26.9885 12.3404 26.8556 12.3289C27.2664 12.3866 27.6651 12.4789 28.0518 12.6289C27.9431 12.5828 27.8343 12.5366 27.7135 12.4904C27.9914 12.6059 28.2693 12.7559 28.511 12.929C28.4143 12.8598 28.3176 12.7905 28.2331 12.7213C28.4506 12.8829 28.6439 13.0675 28.8131 13.2753C28.7406 13.1829 28.6681 13.0906 28.5956 13.0098C28.801 13.2637 28.9701 13.5523 29.1031 13.8523C29.0547 13.7485 29.0064 13.6446 28.9581 13.5292C29.1031 13.8639 29.1997 14.2217 29.2601 14.5795C29.2481 14.464 29.2239 14.3371 29.2118 14.2217C29.2601 14.6372 29.2601 15.0527 29.1997 15.4682C29.2118 15.3527 29.236 15.2258 29.2481 15.1104C29.1514 15.7913 28.9339 16.4377 28.656 17.0724C28.7043 16.9686 28.7526 16.8531 28.801 16.7493C28.3056 17.8803 27.6168 18.9191 26.916 19.9463C26.5414 20.4887 26.1789 21.0196 25.8647 21.5852C25.5022 22.2315 25.2002 22.9125 24.9464 23.6049C24.8256 23.9397 24.7168 24.2859 24.6322 24.6206C24.5839 24.8053 24.5356 24.9899 24.4993 25.1746C24.4631 25.3708 24.4027 25.5786 24.4027 25.7748C24.4027 25.8786 24.4147 25.971 24.4147 26.0748C24.4389 26.3634 24.5114 26.6173 24.7047 26.8481C24.8739 27.0559 25.1156 27.2405 25.3935 27.3098C25.6231 27.3559 25.8647 27.3559 26.1064 27.3098C26.3964 27.2521 26.7831 26.9866 26.9039 26.7212C27.0006 26.5134 27.1214 26.3057 27.1818 26.0864C27.2181 25.9594 27.2422 25.8325 27.2664 25.7055C27.3268 25.4516 27.3872 25.2092 27.4597 24.9553C27.5926 24.4936 27.7618 24.032 27.9551 23.5934C27.9068 23.6973 27.8585 23.8127 27.8101 23.9166C28.5472 22.2661 29.7314 20.8581 30.6255 19.2884C31.6285 17.4995 32.4018 15.4335 31.858 13.4022C31.7251 12.8944 31.4955 12.375 31.2055 11.9365C30.9518 11.5556 30.6618 11.1862 30.2993 10.8977C29.5985 10.3437 28.7768 9.93976 27.8706 9.77818C26.0822 9.45502 24.1852 9.74356 22.566 10.5053C21.7927 10.8746 21.0435 11.3825 20.5119 12.0288C20.3064 12.2712 20.1131 12.502 19.9802 12.779C19.8473 13.0329 19.7264 13.3099 19.6539 13.5869C19.5089 14.1524 19.5089 14.6833 19.5935 15.2489C19.6419 15.5259 19.7144 15.7682 19.8352 16.0337C19.7989 15.9414 19.7506 15.849 19.7144 15.7682C19.9077 16.2414 20.1494 16.6916 20.4756 17.0955C20.8139 17.511 21.1644 17.9034 21.5873 18.2497C21.9014 18.5151 22.3485 18.5613 22.6868 18.3074C23.0131 18.1227 23.1581 17.6611 22.9164 17.3263Z" fill="#518FFF"/>
</svg>
