<svg width="32" height="32" viewBox="0 0 32 32" fill="none" xmlns="http://www.w3.org/2000/svg">
<path d="M13.3332 4H18.6665C21.4955 4 24.2086 5.12381 26.209 7.12419C28.2094 9.12458 29.3332 11.8377 29.3332 14.6667C29.3332 17.4956 28.2094 20.2088 26.209 22.2091C24.2086 24.2095 21.4955 25.3333 18.6665 25.3333V30C11.9998 27.3333 2.6665 23.3333 2.6665 14.6667C2.6665 11.8377 3.79031 9.12458 5.7907 7.12419C7.79109 5.12381 10.5042 4 13.3332 4ZM15.9998 22.6667H18.6665C19.7171 22.6667 20.7574 22.4597 21.728 22.0577C22.6986 21.6557 23.5805 21.0664 24.3234 20.3235C25.0662 19.5807 25.6555 18.6987 26.0575 17.7281C26.4596 16.7575 26.6665 15.7172 26.6665 14.6667C26.6665 13.6161 26.4596 12.5758 26.0575 11.6052C25.6555 10.6346 25.0662 9.75268 24.3234 9.00981C23.5805 8.26694 22.6986 7.67767 21.728 7.27563C20.7574 6.87359 19.7171 6.66667 18.6665 6.66667H13.3332C11.2114 6.66667 9.17661 7.50952 7.67632 9.00981C6.17603 10.5101 5.33317 12.5449 5.33317 14.6667C5.33317 19.48 8.61584 22.6213 15.9998 25.9733V22.6667Z" fill="#518FFF"/>
<path d="M15.5998 19.3333L12.7362 14.6667L15.5998 10H12.5089L9.59984 14.6667L12.5089 19.3333H15.5998ZM21.5998 19.3333L18.7362 14.6667L21.5998 10H18.5089L15.5998 14.6667L18.5089 19.3333H21.5998Z" fill="#518FFF"/>
</svg>
