<svg width="153" height="507" viewBox="0 0 153 507" fill="none" xmlns="http://www.w3.org/2000/svg">
<path d="M211.353 9.50838C213.843 8.3144 214.894 5.32798 213.7 2.83803C212.506 0.348075 209.52 -0.702524 207.03 0.491457L211.353 9.50838ZM194.621 494.734C191.928 494.122 189.249 495.808 188.636 498.501C188.024 501.194 189.71 503.873 192.403 504.485L194.621 494.734ZM163.868 495.444C166.427 496.48 169.342 495.245 170.379 492.685C171.415 490.125 170.179 487.21 167.62 486.174L163.868 495.444ZM146.964 476.444C144.532 475.136 141.5 476.047 140.192 478.479C138.884 480.911 139.796 483.943 142.228 485.251L146.964 476.444ZM116.96 469.614C119.219 471.202 122.338 470.657 123.926 468.398C125.513 466.139 124.969 463.02 122.709 461.432L116.96 469.614ZM104.552 447.436C102.439 445.657 99.2851 445.928 97.5064 448.04C95.7277 450.152 95.9982 453.307 98.1104 455.085L104.552 447.436ZM76.4503 434.828C78.3675 436.815 81.5328 436.872 83.5202 434.955C85.5076 433.038 85.5645 429.873 83.6472 427.885L76.4503 434.828ZM68.4073 410.744C66.6578 408.608 63.5075 408.294 61.371 410.044C59.2345 411.793 58.9207 414.943 60.6702 417.08L68.4073 410.744ZM43.0671 393.189C44.5885 395.494 47.69 396.129 49.9945 394.607C52.2991 393.086 52.9339 389.985 51.4125 387.68L43.0671 393.189ZM39.6078 368.047C38.2871 365.622 35.2506 364.727 32.8254 366.048C30.4003 367.368 29.505 370.405 30.8257 372.83L39.6078 368.047ZM18.0732 345.986C19.1158 348.543 22.0339 349.771 24.591 348.728C27.148 347.685 28.3757 344.767 27.333 342.21L18.0732 345.986ZM19.7064 320.668C18.9103 318.024 16.1213 316.526 13.4772 317.322C10.833 318.118 9.33489 320.907 10.1311 323.552L19.7064 320.668ZM3.33729 294.554C3.79472 297.277 6.37319 299.114 9.09646 298.657C11.8197 298.199 13.6566 295.621 13.1991 292.897L3.33729 294.554ZM10.6173 270.245C10.4523 267.488 8.08408 265.387 5.32759 265.552C2.57109 265.717 0.470195 268.085 0.635104 270.842L10.6173 270.245ZM0.906967 241.037C0.689828 243.789 2.74545 246.197 5.49832 246.414C8.25119 246.631 10.6589 244.576 10.876 241.823L0.906967 241.037ZM13.9393 219.273C14.4645 216.562 12.6925 213.939 9.98149 213.414C7.27046 212.888 4.64701 214.66 4.12184 217.371L13.9393 219.273ZM11.8324 188.518C10.9372 191.131 12.3291 193.974 14.9414 194.869C17.5537 195.765 20.3971 194.373 21.2923 191.76L11.8324 188.518ZM29.8126 170.65C30.979 168.147 29.8955 165.172 27.3925 164.006C24.8896 162.84 21.9149 163.923 20.7485 166.426L29.8126 170.65ZM34.9466 140.342C33.4822 142.683 34.193 145.768 36.5341 147.233C38.8753 148.697 41.9603 147.986 43.4247 145.645L34.9466 140.342ZM56.4164 126.834C58.0841 124.633 57.6518 121.496 55.4508 119.829C53.2499 118.161 50.1137 118.593 48.446 120.794L56.4164 126.834ZM67.5305 98.1146C65.6512 100.138 65.768 103.302 67.7913 105.181C69.8147 107.06 72.9783 106.943 74.8576 104.92L67.5305 98.1146ZM91.0721 88.6802C93.09 86.7951 93.1977 83.6311 91.3126 81.6132C89.4275 79.5953 86.2635 79.4876 84.2456 81.3727L91.0721 88.6802ZM106.614 62.094C104.455 63.8155 104.1 66.9614 105.822 69.1206C107.543 71.2797 110.689 71.6345 112.848 69.913L106.614 62.094ZM131.305 56.0299C133.557 54.4305 134.085 51.3091 132.486 49.058C130.886 46.8069 127.765 46.2786 125.514 47.878L131.305 56.0299ZM150.094 31.5456C147.749 33.0044 147.031 36.0877 148.49 38.4323C149.949 40.7769 153.032 41.495 155.377 40.0362L150.094 31.5456ZM175.292 28.2457C177.698 26.8899 178.549 23.8406 177.193 21.435C175.837 19.0293 172.788 18.1783 170.383 19.5341L175.292 28.2457ZM196.225 5.7923C193.757 7.03114 192.76 10.0361 193.999 12.504C195.238 14.972 198.243 15.9684 200.711 14.7295L196.225 5.7923ZM205.677 496.825C202.013 496.275 198.325 495.577 194.621 494.734L192.403 504.485C196.342 505.381 200.274 506.126 204.193 506.714L205.677 496.825ZM167.62 486.174C160.706 483.376 153.804 480.122 146.964 476.444L142.228 485.251C149.372 489.093 156.602 492.503 163.868 495.444L167.62 486.174ZM122.709 461.432C116.535 457.093 110.469 452.419 104.552 447.436L98.1104 455.085C104.246 460.252 110.542 465.104 116.96 469.614L122.709 461.432ZM83.6472 427.885C78.3715 422.416 73.2799 416.695 68.4073 410.744L60.6702 417.08C65.7153 423.241 70.9872 429.165 76.4503 434.828L83.6472 427.885ZM51.4125 387.68C47.2129 381.319 43.2672 374.767 39.6078 368.047L30.8257 372.83C34.6231 379.803 38.715 386.597 43.0671 393.189L51.4125 387.68ZM27.333 342.21C24.4577 335.158 21.9051 327.97 19.7064 320.668L10.1311 323.552C12.4234 331.165 15.0822 338.65 18.0732 345.986L27.333 342.21ZM13.1991 292.897C11.9439 285.425 11.0733 277.867 10.6173 270.245L0.635104 270.842C1.11289 278.828 2.02472 286.74 3.33729 294.554L13.1991 292.897ZM10.876 241.823C11.4663 234.339 12.4781 226.816 13.9393 219.273L4.12184 217.371C2.58836 225.288 1.52645 233.183 0.906967 241.037L10.876 241.823ZM21.2923 191.76C23.7049 184.72 26.5372 177.679 29.8126 170.65L20.7485 166.426C17.3249 173.773 14.3603 181.142 11.8324 188.518L21.2923 191.76ZM43.4247 145.645C47.3639 139.347 51.6886 133.073 56.4164 126.834L48.446 120.794C43.5419 127.266 39.0474 133.786 34.9466 140.342L43.4247 145.645ZM74.8576 104.92C79.9232 99.4662 85.3238 94.0501 91.0721 88.6802L84.2456 81.3727C78.3295 86.8995 72.7614 92.4827 67.5305 98.1146L74.8576 104.92ZM112.848 69.913C118.711 65.239 124.86 60.6093 131.305 56.0299L125.514 47.878C118.922 52.5611 112.625 57.3016 106.614 62.094L112.848 69.913ZM155.377 40.0362C161.769 36.0588 168.405 32.1273 175.292 28.2457L170.383 19.5341C163.373 23.4846 156.612 27.4897 150.094 31.5456L155.377 40.0362ZM200.711 14.7295C204.202 12.977 207.75 11.2365 211.353 9.50838L207.03 0.491457C203.372 2.24529 199.771 4.01237 196.225 5.7923L200.711 14.7295Z" fill="white"/>
</svg>
