<svg width="172" height="793" viewBox="0 0 172 793" fill="none" xmlns="http://www.w3.org/2000/svg">
<path d="M5 394H10H5ZM256.288 791.349C258.137 793.4 261.299 793.562 263.349 791.712C265.4 789.863 265.562 786.701 263.712 784.651L256.288 791.349ZM221.526 7.25815C219.229 8.79041 218.608 11.8949 220.141 14.1922C221.673 16.4895 224.777 17.1097 227.075 15.5775L221.526 7.25815ZM203.128 32.0674C205.374 30.4614 205.893 27.3384 204.287 25.092C202.681 22.8457 199.558 22.3266 197.312 23.9326L203.128 32.0674ZM178.386 37.9569C176.197 39.6406 175.788 42.7799 177.471 44.9686C179.155 47.1573 182.294 47.5666 184.483 45.8829L178.386 37.9569ZM161.942 64.1328C164.042 62.3401 164.291 59.1841 162.499 57.0837C160.706 54.9833 157.55 54.7339 155.45 56.5266L161.942 64.1328ZM137.85 72.2348C135.832 74.1199 135.724 77.2839 137.61 79.3018C139.495 81.3197 142.659 81.4274 144.677 79.5423L137.85 72.2348ZM124.128 99.9226C126.028 97.9188 125.944 94.7541 123.94 92.854C121.936 90.9539 118.772 91.038 116.872 93.0418L124.128 99.9226ZM101.065 110.588C99.2705 112.686 99.5173 115.843 101.616 117.637C103.715 119.432 106.871 119.185 108.666 117.086L101.065 110.588ZM90.642 139.659C92.2904 137.443 91.8308 134.311 89.6154 132.663C87.4 131.014 84.2677 131.474 82.6193 133.689L90.642 139.659ZM69.0197 153.076C67.4984 155.381 68.1334 158.482 70.438 160.004C72.7426 161.525 75.8441 160.89 77.3654 158.585L69.0197 153.076ZM62.3316 183.243C63.6829 180.835 62.826 177.787 60.4178 176.436C58.0096 175.085 54.9619 175.941 53.6107 178.35L62.3316 183.243ZM42.6536 199.285C41.4452 201.768 42.4783 204.76 44.9613 205.969C47.4442 207.177 50.4367 206.144 51.6452 203.661L42.6536 199.285ZM39.9699 230.066C40.9935 227.501 39.7443 224.592 37.1796 223.568C34.6149 222.545 31.706 223.794 30.6823 226.359L39.9699 230.066ZM22.5569 248.566C21.6833 251.185 23.0986 254.017 25.7182 254.891C28.3378 255.765 31.1696 254.349 32.0433 251.73L22.5569 248.566ZM23.8837 279.444C24.5699 276.769 22.9578 274.044 20.283 273.358C17.6082 272.672 14.8836 274.284 14.1974 276.959L23.8837 279.444ZM8.95819 299.993C8.41913 302.702 10.1777 305.334 12.8859 305.873C15.5942 306.412 18.2267 304.654 18.7658 301.946L8.95819 299.993ZM14.0585 330.501C14.4189 327.763 12.4916 325.251 9.75379 324.891C7.01598 324.531 4.50442 326.458 4.14406 329.196L14.0585 330.501ZM1.64908 352.693C1.42538 355.446 3.47526 357.858 6.2276 358.082C8.97995 358.306 11.3925 356.256 11.6162 353.504L1.64908 352.693ZM10.1308 382.332C10.193 379.571 8.00546 377.282 5.24474 377.22C2.48402 377.158 0.195576 379.346 0.133363 382.106L10.1308 382.332ZM0.127135 406.459C0.18403 409.22 2.46825 411.412 5.22909 411.355C7.98993 411.298 10.1819 409.014 10.125 406.253L0.127135 406.459ZM11.5699 436.353C11.3584 433.599 8.95498 431.539 6.20167 431.75C3.44836 431.962 1.3878 434.365 1.5993 437.118L11.5699 436.353ZM4.09469 461.584C4.44602 464.323 6.95121 466.258 9.69019 465.907C12.4292 465.555 14.3648 463.05 14.0134 460.311L4.09469 461.584ZM18.9085 490.091C18.3602 487.385 15.7217 485.635 13.0152 486.184C10.3088 486.732 8.55934 489.371 9.1077 492.077L18.9085 490.091ZM14.7805 516.111C15.5029 518.776 18.2492 520.351 20.9145 519.629C23.5797 518.906 25.1546 516.16 24.4322 513.495L14.7805 516.111ZM33.5492 542.081C32.5912 539.491 29.715 538.168 27.1251 539.126C24.5352 540.084 23.2122 542.961 24.1702 545.55L33.5492 542.081ZM33.6418 568.42C34.7973 570.928 37.7672 572.024 40.2752 570.869C42.7833 569.713 43.8797 566.743 42.7242 564.235L33.6418 568.42ZM56.6169 590.783C55.2138 588.405 52.1483 587.614 49.7699 589.017C47.3915 590.42 46.6008 593.486 48.0038 595.864L56.6169 590.783ZM61.443 616.663C63.0342 618.92 66.1537 619.46 68.4106 617.868C70.6675 616.277 71.2071 613.158 69.6159 610.901L61.443 616.663ZM88.0746 634.534C86.2733 632.441 83.1163 632.205 81.0233 634.006C78.9302 635.807 78.6937 638.964 80.4949 641.057L88.0746 634.534ZM97.2661 659.207C99.2078 661.171 102.374 661.188 104.337 659.247C106.301 657.305 106.318 654.139 104.376 652.176L97.2661 659.207ZM126.345 672.782C124.267 670.963 121.108 671.174 119.289 673.252C117.471 675.33 117.681 678.489 119.759 680.307L126.345 672.782ZM138.636 696.082C140.791 697.809 143.938 697.462 145.664 695.307C147.391 693.152 147.044 690.005 144.89 688.279L138.636 696.082ZM168.9 706.793C166.689 705.139 163.555 705.59 161.901 707.801C160.247 710.013 160.698 713.146 162.909 714.8L168.9 706.793ZM182.536 729.323C184.76 730.96 187.89 730.485 189.527 728.262C191.165 726.038 190.69 722.908 188.466 721.271L182.536 729.323ZM212.984 739.57C210.791 737.892 207.653 738.309 205.975 740.502C204.297 742.695 204.714 745.833 206.907 747.511L212.984 739.57ZM225.834 762.556C227.956 764.323 231.109 764.036 232.876 761.914C234.643 759.792 234.356 756.639 232.234 754.872L225.834 762.556ZM255.14 775.632C253.188 773.678 250.023 773.676 248.069 775.627C246.115 777.578 246.112 780.744 248.064 782.698L255.14 775.632ZM231.253 0.82246C228.151 2.86215 224.902 5.00627 221.526 7.25815L227.075 15.5775C230.426 13.3425 233.655 11.2115 236.747 9.17754L231.253 0.82246ZM197.312 23.9326C191.202 28.3009 184.87 32.9689 178.386 37.9569L184.483 45.8829C190.863 40.9748 197.1 36.3766 203.128 32.0674L197.312 23.9326ZM155.45 56.5266C149.622 61.5009 143.74 66.7325 137.85 72.2348L144.677 79.5423C150.451 74.1483 156.22 69.0162 161.942 64.1328L155.45 56.5266ZM116.872 93.0418C111.554 98.6496 106.274 104.495 101.065 110.588L108.666 117.086C113.759 111.129 118.924 105.411 124.128 99.9226L116.872 93.0418ZM82.6193 133.689C77.9798 139.924 73.4375 146.384 69.0197 153.076L77.3654 158.585C81.6768 152.054 86.1111 145.748 90.642 139.659L82.6193 133.689ZM53.6107 178.35C49.814 185.116 46.1543 192.092 42.6536 199.285L51.6452 203.661C55.0592 196.647 58.6284 189.843 62.3316 183.243L53.6107 178.35ZM30.6823 226.359C27.8061 233.565 25.0917 240.966 22.5569 248.566L32.0433 251.73C34.5165 244.314 37.1645 237.094 39.9699 230.066L30.6823 226.359ZM14.1974 276.959C12.2732 284.46 10.5221 292.136 8.95819 299.993L18.7658 301.946C20.2941 294.267 22.0048 286.768 23.8837 279.444L14.1974 276.959ZM4.14406 329.196C3.13403 336.869 2.29869 344.701 1.64908 352.693L11.6162 353.504C12.2525 345.675 13.0703 338.009 14.0585 330.501L4.14406 329.196ZM0.133363 382.106C0.0448399 386.035 8.10623e-06 389.999 0 394H10C10 390.074 10.044 386.184 10.1308 382.332L0.133363 382.106ZM0 394C-8.58307e-06 398.209 0.0426955 402.361 0.127135 406.459L10.125 406.253C10.042 402.225 9.99999 398.141 10 394H0ZM1.5993 437.118C2.24483 445.522 3.08009 453.674 4.09469 461.584L14.0134 460.311C13.021 452.574 12.2028 444.592 11.5699 436.353L1.5993 437.118ZM9.1077 492.077C10.7893 500.376 12.6854 508.382 14.7805 516.111L24.4322 513.495C22.3947 505.979 20.5481 498.183 18.9085 490.091L9.1077 492.077ZM24.1702 545.55C27.1079 553.493 30.2728 561.108 33.6418 568.42L42.7242 564.235C39.4635 557.158 36.3975 549.782 33.5492 542.081L24.1702 545.55ZM48.0038 595.864C52.2841 603.12 56.7746 610.042 61.443 616.663L69.6159 610.901C65.0987 604.494 60.7557 597.799 56.6169 590.783L48.0038 595.864ZM80.4949 641.057C85.9447 647.39 91.5487 653.426 97.2661 659.207L104.376 652.176C98.8087 646.545 93.3625 640.679 88.0746 634.534L80.4949 641.057ZM119.759 680.307C125.999 685.768 132.308 691.01 138.636 696.082L144.89 688.279C138.654 683.281 132.459 678.133 126.345 672.782L119.759 680.307ZM162.909 714.8C169.507 719.737 176.074 724.564 182.536 729.323L188.466 721.271C181.992 716.503 175.46 711.702 168.9 706.793L162.909 714.8ZM206.907 747.511C213.419 752.495 219.746 757.486 225.834 762.556L232.234 754.872C226.01 749.689 219.57 744.61 212.984 739.57L206.907 747.511ZM248.064 782.698C250.897 785.535 253.641 788.415 256.288 791.349L263.712 784.651C260.944 781.582 258.083 778.579 255.14 775.632L248.064 782.698Z" fill="white"/>
</svg>
