<svg width="429" height="179" viewBox="0 0 429 179" fill="none" xmlns="http://www.w3.org/2000/svg">
<g filter="url(#filter0_d_1486_86684)">
<path d="M192.22 3.36941L12.5086 76.6913C7.94696 78.5524 5.75777 83.7591 7.61891 88.3207L51.5987 196.115C53.4598 200.677 58.6665 202.866 63.2282 201.005L242.94 127.683C247.501 125.822 249.69 120.615 247.829 116.053L203.85 8.2591C201.988 3.69746 196.782 1.50827 192.22 3.36941Z" fill="white"/>
<path d="M190.813 9.95333L18.1139 80.4142C14.4633 81.9037 12.7113 86.0705 14.2008 89.7211L55.3196 190.503C56.809 194.154 60.9759 195.906 64.6265 194.416L237.326 123.955C240.976 122.466 242.728 118.299 241.239 114.648L200.12 13.8665C198.631 10.2159 194.464 8.4639 190.813 9.95333Z" fill="#FCD17B"/>
<path d="M29.441 97.7273C30.2068 97.3877 30.7928 96.9242 31.1346 96.1456C31.4523 95.4245 31.5587 94.9187 32.3631 94.5905C33.8938 93.9592 35.2716 95.2532 36.8019 94.7377C37.6685 94.4453 38.2552 93.7504 38.7223 92.9954C39.1894 92.2405 39.5151 91.4889 40.4576 91.3492C41.1034 91.2489 41.682 91.5839 42.2921 91.7294C43.1434 91.9328 43.9596 91.7834 44.7653 91.475C45.6176 91.1477 45.0825 89.8362 44.2302 90.1635C43.3778 90.4909 42.8315 90.435 42.03 90.1705C41.3305 89.9391 40.6693 89.835 39.9411 90.0165C39.0658 90.2376 38.4683 90.7397 37.9848 91.4878C37.5395 92.1794 37.1373 93.1934 36.2644 93.4203C35.6366 93.5813 34.9584 93.2189 34.3565 93.0769C33.5052 92.8735 32.6359 92.9426 31.8257 93.2732C31.0154 93.6037 30.4413 94.0963 30.1029 94.8667C29.7818 95.5961 29.7043 96.0561 28.9035 96.41C28.1028 96.7638 28.603 98.0896 29.4386 97.7215L29.441 97.7273Z" fill="#F4BE30"/>
<path d="M135.054 46.1182C135.82 45.7785 136.406 45.3151 136.747 44.5365C137.065 43.8153 137.172 43.3096 137.976 42.9814C139.507 42.3501 140.884 43.6441 142.415 43.1285C143.281 42.8362 143.868 42.1412 144.335 41.3863C144.802 40.6314 145.128 39.8798 146.07 39.74C146.716 39.6397 147.295 39.9748 147.905 40.1202C148.756 40.3236 149.572 40.1742 150.378 39.8659C151.23 39.5386 150.695 38.227 149.843 38.5544C148.991 38.8817 148.444 38.8259 147.643 38.5613C146.943 38.33 146.282 38.2258 145.554 38.4074C144.679 38.6285 144.081 39.1306 143.598 39.8786C143.152 40.5703 142.75 41.5843 141.877 41.8112C141.249 41.9722 140.571 41.6098 139.969 41.4678C139.118 41.2644 138.249 41.3335 137.438 41.664C136.628 41.9946 136.054 42.4872 135.716 43.2576C135.395 43.987 135.317 44.4469 134.516 44.8008C133.716 45.1547 134.216 46.4805 135.051 46.1123L135.054 46.1182Z" fill="#F4BE30"/>
<path d="M54.1166 140.809C54.8823 140.469 55.4683 140.006 55.8102 139.227C56.1279 138.506 56.2343 138 57.0387 137.672C58.5693 137.041 59.9472 138.335 61.4774 137.819C62.344 137.527 62.9308 136.832 63.3979 136.077C63.865 135.322 64.1907 134.571 65.1331 134.431C65.7789 134.331 66.3576 134.666 66.9676 134.811C67.8189 135.014 68.6351 134.865 69.4408 134.557C70.2931 134.229 69.758 132.918 68.9057 133.245C68.0534 133.573 67.507 133.517 66.7056 133.252C66.0061 133.021 65.3448 132.917 64.6166 133.098C63.7413 133.319 63.1439 133.821 62.6604 134.569C62.215 135.261 61.8128 136.275 60.9399 136.502C60.3121 136.663 59.6339 136.301 59.032 136.159C58.1807 135.955 57.3114 136.024 56.5012 136.355C55.691 136.685 55.1169 137.178 54.7784 137.948C54.4573 138.678 54.3798 139.138 53.5791 139.492C52.7784 139.846 53.2785 141.171 54.1142 140.803L54.1166 140.809Z" fill="#F4BE30"/>
<path d="M185.146 51.5721C185.911 51.2325 186.497 50.769 186.839 49.9904C187.157 49.2693 187.263 48.7635 188.068 48.4353C189.598 47.804 190.976 49.098 192.506 48.5825C193.373 48.2901 193.96 47.5952 194.427 46.8403C194.894 46.0853 195.22 45.3337 196.162 45.194C196.808 45.0937 197.387 45.4287 197.997 45.5742C198.848 45.7776 199.664 45.6282 200.47 45.3199C201.322 44.9925 200.787 43.681 199.935 44.0083C199.082 44.3357 198.536 44.2798 197.735 44.0153C197.035 43.7839 196.374 43.6798 195.646 43.8613C194.77 44.0824 194.173 44.5846 193.689 45.3326C193.244 46.0242 192.842 47.0382 191.969 47.2652C191.341 47.4261 190.663 47.0637 190.061 46.9217C189.21 46.7183 188.34 46.7874 187.53 47.118C186.72 47.4485 186.146 47.9412 185.808 48.7116C185.486 49.4409 185.409 49.9009 184.608 50.2548C183.807 50.6087 184.308 51.9344 185.143 51.5663L185.146 51.5721Z" fill="#F4BE30"/>
<path d="M201.694 121.862C202.46 121.522 203.046 121.059 203.388 120.28C203.705 119.559 203.812 119.053 204.616 118.725C206.147 118.094 207.525 119.388 209.055 118.872C209.921 118.58 210.508 117.885 210.975 117.13C211.442 116.375 211.768 115.624 212.711 115.484C213.356 115.384 213.935 115.719 214.545 115.864C215.396 116.068 216.212 115.918 217.018 115.61C217.871 115.282 217.335 113.971 216.483 114.298C215.631 114.626 215.084 114.57 214.283 114.305C213.583 114.074 212.922 113.97 212.194 114.151C211.319 114.372 210.721 114.875 210.238 115.623C209.792 116.314 209.39 117.328 208.517 117.555C207.889 117.716 207.211 117.354 206.609 117.212C205.758 117.008 204.889 117.077 204.079 117.408C203.268 117.739 202.694 118.231 202.356 119.002C202.035 119.731 201.957 120.191 201.156 120.545C200.356 120.899 200.856 122.224 201.692 121.856L201.694 121.862Z" fill="#F4BE30"/>
<path d="M210.24 92.6137C211.365 92.1547 210.651 90.4061 209.526 90.865C208.401 91.324 209.115 93.0727 210.24 92.6137Z" fill="#F4BE30"/>
<path d="M130.527 167.025C133.681 155.791 140.452 145.305 148.035 136.595C155.173 128.393 163.943 121.258 173.904 116.793C184.232 112.158 196.274 109.611 204.207 100.942C212.766 91.5889 213.882 77.6098 220.535 66.8181" stroke="white" stroke-width="2.60885" stroke-linecap="round" stroke-linejoin="round" stroke-dasharray="5.22 5.22"/>
<path d="M105.652 153.43C89.4378 145.629 68.6823 124.359 73.9498 99.2348C79.2458 73.9647 106.139 60.3516 132.316 64.4991C162.575 69.2957 186.827 94.9025 179.986 119.572C171.302 150.873 134.349 167.233 105.656 153.435L105.652 153.43Z" fill="#F4BE30"/>
<path d="M136.555 132.577C141.132 130.637 144.017 127.12 143 124.721C141.983 122.321 137.449 121.949 132.873 123.889C128.296 125.828 125.411 129.346 126.428 131.745C127.445 134.144 131.979 134.517 136.555 132.577Z" fill="#DFB135"/>
<path d="M100.167 55.2306L131.094 129.592C131.094 129.592 132.669 130.524 134.975 129.525C137.093 128.607 137.745 126.836 137.745 126.836C137.745 126.836 117.963 80.3633 106.453 53.0128C104.862 52.4376 101.539 53.1478 100.173 55.2281" fill="#F4BE30"/>
<path d="M99.6343 55.4564C100.453 57.4204 101.266 59.387 102.087 61.357C104.111 66.2313 106.141 71.103 108.165 75.9773C110.763 82.2212 113.361 88.4652 115.953 94.7117L123.538 112.952C125.357 117.327 127.179 121.707 128.999 126.082L130.332 129.294C130.402 129.46 130.453 129.662 130.55 129.809C131.121 130.726 133.002 130.634 133.879 130.464C135.571 130.124 137.704 128.864 138.254 127.081C138.363 126.728 138.206 126.473 138.076 126.165C137.458 124.709 136.841 123.253 136.218 121.8C133.498 115.398 130.777 108.997 128.057 102.595C124.333 93.8266 120.615 85.0552 116.9 76.2753C115.029 71.86 113.157 67.4447 111.295 63.0185C110.407 60.9233 109.525 58.8256 108.64 56.722C108.231 55.7572 107.825 54.7984 107.422 53.8312C107.261 53.4524 107.124 52.7985 106.791 52.5414C106.481 52.303 105.907 52.2669 105.536 52.2494C103.367 52.1218 100.968 53.0686 99.705 54.8818C99.278 55.4887 100.202 56.1862 100.632 55.5709C101.75 53.9732 104.316 52.9131 106.233 53.5462L105.918 53.2326C111.083 65.517 116.284 77.7863 121.488 90.0472C125.861 100.363 130.246 110.675 134.63 120.986C135.488 123.01 136.346 125.034 137.21 127.056L137.204 126.612C136.445 128.595 133.78 129.885 131.77 129.243C131.696 129.218 131.483 129.093 131.402 129.099C131.419 129.092 131.332 129.066 131.332 129.066L131.624 129.361C131.624 129.361 131.602 129.307 131.597 129.296C131.591 129.2 131.496 129.059 131.459 128.97L129.832 125.051C127.475 119.375 125.113 113.702 122.756 108.026C119.63 100.505 116.499 92.986 113.371 85.4586C110.563 78.7031 107.758 71.9536 104.945 65.2006L102.112 58.3859C101.664 57.3121 101.268 56.1812 100.761 55.1325C100.741 55.0851 100.721 55.0378 100.701 54.9904C100.41 54.3039 99.3501 54.7529 99.6352 55.442L99.6343 55.4564Z" fill="#000091"/>
<path d="M100.148 56.3215C101.296 56.938 102.706 56.8711 103.893 56.3955C105.164 55.8848 106.44 54.8761 107.098 53.6615C107.281 53.3187 107.037 52.8568 106.699 52.7205C106.303 52.5602 105.941 52.7765 105.758 53.1194C105.52 53.5624 105.08 53.9236 104.697 54.2395C104.281 54.5763 103.831 54.8649 103.329 55.0638C102.463 55.4098 101.52 55.4255 100.69 54.9816C100.347 54.7987 99.8851 55.0434 99.7487 55.3805C99.5884 55.7765 99.8048 56.1387 100.148 56.3215Z" fill="#000091"/>
<path d="M128.751 71.1259L137.978 71.1668L131.953 78.1683L100.365 90.3709L97.4542 84.7064L128.751 71.1259Z" fill="#6B93F6"/>
<path d="M128.681 71.7005C131.751 71.7118 134.829 71.7266 137.899 71.7379L137.51 70.8205C136.646 71.8292 135.779 72.8319 134.915 73.8405C133.831 75.1032 132.639 76.3275 131.631 77.6555C131.367 78.0047 131.938 77.6229 131.583 77.6899C131.332 77.7404 131.066 77.8879 130.827 77.9823L127.629 79.2189C120.471 81.981 113.309 84.7516 106.15 87.5138C104.145 88.2866 102.141 89.0594 100.139 89.8382L100.897 90.1451C99.93 88.2581 98.9626 86.371 97.9867 84.4806L97.6798 85.2391C101.207 83.7092 104.733 82.1794 108.26 80.6495C113.881 78.2113 119.501 75.7731 125.115 73.3374C126.401 72.7786 127.686 72.2199 128.971 71.6611C129.658 71.3701 129.204 70.2988 128.52 70.5958C124.993 72.1256 121.466 73.6554 117.939 75.1853C112.319 77.6235 106.698 80.0617 101.084 82.4975C99.7987 83.0562 98.5135 83.615 97.2283 84.1737C96.956 84.2891 96.7748 84.6522 96.9214 84.9322C97.8888 86.8192 98.8563 88.7062 99.8321 90.5967C99.9812 90.8825 100.278 91.0222 100.591 90.9035C105.851 88.8691 111.121 86.838 116.382 84.8035C120.013 83.404 123.641 81.9987 127.266 80.6018L130.794 79.239C131.231 79.0677 131.766 78.9458 132.173 78.7035C132.58 78.4611 132.909 77.9374 133.217 77.5765L135.265 75.1933C136.322 73.9634 137.375 72.742 138.432 71.5121C138.693 71.2059 138.469 70.5956 138.043 70.5947C134.973 70.5834 131.894 70.5686 128.825 70.5573C128.09 70.5544 127.935 71.7026 128.675 71.703L128.681 71.7005Z" fill="#000091"/>
<path d="M87.1126 78.296L121.238 53.253L133.843 49.1881L126.612 59.968C126.612 59.968 102.35 75.2722 90.5916 83.4892C89.2363 81.9062 88.07 80.1594 87.1151 78.302" fill="#77EDA5"/>
<path d="M87.4706 78.7448C89.3279 77.378 91.1878 76.0171 93.0452 74.6503L105.112 65.793L116.925 57.1271L120.552 54.4657C120.845 54.2508 121.148 54.0452 121.436 53.8185C121.485 53.784 121.534 53.7353 121.59 53.7043C121.348 53.8417 121.574 53.7321 121.694 53.7022C123.663 53.1748 125.602 52.4439 127.536 51.8194L133.708 49.8248L134.063 49.7089L133.376 48.8275C131.733 51.2764 130.093 53.7169 128.45 56.1659C127.713 57.2603 126.891 58.3349 126.229 59.4744C126.096 59.7051 126.368 59.4572 126.103 59.5904C125.839 59.7235 125.581 59.9234 125.326 60.0802C118.22 64.5797 111.137 69.1182 104.101 73.7201C99.4452 76.7691 94.7879 79.8324 90.2239 83.0167L91.039 83.1111C89.7224 81.5536 88.5837 79.8719 87.6404 78.0584C87.2986 77.4003 86.2308 77.846 86.5751 78.51C87.5644 80.4157 88.7433 82.1921 90.1295 83.8318C90.3412 84.0841 90.6796 84.1083 90.9446 83.9262C99.3015 78.0937 107.891 72.5956 116.472 67.0941C119.491 65.1579 122.513 63.2277 125.54 61.3092C125.99 61.0206 126.565 60.7629 126.965 60.405C127.167 60.2217 127.302 59.9479 127.454 59.7299L128.589 58.0412C130.492 55.2024 132.396 52.3637 134.306 49.5225C134.639 49.0249 134.159 48.4676 133.618 48.641C129.778 49.8776 125.947 51.1175 122.107 52.3541C121.443 52.5659 120.96 52.7285 120.405 53.1315L117.385 55.3471C113.635 58.0958 109.881 60.8529 106.131 63.6015C101.973 66.6559 97.812 69.7042 93.6596 72.756L89.1 76.0991C88.3601 76.6432 87.5478 77.1481 86.8473 77.7522C86.8169 77.7791 86.7779 77.8026 86.7449 77.8236C86.1439 78.2669 86.862 79.1704 87.4656 78.733L87.4706 78.7448Z" fill="#000091"/>
<path d="M162.701 59.0026C163.28 58.7662 163.558 58.1048 163.322 57.5253C163.085 56.9459 162.424 56.6678 161.844 56.9042C161.265 57.1406 160.987 57.802 161.223 58.3815C161.46 58.9609 162.121 59.239 162.701 59.0026Z" fill="#F4BE30"/>
<path d="M104.417 162.272C104.996 162.036 105.274 161.375 105.038 160.795C104.801 160.216 104.14 159.938 103.56 160.174C102.981 160.41 102.703 161.072 102.939 161.651C103.176 162.231 103.837 162.509 104.417 162.272Z" fill="#F4BE30"/>
<path d="M82.6773 65.7606C83.2568 65.5242 83.5349 64.8628 83.2985 64.2833C83.062 63.7038 82.4006 63.4257 81.8212 63.6622C81.2417 63.8986 80.9636 64.56 81.2 65.1394C81.4365 65.7189 82.0979 65.997 82.6773 65.7606Z" fill="#F4BE30"/>
<path d="M207.569 67.669C208.148 67.4325 208.426 66.7711 208.19 66.1917C207.953 65.6122 207.292 65.3341 206.713 65.5706C206.133 65.807 205.855 66.4684 206.091 67.0478C206.328 67.6273 206.989 67.9054 207.569 67.669Z" fill="#F4BE30"/>
<path d="M188.327 137.827C188.906 137.591 189.184 136.93 188.948 136.35C188.711 135.771 188.05 135.493 187.471 135.729C186.891 135.965 186.613 136.627 186.849 137.206C187.086 137.786 187.747 138.064 188.327 137.827Z" fill="#F4BE30"/>
<path d="M40.8604 122.434C41.4399 122.197 41.718 121.536 41.4816 120.956C41.2451 120.377 40.5837 120.099 40.0043 120.335C39.4248 120.572 39.1467 121.233 39.3832 121.813C39.6196 122.392 40.281 122.67 40.8604 122.434Z" fill="#F4BE30"/>
</g>
<g filter="url(#filter1_d_1486_86684)">
<path d="M283.64 67.3629L92.9852 103.739C88.1458 104.662 84.9712 109.334 85.8945 114.173L107.714 228.531C108.637 233.371 113.309 236.545 118.148 235.622L308.802 199.246C313.642 198.323 316.816 193.651 315.893 188.812L294.074 74.4536C293.151 69.6142 288.479 66.4396 283.64 67.3629Z" fill="white"/>
<path d="M280.96 73.5406L97.7447 108.497C93.8718 109.236 91.3312 112.975 92.0701 116.848L112.47 223.767C113.209 227.639 116.947 230.18 120.82 229.441L304.035 194.484C307.908 193.745 310.449 190.007 309.71 186.134L289.31 79.2151C288.571 75.3422 284.833 72.8017 280.96 73.5406Z" fill="#99B3F9"/>
<path d="M187.501 101.531C208.481 97.9467 251.603 100.666 264.627 133.178C279.61 170.582 252.182 197.128 218.694 200.161C178.398 203.81 148.465 183.542 137.904 166.56C127.344 149.578 129.091 111.505 187.501 101.531Z" fill="#6B93F6"/>
<path d="M102.051 171.342C105.82 176.891 112.539 179.755 119.157 180.851C125.775 181.947 132.541 181.566 139.225 182.169C142.061 182.422 144.955 182.876 147.427 184.276C150.61 186.079 152.763 189.237 154.626 192.381C159.741 201.019 163.548 210.425 165.891 220.187" stroke="white" stroke-width="2.60885" stroke-linecap="round" stroke-linejoin="round" stroke-dasharray="5.22 5.22"/>
<path d="M295.394 107.439C287.826 110.235 282.053 117.194 280.326 125.074C278.599 132.953 280.829 141.513 285.881 147.804C290.932 154.089 298.639 158.072 306.653 158.959" stroke="white" stroke-width="2.60885" stroke-linecap="round" stroke-linejoin="round" stroke-dasharray="5.22 5.22"/>
<path d="M172.227 138.277C170.654 134.2 171.694 128.9 175.427 126.631C170.403 124.282 167.947 118.13 168.686 112.631C169.425 107.132 172.786 102.312 176.783 98.4673C179.788 95.5739 184.337 93.014 187.902 95.173C190.568 96.7856 191.288 100.257 191.761 103.339C193.703 102.167 196.283 102.418 198.228 103.579C200.174 104.739 201.55 106.681 202.476 108.748C204.232 112.675 204.431 117.514 202.087 121.115C206.84 121.137 210.538 126.142 210.245 130.889C209.952 135.636 206.55 139.74 202.453 142.149C198.356 144.559 193.63 145.653 188.961 146.544C180.31 148.194 173.799 142.355 172.227 138.277Z" fill="#99B3F9"/>
<path d="M172.736 138.026C171.348 134.311 172.129 129.368 175.684 127.139C176.113 126.871 176.078 126.314 175.62 126.1C172.635 124.663 170.594 121.791 169.699 118.648C168.805 115.505 169.057 111.958 170.258 108.78C171.563 105.34 173.797 102.299 176.362 99.6879C178.626 97.3782 181.747 94.7896 185.199 94.9449C189.587 95.1394 190.661 99.9271 191.21 103.443C191.264 103.792 191.699 104.023 192.018 103.847C193.936 102.75 196.3 103.011 198.13 104.174C199.961 105.337 201.176 107.169 202.025 109.103C203.639 112.794 203.84 117.306 201.628 120.792C201.411 121.134 201.609 121.667 202.052 121.672C205.847 121.743 208.763 125 209.516 128.547C210.378 132.626 208.181 136.666 205.256 139.371C201.621 142.724 196.74 144.284 192.013 145.339C189.769 145.838 187.498 146.367 185.18 146.239C183.308 146.135 181.476 145.671 179.769 144.888C176.819 143.534 173.957 141.1 172.743 138.025C172.472 137.346 171.459 137.847 171.723 138.527C172.898 141.494 175.539 143.913 178.292 145.413C180.03 146.357 181.921 146.996 183.882 147.263C186.276 147.588 188.585 147.224 190.934 146.737C196.138 145.661 201.573 144.118 205.653 140.545C208.86 137.735 211.297 133.546 210.761 129.156C210.224 124.766 206.713 120.642 202.14 120.553L202.564 121.433C205.091 117.445 204.809 112.308 202.837 108.153C201.819 106.008 200.279 103.982 198.132 102.873C195.985 101.763 193.557 101.669 191.523 102.833L192.331 103.236C191.789 99.7568 190.843 95.5085 187.108 94.1704C183.373 92.8322 179.705 95.1406 177.103 97.4252C171.404 102.422 166.635 110.177 168.379 118.009C169.245 121.907 171.6 125.418 175.254 127.169L175.19 126.131C171.069 128.718 170.108 134.195 171.732 138.538C171.984 139.221 173.003 138.718 172.751 138.036L172.736 138.026Z" fill="#000091"/>
<path d="M187.357 124.732L194.797 163.727C194.934 164.445 196.047 164.232 195.91 163.515L188.47 124.52C188.333 123.802 187.22 124.015 187.357 124.732Z" fill="#000091"/>
<path d="M183.872 129.71C185.643 130.295 187.331 131.082 188.912 132.075C189.531 132.463 190.166 131.528 189.547 131.14C187.887 130.098 186.112 129.257 184.252 128.644C183.561 128.417 183.181 129.483 183.872 129.71Z" fill="#000091"/>
<path d="M189.063 126.823C190.061 125.235 191.058 123.641 192.056 122.054C192.218 121.792 192.164 121.444 191.906 121.268C191.649 121.093 191.283 121.157 191.121 121.418C190.123 123.006 189.126 124.6 188.128 126.187C187.966 126.449 188.02 126.797 188.278 126.973C188.536 127.148 188.902 127.084 189.063 126.823Z" fill="#000091"/>
<path d="M190.589 139.69C189.356 139.175 188.129 138.653 186.896 138.138C186.624 138.024 186.261 138.202 186.173 138.481C186.078 138.788 186.223 139.081 186.516 139.204C187.749 139.719 188.976 140.241 190.209 140.756C190.481 140.87 190.844 140.692 190.932 140.413C191.027 140.106 190.881 139.813 190.589 139.69Z" fill="#000091"/>
<path d="M190.926 136.651C192.662 134.667 194.398 132.682 196.134 130.697C196.383 130.419 196.623 130.136 196.872 129.858C197.071 129.627 196.95 129.227 196.722 129.072C196.442 128.882 196.136 128.992 195.936 129.222C194.2 131.207 192.464 133.192 190.728 135.177C190.479 135.455 190.239 135.738 189.99 136.016C189.791 136.246 189.912 136.646 190.14 136.801C190.42 136.991 190.726 136.882 190.926 136.651Z" fill="#000091"/>
<path d="M217.339 153.792C217.339 153.792 211.152 153.178 208.055 152.865C207.591 152.819 207.106 152.764 206.727 152.49C205.601 151.66 206.037 149.341 204.669 149.057C202.463 151.772 197.746 152.178 195.482 149.515C193.218 146.851 194.929 141.814 198.41 141.515C196.819 140.531 195.12 139.419 194.477 137.664C193.84 135.902 195.025 133.445 196.884 133.616C195.85 130.916 194.798 128.06 195.28 125.212C195.762 122.364 198.401 119.669 201.239 120.23C201.208 118.493 201.393 116.605 202.555 115.307C203.711 114.009 206.143 113.789 207.042 115.277C207.518 113.975 208.039 112.607 209.107 111.724C210.176 110.84 211.97 110.671 212.843 111.754C213.422 112.471 213.483 113.561 214.206 114.128C215.05 114.788 216.264 114.364 217.263 113.994C219.202 113.271 221.388 112.803 223.319 113.556C225.245 114.31 226.629 116.693 225.673 118.535C226.575 116.979 229.128 117.158 230.282 118.54C231.443 119.921 231.469 121.941 231.053 123.687C231.98 122.671 233.765 122.958 234.735 123.94C235.698 124.922 236.034 126.351 236.23 127.711C236.503 129.582 236.327 131.948 234.6 132.707C237.329 133.34 239.223 136.414 238.557 139.137C237.897 141.858 234.798 143.718 232.09 143.03C233.531 143.967 234.271 145.863 233.839 147.529C233.413 149.193 231.848 150.498 230.135 150.62C228.883 150.711 227.586 150.228 226.379 150.586C224.863 151.036 224.037 152.623 222.902 153.724C221.766 154.825 217.903 155.273 217.328 153.8" fill="#0063CB"/>
<path d="M217.385 153.225C215.209 153.006 213.034 152.793 210.858 152.574L208.761 152.365C208.016 152.289 207.121 152.338 206.728 151.586C206.163 150.508 206.288 148.914 204.867 148.519C204.602 148.441 204.382 148.528 204.21 148.734C202.241 151.077 197.904 151.629 195.864 149.064C193.991 146.704 195.428 142.411 198.534 142.062C199.023 142.007 199.148 141.285 198.748 141.034C197.331 140.158 195.638 139.147 195.047 137.491C194.593 136.219 195.252 134.1 196.86 134.165C197.319 134.187 197.57 133.754 197.416 133.348C196.394 130.678 195.145 127.526 196.018 124.642C196.688 122.412 198.743 120.353 201.221 120.778C201.506 120.826 201.837 120.545 201.833 120.257C201.814 118.678 201.899 116.771 203.082 115.584C203.932 114.73 205.79 114.356 206.562 115.516C206.822 115.902 207.422 115.955 207.601 115.453C208.01 114.336 208.433 113.128 209.32 112.298C209.972 111.687 211.058 111.3 211.918 111.707C212.861 112.148 212.89 113.412 213.489 114.163C214.087 114.914 214.922 115.094 215.805 114.983C216.869 114.851 217.858 114.322 218.889 114.049C220 113.76 221.179 113.593 222.313 113.825C224.279 114.219 226.128 116.282 225.16 118.332C224.881 118.917 225.82 119.372 226.161 118.84C226.897 117.693 228.595 117.792 229.568 118.593C230.953 119.739 230.898 121.903 230.54 123.484C230.429 123.979 230.997 124.537 231.445 124.099C232.185 123.375 233.34 123.514 234.122 124.121C235.077 124.861 235.414 126.156 235.611 127.291C235.887 128.872 236.102 131.344 234.373 132.186C233.962 132.387 233.946 133.107 234.436 133.225C236.856 133.847 238.619 136.439 238.05 138.932C237.481 141.425 234.726 143.04 232.306 142.483C231.709 142.346 231.23 143.092 231.798 143.483C233.703 144.799 233.989 147.577 232.21 149.134C231.32 149.913 230.274 150.106 229.127 150.005C227.979 149.903 226.913 149.722 225.846 150.175C224.956 150.55 224.295 151.285 223.684 152.011C223.14 152.653 222.653 153.361 221.867 153.71C220.998 154.093 218.41 154.703 217.866 153.531C217.561 152.871 216.54 153.367 216.847 154.033C217.426 155.288 219.119 155.362 220.302 155.245C221.913 155.092 223.053 154.483 224.096 153.265C224.746 152.507 225.384 151.584 226.347 151.189C227.53 150.706 228.886 151.23 230.116 151.162C231.937 151.064 233.61 149.822 234.266 148.12C235.052 146.092 234.182 143.752 232.439 142.541L231.931 143.541C234.955 144.24 238.35 142.387 239.127 139.303C239.904 136.22 237.839 132.922 234.821 132.152L234.885 133.191C237.372 131.986 237.135 128.558 236.582 126.298C236.24 124.909 235.564 123.518 234.238 122.849C233.096 122.272 231.667 122.307 230.716 123.232L231.622 123.848C232.105 121.711 232.078 118.916 230.063 117.525C228.572 116.495 226.278 116.568 225.242 118.188L226.242 118.696C226.977 117.139 226.407 115.325 225.245 114.143C223.86 112.729 221.863 112.405 219.965 112.671C218.922 112.812 217.926 113.136 216.944 113.497C215.962 113.857 214.734 114.239 214.147 113.044C213.757 112.246 213.544 111.396 212.766 110.878C212.104 110.434 211.246 110.335 210.479 110.481C208.221 110.906 207.25 113.142 206.542 115.072L207.581 115.008C206.536 113.432 204.425 113.316 202.9 114.292C200.982 115.524 200.682 118.087 200.707 120.165L201.319 119.644C198.503 119.162 196.042 121.343 195.102 123.843C193.858 127.131 195.229 130.753 196.415 133.846L196.97 133.029C194.917 132.947 193.655 135.001 193.79 136.885C193.968 139.293 196.278 140.82 198.131 141.966L198.345 140.938C194.442 141.375 192.68 146.653 194.918 149.648C197.405 152.974 202.703 152.29 205.168 149.359L204.511 149.574C205.167 149.756 205.242 150.62 205.414 151.183C205.594 151.79 205.815 152.414 206.313 152.838C206.909 153.34 207.7 153.388 208.443 153.457L210.592 153.669C212.834 153.895 215.08 154.114 217.322 154.34C218.047 154.413 218.138 153.28 217.413 153.207L217.385 153.225Z" fill="#000091"/>
<path d="M212.403 123.387C213.501 131.093 214.869 138.766 216.21 146.432C217.551 154.098 218.929 161.756 220.319 169.412C220.607 170.985 220.893 172.552 221.18 174.125C221.317 174.843 222.424 174.631 222.293 173.913C221.472 169.442 220.665 164.976 219.856 160.503C218.32 151.945 216.801 143.384 215.358 134.808C214.709 130.939 214.066 127.063 213.51 123.176C213.404 122.453 212.291 122.665 212.397 123.389L212.403 123.387Z" fill="#000091"/>
<path d="M208.608 129.597C210.48 131.246 212.368 133.046 214.271 134.721C214.501 134.92 214.901 134.799 215.056 134.571C215.246 134.291 215.137 133.985 214.906 133.785C213.034 132.137 211.146 130.337 209.244 128.662C209.013 128.462 208.613 128.584 208.458 128.812C208.268 129.092 208.378 129.398 208.608 129.597Z" fill="#000091"/>
<path d="M216.47 143.19C218.112 138.833 219.749 134.477 221.391 130.119C221.652 129.435 220.579 129.056 220.325 129.739C218.683 134.097 217.046 138.453 215.404 142.81C215.144 143.495 216.216 143.873 216.47 143.19Z" fill="#000091"/>
<path d="M210.903 147.368C212.869 148.3 214.734 149.444 216.46 150.762C216.7 150.947 217.08 150.855 217.245 150.612C217.425 150.347 217.342 150.011 217.095 149.827C215.288 148.448 213.334 147.276 211.277 146.303C211.001 146.17 210.65 146.378 210.554 146.646C210.441 146.963 210.621 147.236 210.897 147.369L210.903 147.368Z" fill="#000091"/>
<path d="M159.33 114.147C155.659 115.501 152.783 118.831 151.969 122.659C151.154 126.487 152.438 130.696 155.246 133.422C155.798 133.964 156.45 134.526 156.508 135.297C156.546 135.834 156.283 136.339 156.042 136.821C154.199 140.531 153.578 144.835 154.293 148.915C154.68 151.11 155.542 153.381 157.378 154.64C159.215 155.904 162.182 155.633 163.194 153.645C164.054 156.275 165.146 159.175 167.632 160.38C169.271 161.176 171.215 161.055 172.994 160.639C182.214 158.508 188.707 148.265 186.704 139.014C186.097 136.201 183.677 133.023 180.995 134.047C182.949 131.527 183.519 127.996 182.453 124.995C181.386 121.988 178.72 119.606 175.615 118.884C175.032 118.752 174.405 118.654 173.953 118.266C173.44 117.832 173.256 117.136 173.027 116.507C171.969 113.613 169.203 111.411 166.144 111.033C163.086 110.655 159.864 112.11 158.133 114.657" fill="#4A9DF7"/>
<path d="M159.079 113.637C155.846 114.869 153.232 117.489 151.962 120.712C150.612 124.148 151.019 128.166 152.898 131.326C153.343 132.081 153.871 132.8 154.474 133.441C154.828 133.816 155.237 134.148 155.563 134.547C156.024 135.113 156.002 135.572 155.721 136.216C154.916 138.042 154.187 139.796 153.808 141.772C153.118 145.345 153.18 149.801 155.131 153.005C156.091 154.577 157.562 155.771 159.436 155.952C161.089 156.117 162.837 155.469 163.665 153.965L162.637 153.751C163.777 157.206 165.398 160.999 169.476 161.483C172.984 161.897 176.734 160.252 179.506 158.224C185.147 154.097 188.535 146.759 187.428 139.786C186.937 136.707 184.532 132.231 180.745 133.543L181.466 134.367C185.048 129.627 183.789 122.695 178.72 119.574C178.184 119.247 177.616 118.958 177.028 118.73C176.342 118.464 175.62 118.371 174.928 118.137C174.023 117.829 173.84 117.07 173.537 116.256C173.292 115.61 172.978 115.004 172.586 114.431C171.095 112.223 168.617 110.689 165.955 110.441C162.731 110.14 159.512 111.709 157.661 114.337C157.244 114.936 158.179 115.571 158.596 114.973C160.118 112.804 162.724 111.448 165.389 111.542C168.054 111.636 170.371 113.066 171.749 115.213C172.414 116.246 172.565 117.678 173.43 118.551C174.295 119.425 175.596 119.388 176.64 119.791C179.041 120.717 181.016 122.705 181.895 125.127C182.944 128.003 182.348 131.296 180.516 133.722C180.138 134.223 180.757 134.714 181.237 134.545C184.201 133.519 185.958 137.791 186.306 139.981C186.793 143.041 186.331 146.193 185.178 149.053C182.911 154.703 177.72 159.545 171.528 160.31C169.524 160.558 167.574 160.109 166.206 158.55C164.968 157.133 164.326 155.281 163.746 153.52C163.612 153.117 162.986 152.826 162.719 153.306C161.986 154.638 160.403 155.043 158.981 154.712C157.33 154.322 156.234 152.909 155.592 151.423C154.214 148.232 154.298 144.274 155.12 140.958C155.335 140.103 155.604 139.263 155.929 138.445C156.253 137.627 156.75 136.872 156.975 136.034C157.449 134.284 155.784 133.288 154.823 132.112C152.643 129.452 151.752 125.725 152.601 122.378C153.495 118.836 156.177 115.928 159.57 114.633C160.251 114.375 159.749 113.356 159.068 113.614L159.079 113.637Z" fill="#000091"/>
<path d="M169.065 139.842C171.045 151.097 173.349 162.296 175.681 173.477C175.886 174.45 176.089 175.418 176.294 176.391C176.444 177.106 177.557 176.894 177.408 176.179C175.546 167.395 173.757 158.591 172.062 149.775C171.418 146.398 170.774 143.022 170.184 139.629C170.06 138.909 168.946 139.121 169.071 139.841L169.065 139.842Z" fill="#000091"/>
<path d="M164.307 147.223C166.826 149.742 169.34 152.268 171.858 154.787C172.372 155.298 173.231 154.557 172.709 154.041C170.191 151.522 167.677 148.996 165.158 146.477C164.644 145.966 163.786 146.707 164.307 147.223Z" fill="#000091"/>
<path d="M171.461 145.986C173.258 142.81 175.198 139.71 177.272 136.706C177.689 136.101 176.747 135.466 176.337 136.07C174.264 139.08 172.323 142.175 170.526 145.35C170.166 145.983 171.102 146.625 171.461 145.986Z" fill="#000091"/>
<path d="M169.459 138.716C168.413 138.005 167.361 137.296 166.316 136.585C166.073 136.42 165.692 136.474 165.53 136.735C165.369 136.997 165.416 137.347 165.68 137.521C166.726 138.231 167.778 138.94 168.823 139.651C169.066 139.816 169.447 139.763 169.609 139.501C169.77 139.24 169.723 138.89 169.459 138.716Z" fill="#000091"/>
<path d="M170.234 139.318C170.674 137.631 171.115 135.945 171.55 134.26C171.628 133.963 171.51 133.646 171.207 133.537C170.939 133.441 170.562 133.583 170.484 133.88C170.043 135.566 169.602 137.253 169.168 138.938C169.09 139.235 169.208 139.552 169.511 139.661C169.779 139.757 170.156 139.615 170.234 139.318Z" fill="#000091"/>
<path d="M125.16 123.031C125.775 122.914 126.178 122.32 126.061 121.705C125.943 121.091 125.35 120.687 124.735 120.805C124.12 120.922 123.717 121.515 123.834 122.13C123.952 122.745 124.545 123.148 125.16 123.031Z" fill="#6B93F6"/>
<path d="M231.972 98.9151C232.587 98.7978 232.99 98.2044 232.873 97.5897C232.756 96.9749 232.162 96.5717 231.548 96.689C230.933 96.8063 230.53 97.3997 230.647 98.0144C230.764 98.6292 231.358 99.0324 231.972 98.9151Z" fill="#6B93F6"/>
<path d="M280.211 158.935C280.826 158.817 281.229 158.224 281.112 157.609C280.995 156.995 280.401 156.591 279.787 156.709C279.172 156.826 278.769 157.419 278.886 158.034C279.003 158.649 279.597 159.052 280.211 158.935Z" fill="#6B93F6"/>
<path d="M145.923 159.331C146.538 159.213 146.941 158.62 146.824 158.005C146.706 157.39 146.113 156.987 145.498 157.104C144.883 157.222 144.48 157.815 144.597 158.43C144.715 159.045 145.308 159.448 145.923 159.331Z" fill="#6B93F6"/>
<path d="M275.593 111.217C276.208 111.099 276.611 110.506 276.494 109.891C276.376 109.276 275.783 108.873 275.168 108.99C274.554 109.108 274.15 109.701 274.268 110.316C274.385 110.931 274.978 111.334 275.593 111.217Z" fill="#6B93F6"/>
<g style="mix-blend-mode:multiply" opacity="0.54">
<path d="M176.985 173.663L175.643 173.919C174.629 174.113 173.964 175.092 174.157 176.106L174.413 177.448C174.607 178.462 175.586 179.128 176.6 178.934L177.942 178.678C178.956 178.485 179.622 177.506 179.428 176.491L179.172 175.149C178.979 174.135 177.999 173.47 176.985 173.663Z" fill="#6B93F6"/>
</g>
<g style="mix-blend-mode:multiply" opacity="0.54">
<path d="M195.543 160.99L194.202 161.246C193.187 161.439 192.522 162.418 192.715 163.433L192.971 164.775C193.165 165.789 194.144 166.454 195.158 166.261L196.5 166.005C197.515 165.811 198.18 164.832 197.987 163.818L197.731 162.476C197.537 161.462 196.558 160.796 195.543 160.99Z" fill="#6B93F6"/>
</g>
<g style="mix-blend-mode:multiply" opacity="0.54">
<path d="M221.933 171.387L220.591 171.643C219.577 171.837 218.911 172.816 219.105 173.83L219.361 175.172C219.554 176.187 220.534 176.852 221.548 176.658L222.89 176.402C223.904 176.209 224.569 175.23 224.376 174.215L224.12 172.873C223.926 171.859 222.947 171.194 221.933 171.387Z" fill="#6B93F6"/>
</g>
<path d="M117.339 132.741L115.972 144.699C115.879 145.51 117.137 145.653 117.23 144.842L118.597 132.884C118.689 132.073 117.432 131.93 117.339 132.741Z" fill="#6B93F6"/>
<path d="M117.875 139.052C118.38 138.795 118.885 138.537 119.39 138.28C119.462 138.242 119.534 138.207 119.606 138.169C119.755 138.092 119.874 137.982 119.939 137.823C119.998 137.677 120 137.473 119.932 137.329C119.863 137.185 119.747 137.052 119.588 136.995C119.428 136.939 119.247 136.927 119.094 137.003C118.589 137.26 118.084 137.518 117.579 137.775C117.507 137.814 117.435 137.848 117.362 137.887C117.213 137.963 117.095 138.073 117.03 138.232C116.971 138.378 116.969 138.582 117.037 138.726C117.105 138.871 117.222 139.003 117.381 139.06C117.54 139.116 117.722 139.128 117.875 139.052Z" fill="#6B93F6"/>
<path d="M115.583 140.937L118.244 141.241C119.326 141.364 120.551 141.683 121.586 141.21C123.925 140.14 124.037 136.785 121.988 135.388L122.196 136.132C122.487 135.484 122.645 134.731 122.654 134.021C122.665 132.621 121.987 131.5 120.728 130.884L121.119 131.546C121.357 129.73 120.473 127.764 118.49 127.537C116.508 127.31 115.273 129.047 115.192 130.869L115.565 130.358C113.849 131.03 112.839 132.805 113.158 134.617L113.857 133.888C111.949 133.9 111.136 135.817 111.212 137.49C111.317 139.878 113.544 140.682 115.588 140.929C116.396 141.025 116.541 139.764 115.732 139.668C114.362 139.503 112.623 139.151 112.477 137.499C112.418 136.823 112.512 135.961 113.039 135.477C113.176 135.352 113.477 135.207 113.53 135.196C113.635 135.166 114.062 135.146 113.718 135.145C114.113 135.144 114.493 134.864 114.417 134.416C114.184 133.108 114.931 131.967 116.082 131.515C116.278 131.44 116.448 131.216 116.455 131.004C116.5 129.941 117.035 128.639 118.351 128.79C119.668 128.94 120 130.379 119.867 131.394C119.829 131.688 120.009 131.934 120.258 132.057C121.662 132.745 121.563 134.462 121.028 135.653C120.919 135.896 121.011 136.247 121.236 136.397C122.004 136.923 122.385 137.784 122.139 138.71C121.939 139.458 121.336 140.125 120.539 140.187C120.154 140.216 119.739 140.126 119.358 140.082L115.74 139.669C114.931 139.576 114.787 140.837 115.596 140.93L115.583 140.937Z" fill="#6B93F6"/>
<path d="M256.254 94.0731L261.582 104.865C261.944 105.597 263.079 105.037 262.717 104.305L257.389 93.5128C257.028 92.7806 255.893 93.3409 256.254 94.0731Z" fill="#6B93F6"/>
<path d="M260.123 99.0886C260.408 98.5987 260.693 98.1088 260.979 97.6189C261.018 97.5473 261.06 97.4795 261.1 97.4079C261.184 97.2628 261.224 97.1061 261.193 96.9376C261.163 96.7823 261.054 96.6096 260.919 96.5256C260.783 96.4415 260.613 96.3932 260.449 96.4319C260.285 96.4706 260.126 96.5585 260.038 96.7055C259.753 97.1953 259.468 97.6852 259.183 98.1751C259.143 98.2467 259.101 98.3146 259.061 98.3862C258.978 98.5313 258.937 98.688 258.969 98.8564C258.998 99.0117 259.107 99.1844 259.243 99.2685C259.378 99.3525 259.548 99.4008 259.712 99.3621C259.877 99.3234 260.036 99.2355 260.123 99.0886Z" fill="#6B93F6"/>
<path d="M259.217 101.914L261.62 100.728C262.596 100.246 263.798 99.8507 264.411 98.892C265.798 96.726 264.075 93.8449 261.596 93.7805L262.174 94.2927C262.067 93.5905 261.792 92.8722 261.415 92.2704C260.667 91.0878 259.489 90.5132 258.097 90.6768L258.785 91.0213C258.001 89.3657 256.193 88.1917 254.403 89.0751C252.614 89.9585 252.517 92.0871 253.436 93.6622L253.472 93.0309C252.394 94.5257 252.506 96.5648 253.756 97.915L253.949 96.9235C252.352 97.9669 252.706 100.019 253.677 101.384C255.058 103.335 257.365 102.805 259.217 101.904C259.949 101.548 259.387 100.41 258.655 100.766C257.415 101.37 255.762 102.016 254.744 100.706C254.329 100.171 253.941 99.3949 254.121 98.702C254.169 98.5227 254.344 98.2382 254.382 98.2006C254.454 98.1179 254.803 97.8704 254.513 98.0558C254.844 97.8404 255.012 97.399 254.706 97.0643C253.802 96.0906 253.811 94.7272 254.534 93.7238C254.657 93.5544 254.679 93.2747 254.571 93.0925C254.032 92.1739 253.777 90.7901 254.965 90.2037C256.153 89.6172 257.212 90.6467 257.65 91.5722C257.777 91.8396 258.062 91.9491 258.338 91.9168C259.89 91.7354 260.738 93.2325 260.933 94.5233C260.973 94.7864 261.24 95.032 261.51 95.0356C262.441 95.0621 263.228 95.5794 263.522 96.4907C263.759 97.2278 263.614 98.1156 262.978 98.5995C262.669 98.8321 262.272 98.981 261.928 99.1509L258.663 100.763C257.933 101.123 258.495 102.261 259.225 101.901L259.217 101.914Z" fill="#6B93F6"/>
<path d="M269.423 178.847L262.411 188.629C261.935 189.292 262.964 190.03 263.439 189.366L270.452 179.585C270.928 178.921 269.899 178.184 269.423 178.847Z" fill="#6B93F6"/>
<path d="M263.901 185.153L266.078 186.714C266.963 187.348 267.878 188.222 269.013 188.312C271.576 188.516 273.307 185.639 272.197 183.422L272.017 184.173C272.586 183.748 273.09 183.168 273.444 182.552C274.135 181.334 274.087 180.025 273.287 178.874L273.307 179.643C274.399 178.171 274.583 176.024 272.961 174.861C271.339 173.698 269.416 174.615 268.459 176.167L269.033 175.902C267.206 175.654 265.461 176.714 264.858 178.452L265.823 178.156C264.151 177.237 262.507 178.516 261.759 180.015C260.689 182.153 262.243 183.938 263.909 185.148C264.569 185.626 265.308 184.595 264.649 184.117C263.532 183.306 262.185 182.152 262.86 180.638C263.137 180.019 263.639 179.312 264.335 179.145C264.516 179.103 264.849 179.123 264.9 179.139C265.007 179.163 265.39 179.354 265.09 179.186C265.436 179.377 265.904 179.317 266.055 178.889C266.489 177.633 267.696 176.999 268.922 177.165C269.129 177.194 269.386 177.082 269.496 176.9C270.053 175.993 271.154 175.116 272.23 175.888C273.307 176.66 272.897 178.079 272.287 178.901C272.111 179.139 272.148 179.442 272.307 179.67C273.198 180.954 272.276 182.407 271.229 183.186C271.016 183.346 270.925 183.697 271.049 183.937C271.464 184.771 271.378 185.708 270.712 186.398C270.174 186.953 269.322 187.243 268.596 186.91C268.245 186.747 267.927 186.467 267.615 186.243L264.656 184.122C263.994 183.647 263.254 184.679 263.916 185.153L263.901 185.153Z" fill="#6B93F6"/>
</g>
<g filter="url(#filter2_d_1486_86684)">
<path d="M413.896 82.8505L221.607 56.4457C216.726 55.7755 212.226 59.1889 211.556 64.0698L195.718 179.408C195.048 184.289 198.461 188.789 203.342 189.46L395.631 215.864C400.512 216.535 405.012 213.121 405.682 208.24L421.52 92.9017C422.191 88.0208 418.777 83.5208 413.896 82.8505Z" fill="white"/>
<path d="M409.617 88.0816L224.831 62.7072C220.925 62.1708 217.323 64.9025 216.787 68.8086L201.979 176.644C201.443 180.55 204.175 184.152 208.081 184.688L392.867 210.062C396.773 210.599 400.374 207.867 400.911 203.961L415.718 96.1255C416.255 92.2194 413.523 88.618 409.617 88.0816Z" fill="#77EDA5"/>
<path d="M204.709 136.002C204.709 136.002 234.66 158.295 227.348 188.447" stroke="white" stroke-width="2.60885" stroke-linecap="round" stroke-linejoin="round" stroke-dasharray="5.22 5.22"/>
<path d="M414.946 92.653C414.946 92.653 379.015 102.805 359.573 78.6313" stroke="white" stroke-width="2.60885" stroke-linecap="round" stroke-linejoin="round" stroke-dasharray="5.22 5.22"/>
<path d="M393.838 112.218C393.479 114.596 391.706 116.589 389.324 117.088C386.943 117.587 384.439 116.525 383.162 114.437C381.886 112.349 382.093 109.684 383.589 107.811C385.085 105.939 387.657 105.167 389.929 105.93C392.571 106.82 394.178 109.462 393.838 112.211C393.727 113.118 395.13 113.31 395.242 112.404C395.606 109.429 394.156 106.523 391.52 105.081C388.883 103.639 385.445 104.063 383.237 106.117C381.03 108.171 380.289 111.438 381.476 114.225C382.662 117.012 385.483 118.734 388.48 118.605C391.919 118.461 394.737 115.754 395.243 112.392C395.38 111.489 393.977 111.296 393.84 112.199L393.838 112.218Z" fill="#5EC988"/>
<path d="M394.013 103.213L386.165 109.875L382.099 120.373L390.558 113.058L394.013 103.213Z" fill="#77EDA5"/>
<path d="M393.582 102.651C391.172 104.697 388.762 106.743 386.347 108.787C386.066 109.029 385.689 109.269 385.511 109.594C385.333 109.919 385.237 110.294 385.109 110.626L383.031 115.996C382.501 117.359 381.977 118.723 381.446 120.086C381.208 120.708 381.963 121.416 382.525 120.927C384.955 118.827 387.386 116.721 389.816 114.621C390.45 114.072 391.09 113.671 391.365 112.87L393.14 107.814C393.649 106.372 394.152 104.928 394.663 103.48C394.964 102.625 393.663 102.059 393.361 102.92C392.326 105.872 391.284 108.83 390.25 111.783C390.168 112.013 390.072 112.247 390.001 112.486C389.988 112.535 389.923 112.634 389.928 112.692C389.94 112.928 389.527 112.325 390.122 112.483C390.005 112.454 389.329 113.169 389.242 113.246L384.901 117.002C383.826 117.935 382.745 118.867 381.67 119.799L382.749 120.64C383.883 117.708 385.023 114.77 386.157 111.837C386.344 111.348 386.655 110.8 386.757 110.286C386.82 109.965 386.807 110.382 386.614 110.406C386.711 110.394 386.923 110.144 386.988 110.083L391.046 106.637C392.175 105.68 393.305 104.717 394.434 103.76C395.125 103.168 394.276 102.041 393.578 102.632L393.582 102.651Z" fill="#5EC988"/>
<path d="M385.923 110.572C387.091 111.418 388.258 112.265 389.432 113.112L389.94 113.481C390.241 113.7 390.707 113.682 390.935 113.363C391.154 113.063 391.135 112.603 390.817 112.369C389.65 111.522 388.483 110.675 387.309 109.828L386.801 109.459C386.5 109.24 386.034 109.259 385.806 109.577C385.587 109.877 385.606 110.338 385.923 110.572Z" fill="#5EC988"/>
<path d="M230.524 114.65C231.774 116.696 231.609 119.381 230.125 121.261C228.64 123.141 226.045 123.942 223.769 123.165C221.493 122.389 219.814 120.176 219.791 117.707C219.768 115.238 221.305 113.111 223.539 112.255C226.141 111.259 229.042 112.343 230.524 114.65C231.016 115.417 232.144 114.561 231.652 113.795C230.061 111.314 226.99 109.984 224.094 110.622C221.197 111.26 218.817 113.741 218.439 116.771C218.061 119.802 219.66 122.734 222.351 124.102C225.041 125.469 228.398 124.951 230.558 122.871C233.041 120.48 233.431 116.708 231.652 113.795C231.174 113.017 230.052 113.88 230.524 114.65Z" fill="#5EC988"/>
<path d="M224.303 107.2L222.548 117.342L226.161 128.005L227.963 116.967L224.303 107.2Z" fill="#77EDA5"/>
<path d="M223.598 107.103C223.062 110.22 222.52 113.335 221.984 116.451C221.917 116.843 221.802 117.221 221.894 117.615C221.979 117.97 222.134 118.321 222.251 118.668L224.101 124.126C224.571 125.512 225.036 126.898 225.506 128.284C225.741 128.977 226.755 128.767 226.865 128.109C227.383 124.939 227.901 121.763 228.419 118.593C228.556 117.735 228.762 117.071 228.449 116.246L226.571 111.229C226.037 109.796 225.497 108.362 224.963 106.928C224.641 106.077 223.334 106.616 223.655 107.473C224.752 110.407 225.849 113.341 226.953 116.27C227.041 116.504 227.117 116.737 227.213 116.966C227.423 117.472 227.141 116.931 227.269 116.879C227.169 116.916 227.1 117.929 227.08 118.028L226.155 123.696C225.924 125.101 225.7 126.506 225.469 127.911L226.827 127.735C225.819 124.756 224.812 121.771 223.798 118.791C223.627 118.278 223.496 117.701 223.264 117.218C223.111 116.899 223.363 117.327 223.263 117.409C223.328 117.354 223.333 116.993 223.35 116.919L224.254 111.673C224.505 110.214 224.757 108.749 225.015 107.291C225.17 106.391 223.767 106.199 223.611 107.099L223.598 107.103Z" fill="#5EC988"/>
<path d="M222.886 118.024C224.33 117.924 225.773 117.823 227.211 117.722C227.416 117.706 227.621 117.696 227.827 117.679C228.211 117.656 228.483 117.248 228.437 116.886C228.385 116.485 228.023 116.251 227.644 116.275C226.201 116.376 224.757 116.476 223.32 116.578C223.114 116.594 222.91 116.604 222.704 116.62C222.32 116.644 222.048 117.051 222.093 117.413C222.146 117.814 222.508 118.048 222.886 118.024Z" fill="#5EC988"/>
<path d="M289.655 94.6725C265.608 103.133 244.553 122.855 249.814 150.11C256.045 182.356 290.14 189.291 314.789 180.5C336.429 172.788 351.422 154.385 357.425 140.822C364.211 125.487 364.468 107.37 351.17 96.3379C334.996 82.9144 307.904 88.2458 289.655 94.6725Z" fill="#5EC988"/>
<path d="M301.218 162.34L316.07 163.479L339.417 157.002L360.306 157.766L357.926 118.296L336.537 118.29L316.265 123.634L298.288 121.165L287.817 126.46" fill="#77EDA5"/>
<path d="M301.143 162.886C305.51 163.22 309.876 163.554 314.243 163.888C314.811 163.929 315.413 164.037 315.983 164.022C316.318 164.013 316.656 163.887 316.971 163.794L322.687 162.209L337.834 158.007C338.379 157.86 338.945 157.74 339.476 157.554C339.788 157.442 339.42 157.608 339.373 157.546C339.409 157.594 339.765 157.562 339.827 157.565C341.81 157.64 343.8 157.709 345.783 157.784C350.505 157.957 355.218 158.148 359.942 158.303C360.041 158.304 360.138 158.311 360.237 158.312C360.612 158.327 360.88 158.08 360.859 157.694C360.588 153.239 360.324 148.784 360.053 144.328C359.63 137.253 359.2 130.184 358.777 123.109C358.679 121.479 358.582 119.855 358.485 118.224C358.467 117.901 358.142 117.752 357.865 117.751C352.632 117.748 347.393 117.744 342.16 117.742L338.149 117.74C337.612 117.74 337.017 117.671 336.483 117.74C336.018 117.799 335.536 117.986 335.087 118.109L331.309 119.103C328.018 119.971 324.728 120.834 321.437 121.703L317.678 122.692L316.57 122.985C316.462 123.013 316.026 123.083 316.341 123.083C315.693 123.08 315.002 122.899 314.36 122.811L310.036 122.217C306.844 121.778 303.652 121.34 300.46 120.902C299.787 120.81 299.072 120.625 298.394 120.618C297.716 120.612 296.96 121.223 296.402 121.505C293.677 122.883 290.951 124.262 288.226 125.64L287.616 125.945C286.986 126.26 287.401 127.285 288.038 126.959C290.293 125.819 292.554 124.679 294.81 123.532L298.198 121.819C298.232 121.799 298.478 121.716 298.484 121.673C298.484 121.673 298.134 121.613 298.295 121.703C298.49 121.81 298.888 121.785 299.106 121.814L315.793 124.106C316.15 124.155 316.386 124.144 316.738 124.057L319.568 123.31C322.776 122.467 325.977 121.623 329.185 120.779L336.311 118.901C336.606 118.824 336.829 118.818 337.136 118.823L340.129 118.826C345.954 118.83 351.779 118.834 357.605 118.832L358 118.831L357.38 118.357C357.651 122.812 357.915 127.267 358.186 131.723C358.609 138.798 359.039 145.867 359.463 152.942C359.56 154.572 359.657 156.196 359.755 157.826L360.376 157.208C356.262 157.057 352.155 156.906 348.041 156.755C345.658 156.668 343.27 156.581 340.887 156.495C340.058 156.467 339.39 156.431 338.595 156.649C333.962 157.938 329.324 159.22 324.692 160.51L317.744 162.438C317.185 162.595 316.612 162.726 316.063 162.904C315.688 163.025 316.088 162.852 316.135 162.92C316.099 162.866 315.658 162.886 315.597 162.877C310.962 162.525 306.333 162.167 301.698 161.814L301.295 161.783C300.592 161.73 300.437 162.819 301.145 162.874L301.143 162.886Z" fill="#000091"/>
<path d="M331.091 119.708C332.018 121.181 329.436 123.042 329.462 124.779C329.482 125.985 330.806 127.222 330.087 128.185C329.86 128.493 329.475 128.644 329.166 128.873C327.093 130.397 329.104 133.95 327.846 136.19C326.744 138.149 323.93 138.016 321.719 137.62C319.401 137.203 317.081 136.792 314.763 136.374C312.564 135.98 310.16 135.471 308.784 133.714C308.506 133.355 308.277 132.954 307.936 132.654C306.295 131.17 303.373 132.805 301.575 131.521C300.164 130.513 300.328 128.425 300.502 126.702C300.683 124.981 300.401 121.955 298.76 121.415L316.265 123.634L331.091 119.708Z" fill="white"/>
<path d="M330.581 119.916C330.981 120.644 330.41 121.429 330.029 122.049C329.608 122.732 329.143 123.421 328.973 124.212C328.802 125.004 329.099 125.766 329.423 126.508C329.577 126.869 329.862 127.352 329.697 127.743C329.529 128.164 328.83 128.395 328.508 128.721C326.13 131.116 329.78 136.487 325.223 137.231C323.146 137.569 320.926 136.925 318.897 136.56C316.554 136.139 314.036 135.917 311.791 135.096C310.81 134.733 309.881 134.217 309.218 133.385C308.628 132.65 308.174 131.952 307.236 131.644C305.565 131.094 303.296 132.159 301.833 131.032C300.244 129.802 301.142 127.037 301.091 125.339C301.043 123.759 300.667 121.547 298.978 120.908L298.685 121.96C303.471 122.568 308.263 123.177 313.049 123.778C314.226 123.928 315.628 124.367 316.8 124.053C319.311 123.386 321.827 122.725 324.338 122.058C326.611 121.457 328.884 120.856 331.164 120.255C331.836 120.076 331.703 118.984 331.018 119.161C326.426 120.376 321.829 121.59 317.236 122.811C316.942 122.887 316.627 122.937 316.346 123.046C316.066 123.156 316.45 123.098 316.231 123.074C315.502 122.992 314.769 122.891 314.041 122.798L305.198 121.676C303.075 121.409 300.952 121.136 298.835 120.87C298.235 120.794 297.951 121.693 298.542 121.922C300.096 122.518 300.079 125.2 299.967 126.555C299.819 128.269 299.551 130.398 300.938 131.712C302.488 133.183 304.617 132.285 306.476 132.595C307.634 132.785 307.991 133.741 308.737 134.504C309.484 135.267 310.455 135.795 311.46 136.156C313.78 136.974 316.33 137.232 318.745 137.662C320.86 138.039 323.112 138.669 325.273 138.349C327.036 138.091 328.428 137.029 328.757 135.223C328.922 134.332 328.828 133.4 328.766 132.503C328.704 131.606 328.572 130.588 329.05 129.808C329.605 128.909 330.822 128.811 330.84 127.554C330.861 126.508 329.922 125.657 330.015 124.621C330.169 122.871 332.636 121.401 331.594 119.506C331.258 118.892 330.233 119.307 330.579 119.928L330.581 119.916Z" fill="#000091"/>
<path d="M327.128 160.832C327.103 158.99 327.641 155.392 329.38 154.773C331.118 154.154 333.014 154.235 334.861 154.18C335.338 154.165 335.882 154.11 336.164 153.723C336.475 153.303 336.308 152.719 336.275 152.196C336.168 150.725 337.162 149.423 338.151 148.331C339.365 146.992 341.91 147.699 343.722 147.714C344.449 147.721 345.158 147.954 345.848 148.184C348.467 149.063 351.087 149.941 353.706 150.819C354.585 151.112 355.598 151.56 355.757 152.47C355.937 153.495 355.012 154.88 355.915 155.405C356.161 155.55 356.47 155.543 356.756 155.533C357.823 155.488 358.891 155.443 359.952 155.398L360.307 157.754L339.424 156.991L327.136 160.821L327.128 160.832Z" fill="white"/>
<path d="M327.675 160.759C327.667 159.603 327.827 158.391 328.182 157.292C328.352 156.772 328.562 156.233 328.911 155.806C329.357 155.25 330.042 155.116 330.72 154.987C331.499 154.841 332.289 154.795 333.077 154.768C333.864 154.74 334.76 154.826 335.553 154.663C336.093 154.552 336.573 154.248 336.781 153.721C337.103 152.907 336.677 152.01 336.935 151.163C337.364 149.747 338.553 148.231 340.085 148.09C340.747 148.027 341.417 148.094 342.075 148.153C342.77 148.218 343.494 148.206 344.183 148.307C345.062 148.428 345.913 148.791 346.75 149.073C347.688 149.387 348.62 149.7 349.559 150.014C350.402 150.297 351.24 150.578 352.084 150.861C352.856 151.121 353.712 151.319 354.434 151.72C356.057 152.616 354.41 154.142 355.16 155.418C355.516 156.022 356.178 156.101 356.822 156.084C357.887 156.058 358.957 155.995 360.018 155.949L359.398 155.475C359.519 156.263 359.633 157.044 359.754 157.832L360.375 157.214C355.513 157.034 350.643 156.859 345.78 156.679C343.736 156.601 341.678 156.442 339.634 156.452C339.17 156.456 338.752 156.627 338.307 156.763L334.497 157.949C331.97 158.738 329.443 159.526 326.915 160.315C326.238 160.524 326.661 161.539 327.337 161.329C329.458 160.67 331.58 160.005 333.701 159.346L337.892 158.039L339.239 157.619C339.33 157.589 339.462 157.57 339.548 157.526C339.729 157.421 339.386 157.584 339.361 157.537C339.452 157.686 340.866 157.59 341.031 157.6L344.666 157.735C347.847 157.851 351.034 157.968 354.214 158.084C356.216 158.155 358.218 158.232 360.226 158.304C360.57 158.315 360.906 158.071 360.847 157.686C360.727 156.898 360.612 156.117 360.492 155.329C360.443 155.014 360.177 154.842 359.872 154.855C358.904 154.895 357.934 154.947 356.962 154.974C356.54 154.99 356.065 155.079 356.058 154.548C356.051 154.189 356.19 153.807 356.251 153.457C356.484 152.113 355.89 151.186 354.673 150.612C352.94 149.793 350.962 149.324 349.138 148.716C347.427 148.142 345.598 147.261 343.785 147.166C342.454 147.101 341.072 146.831 339.745 147.013C338.255 147.209 337.339 148.219 336.561 149.439C336.144 150.091 335.803 150.822 335.727 151.602C335.69 152.004 335.754 152.395 335.779 152.794C335.821 153.478 335.367 153.595 334.783 153.626C332.974 153.717 331.163 153.604 329.413 154.172C326.907 154.982 326.564 158.693 326.576 160.898C326.578 161.602 327.672 161.455 327.67 160.752L327.675 160.759Z" fill="#000091"/>
<path d="M358.971 141.6C355.964 140.539 352.142 140.323 349.234 141.639C347.865 142.26 346.404 143.145 344.972 142.702C343.634 142.289 342.868 140.857 341.623 140.217C339.692 139.224 337.23 140.392 335.211 139.584C334.422 139.266 333.718 138.552 333.724 137.701C333.725 137.374 333.836 137.062 333.957 136.764C335.072 134.128 337.628 132.455 339.819 130.614C343.886 127.198 346.534 122.607 349.594 118.257L357.926 118.29L358.972 141.594L358.971 141.6Z" fill="white"/>
<path d="M359.189 141.093C356.172 140.056 352.725 139.767 349.679 140.867C348.089 141.439 346.226 142.96 344.533 141.895C343.284 141.106 342.548 139.814 341.035 139.421C339.402 138.993 337.726 139.559 336.088 139.266C335.341 139.133 334.395 138.701 334.278 137.845C334.16 136.99 334.979 135.93 335.466 135.299C336.471 134.006 337.764 132.992 339.033 131.975C340.406 130.874 341.708 129.708 342.887 128.401C345.595 125.397 347.709 121.917 350.02 118.611L349.51 118.819C352.286 118.83 355.067 118.842 357.843 118.853L357.371 118.38C357.675 125.198 357.985 132.017 358.29 138.834C358.332 139.784 358.374 140.734 358.417 141.684C358.449 142.392 359.537 142.246 359.51 141.538C359.206 134.721 358.896 127.902 358.592 121.084C358.549 120.134 358.507 119.184 358.465 118.234C358.457 118.024 358.215 117.762 357.993 117.762C355.686 117.754 353.386 117.741 351.079 117.732C350.653 117.73 350.235 117.721 349.809 117.725C349.054 117.738 348.791 118.443 348.397 119.018C346.907 121.195 345.473 123.412 343.859 125.504C342.245 127.597 340.43 129.44 338.363 131.1C336.539 132.565 334.628 134.08 333.592 136.233C333.133 137.194 332.97 138.202 333.655 139.099C334.34 139.995 335.368 140.328 336.406 140.415C337.662 140.519 338.929 140.237 340.181 140.378C341.433 140.519 342.235 141.376 343.158 142.206C344.08 143.036 345.191 143.534 346.475 143.303C347.76 143.072 348.942 142.278 350.2 141.84C352.928 140.894 356.055 141.175 358.742 142.099C359.408 142.327 359.849 141.32 359.178 141.085L359.189 141.093Z" fill="#000091"/>
<path d="M315.719 123.7C315.969 128.128 316.219 132.556 316.468 136.984C316.863 144.043 317.264 151.096 317.659 158.155C317.752 159.772 317.844 161.389 317.93 163.012C317.969 163.72 319.063 163.568 319.024 162.866C318.774 158.437 318.524 154.009 318.275 149.581C317.88 142.523 317.479 135.469 317.084 128.411C316.991 126.794 316.899 125.176 316.813 123.554C316.775 122.845 315.68 122.997 315.719 123.7Z" fill="#000091"/>
<path d="M335.99 118.363C336.315 122.74 336.64 127.117 336.97 131.494C337.483 138.415 338.001 145.336 338.512 152.262C338.632 153.865 338.75 155.473 338.87 157.075C338.921 157.78 340.015 157.634 339.964 156.929C339.639 152.553 339.314 148.176 338.983 143.798C338.471 136.878 337.953 129.957 337.441 123.03C337.322 121.428 337.203 119.82 337.084 118.217C337.033 117.513 335.939 117.659 335.99 118.363Z" fill="#000091"/>
<path d="M286.169 110.059C285.968 109.766 285.776 109.462 285.604 109.142C284.878 107.82 283.899 106.816 283.049 105.588C282.416 104.674 281.652 103.897 280.979 103.002C279.554 101.109 276.472 100.143 274.144 101.095C273.09 101.536 271.904 104.687 271.378 105.602C269.429 108.963 267.525 112.355 265.622 115.741C263.522 119.489 261.426 123.243 259.348 127.006C257.994 129.455 255.864 132.205 255.02 134.885C254.493 136.571 254.742 137.315 256.73 138.298C259.821 139.833 262.984 141.378 266.401 141.841C269.892 142.308 271.759 140.664 274.845 139.989C276.079 139.72 276.811 140.278 278.037 140.384C279.749 140.539 280.827 139.928 282.254 139.063C284.898 137.469 286.366 135.813 287.609 132.917C288.482 130.877 289.223 128.714 289.837 126.577C290.768 123.304 290.754 118.6 289.604 115.288C288.882 113.221 287.357 111.789 286.181 110.06L286.169 110.059Z" fill="#5EC988"/>
<path d="M272.323 103.887C272.172 104.175 272.033 104.471 271.904 104.78C271.783 105.072 271.654 105.344 271.492 105.618C271.331 105.892 271.177 106.161 271.027 106.449C270.868 106.748 270.693 107.039 270.54 107.339C270.405 107.604 270.177 107.919 270.112 108.212C270.637 107.938 271.064 107.528 271.572 107.24C272.476 106.722 272.945 108.163 273.333 108.71C273.875 109.482 274.11 110.421 274.611 111.218C274.799 111.515 274.978 112.101 275.391 112.103C275.773 112.106 276.149 111.571 276.266 111.254C276.326 111.089 276.331 110.961 276.45 110.816C276.606 110.622 276.806 110.47 276.957 110.269C277.131 110.034 277.303 109.817 277.437 109.557C277.556 109.327 277.687 109.086 277.829 108.864C277.97 108.643 278.141 108.481 278.291 108.286C278.514 108.008 278.699 107.472 279.107 107.423C279.571 107.369 280.057 107.646 280.447 107.866C280.921 108.141 281.347 108.502 281.853 108.726C282.214 108.88 282.782 109.15 283.153 108.923C283.503 108.712 283.596 108.348 283.784 108.01C283.947 107.724 284.303 107.421 284.156 107.055C284.015 106.69 283.564 106.332 283.337 106.004C282.634 105.013 281.757 104.214 280.983 103.287C280.569 102.798 280.219 102.244 279.819 101.745C278.922 100.634 278.016 99.4544 276.971 98.4839C276.39 97.9475 276.217 97.9052 275.085 99.5023C274.349 100.543 273.664 101.628 272.996 102.715C272.758 103.101 272.532 103.484 272.33 103.882L272.323 103.887Z" fill="white"/>
<path d="M286.604 109.724C284.183 106.547 281.811 103.327 279.243 100.271C278.644 99.5594 278.04 98.8347 277.399 98.1543C276.968 97.7001 276.388 97.3366 275.781 97.716C275.342 97.989 275.043 98.5899 274.774 99.0219C273.073 101.707 271.506 104.485 269.924 107.242C265.543 114.879 261.259 122.573 256.98 130.273C255.938 132.154 254.89 134.034 253.854 135.916C253.731 136.14 253.854 136.416 254.018 136.568C255.23 137.673 256.668 138.574 258.087 139.38C261.301 141.191 264.873 142.366 268.547 142.71C269.247 142.776 269.403 141.686 268.696 141.62C263.724 141.159 258.427 139.111 254.692 135.704L254.855 136.356C257.509 131.549 260.179 126.751 262.862 121.954C266.779 114.956 270.646 107.916 274.798 101.049C275.109 100.537 275.427 100.019 275.75 99.5138C275.866 99.3385 275.978 99.1563 276.1 98.9879C276.323 98.6668 276.385 98.7495 276.694 99.0201C277.079 99.363 277.41 99.8281 277.745 100.22C280.554 103.487 283.106 106.973 285.721 110.399C286.149 110.964 287.03 110.301 286.596 109.735L286.604 109.724Z" fill="#000091"/>
<path d="M283.611 107.203C283.434 107.505 283.278 108.144 283.013 108.367C282.784 108.558 282.519 108.324 282.267 108.184C281.557 107.785 280.851 107.354 280.097 107.047C279.39 106.759 278.808 106.722 278.245 107.317C277.762 107.825 277.444 108.522 277.062 109.105C276.601 109.807 276.123 110.507 275.573 111.141C275.485 111.24 275.354 111.339 275.283 111.453C275.268 111.475 275.154 111.54 275.151 111.558C275.283 111.545 275.416 111.563 275.543 111.624C275.565 111.602 275.552 111.693 275.493 111.543C275.462 111.453 275.371 111.354 275.321 111.267C274.597 110.025 274.046 108.685 273.228 107.499C272.925 107.056 272.562 106.593 271.981 106.599C271.005 106.607 270.209 107.461 269.542 108.054C269.015 108.518 269.678 109.399 270.205 108.929C270.585 108.592 270.964 108.212 271.396 107.938C271.532 107.852 271.668 107.803 271.813 107.736C271.911 107.694 272.096 107.744 271.939 107.673C272.357 107.866 272.692 108.703 272.9 109.077C273.282 109.758 273.636 110.461 274.003 111.154C274.23 111.573 274.446 112.158 274.829 112.47C275.821 113.285 277.155 110.901 277.571 110.298C277.987 109.695 278.317 109.129 278.689 108.539C278.886 108.226 279.045 107.921 279.408 107.971C279.808 108.026 280.276 108.349 280.626 108.539C281.293 108.896 282.174 109.628 282.97 109.583C283.941 109.525 284.207 108.346 284.611 107.655C284.966 107.043 283.952 106.614 283.597 107.219L283.611 107.203Z" fill="#000091"/>
<path d="M330.276 160.289C330.276 160.289 303.412 101.738 299.08 95.6695C298.826 95.3138 298.498 94.9169 298.058 94.9306C297.692 94.9421 297.399 95.2351 297.158 95.5105C291.493 101.885 256.294 150.864 256.294 150.864C256.294 150.864 285.944 172.227 330.27 160.288" fill="#77EDA5"/>
<path d="M290.735 103.318C290.448 103.748 290.171 104.191 289.909 104.655C289.664 105.096 289.405 105.499 289.103 105.902C288.8 106.305 288.499 106.701 288.207 107.124C287.899 107.569 287.564 107.986 287.267 108.439C287.003 108.835 286.582 109.289 286.428 109.737C287.307 109.407 288.064 108.839 288.916 108.474C290.442 107.832 290.915 110.187 291.415 111.125C292.123 112.445 292.321 113.971 292.968 115.325C293.207 115.827 293.384 116.789 294.033 116.872C294.638 116.956 295.332 116.174 295.577 115.696C295.703 115.448 295.738 115.243 295.951 115.038C296.236 114.762 296.579 114.556 296.852 114.273C297.176 113.935 297.484 113.625 297.747 113.235C297.98 112.891 298.238 112.538 298.498 112.215C298.759 111.893 299.061 111.669 299.339 111.393C299.746 110.992 300.134 110.188 300.789 110.185C301.554 110.185 301.684 110.678 302.147 111.174C302.528 111.584 302.839 112.065 303.139 112.532C303.388 112.918 303.636 113.316 303.88 113.695C304.099 114.034 304.271 114.353 304.678 114.49C305.144 114.646 305.517 114.537 305.941 114.324C306.478 114.058 306.994 113.987 307.328 113.44C307.527 113.11 307.843 112.388 307.783 112.015C307.746 111.788 307.583 111.537 307.475 111.337C307.225 110.865 306.922 110.459 306.611 110.028C305.975 109.138 305.679 108.19 305.28 107.185C304.877 106.167 304.448 105.152 304.021 104.13C303.533 102.965 302.763 101.921 302.252 100.746C301.83 99.769 301.413 98.7674 300.765 97.9132C300.478 97.5283 300.036 97.2393 299.782 96.8464C299.527 96.4535 299.393 96.0401 299.08 95.6639C298.267 94.7069 297.997 94.608 295.916 96.9141C294.554 98.4242 293.275 100.007 292.008 101.598C291.553 102.165 291.13 102.731 290.735 103.318Z" fill="white"/>
<path d="M330.78 160.074C329.912 158.178 329.037 156.28 328.161 154.389C326.015 149.744 323.863 145.104 321.698 140.468C318.98 134.646 316.248 128.834 313.49 123.031C310.904 117.597 308.304 112.173 305.632 106.783C303.896 103.286 302.192 99.7442 300.191 96.3838C299.871 95.84 299.53 95.2193 299.058 94.7964C297.92 93.7763 296.934 94.8936 296.203 95.7683C295.162 97.0077 294.178 98.2858 293.188 99.5691C289.921 103.811 286.731 108.118 283.554 112.428C279.657 117.706 275.788 123.006 271.924 128.314C268.494 133.026 265.075 137.747 261.661 142.474C259.81 145.034 257.965 147.595 256.119 150.162C256.035 150.28 255.951 150.398 255.867 150.516C255.691 150.757 255.719 151.094 255.958 151.287C256.959 152.085 258.06 152.786 259.153 153.46C262.105 155.285 265.202 156.864 268.39 158.228C279.227 162.857 291.039 165.01 302.806 164.934C312.181 164.877 321.485 163.365 330.484 160.793C331.165 160.596 330.737 159.581 330.062 159.778C315.565 163.922 300.212 165.127 285.363 162.261C276.693 160.59 268.146 157.583 260.549 153.041C259.209 152.24 257.861 151.407 256.637 150.43L256.729 151.202C257.995 149.444 259.26 147.686 260.526 145.929C263.598 141.666 266.683 137.406 269.766 133.158C273.555 127.939 277.351 122.727 281.168 117.531C284.622 112.827 288.087 108.132 291.602 103.474C292.863 101.802 294.134 100.137 295.428 98.4883C295.884 97.9091 296.346 97.3307 296.819 96.7601C296.997 96.5438 297.175 96.3276 297.358 96.1182C297.431 96.0357 297.498 95.9523 297.571 95.8698C298.043 95.3545 298.39 95.6552 298.71 96.1126C300.529 98.7321 301.892 101.795 303.332 104.659C305.882 109.724 308.341 114.825 310.786 119.938C313.547 125.717 316.283 131.504 318.997 137.308C321.321 142.274 323.637 147.245 325.94 152.227C327.163 154.869 328.38 157.511 329.597 160.153C329.655 160.272 329.706 160.39 329.764 160.509C330.059 161.148 331.079 160.733 330.779 160.087L330.78 160.074Z" fill="#000091"/>
<path d="M307.127 112.209C306.828 112.859 306.259 113.855 305.508 114.017C305 114.126 304.699 113.758 304.427 113.399C304.009 112.848 303.632 112.266 303.229 111.698C302.707 110.96 301.892 109.522 300.84 109.544C299.596 109.57 298.783 111.045 298.097 111.901C297.235 112.967 296.333 114.01 295.371 114.995C294.984 115.386 294.587 115.806 294.124 116.119C294.043 116.17 293.845 116.309 293.835 116.29C293.993 116.533 294.168 116.341 294.157 116.377C294.159 116.359 294.075 116.248 294.072 116.229C293.789 115.321 293.315 114.416 292.975 113.524C292.52 112.338 292.08 111.142 291.54 109.995C291.205 109.288 290.732 108.057 289.849 107.886C288.34 107.593 286.825 108.921 285.7 109.699C285.114 110.099 285.783 110.975 286.363 110.573C287.079 110.079 287.8 109.506 288.606 109.16C288.842 109.056 289.08 108.99 289.342 108.971C289.417 108.962 289.651 108.964 289.628 108.954C289.616 108.953 289.616 108.953 289.667 108.984C290.352 109.523 290.705 110.775 291.019 111.54C291.506 112.711 291.941 113.907 292.401 115.093C292.642 115.718 292.892 116.777 293.449 117.218C294.133 117.762 295.06 116.809 295.526 116.38C296.566 115.412 297.51 114.338 298.418 113.253C298.867 112.722 300.236 110.485 300.915 110.659C301.327 110.764 301.778 111.567 302.013 111.877C302.43 112.44 302.818 113.024 303.221 113.598C303.934 114.609 304.887 115.573 306.213 114.91C307.1 114.47 307.743 113.515 308.142 112.638C308.434 111.993 307.426 111.559 307.128 112.203L307.127 112.209Z" fill="#000091"/>
<path d="M234.602 83.6095C235.222 83.6946 235.794 83.261 235.879 82.641C235.964 82.021 235.53 81.4494 234.91 81.3642C234.29 81.2791 233.719 81.7127 233.633 82.3327C233.548 82.9527 233.982 83.5243 234.602 83.6095Z" fill="#5EC988"/>
<path d="M238.123 144.399C238.743 144.484 239.314 144.05 239.399 143.43C239.485 142.81 239.051 142.239 238.431 142.154C237.811 142.069 237.239 142.502 237.154 143.122C237.069 143.742 237.503 144.314 238.123 144.399Z" fill="#5EC988"/>
<path d="M213.611 171.412C214.231 171.497 214.803 171.063 214.888 170.443C214.973 169.823 214.54 169.252 213.92 169.167C213.299 169.082 212.728 169.515 212.643 170.135C212.558 170.755 212.991 171.327 213.611 171.412Z" fill="#5EC988"/>
<path d="M373.123 167.399C373.743 167.484 374.314 167.05 374.399 166.43C374.485 165.81 374.051 165.239 373.431 165.154C372.811 165.069 372.239 165.502 372.154 166.122C372.069 166.742 372.503 167.314 373.123 167.399Z" fill="#5EC988"/>
<path d="M399.215 130.857C399.835 130.942 400.407 130.508 400.492 129.888C400.577 129.268 400.143 128.697 399.523 128.612C398.903 128.526 398.332 128.96 398.246 129.58C398.161 130.2 398.595 130.772 399.215 130.857Z" fill="#5EC988"/>
<path d="M299.123 81.3989C299.743 81.4841 300.314 81.0505 300.399 80.4305C300.485 79.8105 300.051 79.2388 299.431 79.1537C298.811 79.0685 298.239 79.5021 298.154 80.1222C298.069 80.7422 298.503 81.3138 299.123 81.3989Z" fill="#5EC988"/>
</g>
<defs>
<filter id="filter0_d_1486_86684" x="-0.00137472" y="0.0972018" width="255.451" height="212.876" filterUnits="userSpaceOnUse" color-interpolation-filters="sRGB">
<feFlood flood-opacity="0" result="BackgroundImageFix"/>
<feColorMatrix in="SourceAlpha" type="matrix" values="0 0 0 0 0 0 0 0 0 0 0 0 0 0 0 0 0 0 127 0" result="hardAlpha"/>
<feOffset dy="4.34809"/>
<feGaussianBlur stdDeviation="3.47847"/>
<feComposite in2="hardAlpha" operator="out"/>
<feColorMatrix type="matrix" values="0 0 0 0 0 0 0 0 0 0 0 0 0 0 0 0 0 0 0.15 0"/>
<feBlend mode="normal" in2="BackgroundImageFix" result="effect1_dropShadow_1486_86684"/>
<feBlend mode="normal" in="SourceGraphic" in2="effect1_dropShadow_1486_86684" result="shape"/>
</filter>
<filter id="filter1_d_1486_86684" x="78.7779" y="64.5944" width="244.232" height="182.492" filterUnits="userSpaceOnUse" color-interpolation-filters="sRGB">
<feFlood flood-opacity="0" result="BackgroundImageFix"/>
<feColorMatrix in="SourceAlpha" type="matrix" values="0 0 0 0 0 0 0 0 0 0 0 0 0 0 0 0 0 0 127 0" result="hardAlpha"/>
<feOffset dy="4.34809"/>
<feGaussianBlur stdDeviation="3.47847"/>
<feComposite in2="hardAlpha" operator="out"/>
<feColorMatrix type="matrix" values="0 0 0 0 0 0 0 0 0 0 0 0 0 0 0 0 0 0 0.15 0"/>
<feBlend mode="normal" in2="BackgroundImageFix" result="effect1_dropShadow_1486_86684"/>
<feBlend mode="normal" in="SourceGraphic" in2="effect1_dropShadow_1486_86684" result="shape"/>
</filter>
<filter id="filter2_d_1486_86684" x="188.677" y="53.7529" width="239.884" height="173.501" filterUnits="userSpaceOnUse" color-interpolation-filters="sRGB">
<feFlood flood-opacity="0" result="BackgroundImageFix"/>
<feColorMatrix in="SourceAlpha" type="matrix" values="0 0 0 0 0 0 0 0 0 0 0 0 0 0 0 0 0 0 127 0" result="hardAlpha"/>
<feOffset dy="4.34809"/>
<feGaussianBlur stdDeviation="3.47847"/>
<feComposite in2="hardAlpha" operator="out"/>
<feColorMatrix type="matrix" values="0 0 0 0 0 0 0 0 0 0 0 0 0 0 0 0 0 0 0.15 0"/>
<feBlend mode="normal" in2="BackgroundImageFix" result="effect1_dropShadow_1486_86684"/>
<feBlend mode="normal" in="SourceGraphic" in2="effect1_dropShadow_1486_86684" result="shape"/>
</filter>
</defs>
</svg>
