<svg width="430" height="248" viewBox="0 0 430 248" fill="none" xmlns="http://www.w3.org/2000/svg">
<g filter="url(#filter0_d_1486_86684)">
<path d="M192.971 3.3699L13.2596 76.6918C8.69794 78.5529 6.50875 83.7596 8.36989 88.3212L52.3497 196.115C54.2108 200.677 59.4175 202.866 63.9792 201.005L243.691 127.683C248.252 125.822 250.441 120.615 248.58 116.054L204.6 8.25959C202.739 3.69795 197.533 1.50876 192.971 3.3699Z" fill="white"/>
<path d="M191.564 9.95382L18.8649 80.4147C15.2143 81.9041 13.4623 86.071 14.9517 89.7216L56.0706 190.504C57.56 194.154 61.7268 195.906 65.3774 194.417L238.077 123.956C241.727 122.466 243.479 118.3 241.99 114.649L200.871 13.8669C199.382 10.2163 195.215 8.46438 191.564 9.95382Z" fill="#FCD17B"/>
<path d="M30.192 97.7278C30.9577 97.3882 31.5437 96.9247 31.8856 96.1461C32.2033 95.4249 32.3097 94.9192 33.1141 94.591C34.6447 93.9597 36.0226 95.2537 37.5528 94.7382C38.4194 94.4458 39.0062 93.7508 39.4733 92.9959C39.9404 92.241 40.2661 91.4894 41.2086 91.3497C41.8544 91.2494 42.433 91.5844 43.0431 91.7298C43.8944 91.9333 44.7105 91.7838 45.5162 91.4755C46.3686 91.1482 45.8335 89.8367 44.9811 90.164C44.1288 90.4914 43.5825 90.4355 42.781 90.171C42.0815 89.9396 41.4203 89.8354 40.692 90.017C39.8168 90.2381 39.2193 90.7402 38.7358 91.4882C38.2905 92.1799 37.8883 93.1939 37.0154 93.4208C36.3875 93.5818 35.7093 93.2194 35.1075 93.0774C34.2562 92.874 33.3869 92.9431 32.5766 93.2736C31.7664 93.6042 31.1923 94.0968 30.8539 94.8672C30.5327 95.5966 30.4552 96.0566 29.6545 96.4104C28.8538 96.7643 29.3539 98.0901 30.1896 97.7219L30.192 97.7278Z" fill="#F4BE30"/>
<path d="M135.805 46.1186C136.571 45.779 137.157 45.3156 137.498 44.537C137.816 43.8158 137.923 43.31 138.727 42.9819C140.258 42.3506 141.635 43.6446 143.166 43.129C144.032 42.8367 144.619 42.1417 145.086 41.3868C145.553 40.6319 145.879 39.8803 146.821 39.7405C147.467 39.6402 148.046 39.9753 148.656 40.1207C149.507 40.3241 150.323 40.1747 151.129 39.8664C151.981 39.539 151.446 38.2275 150.594 38.5549C149.742 38.8822 149.195 38.8264 148.394 38.5618C147.694 38.3305 147.033 38.2263 146.305 38.4078C145.43 38.629 144.832 39.1311 144.349 39.8791C143.903 40.5707 143.501 41.5847 142.628 41.8117C142 41.9727 141.322 41.6102 140.72 41.4683C139.869 41.2648 139 41.3339 138.189 41.6645C137.379 41.9951 136.805 42.4877 136.467 43.2581C136.146 43.9875 136.068 44.4474 135.267 44.8013C134.467 45.1552 134.967 46.481 135.802 46.1128L135.805 46.1186Z" fill="#F4BE30"/>
<path d="M54.8675 140.809C55.6333 140.47 56.2193 140.006 56.5611 139.228C56.8788 138.507 56.9853 138.001 57.7896 137.673C59.3203 137.041 60.6981 138.335 62.2284 137.82C63.095 137.528 63.6817 136.833 64.1489 136.078C64.616 135.323 64.9416 134.571 65.8841 134.431C66.5299 134.331 67.1085 134.666 67.7186 134.812C68.5699 135.015 69.3861 134.866 70.1918 134.557C71.0441 134.23 70.509 132.918 69.6567 133.246C68.8043 133.573 68.258 133.517 67.4566 133.253C66.757 133.021 66.0958 132.917 65.3676 133.099C64.4923 133.32 63.8949 133.822 63.4113 134.57C62.966 135.262 62.5638 136.276 61.6909 136.503C61.0631 136.664 60.3849 136.301 59.783 136.159C58.9317 135.956 58.0624 136.025 57.2522 136.355C56.442 136.686 55.8678 137.179 55.5294 137.949C55.2083 138.678 55.1308 139.138 54.3301 139.492C53.5294 139.846 54.0295 141.172 54.8652 140.804L54.8675 140.809Z" fill="#F4BE30"/>
<path d="M185.897 51.5726C186.662 51.233 187.248 50.7695 187.59 49.9909C187.908 49.2698 188.014 48.764 188.819 48.4358C190.349 47.8045 191.727 49.0985 193.257 48.583C194.124 48.2906 194.711 47.5957 195.178 46.8407C195.645 46.0858 195.971 45.3342 196.913 45.1945C197.559 45.0942 198.138 45.4292 198.748 45.5747C199.599 45.7781 200.415 45.6287 201.221 45.3203C202.073 44.993 201.538 43.6815 200.686 44.0088C199.833 44.3362 199.287 44.2803 198.486 44.0158C197.786 43.7844 197.125 43.6803 196.397 43.8618C195.521 44.0829 194.924 44.585 194.44 45.3331C193.995 46.0247 193.593 47.0387 192.72 47.2656C192.092 47.4266 191.414 47.0642 190.812 46.9222C189.961 46.7188 189.091 46.7879 188.281 47.1185C187.471 47.449 186.897 47.9416 186.558 48.712C186.237 49.4414 186.16 49.9014 185.359 50.2553C184.558 50.6091 185.059 51.9349 185.894 51.5668L185.897 51.5726Z" fill="#F4BE30"/>
<path d="M202.445 121.863C203.211 121.523 203.797 121.059 204.139 120.281C204.456 119.56 204.563 119.054 205.367 118.726C206.898 118.094 208.276 119.389 209.806 118.873C210.672 118.581 211.259 117.886 211.726 117.131C212.193 116.376 212.519 115.624 213.461 115.484C214.107 115.384 214.686 115.719 215.296 115.865C216.147 116.068 216.963 115.919 217.769 115.61C218.621 115.283 218.086 113.971 217.234 114.299C216.382 114.626 215.835 114.57 215.034 114.306C214.334 114.074 213.673 113.97 212.945 114.152C212.07 114.373 211.472 114.875 210.989 115.623C210.543 116.315 210.141 117.329 209.268 117.556C208.64 117.717 207.962 117.354 207.36 117.212C206.509 117.009 205.64 117.078 204.83 117.408C204.019 117.739 203.445 118.232 203.107 119.002C202.786 119.731 202.708 120.191 201.907 120.545C201.107 120.899 201.607 122.225 202.443 121.857L202.445 121.863Z" fill="#F4BE30"/>
<path d="M210.991 92.6142C212.116 92.1552 211.402 90.4065 210.277 90.8655C209.152 91.3245 209.866 93.0732 210.991 92.6142Z" fill="#F4BE30"/>
<mask id="mask0_1486_86684" style="mask-type:luminance" maskUnits="userSpaceOnUse" x="51" y="170" width="26" height="21">
<path d="M71.2106 170.366L51.1882 178.535L56.23 190.893L76.2523 182.724L71.2106 170.366Z" fill="white"/>
</mask>
<g mask="url(#mask0_1486_86684)">
<path d="M49.048 189.322C49.8137 188.983 50.3997 188.519 50.7416 187.741C51.0593 187.019 51.1657 186.514 51.9701 186.186C53.5007 185.554 54.8786 186.848 56.4088 186.333C57.2754 186.04 57.8622 185.345 58.3293 184.59C58.7964 183.836 59.1221 183.084 60.0645 182.944C60.7103 182.844 61.289 183.179 61.899 183.324C62.7503 183.528 63.5665 183.378 64.3722 183.07C65.2245 182.743 64.6894 181.431 63.8371 181.759C62.9848 182.086 62.4384 182.03 61.637 181.766C60.9375 181.534 60.2762 181.43 59.548 181.612C58.6727 181.833 58.0753 182.335 57.5918 183.083C57.1464 183.774 56.7442 184.788 55.8713 185.015C55.2435 185.176 54.5653 184.814 53.9634 184.672C53.1121 184.469 52.2428 184.538 51.4326 184.868C50.6224 185.199 50.0483 185.691 49.7098 186.462C49.3887 187.191 49.3112 187.651 48.5105 188.005C47.7098 188.359 48.2099 189.685 49.0456 189.316L49.048 189.322Z" fill="#F4BE30"/>
</g>
<path d="M131.278 167.026C134.432 155.792 141.203 145.305 148.786 136.595C155.924 128.393 164.694 121.259 174.655 116.794C184.982 112.159 197.025 109.611 204.958 100.942C213.517 91.5893 214.633 77.6103 221.286 66.8186" stroke="white" stroke-width="2.60885" stroke-linecap="round" stroke-linejoin="round" stroke-dasharray="5.22 5.22"/>
<path d="M106.403 153.43C90.1888 145.63 69.4333 124.359 74.7008 99.2353C79.9968 73.9652 106.89 60.3521 133.067 64.4996C163.326 69.2962 187.578 94.903 180.737 119.573C172.053 150.874 135.1 167.233 106.407 153.435L106.403 153.43Z" fill="#F4BE30"/>
<path d="M137.306 132.578C141.883 130.638 144.768 127.12 143.751 124.721C142.734 122.322 138.2 121.949 133.623 123.889C129.047 125.829 126.162 129.346 127.179 131.746C128.196 134.145 132.73 134.517 137.306 132.578Z" fill="#DFB135"/>
<path d="M100.918 55.2311L131.845 129.593C131.845 129.593 133.42 130.524 135.726 129.526C137.843 128.607 138.496 126.836 138.496 126.836C138.496 126.836 118.714 80.3638 107.204 53.0133C105.613 52.4381 102.29 53.1483 100.924 55.2286" fill="#F4BE30"/>
<path d="M100.385 55.4568C101.204 57.4209 102.017 59.3875 102.838 61.3575C104.862 66.2318 106.892 71.1035 108.916 75.9778C111.514 82.2217 114.112 88.4657 116.704 94.7122L124.289 112.953C126.108 117.327 127.93 121.708 129.75 126.082L131.083 129.294C131.153 129.46 131.204 129.662 131.301 129.809C131.872 130.727 133.753 130.635 134.63 130.465C136.322 130.125 138.455 128.865 139.005 127.081C139.114 126.728 138.957 126.474 138.827 126.166C138.209 124.71 137.592 123.254 136.969 121.8C134.249 115.399 131.528 108.997 128.808 102.596C125.084 93.8271 121.366 85.0557 117.651 76.2758C115.78 71.8605 113.908 67.4452 112.046 63.019C111.158 60.9238 110.276 58.8261 109.391 56.7225C108.982 55.7577 108.576 54.7989 108.173 53.8316C108.012 53.4529 107.875 52.799 107.542 52.5419C107.232 52.3035 106.658 52.2674 106.287 52.2499C104.118 52.1223 101.719 53.0691 100.456 54.8823C100.029 55.4892 100.953 56.1867 101.383 55.5714C102.501 53.9737 105.067 52.9136 106.984 53.5467L106.669 53.2331C111.834 65.5175 117.035 77.7868 122.239 90.0477C126.612 100.364 130.997 110.675 135.381 120.986C136.239 123.01 137.097 125.035 137.961 127.056L137.955 126.612C137.196 128.595 134.531 129.886 132.521 129.244C132.447 129.219 132.234 129.093 132.152 129.1C132.17 129.092 132.083 129.066 132.083 129.066L132.375 129.361C132.375 129.361 132.353 129.308 132.348 129.296C132.342 129.201 132.247 129.059 132.21 128.971L130.583 125.052C128.226 119.376 125.863 113.703 123.507 108.027C120.381 100.505 117.25 92.9865 114.122 85.4591C111.314 78.7036 108.509 71.954 105.696 65.2011L102.863 58.3864C102.415 57.3126 102.019 56.1817 101.512 55.133C101.492 55.0856 101.472 55.0383 101.452 54.9909C101.161 54.3044 100.101 54.7534 100.386 55.4425L100.385 55.4568Z" fill="#000091"/>
<path d="M100.899 56.322C102.047 56.9385 103.457 56.8715 104.644 56.396C105.915 55.8853 107.191 54.8766 107.849 53.662C108.032 53.3192 107.787 52.8573 107.45 52.7209C107.054 52.5607 106.692 52.777 106.509 53.1198C106.271 53.5629 105.831 53.9241 105.448 54.24C105.032 54.5768 104.582 54.8654 104.08 55.0643C103.214 55.4103 102.271 55.426 101.441 54.9821C101.098 54.7992 100.636 55.0439 100.5 55.3809C100.339 55.777 100.556 56.1392 100.899 56.322Z" fill="#000091"/>
<path d="M129.502 71.1264L138.729 71.1673L132.704 78.1688L101.116 90.3714L98.2052 84.7069L129.502 71.1264Z" fill="#6B93F6"/>
<path d="M129.432 71.701C132.502 71.7123 135.58 71.7271 138.65 71.7384L138.261 70.821C137.397 71.8297 136.53 72.8324 135.666 73.841C134.581 75.1037 133.39 76.328 132.382 77.656C132.118 78.0052 132.689 77.6234 132.334 77.6904C132.083 77.7409 131.817 77.8884 131.578 77.9828L128.38 79.2194C121.222 81.9815 114.06 84.7521 106.901 87.5143C104.896 88.2871 102.892 89.0599 100.89 89.8387L101.648 90.1456C100.681 88.2585 99.7136 86.3715 98.7377 84.4811L98.4308 85.2396C101.958 83.7097 105.484 82.1799 109.011 80.65C114.632 78.2118 120.252 75.7736 125.866 73.3379C127.152 72.7791 128.437 72.2203 129.722 71.6616C130.409 71.3706 129.955 70.2993 129.271 70.5962C125.744 72.1261 122.217 73.6559 118.69 75.1858C113.07 77.624 107.449 80.0622 101.835 82.4979C100.55 83.0567 99.2645 83.6155 97.9792 84.1742C97.707 84.2896 97.5258 84.6527 97.6724 84.9327C98.6398 86.8197 99.6072 88.7067 100.583 90.5971C100.732 90.883 101.029 91.0226 101.342 90.904C106.602 88.8695 111.872 86.8385 117.133 84.804C120.764 83.4045 124.392 81.9992 128.017 80.6022L131.545 79.2395C131.982 79.0682 132.517 78.9463 132.924 78.7039C133.331 78.4616 133.66 77.9379 133.968 77.577L136.016 75.1938C137.073 73.9639 138.126 72.7425 139.183 71.5126C139.444 71.2064 139.22 70.5961 138.794 70.5952C135.724 70.5839 132.645 70.5691 129.575 70.5578C128.841 70.5549 128.685 71.7031 129.426 71.7035L129.432 71.701Z" fill="#000091"/>
<path d="M87.8636 78.2965L121.989 53.2535L134.593 49.1886L127.363 59.9685C127.363 59.9685 103.101 75.2727 91.3426 83.4897C89.9873 81.9067 88.821 80.1599 87.8661 78.3025" fill="#77EDA5"/>
<path d="M88.2215 78.7453C90.0789 77.3785 91.9388 76.0176 93.7962 74.6508L105.863 65.7935L117.676 57.1276L121.303 54.4662C121.596 54.2513 121.899 54.0457 122.187 53.819C122.236 53.7845 122.285 53.7358 122.341 53.7048C122.099 53.8422 122.325 53.7326 122.445 53.7026C124.414 53.1753 126.353 52.4444 128.287 51.8199L134.459 49.8253L134.814 49.7094L134.127 48.8279C132.484 51.2769 130.844 53.7174 129.201 56.1664C128.464 57.2608 127.642 58.3354 126.98 59.4749C126.847 59.7056 127.119 59.4577 126.854 59.5908C126.589 59.724 126.332 59.9239 126.077 60.0807C118.971 64.5802 111.888 69.1187 104.852 73.7206C100.196 76.7695 95.5389 79.8328 90.9749 83.0172L91.7899 83.1116C90.4734 81.5541 89.3347 79.8724 88.3914 78.0589C88.0496 77.4008 86.9818 77.8465 87.326 78.5105C88.3154 80.4161 89.4943 82.1926 90.8805 83.8322C91.0922 84.0846 91.4306 84.1088 91.6955 83.9266C100.052 78.0942 108.642 72.5961 117.223 67.0946C120.242 65.1584 123.264 63.2281 126.291 61.3097C126.741 61.0211 127.316 60.7634 127.716 60.4054C127.918 60.2222 128.053 59.9484 128.205 59.7304L129.339 58.0417C131.243 55.2029 133.147 52.3642 135.057 49.523C135.39 49.0254 134.91 48.4681 134.369 48.6415C130.529 49.8781 126.698 51.118 122.858 52.3546C122.194 52.5663 121.711 52.729 121.156 53.132L118.136 55.3476C114.386 58.0962 110.632 60.8533 106.882 63.602C102.724 66.6563 98.563 69.7047 94.4106 72.7565L89.851 76.0996C89.1111 76.6437 88.2988 77.1486 87.5983 77.7527C87.5678 77.7796 87.5289 77.8031 87.4959 77.824C86.8948 78.2673 87.613 79.1708 88.2165 78.7335L88.2215 78.7453Z" fill="#000091"/>
<path d="M163.451 59.0031C164.031 58.7667 164.309 58.1053 164.073 57.5258C163.836 56.9464 163.175 56.6683 162.595 56.9047C162.016 57.1411 161.738 57.8025 161.974 58.382C162.211 58.9614 162.872 59.2395 163.451 59.0031Z" fill="#F4BE30"/>
<path d="M105.168 162.273C105.747 162.037 106.025 161.375 105.789 160.796C105.552 160.216 104.891 159.938 104.311 160.175C103.732 160.411 103.454 161.072 103.69 161.652C103.927 162.231 104.588 162.509 105.168 162.273Z" fill="#F4BE30"/>
<path d="M83.4283 65.7611C84.0078 65.5246 84.2859 64.8632 84.0494 64.2838C83.813 63.7043 83.1516 63.4262 82.5722 63.6627C81.9927 63.8991 81.7146 64.5605 81.951 65.1399C82.1874 65.7194 82.8488 65.9975 83.4283 65.7611Z" fill="#F4BE30"/>
<path d="M208.32 67.6695C208.899 67.433 209.177 66.7716 208.941 66.1922C208.704 65.6127 208.043 65.3346 207.464 65.571C206.884 65.8075 206.606 66.4689 206.842 67.0483C207.079 67.6278 207.74 67.9059 208.32 67.6695Z" fill="#F4BE30"/>
<path d="M189.078 137.828C189.657 137.592 189.935 136.93 189.699 136.351C189.462 135.771 188.801 135.493 188.222 135.73C187.642 135.966 187.364 136.627 187.6 137.207C187.837 137.786 188.498 138.064 189.078 137.828Z" fill="#F4BE30"/>
<path d="M41.6114 122.434C42.1909 122.198 42.469 121.536 42.2325 120.957C41.9961 120.377 41.3347 120.099 40.7553 120.336C40.1758 120.572 39.8977 121.234 40.1341 121.813C40.3705 122.393 41.0319 122.671 41.6114 122.434Z" fill="#F4BE30"/>
</g>
<g filter="url(#filter1_d_1486_86684)">
<path d="M284.39 67.3634L93.7362 103.74C88.8967 104.663 85.7221 109.334 86.6455 114.174L108.465 228.532C109.388 233.371 114.06 236.546 118.899 235.623L309.553 199.246C314.393 198.323 317.567 193.651 316.644 188.812L294.825 74.4541C293.902 69.6147 289.23 66.4401 284.39 67.3634Z" fill="white"/>
<path d="M281.711 73.5411L98.4956 108.498C94.6228 109.237 92.0822 112.975 92.8211 116.848L113.221 223.767C113.96 227.64 117.698 230.18 121.571 229.442L304.786 194.485C308.659 193.746 311.2 190.007 310.461 186.134L290.061 79.2156C289.322 75.3427 285.584 72.8021 281.711 73.5411Z" fill="#99B3F9"/>
<path d="M188.252 101.531C209.232 97.9472 252.354 100.666 265.378 133.178C280.361 170.582 252.933 197.129 219.445 200.162C179.149 203.81 149.216 183.542 138.655 166.561C128.094 149.579 129.842 111.506 188.252 101.531Z" fill="#6B93F6"/>
<path d="M102.802 171.342C106.571 176.891 113.29 179.756 119.908 180.852C126.526 181.947 133.292 181.567 139.976 182.169C142.812 182.423 145.706 182.877 148.178 184.277C151.361 186.079 153.514 189.238 155.377 192.382C160.492 201.019 164.299 210.426 166.642 220.188" stroke="white" stroke-width="2.60885" stroke-linecap="round" stroke-linejoin="round" stroke-dasharray="5.22 5.22"/>
<path d="M296.145 107.439C288.577 110.236 282.804 117.195 281.077 125.074C279.35 132.953 281.58 141.513 286.632 147.804C291.683 154.089 299.39 158.073 307.404 158.96" stroke="white" stroke-width="2.60885" stroke-linecap="round" stroke-linejoin="round" stroke-dasharray="5.22 5.22"/>
<path d="M172.978 138.278C171.405 134.201 172.445 128.901 176.178 126.631C171.154 124.283 168.698 118.131 169.437 112.632C170.176 107.133 173.537 102.313 177.534 98.4678C180.539 95.5744 185.088 93.0145 188.653 95.1735C191.319 96.7861 192.039 100.257 192.511 103.339C194.454 102.167 197.034 102.419 198.979 103.579C200.925 104.74 202.301 106.682 203.227 108.748C204.983 112.675 205.182 117.515 202.838 121.115C207.591 121.138 211.289 126.142 210.996 130.89C210.703 135.637 207.301 139.74 203.204 142.15C199.107 144.559 194.381 145.653 189.712 146.544C181.061 148.195 174.55 142.355 172.978 138.278Z" fill="#99B3F9"/>
<path d="M173.487 138.026C172.099 134.311 172.88 129.368 176.435 127.139C176.864 126.871 176.829 126.314 176.371 126.1C173.386 124.664 171.345 121.791 170.45 118.648C169.556 115.506 169.808 111.958 171.009 108.781C172.314 105.34 174.547 102.299 177.113 99.6884C179.377 97.3787 182.497 94.7901 185.95 94.9454C190.338 95.1398 191.412 99.9276 191.961 103.444C192.015 103.793 192.45 104.024 192.769 103.847C194.687 102.751 197.051 103.011 198.881 104.174C200.712 105.338 201.927 107.17 202.776 109.103C204.39 112.794 204.591 117.306 202.379 120.792C202.162 121.135 202.36 121.667 202.803 121.672C206.598 121.743 209.514 125 210.267 128.548C211.129 132.626 208.932 136.666 206.007 139.372C202.372 142.725 197.491 144.284 192.764 145.34C190.52 145.839 188.249 146.368 185.931 146.24C184.059 146.136 182.227 145.671 180.52 144.888C177.57 143.535 174.708 141.1 173.494 138.025C173.223 137.346 172.21 137.847 172.474 138.527C173.649 141.495 176.29 143.913 179.043 145.413C180.781 146.357 182.672 146.996 184.633 147.263C187.027 147.588 189.336 147.224 191.685 146.738C196.889 145.662 202.324 144.118 206.404 140.546C209.611 137.735 212.048 133.547 211.511 129.157C210.975 124.766 207.464 120.642 202.891 120.553L203.315 121.434C205.842 117.446 205.56 112.308 203.588 108.154C202.57 106.009 201.03 103.982 198.883 102.873C196.736 101.764 194.308 101.669 192.274 102.833L193.082 103.236C192.54 99.7573 191.594 95.509 187.859 94.1709C184.124 92.8327 180.456 95.1411 177.854 97.4257C172.155 102.423 167.386 110.177 169.13 118.009C169.995 121.908 172.351 125.419 176.005 127.17L175.941 126.131C171.82 128.718 170.859 134.195 172.483 138.539C172.735 139.221 173.754 138.719 173.502 138.036L173.487 138.026Z" fill="#000091"/>
<path d="M188.108 124.733L195.548 163.728C195.685 164.445 196.798 164.233 196.661 163.516L189.221 124.52C189.084 123.803 187.971 124.015 188.108 124.733Z" fill="#000091"/>
<path d="M184.623 129.711C186.394 130.296 188.082 131.082 189.663 132.075C190.282 132.464 190.917 131.528 190.298 131.14C188.638 130.098 186.863 129.258 185.003 128.645C184.312 128.418 183.932 129.484 184.623 129.711Z" fill="#000091"/>
<path d="M189.814 126.823C190.812 125.236 191.809 123.642 192.807 122.054C192.969 121.793 192.915 121.444 192.657 121.269C192.4 121.094 192.034 121.157 191.872 121.419C190.874 123.006 189.877 124.6 188.879 126.188C188.717 126.449 188.771 126.798 189.029 126.973C189.287 127.148 189.653 127.085 189.814 126.823Z" fill="#000091"/>
<path d="M191.34 139.69C190.107 139.176 188.879 138.654 187.647 138.139C187.375 138.024 187.012 138.202 186.924 138.482C186.829 138.788 186.974 139.081 187.267 139.205C188.5 139.719 189.727 140.241 190.96 140.756C191.232 140.871 191.595 140.693 191.683 140.413C191.778 140.107 191.632 139.814 191.34 139.69Z" fill="#000091"/>
<path d="M191.677 136.652C193.413 134.667 195.149 132.682 196.885 130.697C197.134 130.419 197.374 130.136 197.623 129.858C197.822 129.628 197.701 129.228 197.473 129.073C197.193 128.883 196.887 128.992 196.687 129.223C194.951 131.207 193.215 133.192 191.479 135.177C191.23 135.455 190.99 135.738 190.741 136.016C190.542 136.247 190.663 136.646 190.891 136.802C191.171 136.992 191.477 136.882 191.677 136.652Z" fill="#000091"/>
<path d="M218.09 153.792C218.09 153.792 211.903 153.178 208.806 152.865C208.342 152.819 207.857 152.764 207.478 152.491C206.352 151.661 206.787 149.341 205.42 149.057C203.214 151.773 198.497 152.179 196.233 149.515C193.969 146.852 195.68 141.815 199.161 141.516C197.57 140.531 195.871 139.42 195.228 137.665C194.591 135.902 195.776 133.446 197.635 133.616C196.601 130.917 195.549 128.06 196.031 125.213C196.513 122.365 199.152 119.669 201.99 120.23C201.959 118.493 202.144 116.606 203.306 115.307C204.462 114.01 206.894 113.789 207.793 115.278C208.269 113.976 208.79 112.607 209.858 111.724C210.927 110.841 212.721 110.672 213.594 111.755C214.173 112.471 214.234 113.562 214.957 114.129C215.801 114.788 217.015 114.364 218.014 113.994C219.953 113.272 222.139 112.803 224.07 113.556C225.996 114.311 227.38 116.694 226.424 118.536C227.326 116.979 229.879 117.159 231.033 118.541C232.194 119.922 232.22 121.942 231.804 123.688C232.731 122.671 234.516 122.959 235.486 123.94C236.449 124.923 236.785 126.352 236.981 127.712C237.254 129.582 237.078 131.949 235.351 132.708C238.08 133.34 239.974 136.414 239.308 139.137C238.648 141.859 235.549 143.719 232.841 143.031C234.282 143.967 235.022 145.864 234.59 147.529C234.164 149.194 232.599 150.498 230.886 150.62C229.634 150.712 228.337 150.228 227.13 150.587C225.614 151.036 224.788 152.623 223.653 153.724C222.517 154.825 218.654 155.274 218.079 153.801" fill="#0063CB"/>
<path d="M218.136 153.226C215.96 153.007 213.785 152.793 211.609 152.574L209.512 152.365C208.766 152.29 207.872 152.339 207.479 151.587C206.914 150.509 207.039 148.915 205.618 148.519C205.353 148.442 205.133 148.529 204.961 148.735C202.992 151.078 198.655 151.63 196.615 149.064C194.742 146.704 196.179 142.412 199.285 142.063C199.774 142.008 199.899 141.285 199.499 141.035C198.082 140.158 196.389 139.148 195.798 137.492C195.344 136.22 196.003 134.101 197.611 134.166C198.07 134.187 198.321 133.755 198.167 133.348C197.145 130.679 195.896 127.526 196.769 124.643C197.439 122.412 199.494 120.354 201.972 120.778C202.257 120.827 202.588 120.546 202.584 120.258C202.565 118.679 202.65 116.772 203.833 115.585C204.683 114.73 206.541 114.357 207.313 115.517C207.573 115.903 208.172 115.955 208.352 115.453C208.761 114.337 209.184 113.128 210.07 112.299C210.723 111.687 211.809 111.301 212.669 111.707C213.612 112.149 213.641 113.412 214.24 114.163C214.838 114.914 215.673 115.094 216.556 114.984C217.62 114.851 218.609 114.323 219.64 114.049C220.751 113.76 221.93 113.593 223.064 113.825C225.03 114.219 226.879 116.283 225.911 118.332C225.632 118.918 226.571 119.373 226.912 118.84C227.648 117.693 229.346 117.792 230.319 118.594C231.704 119.739 231.649 121.903 231.291 123.484C231.18 123.98 231.748 124.538 232.196 124.1C232.936 123.375 234.091 123.514 234.873 124.121C235.828 124.862 236.165 126.156 236.362 127.291C236.638 128.873 236.853 131.344 235.124 132.187C234.713 132.387 234.697 133.108 235.187 133.226C237.607 133.847 239.37 136.44 238.801 138.932C238.232 141.425 235.477 143.04 233.057 142.483C232.46 142.347 231.981 143.092 232.549 143.484C234.454 144.799 234.74 147.578 232.961 149.135C232.071 149.913 231.025 150.107 229.878 150.005C228.73 149.903 227.664 149.722 226.597 150.176C225.707 150.551 225.046 151.286 224.435 152.011C223.891 152.653 223.404 153.362 222.618 153.71C221.749 154.094 219.161 154.703 218.617 153.531C218.312 152.872 217.291 153.368 217.597 154.034C218.177 155.288 219.87 155.362 221.052 155.246C222.664 155.092 223.804 154.484 224.847 153.266C225.497 152.507 226.135 151.584 227.098 151.189C228.281 150.707 229.637 151.23 230.867 151.162C232.688 151.065 234.361 149.822 235.017 148.121C235.803 146.093 234.933 143.753 233.19 142.541L232.682 143.542C235.706 144.24 239.101 142.387 239.878 139.304C240.655 136.22 238.59 132.923 235.572 132.153L235.636 133.192C238.123 131.986 237.886 128.558 237.333 126.299C236.991 124.909 236.315 123.519 234.989 122.849C233.847 122.272 232.418 122.308 231.467 123.233L232.373 123.848C232.856 121.712 232.829 118.916 230.814 117.525C229.323 116.496 227.029 116.568 225.993 118.189L226.993 118.696C227.728 117.14 227.158 115.326 225.996 114.144C224.611 112.729 222.614 112.405 220.716 112.671C219.673 112.812 218.677 113.137 217.695 113.497C216.713 113.858 215.485 114.24 214.898 113.044C214.508 112.247 214.295 111.397 213.517 110.879C212.855 110.434 211.997 110.336 211.23 110.482C208.972 110.906 208.001 113.142 207.293 115.072L208.332 115.008C207.287 113.432 205.176 113.316 203.651 114.293C201.733 115.524 201.433 118.087 201.458 120.165L202.07 119.645C199.254 119.163 196.793 121.344 195.853 123.843C194.609 127.131 195.98 130.753 197.166 133.847L197.721 133.03C195.668 132.947 194.406 135.002 194.541 136.886C194.719 139.294 197.029 140.82 198.882 141.967L199.096 140.939C195.193 141.376 193.431 146.653 195.669 149.649C198.156 152.975 203.454 152.291 205.919 149.359L205.262 149.574C205.918 149.757 205.993 150.62 206.165 151.184C206.345 151.79 206.566 152.415 207.064 152.839C207.66 153.34 208.451 153.388 209.194 153.458L211.343 153.669C213.585 153.895 215.831 154.114 218.073 154.34C218.798 154.413 218.889 153.281 218.164 153.208L218.136 153.226Z" fill="#000091"/>
<path d="M213.154 123.388C214.252 131.093 215.62 138.767 216.961 146.432C218.302 154.098 219.68 161.757 221.07 169.413C221.357 170.986 221.644 172.553 221.931 174.126C222.068 174.843 223.175 174.632 223.044 173.913C222.223 169.443 221.416 164.976 220.607 160.503C219.071 151.945 217.552 143.384 216.109 134.809C215.46 130.94 214.817 127.063 214.261 123.177C214.155 122.454 213.042 122.666 213.148 123.389L213.154 123.388Z" fill="#000091"/>
<path d="M209.359 129.598C211.231 131.246 213.119 133.046 215.022 134.721C215.252 134.921 215.652 134.8 215.807 134.571C215.997 134.291 215.888 133.986 215.657 133.786C213.785 132.137 211.897 130.337 209.995 128.662C209.764 128.463 209.364 128.584 209.209 128.812C209.019 129.092 209.129 129.398 209.359 129.598Z" fill="#000091"/>
<path d="M217.221 143.191C218.863 138.833 220.5 134.477 222.142 130.12C222.402 129.435 221.33 129.057 221.076 129.74C219.434 134.097 217.797 138.453 216.155 142.811C215.895 143.495 216.967 143.874 217.221 143.191Z" fill="#000091"/>
<path d="M211.654 147.369C213.62 148.301 215.485 149.445 217.211 150.763C217.451 150.948 217.831 150.856 217.996 150.613C218.176 150.348 218.093 150.011 217.846 149.827C216.039 148.448 214.085 147.277 212.028 146.304C211.752 146.171 211.401 146.379 211.305 146.647C211.192 146.963 211.372 147.236 211.648 147.37L211.654 147.369Z" fill="#000091"/>
<path d="M160.081 114.147C156.41 115.501 153.534 118.832 152.719 122.66C151.905 126.487 153.189 130.696 155.997 133.423C156.549 133.965 157.201 134.526 157.258 135.297C157.297 135.835 157.034 136.34 156.793 136.822C154.95 140.532 154.329 144.835 155.044 148.916C155.43 151.111 156.293 153.382 158.129 154.64C159.966 155.905 162.933 155.633 163.945 153.646C164.805 156.276 165.897 159.176 168.383 160.381C170.022 161.177 171.966 161.056 173.745 160.639C182.965 158.509 189.458 148.265 187.455 139.015C186.848 136.202 184.428 133.023 181.746 134.047C183.7 131.528 184.27 127.996 183.204 124.995C182.137 121.988 179.471 119.606 176.366 118.885C175.783 118.753 175.156 118.654 174.704 118.266C174.191 117.832 174.007 117.137 173.778 116.507C172.72 113.614 169.954 111.411 166.895 111.034C163.837 110.656 160.615 112.11 158.884 114.658" fill="#4A9DF7"/>
<path d="M159.83 113.638C156.597 114.87 153.983 117.49 152.713 120.712C151.363 124.149 151.77 128.166 153.649 131.327C154.094 132.081 154.622 132.801 155.225 133.442C155.579 133.817 155.988 134.149 156.314 134.548C156.775 135.114 156.753 135.573 156.472 136.216C155.667 138.043 154.938 139.797 154.559 141.773C153.869 145.346 153.931 149.801 155.882 153.005C156.842 154.578 158.313 155.771 160.187 155.952C161.84 156.117 163.588 155.47 164.416 153.966L163.388 153.752C164.528 157.207 166.149 160.999 170.227 161.484C173.735 161.897 177.485 160.253 180.257 158.224C185.898 154.097 189.286 146.76 188.179 139.786C187.688 136.708 185.283 132.232 181.496 133.544L182.217 134.368C185.799 129.627 184.54 122.696 179.471 119.574C178.935 119.247 178.367 118.958 177.779 118.731C177.093 118.464 176.371 118.371 175.679 118.138C174.774 117.83 174.591 117.07 174.288 116.256C174.043 115.611 173.729 115.004 173.337 114.432C171.846 112.223 169.368 110.69 166.705 110.442C163.482 110.14 160.263 111.709 158.412 114.338C157.994 114.936 158.93 115.572 159.347 114.973C160.869 112.805 163.475 111.449 166.14 111.543C168.805 111.637 171.122 113.066 172.5 115.213C173.164 116.246 173.316 117.679 174.181 118.552C175.046 119.425 176.347 119.388 177.391 119.792C179.792 120.718 181.767 122.706 182.646 125.127C183.695 128.004 183.099 131.296 181.267 133.722C180.889 134.224 181.508 134.715 181.988 134.546C184.952 133.519 186.709 137.792 187.057 139.981C187.544 143.042 187.082 146.193 185.929 149.054C183.662 154.703 178.471 159.545 172.279 160.31C170.275 160.558 168.325 160.11 166.957 158.551C165.719 157.133 165.077 155.282 164.497 153.521C164.363 153.117 163.737 152.827 163.47 153.307C162.737 154.639 161.154 155.043 159.732 154.712C158.081 154.322 156.985 152.91 156.342 151.424C154.964 148.232 155.049 144.275 155.871 140.958C156.086 140.103 156.355 139.264 156.68 138.445C157.004 137.627 157.501 136.872 157.726 136.035C158.2 134.284 156.535 133.288 155.574 132.113C153.394 129.452 152.503 125.726 153.352 122.379C154.246 118.837 156.928 115.928 160.321 114.634C161.002 114.375 160.5 113.356 159.819 113.614L159.83 113.638Z" fill="#000091"/>
<path d="M169.816 139.843C171.796 151.097 174.1 162.296 176.432 173.477C176.637 174.451 176.84 175.418 177.045 176.392C177.195 177.107 178.308 176.894 178.159 176.179C176.297 167.395 174.508 158.591 172.813 149.775C172.169 146.399 171.525 143.022 170.935 139.629C170.81 138.91 169.697 139.122 169.822 139.842L169.816 139.843Z" fill="#000091"/>
<path d="M165.058 147.223C167.577 149.742 170.091 152.268 172.609 154.787C173.123 155.298 173.982 154.557 173.46 154.042C170.942 151.523 168.428 148.997 165.909 146.478C165.395 145.967 164.537 146.708 165.058 147.223Z" fill="#000091"/>
<path d="M172.212 145.986C174.009 142.811 175.949 139.71 178.023 136.706C178.44 136.101 177.498 135.467 177.088 136.071C175.015 139.081 173.074 142.175 171.277 145.351C170.917 145.983 171.853 146.625 172.212 145.986Z" fill="#000091"/>
<path d="M170.21 138.716C169.164 138.006 168.112 137.296 167.067 136.586C166.824 136.421 166.443 136.474 166.281 136.736C166.12 136.997 166.167 137.347 166.431 137.521C167.477 138.232 168.529 138.941 169.574 139.652C169.817 139.817 170.198 139.763 170.36 139.502C170.521 139.24 170.474 138.89 170.21 138.716Z" fill="#000091"/>
<path d="M170.985 139.318C171.425 137.632 171.866 135.946 172.301 134.26C172.379 133.964 172.261 133.646 171.958 133.538C171.69 133.441 171.313 133.584 171.235 133.881C170.794 135.567 170.353 137.253 169.919 138.938C169.841 139.235 169.959 139.552 170.262 139.661C170.53 139.758 170.907 139.615 170.985 139.318Z" fill="#000091"/>
<path d="M127.122 196.357C127.737 196.239 128.14 195.646 128.023 195.031C127.905 194.416 127.312 194.013 126.697 194.13C126.082 194.248 125.679 194.841 125.796 195.456C125.914 196.071 126.507 196.474 127.122 196.357Z" fill="#6B93F6"/>
<path d="M125.911 123.031C126.526 122.914 126.929 122.321 126.812 121.706C126.694 121.091 126.101 120.688 125.486 120.805C124.871 120.922 124.468 121.516 124.585 122.131C124.703 122.745 125.296 123.149 125.911 123.031Z" fill="#6B93F6"/>
<path d="M179.757 210.925C180.371 210.807 180.775 210.214 180.657 209.599C180.54 208.984 179.947 208.581 179.332 208.698C178.717 208.816 178.314 209.409 178.431 210.024C178.548 210.639 179.142 211.042 179.757 210.925Z" fill="#6B93F6"/>
<path d="M232.723 98.9156C233.338 98.7983 233.741 98.2049 233.624 97.5902C233.507 96.9754 232.913 96.5722 232.299 96.6895C231.684 96.8067 231.281 97.4002 231.398 98.0149C231.515 98.6297 232.109 99.0329 232.723 98.9156Z" fill="#6B93F6"/>
<path d="M280.962 158.935C281.577 158.818 281.98 158.225 281.863 157.61C281.746 156.995 281.152 156.592 280.538 156.709C279.923 156.826 279.52 157.42 279.637 158.035C279.754 158.649 280.348 159.053 280.962 158.935Z" fill="#6B93F6"/>
<path d="M146.674 159.331C147.289 159.214 147.692 158.62 147.575 158.006C147.457 157.391 146.864 156.988 146.249 157.105C145.634 157.222 145.231 157.816 145.348 158.43C145.466 159.045 146.059 159.448 146.674 159.331Z" fill="#6B93F6"/>
<path d="M276.344 111.217C276.959 111.1 277.362 110.506 277.245 109.892C277.127 109.277 276.534 108.874 275.919 108.991C275.304 109.108 274.901 109.702 275.019 110.316C275.136 110.931 275.729 111.334 276.344 111.217Z" fill="#6B93F6"/>
<g style="mix-blend-mode:multiply" opacity="0.54">
<path d="M177.736 173.664L176.394 173.92C175.38 174.113 174.715 175.092 174.908 176.107L175.164 177.449C175.358 178.463 176.337 179.128 177.351 178.935L178.693 178.679C179.707 178.485 180.373 177.506 180.179 176.492L179.923 175.15C179.73 174.135 178.75 173.47 177.736 173.664Z" fill="#6B93F6"/>
</g>
<g style="mix-blend-mode:multiply" opacity="0.54">
<path d="M196.294 160.99L194.953 161.246C193.938 161.44 193.273 162.419 193.466 163.433L193.722 164.775C193.916 165.789 194.895 166.455 195.909 166.261L197.251 166.005C198.266 165.812 198.931 164.833 198.738 163.818L198.481 162.476C198.288 161.462 197.309 160.797 196.294 160.99Z" fill="#6B93F6"/>
</g>
<g style="mix-blend-mode:multiply" opacity="0.54">
<path d="M222.684 171.388L221.342 171.644C220.328 171.837 219.662 172.816 219.856 173.831L220.112 175.173C220.305 176.187 221.284 176.852 222.299 176.659L223.641 176.403C224.655 176.209 225.32 175.23 225.127 174.216L224.871 172.874C224.677 171.86 223.698 171.194 222.684 171.388Z" fill="#6B93F6"/>
</g>
<path d="M118.09 132.741L116.723 144.699C116.63 145.51 117.888 145.654 117.981 144.843L119.348 132.885C119.44 132.074 118.183 131.93 118.09 132.741Z" fill="#6B93F6"/>
<path d="M118.626 139.053C119.131 138.795 119.636 138.538 120.141 138.281C120.213 138.242 120.285 138.208 120.357 138.169C120.506 138.092 120.625 137.983 120.69 137.824C120.749 137.677 120.751 137.473 120.683 137.329C120.614 137.185 120.498 137.052 120.338 136.996C120.179 136.939 119.998 136.927 119.845 137.003C119.34 137.261 118.835 137.518 118.33 137.776C118.258 137.814 118.186 137.848 118.113 137.887C117.964 137.964 117.846 138.074 117.781 138.232C117.722 138.379 117.72 138.583 117.788 138.727C117.856 138.871 117.973 139.004 118.132 139.06C118.291 139.117 118.472 139.129 118.626 139.053Z" fill="#6B93F6"/>
<path d="M116.334 140.937L118.995 141.241C120.077 141.365 121.302 141.684 122.337 141.21C124.676 140.141 124.788 136.785 122.739 135.389L122.947 136.132C123.238 135.484 123.396 134.731 123.405 134.021C123.416 132.622 122.738 131.501 121.479 130.884L121.87 131.547C122.108 129.73 121.224 127.764 119.241 127.537C117.259 127.311 116.024 129.047 115.943 130.869L116.316 130.358C114.6 131.031 113.59 132.806 113.909 134.618L114.608 133.889C112.7 133.9 111.887 135.817 111.963 137.491C112.068 139.879 114.295 140.683 116.339 140.929C117.147 141.026 117.291 139.765 116.483 139.668C115.113 139.503 113.374 139.151 113.227 137.499C113.169 136.824 113.263 135.962 113.79 135.477C113.927 135.352 114.228 135.208 114.281 135.197C114.386 135.166 114.813 135.147 114.469 135.146C114.864 135.144 115.244 134.864 115.168 134.417C114.935 133.109 115.682 131.968 116.833 131.516C117.029 131.44 117.199 131.217 117.206 131.005C117.251 129.941 117.786 128.64 119.102 128.79C120.419 128.941 120.751 130.38 120.618 131.395C120.58 131.689 120.76 131.935 121.009 132.057C122.413 132.745 122.314 134.463 121.779 135.654C121.67 135.897 121.762 136.248 121.987 136.397C122.755 136.923 123.136 137.785 122.89 138.71C122.69 139.458 122.087 140.126 121.29 140.188C120.905 140.216 120.49 140.126 120.109 140.083L116.491 139.669C115.682 139.577 115.538 140.838 116.347 140.93L116.334 140.937Z" fill="#6B93F6"/>
<path d="M257.005 94.0735L262.333 104.866C262.695 105.598 263.83 105.038 263.468 104.305L258.14 93.5132C257.779 92.7811 256.644 93.3414 257.005 94.0735Z" fill="#6B93F6"/>
<path d="M260.874 99.0891C261.159 98.5992 261.444 98.1093 261.73 97.6194C261.769 97.5478 261.811 97.48 261.851 97.4083C261.935 97.2633 261.975 97.1066 261.944 96.9381C261.914 96.7828 261.805 96.6101 261.67 96.5261C261.534 96.442 261.364 96.3937 261.2 96.4324C261.036 96.4711 260.877 96.559 260.789 96.7059C260.504 97.1958 260.219 97.6857 259.934 98.1756C259.894 98.2472 259.852 98.315 259.812 98.3867C259.729 98.5317 259.688 98.6884 259.72 98.8569C259.749 99.0122 259.858 99.1849 259.994 99.2689C260.129 99.353 260.299 99.4013 260.463 99.3626C260.628 99.3239 260.787 99.236 260.874 99.0891Z" fill="#6B93F6"/>
<path d="M259.968 101.914L262.37 100.728C263.347 100.247 264.549 99.8512 265.162 98.8925C266.549 96.7264 264.826 93.8454 262.347 93.781L262.925 94.2932C262.818 93.591 262.543 92.8727 262.166 92.2709C261.418 91.0883 260.24 90.5137 258.848 90.6772L259.536 91.0218C258.752 89.3662 256.944 88.1922 255.154 89.0756C253.365 89.959 253.268 92.0876 254.187 93.6627L254.223 93.0314C253.145 94.5261 253.257 96.5653 254.507 97.9155L254.7 96.924C253.103 97.9674 253.457 100.019 254.427 101.385C255.809 103.335 258.116 102.805 259.968 101.905C260.7 101.548 260.138 100.41 259.406 100.767C258.166 101.37 256.513 102.016 255.495 100.707C255.08 100.171 254.692 99.3954 254.872 98.7025C254.92 98.5232 255.095 98.2387 255.133 98.2011C255.205 98.1184 255.553 97.8709 255.264 98.0563C255.595 97.8409 255.763 97.3995 255.457 97.0648C254.552 96.091 254.562 94.7277 255.285 93.7243C255.408 93.5549 255.43 93.2752 255.322 93.093C254.783 92.1744 254.528 90.7906 255.716 90.2041C256.904 89.6177 257.963 90.6472 258.401 91.5727C258.528 91.8401 258.813 91.9496 259.089 91.9173C260.641 91.7358 261.489 93.233 261.684 94.5238C261.724 94.7869 261.991 95.0325 262.261 95.036C263.192 95.0626 263.979 95.5799 264.273 96.4912C264.51 97.2282 264.365 98.1161 263.729 98.6C263.42 98.8326 263.023 98.9814 262.679 99.1514L259.414 100.763C258.684 101.124 259.246 102.262 259.976 101.901L259.968 101.914Z" fill="#6B93F6"/>
<path d="M270.174 178.848L263.162 188.629C262.686 189.293 263.715 190.03 264.19 189.367L271.203 179.585C271.679 178.922 270.65 178.184 270.174 178.848Z" fill="#6B93F6"/>
<path d="M267.571 184.622C268.138 184.643 268.704 184.664 269.27 184.685C269.352 184.686 269.432 184.691 269.514 184.693C269.681 184.698 269.839 184.66 269.972 184.553C270.095 184.454 270.197 184.276 270.207 184.117C270.217 183.958 270.18 183.786 270.068 183.659C269.957 183.532 269.804 183.433 269.634 183.425C269.067 183.404 268.501 183.383 267.934 183.362C267.852 183.361 267.773 183.356 267.691 183.354C267.523 183.349 267.366 183.387 267.232 183.494C267.109 183.593 267.008 183.771 266.998 183.93C266.988 184.089 267.025 184.262 267.136 184.388C267.248 184.515 267.4 184.614 267.571 184.622Z" fill="#6B93F6"/>
<path d="M264.652 185.153L266.829 186.714C267.714 187.348 268.629 188.223 269.764 188.313C272.327 188.517 274.058 185.64 272.948 183.423L272.768 184.173C273.337 183.749 273.841 183.168 274.195 182.552C274.886 181.335 274.838 180.026 274.038 178.874L274.058 179.643C275.15 178.172 275.334 176.024 273.712 174.862C272.09 173.699 270.167 174.615 269.21 176.167L269.784 175.902C267.957 175.655 266.212 176.714 265.609 178.453L266.574 178.156C264.902 177.238 263.258 178.517 262.51 180.016C261.44 182.153 262.994 183.939 264.66 185.149C265.32 185.627 266.059 184.595 265.4 184.117C264.283 183.307 262.935 182.153 263.611 180.638C263.888 180.02 264.39 179.313 265.086 179.145C265.267 179.103 265.6 179.124 265.651 179.139C265.758 179.164 266.141 179.355 265.841 179.187C266.187 179.377 266.655 179.318 266.806 178.89C267.24 177.634 268.447 177 269.673 177.165C269.88 177.195 270.137 177.082 270.247 176.9C270.804 175.993 271.905 175.117 272.981 175.889C274.058 176.661 273.648 178.079 273.038 178.901C272.862 179.14 272.899 179.442 273.058 179.67C273.949 180.955 273.027 182.407 271.98 183.187C271.767 183.346 271.676 183.698 271.8 183.938C272.215 184.771 272.129 185.709 271.463 186.398C270.925 186.954 270.073 187.244 269.347 186.91C268.996 186.748 268.678 186.467 268.366 186.244L265.407 184.122C264.745 183.648 264.005 184.679 264.667 185.154L264.652 185.153Z" fill="#6B93F6"/>
</g>
<g filter="url(#filter2_d_1486_86684)">
<path d="M414.647 82.851L222.358 56.4462C217.477 55.776 212.977 59.1894 212.307 64.0703L196.469 179.409C195.799 184.29 199.212 188.79 204.093 189.46L396.382 215.865C401.263 216.535 405.763 213.122 406.433 208.241L422.271 92.9022C422.942 88.0213 419.528 83.5213 414.647 82.851Z" fill="white"/>
<path d="M410.368 88.0821L225.582 62.7076C221.676 62.1713 218.074 64.903 217.538 68.8091L202.73 176.645C202.194 180.551 204.926 184.152 208.832 184.688L393.618 210.063C397.524 210.599 401.125 207.868 401.662 203.962L416.469 96.126C417.006 92.2199 414.274 88.6185 410.368 88.0821Z" fill="#77EDA5"/>
<path d="M205.46 136.003C205.46 136.003 235.411 158.295 228.099 188.447" stroke="white" stroke-width="2.60885" stroke-linecap="round" stroke-linejoin="round" stroke-dasharray="5.22 5.22"/>
<path d="M415.697 92.6535C415.697 92.6535 379.766 102.805 360.324 78.6318" stroke="white" stroke-width="2.60885" stroke-linecap="round" stroke-linejoin="round" stroke-dasharray="5.22 5.22"/>
<path d="M394.588 112.218C394.23 114.596 392.457 116.59 390.075 117.089C387.694 117.588 385.19 116.526 383.913 114.438C382.637 112.35 382.844 109.684 384.34 107.812C385.836 105.939 388.408 105.168 390.68 105.931C393.322 106.821 394.929 109.463 394.589 112.212C394.478 113.118 395.881 113.311 395.993 112.405C396.357 109.43 394.907 106.524 392.271 105.082C389.634 103.639 386.196 104.063 383.988 106.117C381.781 108.172 381.04 111.438 382.227 114.225C383.413 117.013 386.234 118.734 389.231 118.606C392.67 118.462 395.488 115.754 395.994 112.392C396.131 111.49 394.728 111.297 394.591 112.2L394.588 112.218Z" fill="#5EC988"/>
<path d="M394.764 103.213L386.916 109.875L382.85 120.374L391.309 113.058L394.764 103.213Z" fill="#77EDA5"/>
<path d="M394.333 102.652C391.923 104.697 389.513 106.743 387.098 108.788C386.817 109.029 386.44 109.27 386.262 109.595C386.084 109.92 385.988 110.294 385.86 110.626L383.782 115.996C383.252 117.359 382.728 118.724 382.197 120.087C381.959 120.709 382.714 121.416 383.276 120.928C385.706 118.828 388.137 116.721 390.567 114.621C391.201 114.073 391.841 113.671 392.116 112.87L393.891 107.814C394.4 106.372 394.903 104.929 395.414 103.48C395.715 102.626 394.414 102.059 394.112 102.92C393.077 105.873 392.035 108.831 391.001 111.783C390.918 112.013 390.823 112.248 390.752 112.486C390.739 112.535 390.674 112.634 390.679 112.692C390.691 112.929 390.278 112.326 390.873 112.484C390.756 112.455 390.08 113.169 389.993 113.246L385.652 117.003C384.577 117.935 383.496 118.867 382.421 119.8L383.5 120.641C384.634 117.708 385.774 114.77 386.908 111.837C387.095 111.349 387.406 110.8 387.508 110.287C387.571 109.965 387.558 110.383 387.365 110.407C387.461 110.395 387.674 110.144 387.739 110.083L391.797 106.637C392.926 105.68 394.055 104.717 395.185 103.76C395.876 103.169 395.027 102.042 394.329 102.632L394.333 102.652Z" fill="#5EC988"/>
<path d="M386.674 110.572C387.842 111.419 389.009 112.265 390.183 113.113L390.691 113.481C390.992 113.701 391.458 113.682 391.686 113.364C391.905 113.063 391.886 112.603 391.568 112.369C390.401 111.522 389.234 110.676 388.06 109.828L387.552 109.46C387.251 109.241 386.785 109.259 386.557 109.578C386.338 109.878 386.357 110.338 386.674 110.572Z" fill="#5EC988"/>
<path d="M231.275 114.651C232.525 116.697 232.36 119.381 230.876 121.262C229.391 123.142 226.796 123.942 224.52 123.166C222.244 122.389 220.565 120.176 220.542 117.707C220.519 115.239 222.056 113.111 224.29 112.255C226.892 111.259 229.793 112.344 231.275 114.651C231.767 115.417 232.895 114.562 232.403 113.795C230.812 111.314 227.741 109.984 224.845 110.622C221.948 111.26 219.568 113.742 219.19 116.772C218.812 119.802 220.411 122.735 223.102 124.102C225.792 125.469 229.149 124.952 231.309 122.872C233.792 120.48 234.182 116.708 232.403 113.795C231.925 113.018 230.803 113.88 231.275 114.651Z" fill="#5EC988"/>
<path d="M225.054 107.2L223.299 117.343L226.912 128.006L228.714 116.968L225.054 107.2Z" fill="#77EDA5"/>
<path d="M224.349 107.104C223.813 110.22 223.271 113.336 222.735 116.452C222.668 116.843 222.553 117.221 222.645 117.615C222.73 117.97 222.885 118.322 223.002 118.668L224.852 124.127C225.322 125.513 225.787 126.898 226.257 128.285C226.492 128.978 227.506 128.768 227.616 128.109C228.134 124.939 228.652 121.764 229.17 118.594C229.307 117.736 229.513 117.071 229.2 116.247L227.322 111.229C226.788 109.796 226.248 108.362 225.714 106.929C225.392 106.078 224.085 106.616 224.406 107.474C225.503 110.408 226.6 113.342 227.704 116.27C227.792 116.505 227.868 116.737 227.964 116.967C228.174 117.472 227.892 116.931 228.02 116.879C227.92 116.916 227.851 117.93 227.831 118.029L226.906 123.697C226.675 125.101 226.45 126.507 226.22 127.911L227.578 127.735C226.57 124.757 225.563 121.771 224.549 118.792C224.378 118.279 224.247 117.702 224.015 117.219C223.862 116.899 224.114 117.328 224.014 117.409C224.079 117.355 224.084 116.993 224.1 116.919L225.005 111.674C225.256 110.215 225.508 108.75 225.766 107.292C225.921 106.392 224.518 106.199 224.362 107.099L224.349 107.104Z" fill="#5EC988"/>
<path d="M223.637 118.025C225.081 117.924 226.524 117.824 227.962 117.722C228.167 117.706 228.372 117.696 228.578 117.68C228.962 117.656 229.234 117.249 229.188 116.887C229.136 116.486 228.774 116.252 228.395 116.276C226.952 116.376 225.508 116.477 224.071 116.578C223.865 116.594 223.661 116.604 223.455 116.621C223.071 116.644 222.799 117.052 222.844 117.414C222.897 117.815 223.259 118.049 223.637 118.025Z" fill="#5EC988"/>
<path d="M393.532 190.068C395.25 191.715 395.788 194.324 394.851 196.515C393.915 198.706 391.561 200.206 389.133 200.025C386.705 199.844 384.594 198.144 383.946 195.786C383.297 193.429 384.223 190.944 386.162 189.545C388.426 187.912 391.505 188.214 393.531 190.074C394.202 190.694 395.074 189.574 394.408 188.962C392.229 186.966 388.911 186.466 386.269 187.844C383.627 189.223 381.999 192.189 382.393 195.198C382.787 198.207 385.094 200.659 388.042 201.305C390.991 201.952 394.079 200.609 395.641 198.078C397.464 195.12 396.901 191.35 394.414 188.963C393.757 188.332 392.886 189.452 393.537 190.075L393.532 190.068Z" fill="#5EC988"/>
<path d="M385.611 184.449L386.509 194.702L392.731 204.09L391.648 192.961L385.611 184.449Z" fill="#77EDA5"/>
<path d="M384.911 184.544C385.19 187.696 385.463 190.847 385.742 193.993C385.778 194.386 385.762 194.777 385.954 195.134C386.126 195.457 386.365 195.756 386.565 196.057L389.743 200.859C390.549 202.075 391.359 203.298 392.165 204.515C392.575 205.137 393.499 204.654 393.43 203.996C393.12 200.795 392.809 197.601 392.499 194.4C392.414 193.537 392.439 192.847 391.933 192.13L388.835 187.758C387.952 186.512 387.063 185.259 386.179 184.013C385.652 183.267 384.523 184.129 385.051 184.868C386.861 187.424 388.677 189.98 390.487 192.529C390.631 192.733 390.767 192.942 390.919 193.134C391.253 193.568 390.845 193.118 390.95 193.043C390.873 193.096 391.051 194.112 391.064 194.203L391.62 199.916C391.756 201.332 391.899 202.75 392.034 204.166L393.3 203.648C391.563 201.026 389.827 198.399 388.084 195.776C387.783 195.328 387.512 194.802 387.168 194.392C386.944 194.126 387.291 194.473 387.22 194.571C387.267 194.507 387.183 194.146 387.18 194.076C387.022 192.307 386.871 190.539 386.714 188.77C386.587 187.291 386.452 185.817 386.325 184.338C386.246 183.431 384.841 183.62 384.92 184.526L384.911 184.544Z" fill="#5EC988"/>
<path d="M387.014 195.28C388.381 194.813 389.754 194.348 391.121 193.881L391.701 193.681C392.054 193.564 392.24 193.088 392.083 192.755C391.91 192.388 391.53 192.24 391.156 192.373C389.79 192.84 388.417 193.306 387.05 193.773L386.469 193.973C386.117 194.089 385.93 194.566 386.088 194.899C386.26 195.266 386.64 195.413 387.014 195.28Z" fill="#5EC988"/>
<path d="M290.406 94.673C266.359 103.134 245.304 122.856 250.565 150.111C256.796 182.356 290.891 189.292 315.54 180.501C337.18 172.789 352.173 154.386 358.176 140.823C364.962 125.488 365.219 107.37 351.921 96.3384C335.747 82.9148 308.655 88.2463 290.406 94.673Z" fill="#5EC988"/>
<path d="M301.969 162.341L316.821 163.479L340.168 157.003L361.057 157.767L358.677 118.296L337.288 118.29L317.016 123.634L299.039 121.166L288.568 126.46" fill="#77EDA5"/>
<path d="M301.894 162.886C306.261 163.22 310.627 163.555 314.994 163.889C315.562 163.93 316.164 164.037 316.734 164.023C317.069 164.013 317.407 163.887 317.722 163.795L323.438 162.21L338.585 158.007C339.13 157.86 339.696 157.74 340.227 157.554C340.539 157.443 340.171 157.608 340.124 157.546C340.16 157.594 340.516 157.563 340.578 157.565C342.561 157.64 344.551 157.71 346.534 157.784C351.255 157.958 355.969 158.148 360.693 158.303C360.792 158.304 360.889 158.312 360.988 158.313C361.363 158.327 361.631 158.08 361.61 157.695C361.339 153.239 361.075 148.784 360.804 144.328C360.381 137.254 359.951 130.184 359.528 123.109C359.43 121.479 359.333 119.855 359.236 118.225C359.218 117.902 358.893 117.752 358.616 117.751C353.383 117.748 348.144 117.745 342.911 117.742L338.9 117.741C338.363 117.741 337.768 117.671 337.234 117.74C336.769 117.8 336.287 117.986 335.838 118.11L332.06 119.103C328.769 119.972 325.479 120.834 322.187 121.703L318.429 122.693L317.321 122.985C317.213 123.013 316.777 123.083 317.092 123.083C316.444 123.081 315.753 122.899 315.111 122.811L310.787 122.217C307.595 121.779 304.403 121.341 301.211 120.902C300.538 120.81 299.823 120.625 299.145 120.619C298.467 120.612 297.71 121.224 297.153 121.505C294.428 122.884 291.702 124.262 288.977 125.64L288.367 125.945C287.737 126.26 288.152 127.286 288.789 126.96C291.044 125.819 293.305 124.68 295.561 123.533L298.949 121.82C298.983 121.8 299.229 121.716 299.235 121.674C299.235 121.674 298.885 121.614 299.045 121.703C299.241 121.811 299.639 121.785 299.857 121.815L316.544 124.106C316.901 124.155 317.137 124.145 317.489 124.057L320.319 123.31C323.527 122.467 326.728 121.623 329.936 120.78L337.062 118.901C337.357 118.825 337.58 118.818 337.887 118.823L340.88 118.827C346.705 118.831 352.53 118.835 358.356 118.832L358.751 118.831L358.131 118.357C358.402 122.813 358.666 127.268 358.937 131.723C359.36 138.798 359.79 145.868 360.214 152.943C360.311 154.573 360.408 156.197 360.506 157.827L361.127 157.209C357.013 157.057 352.906 156.907 348.792 156.755C346.409 156.669 344.021 156.582 341.638 156.495C340.809 156.468 340.141 156.431 339.346 156.649C334.713 157.939 330.075 159.221 325.443 160.51L318.495 162.438C317.936 162.596 317.363 162.727 316.814 162.905C316.439 163.026 316.839 162.853 316.886 162.921C316.85 162.866 316.409 162.886 316.348 162.878C311.713 162.525 307.084 162.167 302.449 161.814L302.046 161.784C301.343 161.731 301.187 162.82 301.896 162.874L301.894 162.886Z" fill="#000091"/>
<path d="M331.842 119.709C332.769 121.181 330.187 123.042 330.213 124.78C330.233 125.986 331.557 127.223 330.838 128.186C330.611 128.494 330.226 128.645 329.917 128.874C327.844 130.397 329.855 133.95 328.597 136.191C327.495 138.15 324.681 138.016 322.47 137.62C320.152 137.203 317.832 136.792 315.514 136.375C313.315 135.981 310.911 135.471 309.535 133.715C309.257 133.356 309.028 132.954 308.687 132.654C307.046 131.17 304.124 132.805 302.326 131.522C300.915 130.513 301.079 128.425 301.253 126.703C301.434 124.981 301.152 121.956 299.511 121.416L317.016 123.634L331.842 119.709Z" fill="white"/>
<path d="M331.332 119.916C331.732 120.644 331.161 121.43 330.78 122.05C330.359 122.733 329.894 123.422 329.724 124.213C329.553 125.004 329.85 125.767 330.174 126.509C330.328 126.869 330.613 127.353 330.448 127.744C330.28 128.165 329.581 128.396 329.259 128.722C326.881 131.117 330.531 136.487 325.974 137.231C323.897 137.569 321.677 136.925 319.648 136.56C317.305 136.14 314.787 135.917 312.542 135.097C311.561 134.734 310.632 134.218 309.969 133.386C309.379 132.651 308.925 131.953 307.987 131.645C306.316 131.095 304.047 132.159 302.584 131.033C300.995 129.802 301.893 127.038 301.842 125.34C301.794 123.759 301.418 121.548 299.729 120.909L299.436 121.961C304.222 122.569 309.014 123.177 313.8 123.779C314.977 123.928 316.379 124.368 317.551 124.053C320.062 123.386 322.578 122.726 325.089 122.058C327.362 121.457 329.635 120.856 331.915 120.256C332.587 120.077 332.454 118.984 331.769 119.162C327.177 120.377 322.58 121.59 317.987 122.811C317.693 122.888 317.378 122.937 317.097 123.047C316.817 123.156 317.201 123.098 316.982 123.074C316.253 122.993 315.52 122.892 314.792 122.798L305.949 121.676C303.826 121.41 301.703 121.137 299.586 120.871C298.986 120.794 298.702 121.693 299.293 121.923C300.847 122.519 300.83 125.201 300.718 126.555C300.569 128.269 300.302 130.398 301.689 131.712C303.239 133.184 305.368 132.285 307.226 132.596C308.385 132.786 308.741 133.742 309.488 134.505C310.235 135.268 311.206 135.796 312.211 136.156C314.531 136.974 317.081 137.232 319.496 137.663C321.611 138.039 323.863 138.669 326.024 138.349C327.787 138.091 329.179 137.03 329.508 135.223C329.673 134.333 329.579 133.4 329.517 132.503C329.455 131.606 329.323 130.588 329.801 129.808C330.356 128.91 331.573 128.811 331.591 127.555C331.612 126.509 330.673 125.658 330.766 124.621C330.92 122.871 333.387 121.402 332.345 119.506C332.009 118.893 330.984 119.307 331.33 119.929L331.332 119.916Z" fill="#000091"/>
<path d="M327.879 160.833C327.854 158.99 328.392 155.392 330.131 154.773C331.869 154.154 333.765 154.235 335.612 154.18C336.089 154.166 336.633 154.111 336.915 153.724C337.226 153.304 337.059 152.719 337.026 152.196C336.919 150.725 337.913 149.424 338.902 148.331C340.116 146.992 342.66 147.7 344.473 147.714C345.2 147.721 345.909 147.954 346.599 148.185C349.218 149.063 351.838 149.941 354.457 150.819C355.336 151.113 356.349 151.56 356.508 152.471C356.688 153.495 355.763 154.88 356.666 155.405C356.912 155.55 357.221 155.543 357.506 155.533C358.574 155.488 359.642 155.444 360.703 155.398L361.058 157.755L340.175 156.992L327.887 160.821L327.879 160.833Z" fill="white"/>
<path d="M328.426 160.759C328.418 159.604 328.578 158.392 328.933 157.293C329.103 156.773 329.313 156.234 329.661 155.807C330.108 155.251 330.793 155.117 331.471 154.988C332.25 154.841 333.04 154.796 333.828 154.768C334.615 154.74 335.511 154.826 336.304 154.664C336.844 154.553 337.324 154.248 337.532 153.722C337.854 152.908 337.428 152.01 337.686 151.163C338.115 149.747 339.304 148.232 340.836 148.09C341.498 148.027 342.168 148.094 342.826 148.154C343.521 148.219 344.245 148.207 344.934 148.308C345.813 148.428 346.664 148.792 347.501 149.074C348.439 149.388 349.371 149.701 350.31 150.015C351.153 150.297 351.991 150.579 352.835 150.861C353.607 151.122 354.463 151.319 355.185 151.721C356.808 152.617 355.161 154.143 355.911 155.418C356.267 156.023 356.929 156.101 357.573 156.085C358.638 156.058 359.708 155.995 360.769 155.95L360.149 155.476C360.27 156.264 360.384 157.045 360.505 157.833L361.126 157.215C356.264 157.034 351.394 156.859 346.531 156.679C344.487 156.602 342.429 156.443 340.385 156.452C339.921 156.456 339.503 156.627 339.058 156.764L335.248 157.95C332.721 158.738 330.194 159.527 327.666 160.315C326.989 160.525 327.412 161.539 328.088 161.33C330.209 160.671 332.331 160.006 334.452 159.346L338.642 158.04L339.99 157.62C340.081 157.589 340.213 157.57 340.299 157.527C340.48 157.422 340.137 157.584 340.112 157.538C340.203 157.686 341.617 157.59 341.782 157.601L345.417 157.736C348.598 157.852 351.785 157.968 354.965 158.084C356.967 158.155 358.969 158.233 360.977 158.305C361.321 158.315 361.657 158.071 361.598 157.687C361.478 156.899 361.363 156.118 361.243 155.33C361.194 155.015 360.928 154.842 360.623 154.856C359.655 154.896 358.685 154.948 357.713 154.975C357.291 154.991 356.816 155.08 356.809 154.548C356.802 154.189 356.941 153.807 357.001 153.458C357.235 152.114 356.641 151.186 355.424 150.612C353.691 149.794 351.713 149.325 349.889 148.717C348.178 148.142 346.349 147.262 344.536 147.167C343.205 147.101 341.823 146.831 340.496 147.013C339.006 147.21 338.09 148.219 337.312 149.439C336.895 150.092 336.554 150.823 336.478 151.602C336.441 152.004 336.505 152.396 336.53 152.794C336.572 153.479 336.118 153.595 335.533 153.626C333.725 153.717 331.914 153.604 330.164 154.172C327.658 154.982 327.315 158.693 327.327 160.898C327.329 161.602 328.423 161.456 328.421 160.752L328.426 160.759Z" fill="#000091"/>
<path d="M359.722 141.601C356.715 140.54 352.893 140.323 349.985 141.64C348.616 142.26 347.155 143.146 345.723 142.702C344.385 142.29 343.619 140.858 342.374 140.218C340.443 139.225 337.981 140.392 335.962 139.584C335.173 139.266 334.469 138.552 334.474 137.702C334.476 137.375 334.587 137.063 334.708 136.765C335.823 134.128 338.379 132.455 340.57 130.615C344.637 127.199 347.285 122.607 350.345 118.257L358.677 118.29L359.723 141.594L359.722 141.601Z" fill="white"/>
<path d="M359.94 141.094C356.923 140.056 353.476 139.768 350.43 140.868C348.84 141.439 346.977 142.961 345.284 141.895C344.035 141.107 343.299 139.815 341.786 139.422C340.153 138.994 338.477 139.56 336.839 139.267C336.092 139.133 335.146 138.701 335.029 137.846C334.911 136.99 335.73 135.93 336.217 135.3C337.222 134.006 338.515 132.993 339.784 131.976C341.157 130.875 342.459 129.708 343.638 128.401C346.346 125.397 348.46 121.917 350.771 118.612L350.261 118.82C353.037 118.831 355.818 118.842 358.594 118.853L358.122 118.381C358.426 125.199 358.736 132.017 359.041 138.835C359.083 139.785 359.125 140.735 359.168 141.685C359.2 142.393 360.288 142.246 360.261 141.539C359.957 134.721 359.647 127.903 359.343 121.085C359.3 120.135 359.258 119.185 359.216 118.235C359.208 118.024 358.966 117.762 358.744 117.763C356.437 117.755 354.137 117.741 351.83 117.733C351.404 117.73 350.986 117.722 350.56 117.725C349.805 117.739 349.542 118.443 349.148 119.019C347.658 121.196 346.224 123.412 344.61 125.505C342.996 127.597 341.181 129.44 339.114 131.1C337.29 132.565 335.379 134.08 334.343 136.233C333.884 137.195 333.721 138.203 334.406 139.099C335.091 139.996 336.119 140.328 337.157 140.415C338.413 140.52 339.68 140.237 340.932 140.378C342.184 140.519 342.986 141.376 343.909 142.206C344.831 143.036 345.942 143.535 347.226 143.304C348.511 143.073 349.693 142.279 350.951 141.84C353.679 140.894 356.806 141.176 359.493 142.1C360.159 142.327 360.6 141.32 359.929 141.086L359.94 141.094Z" fill="#000091"/>
<path d="M316.47 123.7C316.72 128.129 316.97 132.557 317.219 136.985C317.614 144.043 318.015 151.097 318.41 158.155C318.503 159.772 318.595 161.39 318.681 163.012C318.72 163.721 319.814 163.569 319.775 162.866C319.525 158.438 319.275 154.01 319.026 149.582C318.631 142.523 318.23 135.47 317.835 128.411C317.742 126.794 317.65 125.177 317.564 123.554C317.526 122.846 316.431 122.998 316.47 123.7Z" fill="#000091"/>
<path d="M336.741 118.364C337.066 122.74 337.391 127.117 337.721 131.495C338.234 138.415 338.752 145.336 339.263 152.263C339.383 153.865 339.501 155.474 339.621 157.076C339.672 157.78 340.766 157.634 340.715 156.93C340.39 152.553 340.065 148.176 339.734 143.799C339.222 136.878 338.704 129.957 338.192 123.031C338.073 121.429 337.954 119.82 337.835 118.218C337.784 117.513 336.69 117.659 336.741 118.364Z" fill="#000091"/>
<path d="M286.92 110.059C286.719 109.766 286.527 109.462 286.355 109.142C285.629 107.821 284.65 106.816 283.8 105.589C283.167 104.675 282.403 103.897 281.73 103.003C280.305 101.11 277.223 100.143 274.895 101.095C273.841 101.537 272.655 104.688 272.129 105.603C270.18 108.964 268.276 112.356 266.373 115.742C264.273 119.489 262.177 123.244 260.099 127.007C258.745 129.456 256.615 132.205 255.771 134.885C255.244 136.572 255.493 137.316 257.481 138.298C260.572 139.833 263.735 141.379 267.152 141.842C270.643 142.309 272.51 140.664 275.596 139.99C276.83 139.721 277.562 140.278 278.788 140.385C280.5 140.54 281.578 139.929 283.005 139.063C285.649 137.47 287.117 135.814 288.36 132.918C289.233 130.877 289.974 128.714 290.588 126.577C291.519 123.305 291.505 118.6 290.355 115.289C289.633 113.221 288.108 111.79 286.932 110.061L286.92 110.059Z" fill="#5EC988"/>
<path d="M273.074 103.888C272.923 104.176 272.784 104.471 272.655 104.781C272.534 105.073 272.405 105.345 272.243 105.619C272.082 105.893 271.928 106.162 271.778 106.45C271.619 106.749 271.444 107.039 271.291 107.339C271.156 107.605 270.928 107.919 270.863 108.212C271.388 107.939 271.815 107.529 272.323 107.24C273.227 106.723 273.696 108.163 274.084 108.71C274.626 109.482 274.861 110.422 275.362 111.219C275.55 111.516 275.729 112.102 276.142 112.103C276.524 112.106 276.9 111.572 277.017 111.255C277.077 111.09 277.082 110.961 277.201 110.817C277.357 110.622 277.557 110.471 277.708 110.269C277.882 110.034 278.054 109.817 278.188 109.558C278.307 109.327 278.438 109.086 278.58 108.865C278.721 108.644 278.892 108.482 279.042 108.286C279.265 108.009 279.45 107.472 279.858 107.423C280.322 107.37 280.808 107.647 281.198 107.867C281.672 108.142 282.098 108.502 282.604 108.726C282.965 108.881 283.533 109.15 283.904 108.923C284.254 108.712 284.347 108.348 284.535 108.01C284.698 107.724 285.054 107.421 284.907 107.055C284.766 106.69 284.315 106.332 284.088 106.005C283.385 105.014 282.508 104.214 281.734 103.287C281.32 102.798 280.97 102.244 280.57 101.745C279.673 100.634 278.767 99.4549 277.722 98.4844C277.141 97.948 276.968 97.9057 275.836 99.5028C275.1 100.543 274.414 101.628 273.747 102.715C273.509 103.102 273.283 103.484 273.08 103.882L273.074 103.888Z" fill="white"/>
<path d="M287.355 109.725C284.934 106.547 282.562 103.327 279.994 100.272C279.395 99.5599 278.791 98.8352 278.15 98.1548C277.719 97.7006 277.139 97.3371 276.532 97.7165C276.093 97.9895 275.794 98.5903 275.525 99.0224C273.824 101.708 272.257 104.486 270.675 107.243C266.294 114.88 262.01 122.573 257.731 130.274C256.689 132.155 255.641 134.035 254.605 135.917C254.482 136.141 254.604 136.417 254.769 136.569C255.981 137.673 257.418 138.574 258.838 139.38C262.052 141.191 265.624 142.367 269.298 142.711C269.998 142.776 270.154 141.687 269.447 141.621C264.475 141.16 259.177 139.112 255.443 135.705L255.606 136.357C258.26 131.55 260.93 126.751 263.613 121.954C267.53 114.957 271.397 107.916 275.549 101.05C275.86 100.537 276.178 100.019 276.501 99.5143C276.617 99.339 276.729 99.1568 276.851 98.9884C277.074 98.6673 277.136 98.7499 277.445 99.0206C277.83 99.3635 278.161 99.8286 278.496 100.22C281.305 103.488 283.857 106.973 286.472 110.399C286.9 110.964 287.781 110.302 287.347 109.736L287.355 109.725Z" fill="#000091"/>
<path d="M284.362 107.203C284.185 107.506 284.029 108.145 283.764 108.368C283.535 108.558 283.27 108.324 283.018 108.185C282.308 107.785 281.602 107.355 280.848 107.048C280.141 106.759 279.559 106.723 278.996 107.318C278.513 107.826 278.195 108.522 277.813 109.106C277.352 109.808 276.874 110.507 276.324 111.141C276.236 111.24 276.105 111.34 276.034 111.453C276.019 111.476 275.905 111.54 275.902 111.559C276.034 111.546 276.167 111.564 276.294 111.625C276.316 111.603 276.303 111.694 276.244 111.544C276.213 111.453 276.122 111.354 276.072 111.267C275.348 110.026 274.797 108.685 273.979 107.499C273.676 107.056 273.313 106.593 272.732 106.6C271.756 106.608 270.96 107.461 270.293 108.054C269.766 108.519 270.429 109.4 270.956 108.929C271.336 108.593 271.715 108.213 272.147 107.939C272.283 107.852 272.419 107.803 272.564 107.737C272.662 107.695 272.847 107.745 272.69 107.674C273.108 107.867 273.443 108.703 273.651 109.077C274.033 109.759 274.387 110.462 274.754 111.154C274.981 111.574 275.197 112.159 275.58 112.471C276.572 113.286 277.906 110.902 278.322 110.299C278.738 109.695 279.068 109.13 279.44 108.539C279.637 108.227 279.796 107.921 280.159 107.971C280.559 108.026 281.027 108.35 281.377 108.54C282.044 108.897 282.925 109.629 283.721 109.584C284.691 109.526 284.958 108.346 285.362 107.655C285.717 107.044 284.702 106.614 284.348 107.22L284.362 107.203Z" fill="#000091"/>
<path d="M331.027 160.289C331.027 160.289 304.163 101.739 299.831 95.67C299.577 95.3142 299.249 94.9174 298.809 94.9311C298.443 94.9426 298.15 95.2355 297.909 95.5109C292.244 101.886 257.045 150.865 257.045 150.865C257.045 150.865 286.695 172.228 331.021 160.289" fill="#77EDA5"/>
<path d="M291.486 103.319C291.199 103.748 290.922 104.191 290.66 104.655C290.415 105.097 290.156 105.499 289.854 105.902C289.551 106.305 289.25 106.702 288.958 107.125C288.65 107.57 288.315 107.987 288.018 108.44C287.754 108.835 287.333 109.29 287.179 109.738C288.058 109.408 288.815 108.839 289.667 108.475C291.193 107.833 291.666 110.187 292.166 111.126C292.874 112.445 293.072 113.972 293.719 115.326C293.958 115.828 294.135 116.79 294.784 116.873C295.389 116.956 296.083 116.175 296.328 115.696C296.454 115.448 296.489 115.243 296.702 115.038C296.987 114.762 297.33 114.556 297.603 114.273C297.927 113.935 298.235 113.626 298.498 113.236C298.731 112.891 298.989 112.538 299.249 112.216C299.51 111.894 299.812 111.67 300.09 111.393C300.497 110.993 300.885 110.188 301.54 110.185C302.305 110.186 302.435 110.679 302.898 111.174C303.279 111.584 303.59 112.065 303.89 112.532C304.139 112.918 304.387 113.316 304.631 113.695C304.85 114.034 305.022 114.354 305.429 114.49C305.895 114.647 306.268 114.537 306.692 114.324C307.229 114.058 307.744 113.987 308.079 113.441C308.278 113.11 308.594 112.388 308.534 112.016C308.497 111.789 308.334 111.538 308.226 111.338C307.976 110.865 307.673 110.46 307.362 110.028C306.726 109.139 306.43 108.191 306.031 107.186C305.628 106.168 305.199 105.152 304.772 104.131C304.284 102.965 303.514 101.922 303.003 100.747C302.581 99.7695 302.164 98.7679 301.516 97.9137C301.229 97.5288 300.787 97.2398 300.533 96.8469C300.278 96.454 300.144 96.0406 299.831 95.6644C299.018 94.7074 298.748 94.6085 296.667 96.9146C295.305 98.4247 294.026 100.008 292.759 101.599C292.304 102.166 291.881 102.731 291.486 103.319Z" fill="white"/>
<path d="M331.531 160.075C330.662 158.178 329.788 156.281 328.912 154.39C326.766 149.744 324.614 145.104 322.449 140.469C319.731 134.646 316.999 128.834 314.241 123.031C311.655 117.597 309.055 112.173 306.383 106.783C304.647 103.286 302.943 99.7447 300.942 96.3843C300.622 95.8405 300.281 95.2198 299.809 94.7969C298.671 93.7768 297.685 94.8941 296.954 95.7687C295.913 97.0082 294.929 98.2863 293.939 99.5696C290.672 103.811 287.482 108.119 284.305 112.428C280.408 117.706 276.539 123.007 272.675 128.314C269.245 133.027 265.826 137.747 262.412 142.475C260.561 145.035 258.716 147.595 256.87 150.162C256.786 150.28 256.702 150.398 256.618 150.516C256.442 150.757 256.47 151.095 256.709 151.288C257.71 152.086 258.811 152.786 259.904 153.461C262.856 155.285 265.953 156.865 269.141 158.228C279.978 162.857 291.79 165.01 303.557 164.935C312.932 164.877 322.236 163.365 331.235 160.793C331.916 160.597 331.488 159.581 330.813 159.779C316.316 163.922 300.963 165.128 286.114 162.262C277.444 160.59 268.897 157.584 261.3 153.041C259.96 152.24 258.612 151.407 257.388 150.431L257.48 151.202C258.746 149.445 260.011 147.687 261.277 145.929C264.349 141.667 267.434 137.407 270.516 133.158C274.306 127.939 278.101 122.728 281.919 117.531C285.373 112.828 288.838 108.132 292.353 103.474C293.614 101.802 294.885 100.138 296.179 98.4888C296.635 97.9096 297.097 97.3312 297.57 96.7606C297.748 96.5443 297.926 96.3281 298.109 96.1187C298.182 96.0362 298.249 95.9528 298.322 95.8702C298.794 95.355 299.141 95.6557 299.461 96.1131C301.28 98.7326 302.643 101.795 304.082 104.659C306.633 109.724 309.092 114.826 311.537 119.938C314.298 125.717 317.034 131.505 319.748 137.308C322.072 142.274 324.388 147.245 326.691 152.227C327.914 154.87 329.131 157.511 330.348 160.153C330.406 160.272 330.457 160.39 330.515 160.509C330.81 161.148 331.83 160.733 331.53 160.087L331.531 160.075Z" fill="#000091"/>
<path d="M307.878 112.209C307.579 112.859 307.01 113.855 306.259 114.017C305.751 114.127 305.45 113.758 305.178 113.4C304.76 112.849 304.383 112.266 303.98 111.699C303.458 110.961 302.643 109.522 301.591 109.544C300.347 109.571 299.534 111.045 298.848 111.901C297.986 112.968 297.084 114.01 296.122 114.995C295.735 115.386 295.338 115.807 294.875 116.12C294.794 116.17 294.596 116.31 294.586 116.29C294.744 116.534 294.919 116.342 294.908 116.377C294.91 116.359 294.826 116.249 294.823 116.23C294.54 115.321 294.066 114.417 293.726 113.524C293.271 112.339 292.831 111.143 292.291 109.995C291.956 109.289 291.483 108.057 290.6 107.887C289.091 107.593 287.576 108.922 286.451 109.699C285.865 110.1 286.534 110.976 287.114 110.574C287.83 110.08 288.551 109.506 289.357 109.16C289.593 109.057 289.831 108.991 290.093 108.971C290.168 108.963 290.402 108.964 290.379 108.955C290.367 108.953 290.367 108.953 290.418 108.985C291.103 109.523 291.456 110.775 291.77 111.54C292.257 112.712 292.692 113.907 293.152 115.093C293.393 115.719 293.643 116.778 294.2 117.218C294.884 117.763 295.811 116.81 296.277 116.38C297.317 115.412 298.261 114.338 299.169 113.254C299.618 112.723 300.987 110.486 301.666 110.659C302.078 110.765 302.529 111.567 302.764 111.877C303.181 112.441 303.569 113.025 303.972 113.598C304.685 114.61 305.638 115.574 306.964 114.91C307.851 114.471 308.494 113.516 308.893 112.639C309.185 111.994 308.177 111.559 307.879 112.203L307.878 112.209Z" fill="#000091"/>
<path d="M235.353 83.61C235.973 83.6951 236.545 83.2615 236.63 82.6415C236.715 82.0215 236.281 81.4498 235.661 81.3647C235.041 81.2796 234.47 81.7132 234.384 82.3332C234.299 82.9532 234.733 83.5248 235.353 83.61Z" fill="#5EC988"/>
<path d="M238.874 144.399C239.494 144.485 240.065 144.051 240.15 143.431C240.236 142.811 239.802 142.239 239.182 142.154C238.562 142.069 237.99 142.503 237.905 143.123C237.82 143.743 238.254 144.314 238.874 144.399Z" fill="#5EC988"/>
<path d="M214.362 171.412C214.982 171.498 215.554 171.064 215.639 170.444C215.724 169.824 215.291 169.252 214.67 169.167C214.05 169.082 213.479 169.516 213.394 170.136C213.309 170.756 213.742 171.327 214.362 171.412Z" fill="#5EC988"/>
<path d="M362.674 198.26C363.294 198.345 363.866 197.912 363.951 197.292C364.036 196.672 363.603 196.1 362.982 196.015C362.362 195.93 361.791 196.364 361.706 196.984C361.621 197.604 362.054 198.175 362.674 198.26Z" fill="#5EC988"/>
<path d="M373.874 167.399C374.494 167.485 375.065 167.051 375.15 166.431C375.236 165.811 374.802 165.239 374.182 165.154C373.562 165.069 372.99 165.503 372.905 166.123C372.82 166.743 373.254 167.314 373.874 167.399Z" fill="#5EC988"/>
<path d="M399.966 130.857C400.586 130.942 401.158 130.509 401.243 129.889C401.328 129.269 400.894 128.697 400.274 128.612C399.654 128.527 399.083 128.96 398.997 129.58C398.912 130.201 399.346 130.772 399.966 130.857Z" fill="#5EC988"/>
<path d="M299.874 81.3994C300.494 81.4846 301.065 81.051 301.15 80.431C301.236 79.811 300.802 79.2393 300.182 79.1542C299.562 79.069 298.99 79.5026 298.905 80.1226C298.82 80.7427 299.254 81.3143 299.874 81.3994Z" fill="#5EC988"/>
</g>
<defs>
<filter id="filter0_d_1486_86684" x="0.749602" y="0.0976901" width="255.451" height="212.876" filterUnits="userSpaceOnUse" color-interpolation-filters="sRGB">
<feFlood flood-opacity="0" result="BackgroundImageFix"/>
<feColorMatrix in="SourceAlpha" type="matrix" values="0 0 0 0 0 0 0 0 0 0 0 0 0 0 0 0 0 0 127 0" result="hardAlpha"/>
<feOffset dy="4.34809"/>
<feGaussianBlur stdDeviation="3.47847"/>
<feComposite in2="hardAlpha" operator="out"/>
<feColorMatrix type="matrix" values="0 0 0 0 0 0 0 0 0 0 0 0 0 0 0 0 0 0 0.15 0"/>
<feBlend mode="normal" in2="BackgroundImageFix" result="effect1_dropShadow_1486_86684"/>
<feBlend mode="normal" in="SourceGraphic" in2="effect1_dropShadow_1486_86684" result="shape"/>
</filter>
<filter id="filter1_d_1486_86684" x="79.5289" y="64.5949" width="244.232" height="182.492" filterUnits="userSpaceOnUse" color-interpolation-filters="sRGB">
<feFlood flood-opacity="0" result="BackgroundImageFix"/>
<feColorMatrix in="SourceAlpha" type="matrix" values="0 0 0 0 0 0 0 0 0 0 0 0 0 0 0 0 0 0 127 0" result="hardAlpha"/>
<feOffset dy="4.34809"/>
<feGaussianBlur stdDeviation="3.47847"/>
<feComposite in2="hardAlpha" operator="out"/>
<feColorMatrix type="matrix" values="0 0 0 0 0 0 0 0 0 0 0 0 0 0 0 0 0 0 0.15 0"/>
<feBlend mode="normal" in2="BackgroundImageFix" result="effect1_dropShadow_1486_86684"/>
<feBlend mode="normal" in="SourceGraphic" in2="effect1_dropShadow_1486_86684" result="shape"/>
</filter>
<filter id="filter2_d_1486_86684" x="189.428" y="53.7534" width="239.884" height="173.5" filterUnits="userSpaceOnUse" color-interpolation-filters="sRGB">
<feFlood flood-opacity="0" result="BackgroundImageFix"/>
<feColorMatrix in="SourceAlpha" type="matrix" values="0 0 0 0 0 0 0 0 0 0 0 0 0 0 0 0 0 0 127 0" result="hardAlpha"/>
<feOffset dy="4.34809"/>
<feGaussianBlur stdDeviation="3.47847"/>
<feComposite in2="hardAlpha" operator="out"/>
<feColorMatrix type="matrix" values="0 0 0 0 0 0 0 0 0 0 0 0 0 0 0 0 0 0 0.15 0"/>
<feBlend mode="normal" in2="BackgroundImageFix" result="effect1_dropShadow_1486_86684"/>
<feBlend mode="normal" in="SourceGraphic" in2="effect1_dropShadow_1486_86684" result="shape"/>
</filter>
</defs>
</svg>
